%TF.GenerationSoftware,KiCad,Pcbnew,4.0.7*%
%TF.CreationDate,2018-09-12T19:18:30-05:00*%
%TF.ProjectId,ergo60tilt,6572676F363074696C742E6B69636164,rev?*%
%TF.FileFunction,Legend,Top*%
%FSLAX46Y46*%
G04 Gerber Fmt 4.6, Leading zero omitted, Abs format (unit mm)*
G04 Created by KiCad (PCBNEW 4.0.7) date 09/12/18 19:18:30*
%MOMM*%
%LPD*%
G01*
G04 APERTURE LIST*
%ADD10C,0.100000*%
%ADD11C,0.381000*%
%ADD12C,0.203200*%
G04 APERTURE END LIST*
D10*
D11*
X254349963Y-33594060D02*
X256067379Y-33133880D01*
X264899805Y-30767238D02*
X266617221Y-30307058D01*
X266617221Y-30307058D02*
X267077401Y-32024474D01*
X269444043Y-40856900D02*
X269904223Y-42574316D01*
X269904223Y-42574316D02*
X268186807Y-43034496D01*
X259354381Y-45401138D02*
X257636965Y-45861318D01*
X257636965Y-45861318D02*
X257176785Y-44143902D01*
X254810143Y-35311476D02*
X254349963Y-33594060D01*
X61986315Y-30337919D02*
X63703731Y-30798099D01*
X72536157Y-33164741D02*
X74253573Y-33624921D01*
X74253573Y-33624921D02*
X73793393Y-35342337D01*
X71426751Y-44174763D02*
X70966571Y-45892179D01*
X70966571Y-45892179D02*
X69249155Y-45431999D01*
X60416729Y-43065357D02*
X58699313Y-42605177D01*
X58699313Y-42605177D02*
X59159493Y-40887761D01*
X61526135Y-32055335D02*
X61986315Y-30337919D01*
X81619828Y-30668200D02*
X83337244Y-31128380D01*
X92169670Y-33495022D02*
X93887086Y-33955202D01*
X93887086Y-33955202D02*
X93426906Y-35672618D01*
X91060264Y-44505044D02*
X90600084Y-46222460D01*
X90600084Y-46222460D02*
X88882668Y-45762280D01*
X80050242Y-43395638D02*
X78332826Y-42935458D01*
X78332826Y-42935458D02*
X78793006Y-41218042D01*
X81159648Y-32385616D02*
X81619828Y-30668200D01*
X101253340Y-30998481D02*
X102970756Y-31458661D01*
X111803182Y-33825303D02*
X113520598Y-34285483D01*
X113520598Y-34285483D02*
X113060418Y-36002899D01*
X110693776Y-44835325D02*
X110233596Y-46552741D01*
X110233596Y-46552741D02*
X108516180Y-46092561D01*
X99683754Y-43725919D02*
X97966338Y-43265739D01*
X97966338Y-43265739D02*
X98426518Y-41548323D01*
X100793160Y-32715897D02*
X101253340Y-30998481D01*
X118421602Y-40529205D02*
X120139018Y-40989385D01*
X128971444Y-43356027D02*
X130688860Y-43816207D01*
X130688860Y-43816207D02*
X130228680Y-45533623D01*
X127862038Y-54366049D02*
X127401858Y-56083465D01*
X127401858Y-56083465D02*
X125684442Y-55623285D01*
X116852016Y-53256643D02*
X115134600Y-52796463D01*
X115134600Y-52796463D02*
X115594780Y-51079047D01*
X117961422Y-42246621D02*
X118421602Y-40529205D01*
X135589863Y-50059930D02*
X137307279Y-50520110D01*
X146139705Y-52886752D02*
X147857121Y-53346932D01*
X147857121Y-53346932D02*
X147396941Y-55064348D01*
X145030299Y-63896774D02*
X144570119Y-65614190D01*
X144570119Y-65614190D02*
X142852703Y-65154010D01*
X134020277Y-62787368D02*
X132302861Y-62327188D01*
X132302861Y-62327188D02*
X132763041Y-60609772D01*
X135129683Y-51777346D02*
X135589863Y-50059930D01*
X180746414Y-53316071D02*
X182463830Y-52855891D01*
X191296256Y-50489249D02*
X193013672Y-50029069D01*
X193013672Y-50029069D02*
X193473852Y-51746485D01*
X195840494Y-60578911D02*
X196300674Y-62296327D01*
X196300674Y-62296327D02*
X194583258Y-62756507D01*
X185750832Y-65123149D02*
X184033416Y-65583329D01*
X184033416Y-65583329D02*
X183573236Y-63865913D01*
X181206594Y-55033487D02*
X180746414Y-53316071D01*
X197914675Y-43785346D02*
X199632091Y-43325166D01*
X208464517Y-40958524D02*
X210181933Y-40498344D01*
X210181933Y-40498344D02*
X210642113Y-42215760D01*
X213008755Y-51048186D02*
X213468935Y-52765602D01*
X213468935Y-52765602D02*
X211751519Y-53225782D01*
X202919093Y-55592424D02*
X201201677Y-56052604D01*
X201201677Y-56052604D02*
X200741497Y-54335188D01*
X198374855Y-45502762D02*
X197914675Y-43785346D01*
X215082938Y-34254622D02*
X216800354Y-33794442D01*
X225632780Y-31427800D02*
X227350196Y-30967620D01*
X227350196Y-30967620D02*
X227810376Y-32685036D01*
X230177018Y-41517462D02*
X230637198Y-43234878D01*
X230637198Y-43234878D02*
X228919782Y-43695058D01*
X220087356Y-46061700D02*
X218369940Y-46521880D01*
X218369940Y-46521880D02*
X217909760Y-44804464D01*
X215543118Y-35972038D02*
X215082938Y-34254622D01*
X234716450Y-33924341D02*
X236433866Y-33464161D01*
X245266292Y-31097519D02*
X246983708Y-30637339D01*
X246983708Y-30637339D02*
X247443888Y-32354755D01*
X249810530Y-41187181D02*
X250270710Y-42904597D01*
X250270710Y-42904597D02*
X248553294Y-43364777D01*
X239720868Y-45731419D02*
X238003452Y-46191599D01*
X238003452Y-46191599D02*
X237543272Y-44474183D01*
X235176630Y-35641757D02*
X234716450Y-33924341D01*
X52125310Y-67139693D02*
X53842726Y-67599873D01*
X62675152Y-69966515D02*
X64392568Y-70426695D01*
X64392568Y-70426695D02*
X63932388Y-72144111D01*
X61565746Y-80976537D02*
X61105566Y-82693953D01*
X61105566Y-82693953D02*
X59388150Y-82233773D01*
X50555724Y-79867131D02*
X48838308Y-79406951D01*
X48838308Y-79406951D02*
X49298488Y-77689535D01*
X51665130Y-68857109D02*
X52125310Y-67139693D01*
X120798355Y-105262591D02*
X122515771Y-105722771D01*
X131348197Y-108089413D02*
X133065613Y-108549593D01*
X133065613Y-108549593D02*
X132605433Y-110267009D01*
X130238791Y-119099435D02*
X129778611Y-120816851D01*
X129778611Y-120816851D02*
X128061195Y-120356671D01*
X119228769Y-117990029D02*
X117511353Y-117529849D01*
X117511353Y-117529849D02*
X117971533Y-115812433D01*
X120338175Y-106980007D02*
X120798355Y-105262591D01*
X281951293Y-26198305D02*
X283668709Y-25738125D01*
X292501135Y-23371483D02*
X294218551Y-22911303D01*
X294218551Y-22911303D02*
X294678731Y-24628719D01*
X297045373Y-33461145D02*
X297505553Y-35178561D01*
X297505553Y-35178561D02*
X295788137Y-35638741D01*
X286955711Y-38005383D02*
X285238295Y-38465563D01*
X285238295Y-38465563D02*
X284778115Y-36748147D01*
X282411473Y-27915721D02*
X281951293Y-26198305D01*
X86461832Y-86201142D02*
X88179248Y-86661322D01*
X97011674Y-89027964D02*
X98729090Y-89488144D01*
X98729090Y-89488144D02*
X98268910Y-91205560D01*
X95902268Y-100037986D02*
X95442088Y-101755402D01*
X95442088Y-101755402D02*
X93724672Y-101295222D01*
X84892246Y-98928580D02*
X83174830Y-98468400D01*
X83174830Y-98468400D02*
X83635010Y-96750984D01*
X86001652Y-87918558D02*
X86461832Y-86201142D01*
X264210968Y-70395834D02*
X265928384Y-69935654D01*
X274760810Y-67569012D02*
X276478226Y-67108832D01*
X276478226Y-67108832D02*
X276938406Y-68826248D01*
X279305048Y-77658674D02*
X279765228Y-79376090D01*
X279765228Y-79376090D02*
X278047812Y-79836270D01*
X269215386Y-82202912D02*
X267497970Y-82663092D01*
X267497970Y-82663092D02*
X267037790Y-80945676D01*
X264671148Y-72113250D02*
X264210968Y-70395834D01*
X229874446Y-89457283D02*
X231591862Y-88997103D01*
X240424288Y-86630461D02*
X242141704Y-86170281D01*
X242141704Y-86170281D02*
X242601884Y-87887697D01*
X244968526Y-96720123D02*
X245428706Y-98437539D01*
X245428706Y-98437539D02*
X243711290Y-98897719D01*
X234878864Y-101264361D02*
X233161448Y-101724541D01*
X233161448Y-101724541D02*
X232701268Y-100007125D01*
X230334626Y-91174699D02*
X229874446Y-89457283D01*
X91392335Y-67800255D02*
X93109751Y-68260435D01*
X101942177Y-70627077D02*
X103659593Y-71087257D01*
X103659593Y-71087257D02*
X103199413Y-72804673D01*
X100832771Y-81637099D02*
X100372591Y-83354515D01*
X100372591Y-83354515D02*
X98655175Y-82894335D01*
X89822749Y-80527693D02*
X88105333Y-80067513D01*
X88105333Y-80067513D02*
X88565513Y-78350097D01*
X90932155Y-69517671D02*
X91392335Y-67800255D01*
X25184542Y-20476913D02*
X26901958Y-20937093D01*
X35734384Y-23303735D02*
X37451800Y-23763915D01*
X37451800Y-23763915D02*
X36991620Y-25481331D01*
X34624978Y-34313757D02*
X34164798Y-36031173D01*
X34164798Y-36031173D02*
X32447382Y-35570993D01*
X23614956Y-33204351D02*
X21897540Y-32744171D01*
X21897540Y-32744171D02*
X22357720Y-31026755D01*
X24724362Y-22194329D02*
X25184542Y-20476913D01*
X234804949Y-107858171D02*
X236522365Y-107397991D01*
X245354791Y-105031349D02*
X247072207Y-104571169D01*
X247072207Y-104571169D02*
X247532387Y-106288585D01*
X249899029Y-115121011D02*
X250359209Y-116838427D01*
X250359209Y-116838427D02*
X248641793Y-117298607D01*
X239809367Y-119665249D02*
X238091951Y-120125429D01*
X238091951Y-120125429D02*
X237631771Y-118408013D01*
X235265129Y-109575587D02*
X234804949Y-107858171D01*
X96322838Y-49399367D02*
X98040254Y-49859547D01*
X106872680Y-52226189D02*
X108590096Y-52686369D01*
X108590096Y-52686369D02*
X108129916Y-54403785D01*
X105763274Y-63236211D02*
X105303094Y-64953627D01*
X105303094Y-64953627D02*
X103585678Y-64493447D01*
X94753252Y-62126805D02*
X93035836Y-61666625D01*
X93035836Y-61666625D02*
X93496016Y-59949209D01*
X95862658Y-51116783D02*
X96322838Y-49399367D01*
X193102170Y-123962899D02*
X193562350Y-125680315D01*
X195928992Y-134512741D02*
X196389172Y-136230157D01*
X196389172Y-136230157D02*
X194671756Y-136690337D01*
X185839330Y-139056979D02*
X184121914Y-139517159D01*
X184121914Y-139517159D02*
X183661734Y-137799743D01*
X181295092Y-128967317D02*
X180834912Y-127249901D01*
X180834912Y-127249901D02*
X182552328Y-126789721D01*
X191384754Y-124423079D02*
X193102170Y-123962899D01*
X294112409Y-62383767D02*
X295829825Y-61923587D01*
X304662251Y-59556945D02*
X306379667Y-59096765D01*
X306379667Y-59096765D02*
X306839847Y-60814181D01*
X309206489Y-69646607D02*
X309666669Y-71364023D01*
X309666669Y-71364023D02*
X307949253Y-71824203D01*
X299116827Y-74190845D02*
X297399411Y-74651025D01*
X297399411Y-74651025D02*
X296939231Y-72933609D01*
X294572589Y-64101183D02*
X294112409Y-62383767D01*
X43585428Y-25407416D02*
X45302844Y-25867596D01*
X54135270Y-28234238D02*
X55852686Y-28694418D01*
X55852686Y-28694418D02*
X55392506Y-30411834D01*
X53025864Y-39244260D02*
X52565684Y-40961676D01*
X52565684Y-40961676D02*
X50848268Y-40501496D01*
X42015842Y-38134854D02*
X40298426Y-37674674D01*
X40298426Y-37674674D02*
X40758606Y-35957258D01*
X43125248Y-27124832D02*
X43585428Y-25407416D01*
X108560596Y-77330979D02*
X110278012Y-77791159D01*
X119110438Y-80157801D02*
X120827854Y-80617981D01*
X120827854Y-80617981D02*
X120367674Y-82335397D01*
X118001032Y-91167823D02*
X117540852Y-92885239D01*
X117540852Y-92885239D02*
X115823436Y-92425059D01*
X106991010Y-90058417D02*
X105273594Y-89598237D01*
X105273594Y-89598237D02*
X105733774Y-87880821D01*
X108100416Y-79048395D02*
X108560596Y-77330979D01*
X98699591Y-114132753D02*
X100417007Y-114592933D01*
X109249433Y-116959575D02*
X110966849Y-117419755D01*
X110966849Y-117419755D02*
X110506669Y-119137171D01*
X108140027Y-127969597D02*
X107679847Y-129687013D01*
X107679847Y-129687013D02*
X105962431Y-129226833D01*
X97130005Y-126860191D02*
X95412589Y-126400011D01*
X95412589Y-126400011D02*
X95872769Y-124682595D01*
X98239411Y-115850169D02*
X98699591Y-114132753D01*
X125728857Y-86861704D02*
X127446273Y-87321884D01*
X136278699Y-89688526D02*
X137996115Y-90148706D01*
X137996115Y-90148706D02*
X137535935Y-91866122D01*
X135169293Y-100698548D02*
X134709113Y-102415964D01*
X134709113Y-102415964D02*
X132991697Y-101955784D01*
X124159271Y-99589142D02*
X122441855Y-99128962D01*
X122441855Y-99128962D02*
X122902035Y-97411546D01*
X125268677Y-88579120D02*
X125728857Y-86861704D01*
X190607421Y-90117846D02*
X192324837Y-89657666D01*
X201157263Y-87291024D02*
X202874679Y-86830844D01*
X202874679Y-86830844D02*
X203334859Y-88548260D01*
X205701501Y-97380686D02*
X206161681Y-99098102D01*
X206161681Y-99098102D02*
X204444265Y-99558282D01*
X195611839Y-101924924D02*
X193894423Y-102385104D01*
X193894423Y-102385104D02*
X193434243Y-100667688D01*
X191067601Y-91835262D02*
X190607421Y-90117846D01*
X220013440Y-52655509D02*
X221730856Y-52195329D01*
X230563282Y-49828687D02*
X232280698Y-49368507D01*
X232280698Y-49368507D02*
X232740878Y-51085923D01*
X235107520Y-59918349D02*
X235567700Y-61635765D01*
X235567700Y-61635765D02*
X233850284Y-62095945D01*
X225017858Y-64462587D02*
X223300442Y-64922767D01*
X223300442Y-64922767D02*
X222840262Y-63205351D01*
X220473620Y-54372925D02*
X220013440Y-52655509D01*
X207775682Y-80587121D02*
X209493098Y-80126941D01*
X218325524Y-77760299D02*
X220042940Y-77300119D01*
X220042940Y-77300119D02*
X220503120Y-79017535D01*
X222869762Y-87849961D02*
X223329942Y-89567377D01*
X223329942Y-89567377D02*
X221612526Y-90027557D01*
X212780100Y-92394199D02*
X211062684Y-92854379D01*
X211062684Y-92854379D02*
X210602504Y-91136963D01*
X208235862Y-82304537D02*
X207775682Y-80587121D01*
X224943942Y-71056396D02*
X226661358Y-70596216D01*
X235493784Y-68229574D02*
X237211200Y-67769394D01*
X237211200Y-67769394D02*
X237671380Y-69486810D01*
X240038022Y-78319236D02*
X240498202Y-80036652D01*
X240498202Y-80036652D02*
X238780786Y-80496832D01*
X229948360Y-82863474D02*
X228230944Y-83323654D01*
X228230944Y-83323654D02*
X227770764Y-81606238D01*
X225404122Y-72773812D02*
X224943942Y-71056396D01*
X244577454Y-70726115D02*
X246294870Y-70265935D01*
X255127296Y-67899293D02*
X256844712Y-67439113D01*
X256844712Y-67439113D02*
X257304892Y-69156529D01*
X259671534Y-77988955D02*
X260131714Y-79706371D01*
X260131714Y-79706371D02*
X258414298Y-80166551D01*
X249581872Y-82533193D02*
X247864456Y-82993373D01*
X247864456Y-82993373D02*
X247404276Y-81275957D01*
X245037634Y-72443531D02*
X244577454Y-70726115D01*
X81531329Y-104602028D02*
X83248745Y-105062208D01*
X92081171Y-107428850D02*
X93798587Y-107889030D01*
X93798587Y-107889030D02*
X93338407Y-109606446D01*
X90971765Y-118438872D02*
X90511585Y-120156288D01*
X90511585Y-120156288D02*
X88794169Y-119696108D01*
X79961743Y-117329466D02*
X78244327Y-116869286D01*
X78244327Y-116869286D02*
X78704507Y-115151870D01*
X81071149Y-106319444D02*
X81531329Y-104602028D01*
X147827621Y-77991542D02*
X149545037Y-78451722D01*
X158377463Y-80818364D02*
X160094879Y-81278544D01*
X160094879Y-81278544D02*
X159634699Y-82995960D01*
X157268057Y-91828386D02*
X156807877Y-93545802D01*
X156807877Y-93545802D02*
X155090461Y-93085622D01*
X146258035Y-90718980D02*
X144540619Y-90258800D01*
X144540619Y-90258800D02*
X145000799Y-88541384D01*
X147367441Y-79708958D02*
X147827621Y-77991542D01*
X42264304Y-103941467D02*
X43981720Y-104401647D01*
X52814146Y-106768289D02*
X54531562Y-107228469D01*
X54531562Y-107228469D02*
X54071382Y-108945885D01*
X51704740Y-117778311D02*
X51244560Y-119495727D01*
X51244560Y-119495727D02*
X49527144Y-119035547D01*
X40694718Y-116668905D02*
X38977302Y-116208725D01*
X38977302Y-116208725D02*
X39437482Y-114491309D01*
X41804124Y-105658883D02*
X42264304Y-103941467D01*
X217636687Y-117388894D02*
X219354103Y-116928714D01*
X228186529Y-114562072D02*
X229903945Y-114101892D01*
X229903945Y-114101892D02*
X230364125Y-115819308D01*
X232730767Y-124651734D02*
X233190947Y-126369150D01*
X233190947Y-126369150D02*
X231473531Y-126829330D01*
X222641105Y-129195972D02*
X220923689Y-129656152D01*
X220923689Y-129656152D02*
X220463509Y-127938736D01*
X218096867Y-119106310D02*
X217636687Y-117388894D01*
X115867852Y-123663478D02*
X117585268Y-124123658D01*
X126417694Y-126490300D02*
X128135110Y-126950480D01*
X128135110Y-126950480D02*
X127674930Y-128667896D01*
X125308288Y-137500322D02*
X124848108Y-139217738D01*
X124848108Y-139217738D02*
X123130692Y-138757558D01*
X114298266Y-136390916D02*
X112580850Y-135930736D01*
X112580850Y-135930736D02*
X113041030Y-134213320D01*
X115407672Y-125380894D02*
X115867852Y-123663478D01*
X212706185Y-98988008D02*
X214423601Y-98527828D01*
X223256027Y-96161186D02*
X224973443Y-95701006D01*
X224973443Y-95701006D02*
X225433623Y-97418422D01*
X227800265Y-106250848D02*
X228260445Y-107968264D01*
X228260445Y-107968264D02*
X226543029Y-108428444D01*
X217710603Y-110795086D02*
X215993187Y-111255266D01*
X215993187Y-111255266D02*
X215533007Y-109537850D01*
X213166365Y-100705424D02*
X212706185Y-98988008D01*
X195537923Y-108518732D02*
X197255339Y-108058552D01*
X206087765Y-105691910D02*
X207805181Y-105231730D01*
X207805181Y-105231730D02*
X208265361Y-106949146D01*
X210632003Y-115781572D02*
X211092183Y-117498988D01*
X211092183Y-117498988D02*
X209374767Y-117959168D01*
X200542341Y-120325810D02*
X198824925Y-120785990D01*
X198824925Y-120785990D02*
X198364745Y-119068574D01*
X195998103Y-110236148D02*
X195537923Y-108518732D01*
X22223868Y-59127626D02*
X23941284Y-59587806D01*
X32773710Y-61954448D02*
X34491126Y-62414628D01*
X34491126Y-62414628D02*
X34030946Y-64132044D01*
X31664304Y-72964470D02*
X31204124Y-74681886D01*
X31204124Y-74681886D02*
X29486708Y-74221706D01*
X20654282Y-71855064D02*
X18936866Y-71394884D01*
X18936866Y-71394884D02*
X19397046Y-69677468D01*
X21763688Y-60845042D02*
X22223868Y-59127626D01*
X239646953Y-52325228D02*
X241364369Y-51865048D01*
X250196795Y-49498406D02*
X251914211Y-49038226D01*
X251914211Y-49038226D02*
X252374391Y-50755642D01*
X254741033Y-59588068D02*
X255201213Y-61305484D01*
X255201213Y-61305484D02*
X253483797Y-61765664D01*
X244651371Y-64132306D02*
X242933955Y-64592486D01*
X242933955Y-64592486D02*
X242473775Y-62875070D01*
X240107133Y-54042644D02*
X239646953Y-52325228D01*
X259280466Y-51994947D02*
X260997882Y-51534767D01*
X269830308Y-49168125D02*
X271547724Y-48707945D01*
X271547724Y-48707945D02*
X272007904Y-50425361D01*
X274374546Y-59257787D02*
X274834726Y-60975203D01*
X274834726Y-60975203D02*
X273117310Y-61435383D01*
X264284884Y-63802025D02*
X262567468Y-64262205D01*
X262567468Y-64262205D02*
X262107288Y-62544789D01*
X259740646Y-53712363D02*
X259280466Y-51994947D01*
X249507957Y-89127002D02*
X251225373Y-88666822D01*
X260057799Y-86300180D02*
X261775215Y-85840000D01*
X261775215Y-85840000D02*
X262235395Y-87557416D01*
X264602037Y-96389842D02*
X265062217Y-98107258D01*
X265062217Y-98107258D02*
X263344801Y-98567438D01*
X254512375Y-100934080D02*
X252794959Y-101394260D01*
X252794959Y-101394260D02*
X252334779Y-99676844D01*
X249968137Y-90844418D02*
X249507957Y-89127002D01*
X142897119Y-96392428D02*
X144614535Y-96852608D01*
X153446961Y-99219250D02*
X155164377Y-99679430D01*
X155164377Y-99679430D02*
X154704197Y-101396846D01*
X152337555Y-110229272D02*
X151877375Y-111946688D01*
X151877375Y-111946688D02*
X150159959Y-111486508D01*
X141327533Y-109119866D02*
X139610117Y-108659686D01*
X139610117Y-108659686D02*
X140070297Y-106942270D01*
X142436939Y-98109844D02*
X142897119Y-96392428D01*
X173439159Y-99648570D02*
X175156575Y-99188390D01*
X183989001Y-96821748D02*
X185706417Y-96361568D01*
X185706417Y-96361568D02*
X186166597Y-98078984D01*
X188533239Y-106911410D02*
X188993419Y-108628826D01*
X188993419Y-108628826D02*
X187276003Y-109089006D01*
X178443577Y-111455648D02*
X176726161Y-111915828D01*
X176726161Y-111915828D02*
X176265981Y-110198412D01*
X173899339Y-101365986D02*
X173439159Y-99648570D01*
X282281573Y-45831819D02*
X283998989Y-45371639D01*
X292831415Y-43004997D02*
X294548831Y-42544817D01*
X294548831Y-42544817D02*
X295009011Y-44262233D01*
X297375653Y-53094659D02*
X297835833Y-54812075D01*
X297835833Y-54812075D02*
X296118417Y-55272255D01*
X287285991Y-57638897D02*
X285568575Y-58099077D01*
X285568575Y-58099077D02*
X285108395Y-56381661D01*
X282741753Y-47549235D02*
X282281573Y-45831819D01*
X57055812Y-48738806D02*
X58773228Y-49198986D01*
X67605654Y-51565628D02*
X69323070Y-52025808D01*
X69323070Y-52025808D02*
X68862890Y-53743224D01*
X66496248Y-62575650D02*
X66036068Y-64293066D01*
X66036068Y-64293066D02*
X64318652Y-63832886D01*
X55486226Y-61466244D02*
X53768810Y-61006064D01*
X53768810Y-61006064D02*
X54228990Y-59288648D01*
X56595632Y-50456222D02*
X57055812Y-48738806D01*
X269141470Y-88796721D02*
X270858886Y-88336541D01*
X279691312Y-85969899D02*
X281408728Y-85509719D01*
X281408728Y-85509719D02*
X281868908Y-87227135D01*
X284235550Y-96059561D02*
X284695730Y-97776977D01*
X284695730Y-97776977D02*
X282978314Y-98237157D01*
X274145888Y-100603799D02*
X272428472Y-101063979D01*
X272428472Y-101063979D02*
X271968292Y-99346563D01*
X269601650Y-90514137D02*
X269141470Y-88796721D01*
X113491099Y-58930092D02*
X115208515Y-59390272D01*
X124040941Y-61756914D02*
X125758357Y-62217094D01*
X125758357Y-62217094D02*
X125298177Y-63934510D01*
X122931535Y-72766936D02*
X122471355Y-74484352D01*
X122471355Y-74484352D02*
X120753939Y-74024172D01*
X111921513Y-71657530D02*
X110204097Y-71197350D01*
X110204097Y-71197350D02*
X110664277Y-69479934D01*
X113030919Y-60647508D02*
X113491099Y-58930092D01*
X200468425Y-126919619D02*
X202185841Y-126459439D01*
X211018267Y-124092797D02*
X212735683Y-123632617D01*
X212735683Y-123632617D02*
X213195863Y-125350033D01*
X215562505Y-134182459D02*
X216022685Y-135899875D01*
X216022685Y-135899875D02*
X214305269Y-136360055D01*
X205472843Y-138726697D02*
X203755427Y-139186877D01*
X203755427Y-139186877D02*
X203295247Y-137469461D01*
X200928605Y-128637035D02*
X200468425Y-126919619D01*
X168508657Y-81247683D02*
X170226073Y-80787503D01*
X179058499Y-78420861D02*
X180775915Y-77960681D01*
X180775915Y-77960681D02*
X181236095Y-79678097D01*
X183602737Y-88510523D02*
X184062917Y-90227939D01*
X184062917Y-90227939D02*
X182345501Y-90688119D01*
X173513075Y-93054761D02*
X171795659Y-93514941D01*
X171795659Y-93514941D02*
X171335479Y-91797525D01*
X168968837Y-82965099D02*
X168508657Y-81247683D01*
X319743910Y-75237838D02*
X321461326Y-74777658D01*
X330293752Y-72411016D02*
X332011168Y-71950836D01*
X332011168Y-71950836D02*
X332471348Y-73668252D01*
X334837990Y-82500678D02*
X335298170Y-84218094D01*
X335298170Y-84218094D02*
X333580754Y-84678274D01*
X324748328Y-87044916D02*
X323030912Y-87505096D01*
X323030912Y-87505096D02*
X322570732Y-85787680D01*
X320204090Y-76955254D02*
X319743910Y-75237838D01*
X274071973Y-107197608D02*
X275789389Y-106737428D01*
X284621815Y-104370786D02*
X286339231Y-103910606D01*
X286339231Y-103910606D02*
X286799411Y-105628022D01*
X289166053Y-114460448D02*
X289626233Y-116177864D01*
X289626233Y-116177864D02*
X287908817Y-116638044D01*
X279076391Y-119004686D02*
X277358975Y-119464866D01*
X277358975Y-119464866D02*
X276898795Y-117747450D01*
X274532153Y-108915024D02*
X274071973Y-107197608D01*
X294442689Y-82017280D02*
X296160105Y-81557100D01*
X304992531Y-79190458D02*
X306709947Y-78730278D01*
X306709947Y-78730278D02*
X307170127Y-80447694D01*
X309536769Y-89280120D02*
X309996949Y-90997536D01*
X309996949Y-90997536D02*
X308279533Y-91457716D01*
X299447107Y-93824358D02*
X297729691Y-94284538D01*
X297729691Y-94284538D02*
X297269511Y-92567122D01*
X294902869Y-83734696D02*
X294442689Y-82017280D01*
X71758823Y-67469973D02*
X73476239Y-67930153D01*
X82308665Y-70296795D02*
X84026081Y-70756975D01*
X84026081Y-70756975D02*
X83565901Y-72474391D01*
X81199259Y-81306817D02*
X80739079Y-83024233D01*
X80739079Y-83024233D02*
X79021663Y-82564053D01*
X70189237Y-80197411D02*
X68471821Y-79737231D01*
X68471821Y-79737231D02*
X68932001Y-78019815D01*
X71298643Y-69187389D02*
X71758823Y-67469973D01*
X12693144Y-76295887D02*
X14410560Y-76756067D01*
X23242986Y-79122709D02*
X24960402Y-79582889D01*
X24960402Y-79582889D02*
X24500222Y-81300305D01*
X22133580Y-90132731D02*
X21673400Y-91850147D01*
X21673400Y-91850147D02*
X19955984Y-91389967D01*
X11123558Y-89023325D02*
X9406142Y-88563145D01*
X9406142Y-88563145D02*
X9866322Y-86845729D01*
X12232964Y-78013303D02*
X12693144Y-76295887D01*
X132214363Y-136261017D02*
X132674543Y-134543601D01*
X135041185Y-125711175D02*
X135501365Y-123993759D01*
X135501365Y-123993759D02*
X137218781Y-124453939D01*
X146051207Y-126820581D02*
X147768623Y-127280761D01*
X147768623Y-127280761D02*
X147308443Y-128998177D01*
X144941801Y-137830603D02*
X144481621Y-139548019D01*
X144481621Y-139548019D02*
X142764205Y-139087839D01*
X133931779Y-136721197D02*
X132214363Y-136261017D01*
X130659360Y-68460817D02*
X132376776Y-68920997D01*
X141209202Y-71287639D02*
X142926618Y-71747819D01*
X142926618Y-71747819D02*
X142466438Y-73465235D01*
X140099796Y-82297661D02*
X139639616Y-84015077D01*
X139639616Y-84015077D02*
X137922200Y-83554897D01*
X129089774Y-81188255D02*
X127372358Y-80728075D01*
X127372358Y-80728075D02*
X127832538Y-79010659D01*
X130199180Y-70178233D02*
X130659360Y-68460817D01*
X34054704Y-42575677D02*
X35772120Y-43035857D01*
X44604546Y-45402499D02*
X46321962Y-45862679D01*
X46321962Y-45862679D02*
X45861782Y-47580095D01*
X43495140Y-56412521D02*
X43034960Y-58129937D01*
X43034960Y-58129937D02*
X41317544Y-57669757D01*
X32485118Y-55303115D02*
X30767702Y-54842935D01*
X30767702Y-54842935D02*
X31227882Y-53125519D01*
X33594524Y-44293093D02*
X34054704Y-42575677D01*
X202845178Y-62186234D02*
X204562594Y-61726054D01*
X213395020Y-59359412D02*
X215112436Y-58899232D01*
X215112436Y-58899232D02*
X215572616Y-60616648D01*
X217939258Y-69449074D02*
X218399438Y-71166490D01*
X218399438Y-71166490D02*
X216682022Y-71626670D01*
X207849596Y-73993312D02*
X206132180Y-74453492D01*
X206132180Y-74453492D02*
X205672000Y-72736076D01*
X203305358Y-63903650D02*
X202845178Y-62186234D01*
X254438461Y-107527889D02*
X256155877Y-107067709D01*
X264988303Y-104701067D02*
X266705719Y-104240887D01*
X266705719Y-104240887D02*
X267165899Y-105958303D01*
X269532541Y-114790729D02*
X269992721Y-116508145D01*
X269992721Y-116508145D02*
X268275305Y-116968325D01*
X259442879Y-119334967D02*
X257725463Y-119795147D01*
X257725463Y-119795147D02*
X257265283Y-118077731D01*
X254898641Y-109245305D02*
X254438461Y-107527889D01*
X103630093Y-95731867D02*
X105347509Y-96192047D01*
X114179935Y-98558689D02*
X115897351Y-99018869D01*
X115897351Y-99018869D02*
X115437171Y-100736285D01*
X113070529Y-109568711D02*
X112610349Y-111286127D01*
X112610349Y-111286127D02*
X110892933Y-110825947D01*
X102060507Y-108459305D02*
X100343091Y-107999125D01*
X100343091Y-107999125D02*
X100803271Y-106281709D01*
X103169913Y-97449283D02*
X103630093Y-95731867D01*
X76689325Y-49069087D02*
X78406741Y-49529267D01*
X87239167Y-51895909D02*
X88956583Y-52356089D01*
X88956583Y-52356089D02*
X88496403Y-54073505D01*
X86129761Y-62905931D02*
X85669581Y-64623347D01*
X85669581Y-64623347D02*
X83952165Y-64163167D01*
X75119739Y-61796525D02*
X73402323Y-61336345D01*
X73402323Y-61336345D02*
X73862503Y-59618929D01*
X76229145Y-50786503D02*
X76689325Y-49069087D01*
X61897817Y-104271748D02*
X63615233Y-104731928D01*
X72447659Y-107098570D02*
X74165075Y-107558750D01*
X74165075Y-107558750D02*
X73704895Y-109276166D01*
X71338253Y-118108592D02*
X70878073Y-119826008D01*
X70878073Y-119826008D02*
X69160657Y-119365828D01*
X60328231Y-116999186D02*
X58610815Y-116539006D01*
X58610815Y-116539006D02*
X59070995Y-114821590D01*
X61437637Y-105989164D02*
X61897817Y-104271748D01*
X66828320Y-85870861D02*
X68545736Y-86331041D01*
X77378162Y-88697683D02*
X79095578Y-89157863D01*
X79095578Y-89157863D02*
X78635398Y-90875279D01*
X76268756Y-99707705D02*
X75808576Y-101425121D01*
X75808576Y-101425121D02*
X74091160Y-100964941D01*
X65258734Y-98598299D02*
X63541318Y-98138119D01*
X63541318Y-98138119D02*
X64001498Y-96420703D01*
X66368140Y-87588277D02*
X66828320Y-85870861D01*
X185676918Y-71716958D02*
X187394334Y-71256778D01*
X196226760Y-68890136D02*
X197944176Y-68429956D01*
X197944176Y-68429956D02*
X198404356Y-70147372D01*
X200770998Y-78979798D02*
X201231178Y-80697214D01*
X201231178Y-80697214D02*
X199513762Y-81157394D01*
X190681336Y-83524036D02*
X188963920Y-83984216D01*
X188963920Y-83984216D02*
X188503740Y-82266800D01*
X186137098Y-73434374D02*
X185676918Y-71716958D01*
X47194807Y-85540580D02*
X48912223Y-86000760D01*
X57744649Y-88367402D02*
X59462065Y-88827582D01*
X59462065Y-88827582D02*
X59001885Y-90544998D01*
X56635243Y-99377424D02*
X56175063Y-101094840D01*
X56175063Y-101094840D02*
X54457647Y-100634660D01*
X45625221Y-98268018D02*
X43907805Y-97807838D01*
X43907805Y-97807838D02*
X44367985Y-96090422D01*
X46734627Y-87257996D02*
X47194807Y-85540580D01*
X173196250Y-30003750D02*
X155416250Y-30003750D01*
X155416250Y-30003750D02*
X155416250Y-60483750D01*
X155416250Y-60483750D02*
X173196250Y-60483750D01*
X173196250Y-60483750D02*
X173196250Y-30003750D01*
X157956250Y-30003750D02*
X157956250Y-32543750D01*
X157956250Y-32543750D02*
X155416250Y-32543750D01*
D12*
X161985774Y-46404893D02*
X163013869Y-46404893D01*
X163134821Y-46332321D01*
X163195298Y-46259750D01*
X163255774Y-46114607D01*
X163255774Y-45824321D01*
X163195298Y-45679179D01*
X163134821Y-45606607D01*
X163013869Y-45534036D01*
X161985774Y-45534036D01*
X163255774Y-44010036D02*
X163255774Y-44880893D01*
X163255774Y-44445465D02*
X161985774Y-44445465D01*
X162167202Y-44590608D01*
X162288155Y-44735750D01*
X162348631Y-44880893D01*
M02*
