%TF.GenerationSoftware,KiCad,Pcbnew,4.0.7*%
%TF.CreationDate,2018-09-12T19:18:30-05:00*%
%TF.ProjectId,ergo60tilt,6572676F363074696C742E6B69636164,rev?*%
%TF.FileFunction,Soldermask,Bot*%
%FSLAX46Y46*%
G04 Gerber Fmt 4.6, Leading zero omitted, Abs format (unit mm)*
G04 Created by KiCad (PCBNEW 4.0.7) date 09/12/18 19:18:30*
%MOMM*%
%LPD*%
G01*
G04 APERTURE LIST*
%ADD10C,0.100000*%
%ADD11C,2.000000*%
%ADD12C,3.200000*%
%ADD13C,2.900000*%
%ADD14R,2.100000X1.400000*%
%ADD15R,2.152600X2.152600*%
%ADD16C,2.152600*%
%ADD17C,2.200000*%
G04 APERTURE END LIST*
D10*
G36*
X31210839Y-18878735D02*
X30796728Y-20424216D01*
X29251247Y-20010105D01*
X29665358Y-18464624D01*
X31210839Y-18878735D01*
X31210839Y-18878735D01*
G37*
G36*
X34253505Y-19694015D02*
X33839394Y-21239496D01*
X32293913Y-20825385D01*
X32708024Y-19279904D01*
X34253505Y-19694015D01*
X34253505Y-19694015D01*
G37*
G36*
X36744232Y-20154347D02*
X36226594Y-22086199D01*
X34294742Y-21568561D01*
X34812380Y-19636709D01*
X36744232Y-20154347D01*
X36744232Y-20154347D01*
G37*
D11*
X27985265Y-18842666D03*
D10*
G36*
X49036699Y-23655159D02*
X48622588Y-25200640D01*
X47077107Y-24786529D01*
X47491218Y-23241048D01*
X49036699Y-23655159D01*
X49036699Y-23655159D01*
G37*
G36*
X52079365Y-24470439D02*
X51665254Y-26015920D01*
X50119773Y-25601809D01*
X50533884Y-24056328D01*
X52079365Y-24470439D01*
X52079365Y-24470439D01*
G37*
G36*
X54570092Y-24930771D02*
X54052454Y-26862623D01*
X52120602Y-26344985D01*
X52638240Y-24413133D01*
X54570092Y-24930771D01*
X54570092Y-24930771D01*
G37*
D11*
X45811125Y-23619090D03*
D10*
G36*
X39505974Y-40823420D02*
X39091863Y-42368901D01*
X37546382Y-41954790D01*
X37960493Y-40409309D01*
X39505974Y-40823420D01*
X39505974Y-40823420D01*
G37*
G36*
X42548640Y-41638700D02*
X42134529Y-43184181D01*
X40589048Y-42770070D01*
X41003159Y-41224589D01*
X42548640Y-41638700D01*
X42548640Y-41638700D01*
G37*
G36*
X45039367Y-42099032D02*
X44521729Y-44030884D01*
X42589877Y-43513246D01*
X43107515Y-41581394D01*
X45039367Y-42099032D01*
X45039367Y-42099032D01*
G37*
D11*
X36280400Y-40787351D03*
D10*
G36*
X28250166Y-57529447D02*
X27836055Y-59074928D01*
X26290574Y-58660817D01*
X26704685Y-57115336D01*
X28250166Y-57529447D01*
X28250166Y-57529447D01*
G37*
G36*
X31292832Y-58344727D02*
X30878721Y-59890208D01*
X29333240Y-59476097D01*
X29747351Y-57930616D01*
X31292832Y-58344727D01*
X31292832Y-58344727D01*
G37*
G36*
X33783559Y-58805059D02*
X33265921Y-60736911D01*
X31334069Y-60219273D01*
X31851707Y-58287421D01*
X33783559Y-58805059D01*
X33783559Y-58805059D01*
G37*
D11*
X25024592Y-57493378D03*
D10*
G36*
X13676146Y-91219434D02*
X13262035Y-92764915D01*
X11716554Y-92350804D01*
X12130665Y-90805323D01*
X13676146Y-91219434D01*
X13676146Y-91219434D01*
G37*
G36*
X16718812Y-92034714D02*
X16304701Y-93580195D01*
X14759220Y-93166084D01*
X15173331Y-91620603D01*
X16718812Y-92034714D01*
X16718812Y-92034714D01*
G37*
G36*
X19209539Y-92495046D02*
X18691901Y-94426898D01*
X16760049Y-93909260D01*
X17277687Y-91977408D01*
X19209539Y-92495046D01*
X19209539Y-92495046D01*
G37*
D11*
X10450572Y-91183365D03*
D10*
G36*
X68012613Y-28739740D02*
X67598502Y-30285221D01*
X66053021Y-29871110D01*
X66467132Y-28325629D01*
X68012613Y-28739740D01*
X68012613Y-28739740D01*
G37*
G36*
X71055279Y-29555020D02*
X70641168Y-31100501D01*
X69095687Y-30686390D01*
X69509798Y-29140909D01*
X71055279Y-29555020D01*
X71055279Y-29555020D01*
G37*
G36*
X73546006Y-30015352D02*
X73028368Y-31947204D01*
X71096516Y-31429566D01*
X71614154Y-29497714D01*
X73546006Y-30015352D01*
X73546006Y-30015352D01*
G37*
D11*
X64787039Y-28703671D03*
D10*
G36*
X63082109Y-47140627D02*
X62667998Y-48686108D01*
X61122517Y-48271997D01*
X61536628Y-46726516D01*
X63082109Y-47140627D01*
X63082109Y-47140627D01*
G37*
G36*
X66124775Y-47955907D02*
X65710664Y-49501388D01*
X64165183Y-49087277D01*
X64579294Y-47541796D01*
X66124775Y-47955907D01*
X66124775Y-47955907D01*
G37*
G36*
X68615502Y-48416239D02*
X68097864Y-50348091D01*
X66166012Y-49830453D01*
X66683650Y-47898601D01*
X68615502Y-48416239D01*
X68615502Y-48416239D01*
G37*
D11*
X59856535Y-47104558D03*
D10*
G36*
X58151607Y-65541514D02*
X57737496Y-67086995D01*
X56192015Y-66672884D01*
X56606126Y-65127403D01*
X58151607Y-65541514D01*
X58151607Y-65541514D01*
G37*
G36*
X61194273Y-66356794D02*
X60780162Y-67902275D01*
X59234681Y-67488164D01*
X59648792Y-65942683D01*
X61194273Y-66356794D01*
X61194273Y-66356794D01*
G37*
G36*
X63685000Y-66817126D02*
X63167362Y-68748978D01*
X61235510Y-68231340D01*
X61753148Y-66299488D01*
X63685000Y-66817126D01*
X63685000Y-66817126D01*
G37*
D11*
X54926033Y-65505445D03*
D10*
G36*
X53221104Y-83942401D02*
X52806993Y-85487882D01*
X51261512Y-85073771D01*
X51675623Y-83528290D01*
X53221104Y-83942401D01*
X53221104Y-83942401D01*
G37*
G36*
X56263770Y-84757681D02*
X55849659Y-86303162D01*
X54304178Y-85889051D01*
X54718289Y-84343570D01*
X56263770Y-84757681D01*
X56263770Y-84757681D01*
G37*
G36*
X58754497Y-85218013D02*
X58236859Y-87149865D01*
X56305007Y-86632227D01*
X56822645Y-84700375D01*
X58754497Y-85218013D01*
X58754497Y-85218013D01*
G37*
D11*
X49995530Y-83906332D03*
D10*
G36*
X48290601Y-102343288D02*
X47876490Y-103888769D01*
X46331009Y-103474658D01*
X46745120Y-101929177D01*
X48290601Y-102343288D01*
X48290601Y-102343288D01*
G37*
G36*
X51333267Y-103158568D02*
X50919156Y-104704049D01*
X49373675Y-104289938D01*
X49787786Y-102744457D01*
X51333267Y-103158568D01*
X51333267Y-103158568D01*
G37*
G36*
X53823994Y-103618900D02*
X53306356Y-105550752D01*
X51374504Y-105033114D01*
X51892142Y-103101262D01*
X53823994Y-103618900D01*
X53823994Y-103618900D01*
G37*
D11*
X45065027Y-102307219D03*
D10*
G36*
X87646125Y-29070021D02*
X87232014Y-30615502D01*
X85686533Y-30201391D01*
X86100644Y-28655910D01*
X87646125Y-29070021D01*
X87646125Y-29070021D01*
G37*
G36*
X90688791Y-29885301D02*
X90274680Y-31430782D01*
X88729199Y-31016671D01*
X89143310Y-29471190D01*
X90688791Y-29885301D01*
X90688791Y-29885301D01*
G37*
G36*
X93179518Y-30345633D02*
X92661880Y-32277485D01*
X90730028Y-31759847D01*
X91247666Y-29827995D01*
X93179518Y-30345633D01*
X93179518Y-30345633D01*
G37*
D11*
X84420551Y-29033952D03*
D10*
G36*
X81986517Y-47891857D02*
X81572406Y-49437338D01*
X80026925Y-49023227D01*
X80441036Y-47477746D01*
X81986517Y-47891857D01*
X81986517Y-47891857D01*
G37*
G36*
X85029183Y-48707137D02*
X84615072Y-50252618D01*
X83069591Y-49838507D01*
X83483702Y-48293026D01*
X85029183Y-48707137D01*
X85029183Y-48707137D01*
G37*
G36*
X87519910Y-49167469D02*
X87002272Y-51099321D01*
X85070420Y-50581683D01*
X85588058Y-48649831D01*
X87519910Y-49167469D01*
X87519910Y-49167469D01*
G37*
D11*
X78760943Y-47855788D03*
D10*
G36*
X77210093Y-65717717D02*
X76795982Y-67263198D01*
X75250501Y-66849087D01*
X75664612Y-65303606D01*
X77210093Y-65717717D01*
X77210093Y-65717717D01*
G37*
G36*
X80252759Y-66532997D02*
X79838648Y-68078478D01*
X78293167Y-67664367D01*
X78707278Y-66118886D01*
X80252759Y-66532997D01*
X80252759Y-66532997D01*
G37*
G36*
X82743486Y-66993329D02*
X82225848Y-68925181D01*
X80293996Y-68407543D01*
X80811634Y-66475691D01*
X82743486Y-66993329D01*
X82743486Y-66993329D01*
G37*
D11*
X73984519Y-65681648D03*
D10*
G36*
X72279590Y-84118603D02*
X71865479Y-85664084D01*
X70319998Y-85249973D01*
X70734109Y-83704492D01*
X72279590Y-84118603D01*
X72279590Y-84118603D01*
G37*
G36*
X75322256Y-84933883D02*
X74908145Y-86479364D01*
X73362664Y-86065253D01*
X73776775Y-84519772D01*
X75322256Y-84933883D01*
X75322256Y-84933883D01*
G37*
G36*
X77812983Y-85394215D02*
X77295345Y-87326067D01*
X75363493Y-86808429D01*
X75881131Y-84876577D01*
X77812983Y-85394215D01*
X77812983Y-85394215D01*
G37*
D11*
X69054016Y-84082534D03*
D10*
G36*
X67195008Y-103094518D02*
X66780897Y-104639999D01*
X65235416Y-104225888D01*
X65649527Y-102680407D01*
X67195008Y-103094518D01*
X67195008Y-103094518D01*
G37*
G36*
X70237674Y-103909798D02*
X69823563Y-105455279D01*
X68278082Y-105041168D01*
X68692193Y-103495687D01*
X70237674Y-103909798D01*
X70237674Y-103909798D01*
G37*
G36*
X72728401Y-104370130D02*
X72210763Y-106301982D01*
X70278911Y-105784344D01*
X70796549Y-103852492D01*
X72728401Y-104370130D01*
X72728401Y-104370130D01*
G37*
D11*
X63969434Y-103058449D03*
D10*
G36*
X107279638Y-29400302D02*
X106865527Y-30945783D01*
X105320046Y-30531672D01*
X105734157Y-28986191D01*
X107279638Y-29400302D01*
X107279638Y-29400302D01*
G37*
G36*
X110322304Y-30215582D02*
X109908193Y-31761063D01*
X108362712Y-31346952D01*
X108776823Y-29801471D01*
X110322304Y-30215582D01*
X110322304Y-30215582D01*
G37*
G36*
X112813031Y-30675914D02*
X112295393Y-32607766D01*
X110363541Y-32090128D01*
X110881179Y-30158276D01*
X112813031Y-30675914D01*
X112813031Y-30675914D01*
G37*
D11*
X104054064Y-29364233D03*
D10*
G36*
X101774108Y-47647111D02*
X101359997Y-49192592D01*
X99814516Y-48778481D01*
X100228627Y-47233000D01*
X101774108Y-47647111D01*
X101774108Y-47647111D01*
G37*
G36*
X104816774Y-48462391D02*
X104402663Y-50007872D01*
X102857182Y-49593761D01*
X103271293Y-48048280D01*
X104816774Y-48462391D01*
X104816774Y-48462391D01*
G37*
G36*
X107307501Y-48922723D02*
X106789863Y-50854575D01*
X104858011Y-50336937D01*
X105375649Y-48405085D01*
X107307501Y-48922723D01*
X107307501Y-48922723D01*
G37*
D11*
X98548534Y-47611042D03*
D10*
G36*
X96843605Y-66047998D02*
X96429494Y-67593479D01*
X94884013Y-67179368D01*
X95298124Y-65633887D01*
X96843605Y-66047998D01*
X96843605Y-66047998D01*
G37*
G36*
X99886271Y-66863278D02*
X99472160Y-68408759D01*
X97926679Y-67994648D01*
X98340790Y-66449167D01*
X99886271Y-66863278D01*
X99886271Y-66863278D01*
G37*
G36*
X102376998Y-67323610D02*
X101859360Y-69255462D01*
X99927508Y-68737824D01*
X100445146Y-66805972D01*
X102376998Y-67323610D01*
X102376998Y-67323610D01*
G37*
D11*
X93618031Y-66011929D03*
D10*
G36*
X91759024Y-85023912D02*
X91344913Y-86569393D01*
X89799432Y-86155282D01*
X90213543Y-84609801D01*
X91759024Y-85023912D01*
X91759024Y-85023912D01*
G37*
G36*
X94801690Y-85839192D02*
X94387579Y-87384673D01*
X92842098Y-86970562D01*
X93256209Y-85425081D01*
X94801690Y-85839192D01*
X94801690Y-85839192D01*
G37*
G36*
X97292417Y-86299524D02*
X96774779Y-88231376D01*
X94842927Y-87713738D01*
X95360565Y-85781886D01*
X97292417Y-86299524D01*
X97292417Y-86299524D01*
G37*
D11*
X88533450Y-84987843D03*
D10*
G36*
X87557627Y-103003850D02*
X87143516Y-104549331D01*
X85598035Y-104135220D01*
X86012146Y-102589739D01*
X87557627Y-103003850D01*
X87557627Y-103003850D01*
G37*
G36*
X90600293Y-103819130D02*
X90186182Y-105364611D01*
X88640701Y-104950500D01*
X89054812Y-103405019D01*
X90600293Y-103819130D01*
X90600293Y-103819130D01*
G37*
G36*
X93091020Y-104279462D02*
X92573382Y-106211314D01*
X90641530Y-105693676D01*
X91159168Y-103761824D01*
X93091020Y-104279462D01*
X93091020Y-104279462D01*
G37*
D11*
X84332053Y-102967781D03*
D10*
G36*
X124447900Y-38931027D02*
X124033789Y-40476508D01*
X122488308Y-40062397D01*
X122902419Y-38516916D01*
X124447900Y-38931027D01*
X124447900Y-38931027D01*
G37*
G36*
X127490566Y-39746307D02*
X127076455Y-41291788D01*
X125530974Y-40877677D01*
X125945085Y-39332196D01*
X127490566Y-39746307D01*
X127490566Y-39746307D01*
G37*
G36*
X129981293Y-40206639D02*
X129463655Y-42138491D01*
X127531803Y-41620853D01*
X128049441Y-39689001D01*
X129981293Y-40206639D01*
X129981293Y-40206639D01*
G37*
D11*
X121222326Y-38894958D03*
D10*
G36*
X119517397Y-57331914D02*
X119103286Y-58877395D01*
X117557805Y-58463284D01*
X117971916Y-56917803D01*
X119517397Y-57331914D01*
X119517397Y-57331914D01*
G37*
G36*
X122560063Y-58147194D02*
X122145952Y-59692675D01*
X120600471Y-59278564D01*
X121014582Y-57733083D01*
X122560063Y-58147194D01*
X122560063Y-58147194D01*
G37*
G36*
X125050790Y-58607526D02*
X124533152Y-60539378D01*
X122601300Y-60021740D01*
X123118938Y-58089888D01*
X125050790Y-58607526D01*
X125050790Y-58607526D01*
G37*
D11*
X116291823Y-57295845D03*
D10*
G36*
X114586894Y-75732800D02*
X114172783Y-77278281D01*
X112627302Y-76864170D01*
X113041413Y-75318689D01*
X114586894Y-75732800D01*
X114586894Y-75732800D01*
G37*
G36*
X117629560Y-76548080D02*
X117215449Y-78093561D01*
X115669968Y-77679450D01*
X116084079Y-76133969D01*
X117629560Y-76548080D01*
X117629560Y-76548080D01*
G37*
G36*
X120120287Y-77008412D02*
X119602649Y-78940264D01*
X117670797Y-78422626D01*
X118188435Y-76490774D01*
X120120287Y-77008412D01*
X120120287Y-77008412D01*
G37*
D11*
X111361320Y-75696731D03*
D10*
G36*
X110231419Y-94287766D02*
X109817308Y-95833247D01*
X108271827Y-95419136D01*
X108685938Y-93873655D01*
X110231419Y-94287766D01*
X110231419Y-94287766D01*
G37*
G36*
X113274085Y-95103046D02*
X112859974Y-96648527D01*
X111314493Y-96234416D01*
X111728604Y-94688935D01*
X113274085Y-95103046D01*
X113274085Y-95103046D01*
G37*
G36*
X115764812Y-95563378D02*
X115247174Y-97495230D01*
X113315322Y-96977592D01*
X113832960Y-95045740D01*
X115764812Y-95563378D01*
X115764812Y-95563378D01*
G37*
D11*
X107005845Y-94251697D03*
D10*
G36*
X104571810Y-113109601D02*
X104157699Y-114655082D01*
X102612218Y-114240971D01*
X103026329Y-112695490D01*
X104571810Y-113109601D01*
X104571810Y-113109601D01*
G37*
G36*
X107614476Y-113924881D02*
X107200365Y-115470362D01*
X105654884Y-115056251D01*
X106068995Y-113510770D01*
X107614476Y-113924881D01*
X107614476Y-113924881D01*
G37*
G36*
X110105203Y-114385213D02*
X109587565Y-116317065D01*
X107655713Y-115799427D01*
X108173351Y-113867575D01*
X110105203Y-114385213D01*
X110105203Y-114385213D01*
G37*
D11*
X101346236Y-113073532D03*
D10*
G36*
X141616161Y-48461752D02*
X141202050Y-50007233D01*
X139656569Y-49593122D01*
X140070680Y-48047641D01*
X141616161Y-48461752D01*
X141616161Y-48461752D01*
G37*
G36*
X144658827Y-49277032D02*
X144244716Y-50822513D01*
X142699235Y-50408402D01*
X143113346Y-48862921D01*
X144658827Y-49277032D01*
X144658827Y-49277032D01*
G37*
G36*
X147149554Y-49737364D02*
X146631916Y-51669216D01*
X144700064Y-51151578D01*
X145217702Y-49219726D01*
X147149554Y-49737364D01*
X147149554Y-49737364D01*
G37*
D11*
X138390587Y-48425683D03*
D10*
G36*
X136685658Y-66862638D02*
X136271547Y-68408119D01*
X134726066Y-67994008D01*
X135140177Y-66448527D01*
X136685658Y-66862638D01*
X136685658Y-66862638D01*
G37*
G36*
X139728324Y-67677918D02*
X139314213Y-69223399D01*
X137768732Y-68809288D01*
X138182843Y-67263807D01*
X139728324Y-67677918D01*
X139728324Y-67677918D01*
G37*
G36*
X142219051Y-68138250D02*
X141701413Y-70070102D01*
X139769561Y-69552464D01*
X140287199Y-67620612D01*
X142219051Y-68138250D01*
X142219051Y-68138250D01*
G37*
D11*
X133460084Y-66826569D03*
D10*
G36*
X131755155Y-85263525D02*
X131341044Y-86809006D01*
X129795563Y-86394895D01*
X130209674Y-84849414D01*
X131755155Y-85263525D01*
X131755155Y-85263525D01*
G37*
G36*
X134797821Y-86078805D02*
X134383710Y-87624286D01*
X132838229Y-87210175D01*
X133252340Y-85664694D01*
X134797821Y-86078805D01*
X134797821Y-86078805D01*
G37*
G36*
X137288548Y-86539137D02*
X136770910Y-88470989D01*
X134839058Y-87953351D01*
X135356696Y-86021499D01*
X137288548Y-86539137D01*
X137288548Y-86539137D01*
G37*
D11*
X128529581Y-85227456D03*
D10*
G36*
X126824653Y-103664413D02*
X126410542Y-105209894D01*
X124865061Y-104795783D01*
X125279172Y-103250302D01*
X126824653Y-103664413D01*
X126824653Y-103664413D01*
G37*
G36*
X129867319Y-104479693D02*
X129453208Y-106025174D01*
X127907727Y-105611063D01*
X128321838Y-104065582D01*
X129867319Y-104479693D01*
X129867319Y-104479693D01*
G37*
G36*
X132358046Y-104940025D02*
X131840408Y-106871877D01*
X129908556Y-106354239D01*
X130426194Y-104422387D01*
X132358046Y-104940025D01*
X132358046Y-104940025D01*
G37*
D11*
X123599079Y-103628344D03*
D10*
G36*
X121894150Y-122065299D02*
X121480039Y-123610780D01*
X119934558Y-123196669D01*
X120348669Y-121651188D01*
X121894150Y-122065299D01*
X121894150Y-122065299D01*
G37*
G36*
X124936816Y-122880579D02*
X124522705Y-124426060D01*
X122977224Y-124011949D01*
X123391335Y-122466468D01*
X124936816Y-122880579D01*
X124936816Y-122880579D01*
G37*
G36*
X127427543Y-123340911D02*
X126909905Y-125272763D01*
X124978053Y-124755125D01*
X125495691Y-122823273D01*
X127427543Y-123340911D01*
X127427543Y-123340911D01*
G37*
D11*
X118668576Y-122029230D03*
D10*
G36*
X153853919Y-76393363D02*
X153439808Y-77938844D01*
X151894327Y-77524733D01*
X152308438Y-75979252D01*
X153853919Y-76393363D01*
X153853919Y-76393363D01*
G37*
G36*
X156896585Y-77208643D02*
X156482474Y-78754124D01*
X154936993Y-78340013D01*
X155351104Y-76794532D01*
X156896585Y-77208643D01*
X156896585Y-77208643D01*
G37*
G36*
X159387312Y-77668975D02*
X158869674Y-79600827D01*
X156937822Y-79083189D01*
X157455460Y-77151337D01*
X159387312Y-77668975D01*
X159387312Y-77668975D01*
G37*
D11*
X150628345Y-76357294D03*
D10*
G36*
X148923417Y-94794250D02*
X148509306Y-96339731D01*
X146963825Y-95925620D01*
X147377936Y-94380139D01*
X148923417Y-94794250D01*
X148923417Y-94794250D01*
G37*
G36*
X151966083Y-95609530D02*
X151551972Y-97155011D01*
X150006491Y-96740900D01*
X150420602Y-95195419D01*
X151966083Y-95609530D01*
X151966083Y-95609530D01*
G37*
G36*
X154456810Y-96069862D02*
X153939172Y-98001714D01*
X152007320Y-97484076D01*
X152524958Y-95552224D01*
X154456810Y-96069862D01*
X154456810Y-96069862D01*
G37*
D11*
X145697843Y-94758181D03*
D10*
G36*
X149931795Y-133918035D02*
X148386314Y-133503924D01*
X148800425Y-131958443D01*
X150345906Y-132372554D01*
X149931795Y-133918035D01*
X149931795Y-133918035D01*
G37*
G36*
X149116515Y-136960701D02*
X147571034Y-136546590D01*
X147985145Y-135001109D01*
X149530626Y-135415220D01*
X149116515Y-136960701D01*
X149116515Y-136960701D01*
G37*
G36*
X148656183Y-139451428D02*
X146724331Y-138933790D01*
X147241969Y-137001938D01*
X149173821Y-137519576D01*
X148656183Y-139451428D01*
X148656183Y-139451428D01*
G37*
D11*
X149967864Y-130692461D03*
D10*
G36*
X194197664Y-85935450D02*
X194611775Y-87480931D01*
X193066294Y-87895042D01*
X192652183Y-86349561D01*
X194197664Y-85935450D01*
X194197664Y-85935450D01*
G37*
G36*
X197240330Y-85120170D02*
X197654441Y-86665651D01*
X196108960Y-87079762D01*
X195694849Y-85534281D01*
X197240330Y-85120170D01*
X197240330Y-85120170D01*
G37*
G36*
X199627530Y-84273467D02*
X200145168Y-86205319D01*
X198213316Y-86722957D01*
X197695678Y-84791105D01*
X199627530Y-84273467D01*
X199627530Y-84273467D01*
G37*
D11*
X191386201Y-87517000D03*
D10*
G36*
X199703196Y-104182259D02*
X200117307Y-105727740D01*
X198571826Y-106141851D01*
X198157715Y-104596370D01*
X199703196Y-104182259D01*
X199703196Y-104182259D01*
G37*
G36*
X202745862Y-103366979D02*
X203159973Y-104912460D01*
X201614492Y-105326571D01*
X201200381Y-103781090D01*
X202745862Y-103366979D01*
X202745862Y-103366979D01*
G37*
G36*
X205133062Y-102520276D02*
X205650700Y-104452128D01*
X203718848Y-104969766D01*
X203201210Y-103037914D01*
X205133062Y-102520276D01*
X205133062Y-102520276D01*
G37*
D11*
X196891733Y-105763809D03*
D10*
G36*
X204633699Y-122583146D02*
X205047810Y-124128627D01*
X203502329Y-124542738D01*
X203088218Y-122997257D01*
X204633699Y-122583146D01*
X204633699Y-122583146D01*
G37*
G36*
X207676365Y-121767866D02*
X208090476Y-123313347D01*
X206544995Y-123727458D01*
X206130884Y-122181977D01*
X207676365Y-121767866D01*
X207676365Y-121767866D01*
G37*
G36*
X210063565Y-120921163D02*
X210581203Y-122853015D01*
X208649351Y-123370653D01*
X208131713Y-121438801D01*
X210063565Y-120921163D01*
X210063565Y-120921163D01*
G37*
D11*
X201822236Y-124164696D03*
D10*
G36*
X172673929Y-76911209D02*
X173088040Y-78456690D01*
X171542559Y-78870801D01*
X171128448Y-77325320D01*
X172673929Y-76911209D01*
X172673929Y-76911209D01*
G37*
G36*
X175716595Y-76095929D02*
X176130706Y-77641410D01*
X174585225Y-78055521D01*
X174171114Y-76510040D01*
X175716595Y-76095929D01*
X175716595Y-76095929D01*
G37*
G36*
X178103795Y-75249226D02*
X178621433Y-77181078D01*
X176689581Y-77698716D01*
X176171943Y-75766864D01*
X178103795Y-75249226D01*
X178103795Y-75249226D01*
G37*
D11*
X169862466Y-78492759D03*
D10*
G36*
X177758510Y-95887124D02*
X178172621Y-97432605D01*
X176627140Y-97846716D01*
X176213029Y-96301235D01*
X177758510Y-95887124D01*
X177758510Y-95887124D01*
G37*
G36*
X180801176Y-95071844D02*
X181215287Y-96617325D01*
X179669806Y-97031436D01*
X179255695Y-95485955D01*
X180801176Y-95071844D01*
X180801176Y-95071844D01*
G37*
G36*
X183188376Y-94225141D02*
X183706014Y-96156993D01*
X181774162Y-96674631D01*
X181256524Y-94742779D01*
X183188376Y-94225141D01*
X183188376Y-94225141D01*
G37*
D11*
X174947047Y-97468674D03*
D10*
G36*
X179638720Y-133620602D02*
X178093239Y-134034713D01*
X177679128Y-132489232D01*
X179224609Y-132075121D01*
X179638720Y-133620602D01*
X179638720Y-133620602D01*
G37*
G36*
X180454000Y-136663268D02*
X178908519Y-137077379D01*
X178494408Y-135531898D01*
X180039889Y-135117787D01*
X180454000Y-136663268D01*
X180454000Y-136663268D01*
G37*
G36*
X181300703Y-139050468D02*
X179368851Y-139568106D01*
X178851213Y-137636254D01*
X180783065Y-137118616D01*
X181300703Y-139050468D01*
X181300703Y-139050468D01*
G37*
D11*
X178057170Y-130809139D03*
D10*
G36*
X234039718Y-85120811D02*
X234453829Y-86666292D01*
X232908348Y-87080403D01*
X232494237Y-85534922D01*
X234039718Y-85120811D01*
X234039718Y-85120811D01*
G37*
G36*
X237082384Y-84305531D02*
X237496495Y-85851012D01*
X235951014Y-86265123D01*
X235536903Y-84719642D01*
X237082384Y-84305531D01*
X237082384Y-84305531D01*
G37*
G36*
X239469584Y-83458828D02*
X239987222Y-85390680D01*
X238055370Y-85908318D01*
X237537732Y-83976466D01*
X239469584Y-83458828D01*
X239469584Y-83458828D01*
G37*
D11*
X231228255Y-86702361D03*
D10*
G36*
X238970221Y-103521697D02*
X239384332Y-105067178D01*
X237838851Y-105481289D01*
X237424740Y-103935808D01*
X238970221Y-103521697D01*
X238970221Y-103521697D01*
G37*
G36*
X242012887Y-102706417D02*
X242426998Y-104251898D01*
X240881517Y-104666009D01*
X240467406Y-103120528D01*
X242012887Y-102706417D01*
X242012887Y-102706417D01*
G37*
G36*
X244400087Y-101859714D02*
X244917725Y-103791566D01*
X242985873Y-104309204D01*
X242468235Y-102377352D01*
X244400087Y-101859714D01*
X244400087Y-101859714D01*
G37*
D11*
X236158758Y-105103247D03*
D10*
G36*
X202079949Y-39448873D02*
X202494060Y-40994354D01*
X200948579Y-41408465D01*
X200534468Y-39862984D01*
X202079949Y-39448873D01*
X202079949Y-39448873D01*
G37*
G36*
X205122615Y-38633593D02*
X205536726Y-40179074D01*
X203991245Y-40593185D01*
X203577134Y-39047704D01*
X205122615Y-38633593D01*
X205122615Y-38633593D01*
G37*
G36*
X207509815Y-37786890D02*
X208027453Y-39718742D01*
X206095601Y-40236380D01*
X205577963Y-38304528D01*
X207509815Y-37786890D01*
X207509815Y-37786890D01*
G37*
D11*
X199268486Y-41030423D03*
D10*
G36*
X207010452Y-57849761D02*
X207424563Y-59395242D01*
X205879082Y-59809353D01*
X205464971Y-58263872D01*
X207010452Y-57849761D01*
X207010452Y-57849761D01*
G37*
G36*
X210053118Y-57034481D02*
X210467229Y-58579962D01*
X208921748Y-58994073D01*
X208507637Y-57448592D01*
X210053118Y-57034481D01*
X210053118Y-57034481D01*
G37*
G36*
X212440318Y-56187778D02*
X212957956Y-58119630D01*
X211026104Y-58637268D01*
X210508466Y-56705416D01*
X212440318Y-56187778D01*
X212440318Y-56187778D01*
G37*
D11*
X204198989Y-59431311D03*
D10*
G36*
X211940954Y-76250648D02*
X212355065Y-77796129D01*
X210809584Y-78210240D01*
X210395473Y-76664759D01*
X211940954Y-76250648D01*
X211940954Y-76250648D01*
G37*
G36*
X214983620Y-75435368D02*
X215397731Y-76980849D01*
X213852250Y-77394960D01*
X213438139Y-75849479D01*
X214983620Y-75435368D01*
X214983620Y-75435368D01*
G37*
G36*
X217370820Y-74588665D02*
X217888458Y-76520517D01*
X215956606Y-77038155D01*
X215438968Y-75106303D01*
X217370820Y-74588665D01*
X217370820Y-74588665D01*
G37*
D11*
X209129491Y-77832198D03*
D10*
G36*
X216296428Y-94805613D02*
X216710539Y-96351094D01*
X215165058Y-96765205D01*
X214750947Y-95219724D01*
X216296428Y-94805613D01*
X216296428Y-94805613D01*
G37*
G36*
X219339094Y-93990333D02*
X219753205Y-95535814D01*
X218207724Y-95949925D01*
X217793613Y-94404444D01*
X219339094Y-93990333D01*
X219339094Y-93990333D01*
G37*
G36*
X221726294Y-93143630D02*
X222243932Y-95075482D01*
X220312080Y-95593120D01*
X219794442Y-93661268D01*
X221726294Y-93143630D01*
X221726294Y-93143630D01*
G37*
D11*
X213484965Y-96387163D03*
D10*
G36*
X221801960Y-113052422D02*
X222216071Y-114597903D01*
X220670590Y-115012014D01*
X220256479Y-113466533D01*
X221801960Y-113052422D01*
X221801960Y-113052422D01*
G37*
G36*
X224844626Y-112237142D02*
X225258737Y-113782623D01*
X223713256Y-114196734D01*
X223299145Y-112651253D01*
X224844626Y-112237142D01*
X224844626Y-112237142D01*
G37*
G36*
X227231826Y-111390439D02*
X227749464Y-113322291D01*
X225817612Y-113839929D01*
X225299974Y-111908077D01*
X227231826Y-111390439D01*
X227231826Y-111390439D01*
G37*
D11*
X218990497Y-114633972D03*
D10*
G36*
X185486714Y-48825520D02*
X185900825Y-50371001D01*
X184355344Y-50785112D01*
X183941233Y-49239631D01*
X185486714Y-48825520D01*
X185486714Y-48825520D01*
G37*
G36*
X188529380Y-48010240D02*
X188943491Y-49555721D01*
X187398010Y-49969832D01*
X186983899Y-48424351D01*
X188529380Y-48010240D01*
X188529380Y-48010240D01*
G37*
G36*
X190916580Y-47163537D02*
X191434218Y-49095389D01*
X189502366Y-49613027D01*
X188984728Y-47681175D01*
X190916580Y-47163537D01*
X190916580Y-47163537D01*
G37*
D11*
X182675251Y-50407070D03*
D10*
G36*
X190417217Y-67226407D02*
X190831328Y-68771888D01*
X189285847Y-69185999D01*
X188871736Y-67640518D01*
X190417217Y-67226407D01*
X190417217Y-67226407D01*
G37*
G36*
X193459883Y-66411127D02*
X193873994Y-67956608D01*
X192328513Y-68370719D01*
X191914402Y-66825238D01*
X193459883Y-66411127D01*
X193459883Y-66411127D01*
G37*
G36*
X195847083Y-65564424D02*
X196364721Y-67496276D01*
X194432869Y-68013914D01*
X193915231Y-66082062D01*
X195847083Y-65564424D01*
X195847083Y-65564424D01*
G37*
D11*
X187605754Y-68807957D03*
D10*
G36*
X278812273Y-102707057D02*
X279226384Y-104252538D01*
X277680903Y-104666649D01*
X277266792Y-103121168D01*
X278812273Y-102707057D01*
X278812273Y-102707057D01*
G37*
G36*
X281854939Y-101891777D02*
X282269050Y-103437258D01*
X280723569Y-103851369D01*
X280309458Y-102305888D01*
X281854939Y-101891777D01*
X281854939Y-101891777D01*
G37*
G36*
X284242139Y-101045074D02*
X284759777Y-102976926D01*
X282827925Y-103494564D01*
X282310287Y-101562712D01*
X284242139Y-101045074D01*
X284242139Y-101045074D01*
G37*
D11*
X276000810Y-104288607D03*
D10*
G36*
X238881722Y-29587868D02*
X239295833Y-31133349D01*
X237750352Y-31547460D01*
X237336241Y-30001979D01*
X238881722Y-29587868D01*
X238881722Y-29587868D01*
G37*
G36*
X241924388Y-28772588D02*
X242338499Y-30318069D01*
X240793018Y-30732180D01*
X240378907Y-29186699D01*
X241924388Y-28772588D01*
X241924388Y-28772588D01*
G37*
G36*
X244311588Y-27925885D02*
X244829226Y-29857737D01*
X242897374Y-30375375D01*
X242379736Y-28443523D01*
X244311588Y-27925885D01*
X244311588Y-27925885D01*
G37*
D11*
X236070259Y-31169418D03*
D10*
G36*
X243812225Y-47988755D02*
X244226336Y-49534236D01*
X242680855Y-49948347D01*
X242266744Y-48402866D01*
X243812225Y-47988755D01*
X243812225Y-47988755D01*
G37*
G36*
X246854891Y-47173475D02*
X247269002Y-48718956D01*
X245723521Y-49133067D01*
X245309410Y-47587586D01*
X246854891Y-47173475D01*
X246854891Y-47173475D01*
G37*
G36*
X249242091Y-46326772D02*
X249759729Y-48258624D01*
X247827877Y-48776262D01*
X247310239Y-46844410D01*
X249242091Y-46326772D01*
X249242091Y-46326772D01*
G37*
D11*
X241000762Y-49570305D03*
D10*
G36*
X248742728Y-66389642D02*
X249156839Y-67935123D01*
X247611358Y-68349234D01*
X247197247Y-66803753D01*
X248742728Y-66389642D01*
X248742728Y-66389642D01*
G37*
G36*
X251785394Y-65574362D02*
X252199505Y-67119843D01*
X250654024Y-67533954D01*
X250239913Y-65988473D01*
X251785394Y-65574362D01*
X251785394Y-65574362D01*
G37*
G36*
X254172594Y-64727659D02*
X254690232Y-66659511D01*
X252758380Y-67177149D01*
X252240742Y-65245297D01*
X254172594Y-64727659D01*
X254172594Y-64727659D01*
G37*
D11*
X245931265Y-67971192D03*
D10*
G36*
X253673231Y-84790529D02*
X254087342Y-86336010D01*
X252541861Y-86750121D01*
X252127750Y-85204640D01*
X253673231Y-84790529D01*
X253673231Y-84790529D01*
G37*
G36*
X256715897Y-83975249D02*
X257130008Y-85520730D01*
X255584527Y-85934841D01*
X255170416Y-84389360D01*
X256715897Y-83975249D01*
X256715897Y-83975249D01*
G37*
G36*
X259103097Y-83128546D02*
X259620735Y-85060398D01*
X257688883Y-85578036D01*
X257171245Y-83646184D01*
X259103097Y-83128546D01*
X259103097Y-83128546D01*
G37*
D11*
X250861768Y-86372079D03*
D10*
G36*
X258603733Y-103191416D02*
X259017844Y-104736897D01*
X257472363Y-105151008D01*
X257058252Y-103605527D01*
X258603733Y-103191416D01*
X258603733Y-103191416D01*
G37*
G36*
X261646399Y-102376136D02*
X262060510Y-103921617D01*
X260515029Y-104335728D01*
X260100918Y-102790247D01*
X261646399Y-102376136D01*
X261646399Y-102376136D01*
G37*
G36*
X264033599Y-101529433D02*
X264551237Y-103461285D01*
X262619385Y-103978923D01*
X262101747Y-102047071D01*
X264033599Y-101529433D01*
X264033599Y-101529433D01*
G37*
D11*
X255792270Y-104772966D03*
D10*
G36*
X219248210Y-29918150D02*
X219662321Y-31463631D01*
X218116840Y-31877742D01*
X217702729Y-30332261D01*
X219248210Y-29918150D01*
X219248210Y-29918150D01*
G37*
G36*
X222290876Y-29102870D02*
X222704987Y-30648351D01*
X221159506Y-31062462D01*
X220745395Y-29516981D01*
X222290876Y-29102870D01*
X222290876Y-29102870D01*
G37*
G36*
X224678076Y-28256167D02*
X225195714Y-30188019D01*
X223263862Y-30705657D01*
X222746224Y-28773805D01*
X224678076Y-28256167D01*
X224678076Y-28256167D01*
G37*
D11*
X216436747Y-31499700D03*
D10*
G36*
X224178713Y-48319036D02*
X224592824Y-49864517D01*
X223047343Y-50278628D01*
X222633232Y-48733147D01*
X224178713Y-48319036D01*
X224178713Y-48319036D01*
G37*
G36*
X227221379Y-47503756D02*
X227635490Y-49049237D01*
X226090009Y-49463348D01*
X225675898Y-47917867D01*
X227221379Y-47503756D01*
X227221379Y-47503756D01*
G37*
G36*
X229608579Y-46657053D02*
X230126217Y-48588905D01*
X228194365Y-49106543D01*
X227676727Y-47174691D01*
X229608579Y-46657053D01*
X229608579Y-46657053D01*
G37*
D11*
X221367250Y-49900586D03*
D10*
G36*
X229109216Y-66719923D02*
X229523327Y-68265404D01*
X227977846Y-68679515D01*
X227563735Y-67134034D01*
X229109216Y-66719923D01*
X229109216Y-66719923D01*
G37*
G36*
X232151882Y-65904643D02*
X232565993Y-67450124D01*
X231020512Y-67864235D01*
X230606401Y-66318754D01*
X232151882Y-65904643D01*
X232151882Y-65904643D01*
G37*
G36*
X234539082Y-65057940D02*
X235056720Y-66989792D01*
X233124868Y-67507430D01*
X232607230Y-65575578D01*
X234539082Y-65057940D01*
X234539082Y-65057940D01*
G37*
D11*
X226297753Y-68301473D03*
D10*
G36*
X286116566Y-21861833D02*
X286530677Y-23407314D01*
X284985196Y-23821425D01*
X284571085Y-22275944D01*
X286116566Y-21861833D01*
X286116566Y-21861833D01*
G37*
G36*
X289159232Y-21046553D02*
X289573343Y-22592034D01*
X288027862Y-23006145D01*
X287613751Y-21460664D01*
X289159232Y-21046553D01*
X289159232Y-21046553D01*
G37*
G36*
X291546432Y-20199850D02*
X292064070Y-22131702D01*
X290132218Y-22649340D01*
X289614580Y-20717488D01*
X291546432Y-20199850D01*
X291546432Y-20199850D01*
G37*
D11*
X283305103Y-23443383D03*
D10*
G36*
X288171929Y-41033111D02*
X288586040Y-42578592D01*
X287040559Y-42992703D01*
X286626448Y-41447222D01*
X288171929Y-41033111D01*
X288171929Y-41033111D01*
G37*
G36*
X291214595Y-40217831D02*
X291628706Y-41763312D01*
X290083225Y-42177423D01*
X289669114Y-40631942D01*
X291214595Y-40217831D01*
X291214595Y-40217831D01*
G37*
G36*
X293601795Y-39371128D02*
X294119433Y-41302980D01*
X292187581Y-41820618D01*
X291669943Y-39888766D01*
X293601795Y-39371128D01*
X293601795Y-39371128D01*
G37*
D11*
X285360466Y-42614661D03*
D10*
G36*
X298277682Y-58047294D02*
X298691793Y-59592775D01*
X297146312Y-60006886D01*
X296732201Y-58461405D01*
X298277682Y-58047294D01*
X298277682Y-58047294D01*
G37*
G36*
X301320348Y-57232014D02*
X301734459Y-58777495D01*
X300188978Y-59191606D01*
X299774867Y-57646125D01*
X301320348Y-57232014D01*
X301320348Y-57232014D01*
G37*
G36*
X303707548Y-56385311D02*
X304225186Y-58317163D01*
X302293334Y-58834801D01*
X301775696Y-56902949D01*
X303707548Y-56385311D01*
X303707548Y-56385311D01*
G37*
D11*
X295466219Y-59628844D03*
D10*
G36*
X303343102Y-93052477D02*
X303757213Y-94597958D01*
X302211732Y-95012069D01*
X301797621Y-93466588D01*
X303343102Y-93052477D01*
X303343102Y-93052477D01*
G37*
G36*
X306385768Y-92237197D02*
X306799879Y-93782678D01*
X305254398Y-94196789D01*
X304840287Y-92651308D01*
X306385768Y-92237197D01*
X306385768Y-92237197D01*
G37*
G36*
X308772968Y-91390494D02*
X309290606Y-93322346D01*
X307358754Y-93839984D01*
X306841116Y-91908132D01*
X308772968Y-91390494D01*
X308772968Y-91390494D01*
G37*
D11*
X300531639Y-94634027D03*
D10*
G36*
X328223373Y-87002141D02*
X328637484Y-88547622D01*
X327092003Y-88961733D01*
X326677892Y-87416252D01*
X328223373Y-87002141D01*
X328223373Y-87002141D01*
G37*
G36*
X331266039Y-86186861D02*
X331680150Y-87732342D01*
X330134669Y-88146453D01*
X329720558Y-86600972D01*
X331266039Y-86186861D01*
X331266039Y-86186861D01*
G37*
G36*
X333653239Y-85340158D02*
X334170877Y-87272010D01*
X332239025Y-87789648D01*
X331721387Y-85857796D01*
X333653239Y-85340158D01*
X333653239Y-85340158D01*
G37*
D11*
X325411910Y-88583691D03*
D10*
G36*
X258515235Y-29257587D02*
X258929346Y-30803068D01*
X257383865Y-31217179D01*
X256969754Y-29671698D01*
X258515235Y-29257587D01*
X258515235Y-29257587D01*
G37*
G36*
X261557901Y-28442307D02*
X261972012Y-29987788D01*
X260426531Y-30401899D01*
X260012420Y-28856418D01*
X261557901Y-28442307D01*
X261557901Y-28442307D01*
G37*
G36*
X263945101Y-27595604D02*
X264462739Y-29527456D01*
X262530887Y-30045094D01*
X262013249Y-28113242D01*
X263945101Y-27595604D01*
X263945101Y-27595604D01*
G37*
D11*
X255703772Y-30839137D03*
D10*
G36*
X263445738Y-47658475D02*
X263859849Y-49203956D01*
X262314368Y-49618067D01*
X261900257Y-48072586D01*
X263445738Y-47658475D01*
X263445738Y-47658475D01*
G37*
G36*
X266488404Y-46843195D02*
X266902515Y-48388676D01*
X265357034Y-48802787D01*
X264942923Y-47257306D01*
X266488404Y-46843195D01*
X266488404Y-46843195D01*
G37*
G36*
X268875604Y-45996492D02*
X269393242Y-47928344D01*
X267461390Y-48445982D01*
X266943752Y-46514130D01*
X268875604Y-45996492D01*
X268875604Y-45996492D01*
G37*
D11*
X260634275Y-49240025D03*
D10*
G36*
X268376241Y-66059361D02*
X268790352Y-67604842D01*
X267244871Y-68018953D01*
X266830760Y-66473472D01*
X268376241Y-66059361D01*
X268376241Y-66059361D01*
G37*
G36*
X271418907Y-65244081D02*
X271833018Y-66789562D01*
X270287537Y-67203673D01*
X269873426Y-65658192D01*
X271418907Y-65244081D01*
X271418907Y-65244081D01*
G37*
G36*
X273806107Y-64397378D02*
X274323745Y-66329230D01*
X272391893Y-66846868D01*
X271874255Y-64915016D01*
X273806107Y-64397378D01*
X273806107Y-64397378D01*
G37*
D11*
X265564778Y-67640911D03*
D10*
G36*
X273306744Y-84460248D02*
X273720855Y-86005729D01*
X272175374Y-86419840D01*
X271761263Y-84874359D01*
X273306744Y-84460248D01*
X273306744Y-84460248D01*
G37*
G36*
X276349410Y-83644968D02*
X276763521Y-85190449D01*
X275218040Y-85604560D01*
X274803929Y-84059079D01*
X276349410Y-83644968D01*
X276349410Y-83644968D01*
G37*
G36*
X278736610Y-82798265D02*
X279254248Y-84730117D01*
X277322396Y-85247755D01*
X276804758Y-83315903D01*
X278736610Y-82798265D01*
X278736610Y-82798265D01*
G37*
D11*
X270495281Y-86041798D03*
D12*
X35718750Y-104775000D03*
X164306250Y-71437500D03*
X292893750Y-104775000D03*
X164306250Y-150018750D03*
X21431250Y-40481250D03*
X307181250Y-40481250D03*
D13*
X258194489Y-34996869D02*
X257789065Y-36616909D01*
X263265652Y-32520604D02*
X263377314Y-33089754D01*
X64614368Y-33475051D02*
X63453240Y-34675335D01*
X70244255Y-33866123D02*
X70056383Y-34414853D01*
X84247881Y-33805332D02*
X83086753Y-35005616D01*
X89877768Y-34196404D02*
X89689896Y-34745134D01*
X103881393Y-34135613D02*
X102720265Y-35335897D01*
X109511280Y-34526685D02*
X109323408Y-35075415D01*
X121049655Y-43666337D02*
X119888527Y-44866621D01*
X126679542Y-44057409D02*
X126491670Y-44606139D01*
X138217916Y-53197062D02*
X137056788Y-54397346D01*
X143847803Y-53588134D02*
X143659931Y-54136864D01*
X184590940Y-54718880D02*
X184185516Y-56338920D01*
X189662103Y-52242615D02*
X189773765Y-52811765D01*
X201759201Y-45188155D02*
X201353777Y-46808195D01*
X206830364Y-42711890D02*
X206942026Y-43281040D01*
X218927464Y-35657431D02*
X218522040Y-37277471D01*
X223998627Y-33181166D02*
X224110289Y-33750316D01*
X238560976Y-35327150D02*
X238155552Y-36947190D01*
X243632139Y-32850885D02*
X243743801Y-33420035D01*
X54753363Y-70276825D02*
X53592235Y-71477109D01*
X60383250Y-70667897D02*
X60195378Y-71216627D01*
X123426408Y-108399723D02*
X122265280Y-109600007D01*
X129056295Y-108790795D02*
X128868423Y-109339525D01*
X285795819Y-27601114D02*
X285390395Y-29221154D01*
X290866982Y-25124849D02*
X290978644Y-25693999D01*
X89089885Y-89338274D02*
X87928757Y-90538558D01*
X94719772Y-89729346D02*
X94531900Y-90278076D01*
X268055494Y-71798643D02*
X267650070Y-73418683D01*
X273126657Y-69322378D02*
X273238319Y-69891528D01*
X233718972Y-90860092D02*
X233313548Y-92480132D01*
X238790135Y-88383827D02*
X238901797Y-88952977D01*
X94020388Y-70937387D02*
X92859260Y-72137671D01*
X99650275Y-71328459D02*
X99462403Y-71877189D01*
X27812595Y-23614045D02*
X26651467Y-24814329D01*
X33442482Y-24005117D02*
X33254610Y-24553847D01*
X238649475Y-109260980D02*
X238244051Y-110881020D01*
X243720638Y-106784715D02*
X243832300Y-107353865D01*
X98950891Y-52536499D02*
X97789763Y-53736783D01*
X104580778Y-52927571D02*
X104392906Y-53476301D01*
X191699361Y-127807425D02*
X190079321Y-127402001D01*
X194175626Y-132878588D02*
X193606476Y-132990250D01*
X297956935Y-63786576D02*
X297551511Y-65406616D01*
X303028098Y-61310311D02*
X303139760Y-61879461D01*
X46213481Y-28544548D02*
X45052353Y-29744832D01*
X51843368Y-28935620D02*
X51655496Y-29484350D01*
X111188649Y-80468111D02*
X110027521Y-81668395D01*
X116818536Y-80859183D02*
X116630664Y-81407913D01*
X101327644Y-117269885D02*
X100166516Y-118470169D01*
X106957531Y-117660957D02*
X106769659Y-118209687D01*
X128356910Y-89998836D02*
X127195782Y-91199120D01*
X133986797Y-90389908D02*
X133798925Y-90938638D01*
X194451947Y-91520655D02*
X194046523Y-93140695D01*
X199523110Y-89044390D02*
X199634772Y-89613540D01*
X223857966Y-54058318D02*
X223452542Y-55678358D01*
X228929129Y-51582053D02*
X229040791Y-52151203D01*
X211620208Y-81989930D02*
X211214784Y-83609970D01*
X216691371Y-79513665D02*
X216803033Y-80082815D01*
X228788468Y-72459205D02*
X228383044Y-74079245D01*
X233859631Y-69982940D02*
X233971293Y-70552090D01*
X248421980Y-72128924D02*
X248016556Y-73748964D01*
X253493143Y-69652659D02*
X253604805Y-70221809D01*
X84159382Y-107739160D02*
X82998254Y-108939444D01*
X89789269Y-108130232D02*
X89601397Y-108678962D01*
X150455674Y-81128674D02*
X149294546Y-82328958D01*
X156085561Y-81519746D02*
X155897689Y-82068476D01*
X44892357Y-107078599D02*
X43731229Y-108278883D01*
X50522244Y-107469671D02*
X50334372Y-108018401D01*
X221481213Y-118791703D02*
X221075789Y-120411743D01*
X226552376Y-116315438D02*
X226664038Y-116884588D01*
X118495905Y-126800610D02*
X117334777Y-128000894D01*
X124125792Y-127191682D02*
X123937920Y-127740412D01*
X216550711Y-100390817D02*
X216145287Y-102010857D01*
X221621874Y-97914552D02*
X221733536Y-98483702D01*
X199382449Y-109921541D02*
X198977025Y-111541581D01*
X204453612Y-107445276D02*
X204565274Y-108014426D01*
X24851921Y-62264758D02*
X23690793Y-63465042D01*
X30481808Y-62655830D02*
X30293936Y-63204560D01*
X243491479Y-53728037D02*
X243086055Y-55348077D01*
X248562642Y-51251772D02*
X248674304Y-51820922D01*
X263124992Y-53397756D02*
X262719568Y-55017796D01*
X268196155Y-50921491D02*
X268307817Y-51490641D01*
X253352483Y-90529811D02*
X252947059Y-92149851D01*
X258423646Y-88053546D02*
X258535308Y-88622696D01*
X145525172Y-99529560D02*
X144364044Y-100729844D01*
X151155059Y-99920632D02*
X150967187Y-100469362D01*
X177283685Y-101051379D02*
X176878261Y-102671419D01*
X182354848Y-98575114D02*
X182466510Y-99144264D01*
X286126099Y-47234628D02*
X285720675Y-48854668D01*
X291197262Y-44758363D02*
X291308924Y-45327513D01*
X59683865Y-51875938D02*
X58522737Y-53076222D01*
X65313752Y-52267010D02*
X65125880Y-52815740D01*
X272985996Y-90199530D02*
X272580572Y-91819570D01*
X278057159Y-87723265D02*
X278168821Y-88292415D01*
X116119152Y-62067224D02*
X114958024Y-63267508D01*
X121749039Y-62458296D02*
X121561167Y-63007026D01*
X204312951Y-128322428D02*
X203907527Y-129942468D01*
X209384114Y-125846163D02*
X209495776Y-126415313D01*
X172353183Y-82650492D02*
X171947759Y-84270532D01*
X177424346Y-80174227D02*
X177536008Y-80743377D01*
X323588436Y-76640647D02*
X323183012Y-78260687D01*
X328659599Y-74164382D02*
X328771261Y-74733532D01*
X277916499Y-108600417D02*
X277511075Y-110220457D01*
X282987662Y-106124152D02*
X283099324Y-106693302D01*
X298287215Y-83420089D02*
X297881791Y-85040129D01*
X303358378Y-80943824D02*
X303470040Y-81512974D01*
X74386876Y-70607105D02*
X73225748Y-71807389D01*
X80016763Y-70998177D02*
X79828891Y-71546907D01*
X15321197Y-79433019D02*
X14160069Y-80633303D01*
X20951084Y-79824091D02*
X20763212Y-80372821D01*
X135351495Y-133632964D02*
X136551779Y-134794092D01*
X135742567Y-128003077D02*
X136291297Y-128190949D01*
X133287413Y-71597949D02*
X132126285Y-72798233D01*
X138917300Y-71989021D02*
X138729428Y-72537751D01*
X36682757Y-45712809D02*
X35521629Y-46913093D01*
X42312644Y-46103881D02*
X42124772Y-46652611D01*
X206689704Y-63589043D02*
X206284280Y-65209083D01*
X211760867Y-61112778D02*
X211872529Y-61681928D01*
X258282987Y-108930698D02*
X257877563Y-110550738D01*
X263354150Y-106454433D02*
X263465812Y-107023583D01*
X106258146Y-98868999D02*
X105097018Y-100069283D01*
X111888033Y-99260071D02*
X111700161Y-99808801D01*
X79317378Y-52206219D02*
X78156250Y-53406503D01*
X84947265Y-52597291D02*
X84759393Y-53146021D01*
X64525870Y-107408880D02*
X63364742Y-108609164D01*
X70155757Y-107799952D02*
X69967885Y-108348682D01*
X69456373Y-89007993D02*
X68295245Y-90208277D01*
X75086260Y-89399065D02*
X74898388Y-89947795D01*
X189521444Y-73119767D02*
X189116020Y-74739807D01*
X194592607Y-70643502D02*
X194704269Y-71212652D01*
X49822860Y-88677712D02*
X48661732Y-89877996D01*
X55452747Y-89068784D02*
X55264875Y-89617514D01*
D14*
X177825000Y-37618750D03*
X184125000Y-37618750D03*
X177825000Y-33818750D03*
X184125000Y-33818750D03*
D15*
X156686250Y-31273750D03*
D16*
X156686250Y-33813750D03*
X156686250Y-36353750D03*
X156686250Y-38893750D03*
X156686250Y-41433750D03*
X156686250Y-43973750D03*
X156686250Y-46513750D03*
X156686250Y-49053750D03*
X156686250Y-51593750D03*
X156686250Y-54133750D03*
X156686250Y-56673750D03*
X156686250Y-59213750D03*
X171926250Y-59213750D03*
X171926250Y-56673750D03*
X171926250Y-54133750D03*
X171926250Y-51593750D03*
X171926250Y-49053750D03*
X171926250Y-46513750D03*
X171926250Y-43973750D03*
X171926250Y-41433750D03*
X171926250Y-38893750D03*
X171926250Y-36353750D03*
X171926250Y-33813750D03*
X171926250Y-31273750D03*
D17*
X146812000Y-41656000D03*
X146812000Y-35560000D03*
X146812000Y-38608000D03*
M02*
