%TF.GenerationSoftware,KiCad,Pcbnew,4.0.7*%
%TF.CreationDate,2018-09-12T19:18:30-05:00*%
%TF.ProjectId,ergo60tilt,6572676F363074696C742E6B69636164,rev?*%
%TF.FileFunction,Legend,Bot*%
%FSLAX46Y46*%
G04 Gerber Fmt 4.6, Leading zero omitted, Abs format (unit mm)*
G04 Created by KiCad (PCBNEW 4.0.7) date 09/12/18 19:18:30*
%MOMM*%
%LPD*%
G01*
G04 APERTURE LIST*
%ADD10C,0.100000*%
%ADD11C,0.200000*%
%ADD12C,0.120000*%
%ADD13C,0.150000*%
G04 APERTURE END LIST*
D10*
D11*
X34260440Y-19281762D02*
X33639274Y-21599984D01*
X34429477Y-19327056D02*
X33808311Y-21645278D01*
X34598514Y-19372349D02*
X33977348Y-21690571D01*
X34363719Y-21794099D02*
X34984884Y-19475877D01*
X34767551Y-19417642D02*
X34146385Y-21735864D01*
X34888292Y-19449995D02*
X34267126Y-21768217D01*
X34960736Y-19469406D02*
X29358367Y-17968256D01*
X29358367Y-17968256D02*
X28737201Y-20286478D01*
X28737201Y-20286478D02*
X34339571Y-21787628D01*
X52086300Y-24058186D02*
X51465134Y-26376408D01*
X52255337Y-24103480D02*
X51634171Y-26421702D01*
X52424374Y-24148773D02*
X51803208Y-26466995D01*
X52189579Y-26570523D02*
X52810744Y-24252301D01*
X52593411Y-24194066D02*
X51972245Y-26512288D01*
X52714152Y-24226419D02*
X52092986Y-26544641D01*
X52786596Y-24245830D02*
X47184227Y-22744680D01*
X47184227Y-22744680D02*
X46563061Y-25062902D01*
X46563061Y-25062902D02*
X52165431Y-26564052D01*
X42555575Y-41226447D02*
X41934409Y-43544669D01*
X42724612Y-41271741D02*
X42103446Y-43589963D01*
X42893649Y-41317034D02*
X42272483Y-43635256D01*
X42658854Y-43738784D02*
X43280019Y-41420562D01*
X43062686Y-41362327D02*
X42441520Y-43680549D01*
X43183427Y-41394680D02*
X42562261Y-43712902D01*
X43255871Y-41414091D02*
X37653502Y-39912941D01*
X37653502Y-39912941D02*
X37032336Y-42231163D01*
X37032336Y-42231163D02*
X42634706Y-43732313D01*
X31299767Y-57932474D02*
X30678601Y-60250696D01*
X31468804Y-57977768D02*
X30847638Y-60295990D01*
X31637841Y-58023061D02*
X31016675Y-60341283D01*
X31403046Y-60444811D02*
X32024211Y-58126589D01*
X31806878Y-58068354D02*
X31185712Y-60386576D01*
X31927619Y-58100707D02*
X31306453Y-60418929D01*
X32000063Y-58120118D02*
X26397694Y-56618968D01*
X26397694Y-56618968D02*
X25776528Y-58937190D01*
X25776528Y-58937190D02*
X31378898Y-60438340D01*
X16725747Y-91622461D02*
X16104581Y-93940683D01*
X16894784Y-91667755D02*
X16273618Y-93985977D01*
X17063821Y-91713048D02*
X16442655Y-94031270D01*
X16829026Y-94134798D02*
X17450191Y-91816576D01*
X17232858Y-91758341D02*
X16611692Y-94076563D01*
X17353599Y-91790694D02*
X16732433Y-94108916D01*
X17426043Y-91810105D02*
X11823674Y-90308955D01*
X11823674Y-90308955D02*
X11202508Y-92627177D01*
X11202508Y-92627177D02*
X16804878Y-94128327D01*
X71062214Y-29142767D02*
X70441048Y-31460989D01*
X71231251Y-29188061D02*
X70610085Y-31506283D01*
X71400288Y-29233354D02*
X70779122Y-31551576D01*
X71165493Y-31655104D02*
X71786658Y-29336882D01*
X71569325Y-29278647D02*
X70948159Y-31596869D01*
X71690066Y-29311000D02*
X71068900Y-31629222D01*
X71762510Y-29330411D02*
X66160141Y-27829261D01*
X66160141Y-27829261D02*
X65538975Y-30147483D01*
X65538975Y-30147483D02*
X71141345Y-31648633D01*
X66131710Y-47543654D02*
X65510544Y-49861876D01*
X66300747Y-47588948D02*
X65679581Y-49907170D01*
X66469784Y-47634241D02*
X65848618Y-49952463D01*
X66234989Y-50055991D02*
X66856154Y-47737769D01*
X66638821Y-47679534D02*
X66017655Y-49997756D01*
X66759562Y-47711887D02*
X66138396Y-50030109D01*
X66832006Y-47731298D02*
X61229637Y-46230148D01*
X61229637Y-46230148D02*
X60608471Y-48548370D01*
X60608471Y-48548370D02*
X66210841Y-50049520D01*
X61201208Y-65944541D02*
X60580042Y-68262763D01*
X61370245Y-65989835D02*
X60749079Y-68308057D01*
X61539282Y-66035128D02*
X60918116Y-68353350D01*
X61304487Y-68456878D02*
X61925652Y-66138656D01*
X61708319Y-66080421D02*
X61087153Y-68398643D01*
X61829060Y-66112774D02*
X61207894Y-68430996D01*
X61901504Y-66132185D02*
X56299135Y-64631035D01*
X56299135Y-64631035D02*
X55677969Y-66949257D01*
X55677969Y-66949257D02*
X61280339Y-68450407D01*
X56270705Y-84345428D02*
X55649539Y-86663650D01*
X56439742Y-84390722D02*
X55818576Y-86708944D01*
X56608779Y-84436015D02*
X55987613Y-86754237D01*
X56373984Y-86857765D02*
X56995149Y-84539543D01*
X56777816Y-84481308D02*
X56156650Y-86799530D01*
X56898557Y-84513661D02*
X56277391Y-86831883D01*
X56971001Y-84533072D02*
X51368632Y-83031922D01*
X51368632Y-83031922D02*
X50747466Y-85350144D01*
X50747466Y-85350144D02*
X56349836Y-86851294D01*
X51340202Y-102746315D02*
X50719036Y-105064537D01*
X51509239Y-102791609D02*
X50888073Y-105109831D01*
X51678276Y-102836902D02*
X51057110Y-105155124D01*
X51443481Y-105258652D02*
X52064646Y-102940430D01*
X51847313Y-102882195D02*
X51226147Y-105200417D01*
X51968054Y-102914548D02*
X51346888Y-105232770D01*
X52040498Y-102933959D02*
X46438129Y-101432809D01*
X46438129Y-101432809D02*
X45816963Y-103751031D01*
X45816963Y-103751031D02*
X51419333Y-105252181D01*
X90695726Y-29473048D02*
X90074560Y-31791270D01*
X90864763Y-29518342D02*
X90243597Y-31836564D01*
X91033800Y-29563635D02*
X90412634Y-31881857D01*
X90799005Y-31985385D02*
X91420170Y-29667163D01*
X91202837Y-29608928D02*
X90581671Y-31927150D01*
X91323578Y-29641281D02*
X90702412Y-31959503D01*
X91396022Y-29660692D02*
X85793653Y-28159542D01*
X85793653Y-28159542D02*
X85172487Y-30477764D01*
X85172487Y-30477764D02*
X90774857Y-31978914D01*
X85036118Y-48294884D02*
X84414952Y-50613106D01*
X85205155Y-48340178D02*
X84583989Y-50658400D01*
X85374192Y-48385471D02*
X84753026Y-50703693D01*
X85139397Y-50807221D02*
X85760562Y-48488999D01*
X85543229Y-48430764D02*
X84922063Y-50748986D01*
X85663970Y-48463117D02*
X85042804Y-50781339D01*
X85736414Y-48482528D02*
X80134045Y-46981378D01*
X80134045Y-46981378D02*
X79512879Y-49299600D01*
X79512879Y-49299600D02*
X85115249Y-50800750D01*
X80259694Y-66120744D02*
X79638528Y-68438966D01*
X80428731Y-66166038D02*
X79807565Y-68484260D01*
X80597768Y-66211331D02*
X79976602Y-68529553D01*
X80362973Y-68633081D02*
X80984138Y-66314859D01*
X80766805Y-66256624D02*
X80145639Y-68574846D01*
X80887546Y-66288977D02*
X80266380Y-68607199D01*
X80959990Y-66308388D02*
X75357621Y-64807238D01*
X75357621Y-64807238D02*
X74736455Y-67125460D01*
X74736455Y-67125460D02*
X80338825Y-68626610D01*
X75329191Y-84521630D02*
X74708025Y-86839852D01*
X75498228Y-84566924D02*
X74877062Y-86885146D01*
X75667265Y-84612217D02*
X75046099Y-86930439D01*
X75432470Y-87033967D02*
X76053635Y-84715745D01*
X75836302Y-84657510D02*
X75215136Y-86975732D01*
X75957043Y-84689863D02*
X75335877Y-87008085D01*
X76029487Y-84709274D02*
X70427118Y-83208124D01*
X70427118Y-83208124D02*
X69805952Y-85526346D01*
X69805952Y-85526346D02*
X75408322Y-87027496D01*
X70244609Y-103497545D02*
X69623443Y-105815767D01*
X70413646Y-103542839D02*
X69792480Y-105861061D01*
X70582683Y-103588132D02*
X69961517Y-105906354D01*
X70347888Y-106009882D02*
X70969053Y-103691660D01*
X70751720Y-103633425D02*
X70130554Y-105951647D01*
X70872461Y-103665778D02*
X70251295Y-105984000D01*
X70944905Y-103685189D02*
X65342536Y-102184039D01*
X65342536Y-102184039D02*
X64721370Y-104502261D01*
X64721370Y-104502261D02*
X70323740Y-106003411D01*
X110329239Y-29803329D02*
X109708073Y-32121551D01*
X110498276Y-29848623D02*
X109877110Y-32166845D01*
X110667313Y-29893916D02*
X110046147Y-32212138D01*
X110432518Y-32315666D02*
X111053683Y-29997444D01*
X110836350Y-29939209D02*
X110215184Y-32257431D01*
X110957091Y-29971562D02*
X110335925Y-32289784D01*
X111029535Y-29990973D02*
X105427166Y-28489823D01*
X105427166Y-28489823D02*
X104806000Y-30808045D01*
X104806000Y-30808045D02*
X110408370Y-32309195D01*
X104823709Y-48050138D02*
X104202543Y-50368360D01*
X104992746Y-48095432D02*
X104371580Y-50413654D01*
X105161783Y-48140725D02*
X104540617Y-50458947D01*
X104926988Y-50562475D02*
X105548153Y-48244253D01*
X105330820Y-48186018D02*
X104709654Y-50504240D01*
X105451561Y-48218371D02*
X104830395Y-50536593D01*
X105524005Y-48237782D02*
X99921636Y-46736632D01*
X99921636Y-46736632D02*
X99300470Y-49054854D01*
X99300470Y-49054854D02*
X104902840Y-50556004D01*
X99893206Y-66451025D02*
X99272040Y-68769247D01*
X100062243Y-66496319D02*
X99441077Y-68814541D01*
X100231280Y-66541612D02*
X99610114Y-68859834D01*
X99996485Y-68963362D02*
X100617650Y-66645140D01*
X100400317Y-66586905D02*
X99779151Y-68905127D01*
X100521058Y-66619258D02*
X99899892Y-68937480D01*
X100593502Y-66638669D02*
X94991133Y-65137519D01*
X94991133Y-65137519D02*
X94369967Y-67455741D01*
X94369967Y-67455741D02*
X99972337Y-68956891D01*
X94808625Y-85426939D02*
X94187459Y-87745161D01*
X94977662Y-85472233D02*
X94356496Y-87790455D01*
X95146699Y-85517526D02*
X94525533Y-87835748D01*
X94911904Y-87939276D02*
X95533069Y-85621054D01*
X95315736Y-85562819D02*
X94694570Y-87881041D01*
X95436477Y-85595172D02*
X94815311Y-87913394D01*
X95508921Y-85614583D02*
X89906552Y-84113433D01*
X89906552Y-84113433D02*
X89285386Y-86431655D01*
X89285386Y-86431655D02*
X94887756Y-87932805D01*
X90607228Y-103406877D02*
X89986062Y-105725099D01*
X90776265Y-103452171D02*
X90155099Y-105770393D01*
X90945302Y-103497464D02*
X90324136Y-105815686D01*
X90710507Y-105919214D02*
X91331672Y-103600992D01*
X91114339Y-103542757D02*
X90493173Y-105860979D01*
X91235080Y-103575110D02*
X90613914Y-105893332D01*
X91307524Y-103594521D02*
X85705155Y-102093371D01*
X85705155Y-102093371D02*
X85083989Y-104411593D01*
X85083989Y-104411593D02*
X90686359Y-105912743D01*
X127497501Y-39334054D02*
X126876335Y-41652276D01*
X127666538Y-39379348D02*
X127045372Y-41697570D01*
X127835575Y-39424641D02*
X127214409Y-41742863D01*
X127600780Y-41846391D02*
X128221945Y-39528169D01*
X128004612Y-39469934D02*
X127383446Y-41788156D01*
X128125353Y-39502287D02*
X127504187Y-41820509D01*
X128197797Y-39521698D02*
X122595428Y-38020548D01*
X122595428Y-38020548D02*
X121974262Y-40338770D01*
X121974262Y-40338770D02*
X127576632Y-41839920D01*
X122566998Y-57734941D02*
X121945832Y-60053163D01*
X122736035Y-57780235D02*
X122114869Y-60098457D01*
X122905072Y-57825528D02*
X122283906Y-60143750D01*
X122670277Y-60247278D02*
X123291442Y-57929056D01*
X123074109Y-57870821D02*
X122452943Y-60189043D01*
X123194850Y-57903174D02*
X122573684Y-60221396D01*
X123267294Y-57922585D02*
X117664925Y-56421435D01*
X117664925Y-56421435D02*
X117043759Y-58739657D01*
X117043759Y-58739657D02*
X122646129Y-60240807D01*
X117636495Y-76135827D02*
X117015329Y-78454049D01*
X117805532Y-76181121D02*
X117184366Y-78499343D01*
X117974569Y-76226414D02*
X117353403Y-78544636D01*
X117739774Y-78648164D02*
X118360939Y-76329942D01*
X118143606Y-76271707D02*
X117522440Y-78589929D01*
X118264347Y-76304060D02*
X117643181Y-78622282D01*
X118336791Y-76323471D02*
X112734422Y-74822321D01*
X112734422Y-74822321D02*
X112113256Y-77140543D01*
X112113256Y-77140543D02*
X117715626Y-78641693D01*
X113281020Y-94690793D02*
X112659854Y-97009015D01*
X113450057Y-94736087D02*
X112828891Y-97054309D01*
X113619094Y-94781380D02*
X112997928Y-97099602D01*
X113384299Y-97203130D02*
X114005464Y-94884908D01*
X113788131Y-94826673D02*
X113166965Y-97144895D01*
X113908872Y-94859026D02*
X113287706Y-97177248D01*
X113981316Y-94878437D02*
X108378947Y-93377287D01*
X108378947Y-93377287D02*
X107757781Y-95695509D01*
X107757781Y-95695509D02*
X113360151Y-97196659D01*
X107621411Y-113512628D02*
X107000245Y-115830850D01*
X107790448Y-113557922D02*
X107169282Y-115876144D01*
X107959485Y-113603215D02*
X107338319Y-115921437D01*
X107724690Y-116024965D02*
X108345855Y-113706743D01*
X108128522Y-113648508D02*
X107507356Y-115966730D01*
X108249263Y-113680861D02*
X107628097Y-115999083D01*
X108321707Y-113700272D02*
X102719338Y-112199122D01*
X102719338Y-112199122D02*
X102098172Y-114517344D01*
X102098172Y-114517344D02*
X107700542Y-116018494D01*
X144665762Y-48864779D02*
X144044596Y-51183001D01*
X144834799Y-48910073D02*
X144213633Y-51228295D01*
X145003836Y-48955366D02*
X144382670Y-51273588D01*
X144769041Y-51377116D02*
X145390206Y-49058894D01*
X145172873Y-49000659D02*
X144551707Y-51318881D01*
X145293614Y-49033012D02*
X144672448Y-51351234D01*
X145366058Y-49052423D02*
X139763689Y-47551273D01*
X139763689Y-47551273D02*
X139142523Y-49869495D01*
X139142523Y-49869495D02*
X144744893Y-51370645D01*
X139735259Y-67265665D02*
X139114093Y-69583887D01*
X139904296Y-67310959D02*
X139283130Y-69629181D01*
X140073333Y-67356252D02*
X139452167Y-69674474D01*
X139838538Y-69778002D02*
X140459703Y-67459780D01*
X140242370Y-67401545D02*
X139621204Y-69719767D01*
X140363111Y-67433898D02*
X139741945Y-69752120D01*
X140435555Y-67453309D02*
X134833186Y-65952159D01*
X134833186Y-65952159D02*
X134212020Y-68270381D01*
X134212020Y-68270381D02*
X139814390Y-69771531D01*
X134804756Y-85666552D02*
X134183590Y-87984774D01*
X134973793Y-85711846D02*
X134352627Y-88030068D01*
X135142830Y-85757139D02*
X134521664Y-88075361D01*
X134908035Y-88178889D02*
X135529200Y-85860667D01*
X135311867Y-85802432D02*
X134690701Y-88120654D01*
X135432608Y-85834785D02*
X134811442Y-88153007D01*
X135505052Y-85854196D02*
X129902683Y-84353046D01*
X129902683Y-84353046D02*
X129281517Y-86671268D01*
X129281517Y-86671268D02*
X134883887Y-88172418D01*
X129874254Y-104067440D02*
X129253088Y-106385662D01*
X130043291Y-104112734D02*
X129422125Y-106430956D01*
X130212328Y-104158027D02*
X129591162Y-106476249D01*
X129977533Y-106579777D02*
X130598698Y-104261555D01*
X130381365Y-104203320D02*
X129760199Y-106521542D01*
X130502106Y-104235673D02*
X129880940Y-106553895D01*
X130574550Y-104255084D02*
X124972181Y-102753934D01*
X124972181Y-102753934D02*
X124351015Y-105072156D01*
X124351015Y-105072156D02*
X129953385Y-106573306D01*
X124943751Y-122468326D02*
X124322585Y-124786548D01*
X125112788Y-122513620D02*
X124491622Y-124831842D01*
X125281825Y-122558913D02*
X124660659Y-124877135D01*
X125047030Y-124980663D02*
X125668195Y-122662441D01*
X125450862Y-122604206D02*
X124829696Y-124922428D01*
X125571603Y-122636559D02*
X124950437Y-124954781D01*
X125644047Y-122655970D02*
X120041678Y-121154820D01*
X120041678Y-121154820D02*
X119420512Y-123473042D01*
X119420512Y-123473042D02*
X125022882Y-124974192D01*
X156903520Y-76796390D02*
X156282354Y-79114612D01*
X157072557Y-76841684D02*
X156451391Y-79159906D01*
X157241594Y-76886977D02*
X156620428Y-79205199D01*
X157006799Y-79308727D02*
X157627964Y-76990505D01*
X157410631Y-76932270D02*
X156789465Y-79250492D01*
X157531372Y-76964623D02*
X156910206Y-79282845D01*
X157603816Y-76984034D02*
X152001447Y-75482884D01*
X152001447Y-75482884D02*
X151380281Y-77801106D01*
X151380281Y-77801106D02*
X156982651Y-79302256D01*
X151973018Y-95197277D02*
X151351852Y-97515499D01*
X152142055Y-95242571D02*
X151520889Y-97560793D01*
X152311092Y-95287864D02*
X151689926Y-97606086D01*
X152076297Y-97709614D02*
X152697462Y-95391392D01*
X152480129Y-95333157D02*
X151858963Y-97651379D01*
X152600870Y-95365510D02*
X151979704Y-97683732D01*
X152673314Y-95384921D02*
X147070945Y-93883771D01*
X147070945Y-93883771D02*
X146449779Y-96201993D01*
X146449779Y-96201993D02*
X152052149Y-97703143D01*
X149528768Y-136967636D02*
X147210546Y-136346470D01*
X149483474Y-137136673D02*
X147165252Y-136515507D01*
X149438181Y-137305710D02*
X147119959Y-136684544D01*
X147016431Y-137070915D02*
X149334653Y-137692080D01*
X149392888Y-137474747D02*
X147074666Y-136853581D01*
X149360535Y-137595488D02*
X147042313Y-136974322D01*
X149341124Y-137667932D02*
X150842274Y-132065563D01*
X150842274Y-132065563D02*
X148524052Y-131444397D01*
X148524052Y-131444397D02*
X147022902Y-137046767D01*
X197040210Y-84759682D02*
X197661376Y-87077904D01*
X197209247Y-84714388D02*
X197830413Y-87032610D01*
X197378284Y-84669095D02*
X197999450Y-86987317D01*
X198385820Y-86883789D02*
X197764655Y-84565567D01*
X197547321Y-84623802D02*
X198168487Y-86942024D01*
X197668062Y-84591449D02*
X198289228Y-86909671D01*
X197740507Y-84572038D02*
X192138137Y-86073188D01*
X192138137Y-86073188D02*
X192759303Y-88391410D01*
X192759303Y-88391410D02*
X198361672Y-86890260D01*
X202545742Y-103006491D02*
X203166908Y-105324713D01*
X202714779Y-102961197D02*
X203335945Y-105279419D01*
X202883816Y-102915904D02*
X203504982Y-105234126D01*
X203891352Y-105130598D02*
X203270187Y-102812376D01*
X203052853Y-102870611D02*
X203674019Y-105188833D01*
X203173594Y-102838258D02*
X203794760Y-105156480D01*
X203246039Y-102818847D02*
X197643669Y-104319997D01*
X197643669Y-104319997D02*
X198264835Y-106638219D01*
X198264835Y-106638219D02*
X203867204Y-105137069D01*
X207476245Y-121407378D02*
X208097411Y-123725600D01*
X207645282Y-121362084D02*
X208266448Y-123680306D01*
X207814319Y-121316791D02*
X208435485Y-123635013D01*
X208821855Y-123531485D02*
X208200690Y-121213263D01*
X207983356Y-121271498D02*
X208604522Y-123589720D01*
X208104097Y-121239145D02*
X208725263Y-123557367D01*
X208176542Y-121219734D02*
X202574172Y-122720884D01*
X202574172Y-122720884D02*
X203195338Y-125039106D01*
X203195338Y-125039106D02*
X208797707Y-123537956D01*
X175516475Y-75735441D02*
X176137641Y-78053663D01*
X175685512Y-75690147D02*
X176306678Y-78008369D01*
X175854549Y-75644854D02*
X176475715Y-77963076D01*
X176862085Y-77859548D02*
X176240920Y-75541326D01*
X176023586Y-75599561D02*
X176644752Y-77917783D01*
X176144327Y-75567208D02*
X176765493Y-77885430D01*
X176216772Y-75547797D02*
X170614402Y-77048947D01*
X170614402Y-77048947D02*
X171235568Y-79367169D01*
X171235568Y-79367169D02*
X176837937Y-77866019D01*
X180601056Y-94711356D02*
X181222222Y-97029578D01*
X180770093Y-94666062D02*
X181391259Y-96984284D01*
X180939130Y-94620769D02*
X181560296Y-96938991D01*
X181946666Y-96835463D02*
X181325501Y-94517241D01*
X181108167Y-94575476D02*
X181729333Y-96893698D01*
X181228908Y-94543123D02*
X181850074Y-96861345D01*
X181301353Y-94523712D02*
X175698983Y-96024862D01*
X175698983Y-96024862D02*
X176320149Y-98343084D01*
X176320149Y-98343084D02*
X181922518Y-96841934D01*
X180814488Y-136463148D02*
X178496266Y-137084314D01*
X180859782Y-136632185D02*
X178541560Y-137253351D01*
X180905075Y-136801222D02*
X178586853Y-137422388D01*
X178690381Y-137808758D02*
X181008603Y-137187593D01*
X180950368Y-136970259D02*
X178632146Y-137591425D01*
X180982721Y-137091000D02*
X178664499Y-137712166D01*
X181002132Y-137163445D02*
X179500982Y-131561075D01*
X179500982Y-131561075D02*
X177182760Y-132182241D01*
X177182760Y-132182241D02*
X178683910Y-137784610D01*
X236882264Y-83945043D02*
X237503430Y-86263265D01*
X237051301Y-83899749D02*
X237672467Y-86217971D01*
X237220338Y-83854456D02*
X237841504Y-86172678D01*
X238227874Y-86069150D02*
X237606709Y-83750928D01*
X237389375Y-83809163D02*
X238010541Y-86127385D01*
X237510116Y-83776810D02*
X238131282Y-86095032D01*
X237582561Y-83757399D02*
X231980191Y-85258549D01*
X231980191Y-85258549D02*
X232601357Y-87576771D01*
X232601357Y-87576771D02*
X238203726Y-86075621D01*
X241812767Y-102345929D02*
X242433933Y-104664151D01*
X241981804Y-102300635D02*
X242602970Y-104618857D01*
X242150841Y-102255342D02*
X242772007Y-104573564D01*
X243158377Y-104470036D02*
X242537212Y-102151814D01*
X242319878Y-102210049D02*
X242941044Y-104528271D01*
X242440619Y-102177696D02*
X243061785Y-104495918D01*
X242513064Y-102158285D02*
X236910694Y-103659435D01*
X236910694Y-103659435D02*
X237531860Y-105977657D01*
X237531860Y-105977657D02*
X243134229Y-104476507D01*
X204922495Y-38273105D02*
X205543661Y-40591327D01*
X205091532Y-38227811D02*
X205712698Y-40546033D01*
X205260569Y-38182518D02*
X205881735Y-40500740D01*
X206268105Y-40397212D02*
X205646940Y-38078990D01*
X205429606Y-38137225D02*
X206050772Y-40455447D01*
X205550347Y-38104872D02*
X206171513Y-40423094D01*
X205622792Y-38085461D02*
X200020422Y-39586611D01*
X200020422Y-39586611D02*
X200641588Y-41904833D01*
X200641588Y-41904833D02*
X206243957Y-40403683D01*
X209852998Y-56673993D02*
X210474164Y-58992215D01*
X210022035Y-56628699D02*
X210643201Y-58946921D01*
X210191072Y-56583406D02*
X210812238Y-58901628D01*
X211198608Y-58798100D02*
X210577443Y-56479878D01*
X210360109Y-56538113D02*
X210981275Y-58856335D01*
X210480850Y-56505760D02*
X211102016Y-58823982D01*
X210553295Y-56486349D02*
X204950925Y-57987499D01*
X204950925Y-57987499D02*
X205572091Y-60305721D01*
X205572091Y-60305721D02*
X211174460Y-58804571D01*
X214783500Y-75074880D02*
X215404666Y-77393102D01*
X214952537Y-75029586D02*
X215573703Y-77347808D01*
X215121574Y-74984293D02*
X215742740Y-77302515D01*
X216129110Y-77198987D02*
X215507945Y-74880765D01*
X215290611Y-74939000D02*
X215911777Y-77257222D01*
X215411352Y-74906647D02*
X216032518Y-77224869D01*
X215483797Y-74887236D02*
X209881427Y-76388386D01*
X209881427Y-76388386D02*
X210502593Y-78706608D01*
X210502593Y-78706608D02*
X216104962Y-77205458D01*
X219138974Y-93629845D02*
X219760140Y-95948067D01*
X219308011Y-93584551D02*
X219929177Y-95902773D01*
X219477048Y-93539258D02*
X220098214Y-95857480D01*
X220484584Y-95753952D02*
X219863419Y-93435730D01*
X219646085Y-93493965D02*
X220267251Y-95812187D01*
X219766826Y-93461612D02*
X220387992Y-95779834D01*
X219839271Y-93442201D02*
X214236901Y-94943351D01*
X214236901Y-94943351D02*
X214858067Y-97261573D01*
X214858067Y-97261573D02*
X220460436Y-95760423D01*
X224644506Y-111876654D02*
X225265672Y-114194876D01*
X224813543Y-111831360D02*
X225434709Y-114149582D01*
X224982580Y-111786067D02*
X225603746Y-114104289D01*
X225990116Y-114000761D02*
X225368951Y-111682539D01*
X225151617Y-111740774D02*
X225772783Y-114058996D01*
X225272358Y-111708421D02*
X225893524Y-114026643D01*
X225344803Y-111689010D02*
X219742433Y-113190160D01*
X219742433Y-113190160D02*
X220363599Y-115508382D01*
X220363599Y-115508382D02*
X225965968Y-114007232D01*
X188329260Y-47649752D02*
X188950426Y-49967974D01*
X188498297Y-47604458D02*
X189119463Y-49922680D01*
X188667334Y-47559165D02*
X189288500Y-49877387D01*
X189674870Y-49773859D02*
X189053705Y-47455637D01*
X188836371Y-47513872D02*
X189457537Y-49832094D01*
X188957112Y-47481519D02*
X189578278Y-49799741D01*
X189029557Y-47462108D02*
X183427187Y-48963258D01*
X183427187Y-48963258D02*
X184048353Y-51281480D01*
X184048353Y-51281480D02*
X189650722Y-49780330D01*
X193259763Y-66050639D02*
X193880929Y-68368861D01*
X193428800Y-66005345D02*
X194049966Y-68323567D01*
X193597837Y-65960052D02*
X194219003Y-68278274D01*
X194605373Y-68174746D02*
X193984208Y-65856524D01*
X193766874Y-65914759D02*
X194388040Y-68232981D01*
X193887615Y-65882406D02*
X194508781Y-68200628D01*
X193960060Y-65862995D02*
X188357690Y-67364145D01*
X188357690Y-67364145D02*
X188978856Y-69682367D01*
X188978856Y-69682367D02*
X194581225Y-68181217D01*
X281654819Y-101531289D02*
X282275985Y-103849511D01*
X281823856Y-101485995D02*
X282445022Y-103804217D01*
X281992893Y-101440702D02*
X282614059Y-103758924D01*
X283000429Y-103655396D02*
X282379264Y-101337174D01*
X282161930Y-101395409D02*
X282783096Y-103713631D01*
X282282671Y-101363056D02*
X282903837Y-103681278D01*
X282355116Y-101343645D02*
X276752746Y-102844795D01*
X276752746Y-102844795D02*
X277373912Y-105163017D01*
X277373912Y-105163017D02*
X282976281Y-103661867D01*
X241724268Y-28412100D02*
X242345434Y-30730322D01*
X241893305Y-28366806D02*
X242514471Y-30685028D01*
X242062342Y-28321513D02*
X242683508Y-30639735D01*
X243069878Y-30536207D02*
X242448713Y-28217985D01*
X242231379Y-28276220D02*
X242852545Y-30594442D01*
X242352120Y-28243867D02*
X242973286Y-30562089D01*
X242424565Y-28224456D02*
X236822195Y-29725606D01*
X236822195Y-29725606D02*
X237443361Y-32043828D01*
X237443361Y-32043828D02*
X243045730Y-30542678D01*
X246654771Y-46812987D02*
X247275937Y-49131209D01*
X246823808Y-46767693D02*
X247444974Y-49085915D01*
X246992845Y-46722400D02*
X247614011Y-49040622D01*
X248000381Y-48937094D02*
X247379216Y-46618872D01*
X247161882Y-46677107D02*
X247783048Y-48995329D01*
X247282623Y-46644754D02*
X247903789Y-48962976D01*
X247355068Y-46625343D02*
X241752698Y-48126493D01*
X241752698Y-48126493D02*
X242373864Y-50444715D01*
X242373864Y-50444715D02*
X247976233Y-48943565D01*
X251585274Y-65213874D02*
X252206440Y-67532096D01*
X251754311Y-65168580D02*
X252375477Y-67486802D01*
X251923348Y-65123287D02*
X252544514Y-67441509D01*
X252930884Y-67337981D02*
X252309719Y-65019759D01*
X252092385Y-65077994D02*
X252713551Y-67396216D01*
X252213126Y-65045641D02*
X252834292Y-67363863D01*
X252285571Y-65026230D02*
X246683201Y-66527380D01*
X246683201Y-66527380D02*
X247304367Y-68845602D01*
X247304367Y-68845602D02*
X252906736Y-67344452D01*
X256515777Y-83614761D02*
X257136943Y-85932983D01*
X256684814Y-83569467D02*
X257305980Y-85887689D01*
X256853851Y-83524174D02*
X257475017Y-85842396D01*
X257861387Y-85738868D02*
X257240222Y-83420646D01*
X257022888Y-83478881D02*
X257644054Y-85797103D01*
X257143629Y-83446528D02*
X257764795Y-85764750D01*
X257216074Y-83427117D02*
X251613704Y-84928267D01*
X251613704Y-84928267D02*
X252234870Y-87246489D01*
X252234870Y-87246489D02*
X257837239Y-85745339D01*
X261446279Y-102015648D02*
X262067445Y-104333870D01*
X261615316Y-101970354D02*
X262236482Y-104288576D01*
X261784353Y-101925061D02*
X262405519Y-104243283D01*
X262791889Y-104139755D02*
X262170724Y-101821533D01*
X261953390Y-101879768D02*
X262574556Y-104197990D01*
X262074131Y-101847415D02*
X262695297Y-104165637D01*
X262146576Y-101828004D02*
X256544206Y-103329154D01*
X256544206Y-103329154D02*
X257165372Y-105647376D01*
X257165372Y-105647376D02*
X262767741Y-104146226D01*
X222090756Y-28742382D02*
X222711922Y-31060604D01*
X222259793Y-28697088D02*
X222880959Y-31015310D01*
X222428830Y-28651795D02*
X223049996Y-30970017D01*
X223436366Y-30866489D02*
X222815201Y-28548267D01*
X222597867Y-28606502D02*
X223219033Y-30924724D01*
X222718608Y-28574149D02*
X223339774Y-30892371D01*
X222791053Y-28554738D02*
X217188683Y-30055888D01*
X217188683Y-30055888D02*
X217809849Y-32374110D01*
X217809849Y-32374110D02*
X223412218Y-30872960D01*
X227021259Y-47143268D02*
X227642425Y-49461490D01*
X227190296Y-47097974D02*
X227811462Y-49416196D01*
X227359333Y-47052681D02*
X227980499Y-49370903D01*
X228366869Y-49267375D02*
X227745704Y-46949153D01*
X227528370Y-47007388D02*
X228149536Y-49325610D01*
X227649111Y-46975035D02*
X228270277Y-49293257D01*
X227721556Y-46955624D02*
X222119186Y-48456774D01*
X222119186Y-48456774D02*
X222740352Y-50774996D01*
X222740352Y-50774996D02*
X228342721Y-49273846D01*
X231951762Y-65544155D02*
X232572928Y-67862377D01*
X232120799Y-65498861D02*
X232741965Y-67817083D01*
X232289836Y-65453568D02*
X232911002Y-67771790D01*
X233297372Y-67668262D02*
X232676207Y-65350040D01*
X232458873Y-65408275D02*
X233080039Y-67726497D01*
X232579614Y-65375922D02*
X233200780Y-67694144D01*
X232652059Y-65356511D02*
X227049689Y-66857661D01*
X227049689Y-66857661D02*
X227670855Y-69175883D01*
X227670855Y-69175883D02*
X233273224Y-67674733D01*
X288959112Y-20686065D02*
X289580278Y-23004287D01*
X289128149Y-20640771D02*
X289749315Y-22958993D01*
X289297186Y-20595478D02*
X289918352Y-22913700D01*
X290304722Y-22810172D02*
X289683557Y-20491950D01*
X289466223Y-20550185D02*
X290087389Y-22868407D01*
X289586964Y-20517832D02*
X290208130Y-22836054D01*
X289659409Y-20498421D02*
X284057039Y-21999571D01*
X284057039Y-21999571D02*
X284678205Y-24317793D01*
X284678205Y-24317793D02*
X290280574Y-22816643D01*
X291014475Y-39857343D02*
X291635641Y-42175565D01*
X291183512Y-39812049D02*
X291804678Y-42130271D01*
X291352549Y-39766756D02*
X291973715Y-42084978D01*
X292360085Y-41981450D02*
X291738920Y-39663228D01*
X291521586Y-39721463D02*
X292142752Y-42039685D01*
X291642327Y-39689110D02*
X292263493Y-42007332D01*
X291714772Y-39669699D02*
X286112402Y-41170849D01*
X286112402Y-41170849D02*
X286733568Y-43489071D01*
X286733568Y-43489071D02*
X292335937Y-41987921D01*
X301120228Y-56871526D02*
X301741394Y-59189748D01*
X301289265Y-56826232D02*
X301910431Y-59144454D01*
X301458302Y-56780939D02*
X302079468Y-59099161D01*
X302465838Y-58995633D02*
X301844673Y-56677411D01*
X301627339Y-56735646D02*
X302248505Y-59053868D01*
X301748080Y-56703293D02*
X302369246Y-59021515D01*
X301820525Y-56683882D02*
X296218155Y-58185032D01*
X296218155Y-58185032D02*
X296839321Y-60503254D01*
X296839321Y-60503254D02*
X302441690Y-59002104D01*
X306185648Y-91876709D02*
X306806814Y-94194931D01*
X306354685Y-91831415D02*
X306975851Y-94149637D01*
X306523722Y-91786122D02*
X307144888Y-94104344D01*
X307531258Y-94000816D02*
X306910093Y-91682594D01*
X306692759Y-91740829D02*
X307313925Y-94059051D01*
X306813500Y-91708476D02*
X307434666Y-94026698D01*
X306885945Y-91689065D02*
X301283575Y-93190215D01*
X301283575Y-93190215D02*
X301904741Y-95508437D01*
X301904741Y-95508437D02*
X307507110Y-94007287D01*
X331065919Y-85826373D02*
X331687085Y-88144595D01*
X331234956Y-85781079D02*
X331856122Y-88099301D01*
X331403993Y-85735786D02*
X332025159Y-88054008D01*
X332411529Y-87950480D02*
X331790364Y-85632258D01*
X331573030Y-85690493D02*
X332194196Y-88008715D01*
X331693771Y-85658140D02*
X332314937Y-87976362D01*
X331766216Y-85638729D02*
X326163846Y-87139879D01*
X326163846Y-87139879D02*
X326785012Y-89458101D01*
X326785012Y-89458101D02*
X332387381Y-87956951D01*
X261357781Y-28081819D02*
X261978947Y-30400041D01*
X261526818Y-28036525D02*
X262147984Y-30354747D01*
X261695855Y-27991232D02*
X262317021Y-30309454D01*
X262703391Y-30205926D02*
X262082226Y-27887704D01*
X261864892Y-27945939D02*
X262486058Y-30264161D01*
X261985633Y-27913586D02*
X262606799Y-30231808D01*
X262058078Y-27894175D02*
X256455708Y-29395325D01*
X256455708Y-29395325D02*
X257076874Y-31713547D01*
X257076874Y-31713547D02*
X262679243Y-30212397D01*
X266288284Y-46482707D02*
X266909450Y-48800929D01*
X266457321Y-46437413D02*
X267078487Y-48755635D01*
X266626358Y-46392120D02*
X267247524Y-48710342D01*
X267633894Y-48606814D02*
X267012729Y-46288592D01*
X266795395Y-46346827D02*
X267416561Y-48665049D01*
X266916136Y-46314474D02*
X267537302Y-48632696D01*
X266988581Y-46295063D02*
X261386211Y-47796213D01*
X261386211Y-47796213D02*
X262007377Y-50114435D01*
X262007377Y-50114435D02*
X267609746Y-48613285D01*
X271218787Y-64883593D02*
X271839953Y-67201815D01*
X271387824Y-64838299D02*
X272008990Y-67156521D01*
X271556861Y-64793006D02*
X272178027Y-67111228D01*
X272564397Y-67007700D02*
X271943232Y-64689478D01*
X271725898Y-64747713D02*
X272347064Y-67065935D01*
X271846639Y-64715360D02*
X272467805Y-67033582D01*
X271919084Y-64695949D02*
X266316714Y-66197099D01*
X266316714Y-66197099D02*
X266937880Y-68515321D01*
X266937880Y-68515321D02*
X272540249Y-67014171D01*
X276149290Y-83284480D02*
X276770456Y-85602702D01*
X276318327Y-83239186D02*
X276939493Y-85557408D01*
X276487364Y-83193893D02*
X277108530Y-85512115D01*
X277494900Y-85408587D02*
X276873735Y-83090365D01*
X276656401Y-83148600D02*
X277277567Y-85466822D01*
X276777142Y-83116247D02*
X277398308Y-85434469D01*
X276849587Y-83096836D02*
X271247217Y-84597986D01*
X271247217Y-84597986D02*
X271868383Y-86916208D01*
X271868383Y-86916208D02*
X277470752Y-85415058D01*
D12*
X179275000Y-33418750D02*
X179725000Y-32968750D01*
X182675000Y-33418750D02*
X182225000Y-32968750D01*
X182675000Y-38018750D02*
X182225000Y-38468750D01*
X179275000Y-38018750D02*
X179725000Y-38468750D01*
X183725000Y-36718750D02*
X183725000Y-34718750D01*
X179725000Y-32968750D02*
X182225000Y-32968750D01*
X178225000Y-36718750D02*
X178225000Y-34718750D01*
X179725000Y-38468750D02*
X182225000Y-38468750D01*
X145512000Y-42756000D02*
X145512000Y-41056000D01*
X145512000Y-41056000D02*
X145512000Y-40556000D01*
X145512000Y-40556000D02*
X148112000Y-40556000D01*
X148112000Y-40556000D02*
X148112000Y-42756000D01*
X148112000Y-42756000D02*
X145512000Y-42756000D01*
X145512000Y-36660000D02*
X145512000Y-34960000D01*
X145512000Y-34960000D02*
X145512000Y-34460000D01*
X145512000Y-34460000D02*
X148112000Y-34460000D01*
X148112000Y-34460000D02*
X148112000Y-36660000D01*
X148112000Y-36660000D02*
X145512000Y-36660000D01*
X145512000Y-39708000D02*
X145512000Y-38008000D01*
X145512000Y-38008000D02*
X145512000Y-37508000D01*
X145512000Y-37508000D02*
X148112000Y-37508000D01*
X148112000Y-37508000D02*
X148112000Y-39708000D01*
X148112000Y-39708000D02*
X145512000Y-39708000D01*
D13*
X31730837Y-22213867D02*
X31937892Y-21441126D01*
X31753907Y-21391827D01*
X31633655Y-21399045D01*
X31540341Y-21452919D01*
X31483824Y-21516654D01*
X31407588Y-21653983D01*
X31378009Y-21764375D01*
X31375367Y-21921424D01*
X31392444Y-22004877D01*
X31446319Y-22098192D01*
X31546851Y-22164568D01*
X31730837Y-22213867D01*
X30553327Y-21898354D02*
X30994893Y-22016671D01*
X30774111Y-21957513D02*
X30981166Y-21184772D01*
X31025181Y-21314882D01*
X31079056Y-21408197D01*
X31142790Y-21464713D01*
X49556697Y-26990291D02*
X49763752Y-26217550D01*
X49579767Y-26168251D01*
X49459515Y-26175469D01*
X49366201Y-26229343D01*
X49309684Y-26293078D01*
X49233448Y-26430407D01*
X49203869Y-26540799D01*
X49201227Y-26697848D01*
X49218304Y-26781301D01*
X49272179Y-26874616D01*
X49372711Y-26940992D01*
X49556697Y-26990291D01*
X49008089Y-26093949D02*
X48981152Y-26047292D01*
X48917417Y-25990775D01*
X48733431Y-25941476D01*
X48649978Y-25958554D01*
X48603320Y-25985491D01*
X48546803Y-26049226D01*
X48527084Y-26122820D01*
X48534301Y-26243071D01*
X48857550Y-26802955D01*
X48379187Y-26674778D01*
X40025972Y-44158552D02*
X40233027Y-43385811D01*
X40049042Y-43336512D01*
X39928790Y-43343730D01*
X39835476Y-43397604D01*
X39778959Y-43461339D01*
X39702723Y-43598668D01*
X39673144Y-43709060D01*
X39670502Y-43866109D01*
X39687579Y-43949562D01*
X39741454Y-44042877D01*
X39841986Y-44109253D01*
X40025972Y-44158552D01*
X39533881Y-43198475D02*
X39055517Y-43070298D01*
X39234220Y-43433694D01*
X39123828Y-43404115D01*
X39040374Y-43421192D01*
X38993717Y-43448129D01*
X38937200Y-43511865D01*
X38887901Y-43695850D01*
X38904979Y-43779304D01*
X38931917Y-43825962D01*
X38995651Y-43882478D01*
X39216435Y-43941637D01*
X39299888Y-43924559D01*
X39346545Y-43897621D01*
X28770164Y-60864579D02*
X28977219Y-60091838D01*
X28793234Y-60042539D01*
X28672982Y-60049757D01*
X28579668Y-60103631D01*
X28523151Y-60167366D01*
X28446915Y-60304695D01*
X28417336Y-60415087D01*
X28414694Y-60572136D01*
X28431771Y-60655589D01*
X28485646Y-60748904D01*
X28586178Y-60815280D01*
X28770164Y-60864579D01*
X27804286Y-60053625D02*
X27666249Y-60568786D01*
X28067150Y-59808547D02*
X28103239Y-60409803D01*
X27624876Y-60281626D01*
X14196144Y-94554566D02*
X14403199Y-93781825D01*
X14219214Y-93732526D01*
X14098962Y-93739744D01*
X14005648Y-93793618D01*
X13949131Y-93857353D01*
X13872895Y-93994682D01*
X13843316Y-94105074D01*
X13840674Y-94262123D01*
X13857751Y-94345576D01*
X13911626Y-94438891D01*
X14012158Y-94505267D01*
X14196144Y-94554566D01*
X13262486Y-93476172D02*
X13630459Y-93574770D01*
X13568658Y-93952601D01*
X13541721Y-93905944D01*
X13477986Y-93849428D01*
X13294000Y-93800129D01*
X13210546Y-93817206D01*
X13163889Y-93844143D01*
X13107372Y-93907879D01*
X13058073Y-94091864D01*
X13075151Y-94175318D01*
X13102089Y-94221976D01*
X13165823Y-94278492D01*
X13349809Y-94327791D01*
X13433263Y-94310714D01*
X13479920Y-94283775D01*
X68532611Y-32074872D02*
X68739666Y-31302131D01*
X68555681Y-31252832D01*
X68435429Y-31260050D01*
X68342115Y-31313924D01*
X68285598Y-31377659D01*
X68209362Y-31514988D01*
X68179783Y-31625380D01*
X68177141Y-31782429D01*
X68194218Y-31865882D01*
X68248093Y-31959197D01*
X68348625Y-32025573D01*
X68532611Y-32074872D01*
X67635751Y-31006338D02*
X67782940Y-31045777D01*
X67846674Y-31102293D01*
X67873611Y-31148950D01*
X67917627Y-31279062D01*
X67914985Y-31436110D01*
X67836106Y-31730488D01*
X67779590Y-31794222D01*
X67732933Y-31821160D01*
X67649479Y-31838237D01*
X67502290Y-31798798D01*
X67438556Y-31742282D01*
X67411618Y-31695624D01*
X67394540Y-31612170D01*
X67443839Y-31428185D01*
X67500356Y-31364449D01*
X67547013Y-31337512D01*
X67630467Y-31320435D01*
X67777656Y-31359874D01*
X67841391Y-31416391D01*
X67868328Y-31463047D01*
X67885405Y-31546502D01*
X63602107Y-50475759D02*
X63809162Y-49703018D01*
X63625177Y-49653719D01*
X63504925Y-49660937D01*
X63411611Y-49714811D01*
X63355094Y-49778546D01*
X63278858Y-49915875D01*
X63249279Y-50026267D01*
X63246637Y-50183316D01*
X63263714Y-50266769D01*
X63317589Y-50360084D01*
X63418121Y-50426460D01*
X63602107Y-50475759D01*
X63110016Y-49515682D02*
X62594855Y-49377646D01*
X62718975Y-50239124D01*
X58671605Y-68876646D02*
X58878660Y-68103905D01*
X58694675Y-68054606D01*
X58574423Y-68061824D01*
X58481109Y-68115698D01*
X58424592Y-68179433D01*
X58348356Y-68316762D01*
X58318777Y-68427154D01*
X58316135Y-68584203D01*
X58333212Y-68667656D01*
X58387087Y-68760971D01*
X58487619Y-68827347D01*
X58671605Y-68876646D01*
X57906790Y-68198445D02*
X57990245Y-68181368D01*
X58036901Y-68154429D01*
X58093418Y-68090695D01*
X58103278Y-68053898D01*
X58086200Y-67970444D01*
X58059263Y-67923787D01*
X57995528Y-67867271D01*
X57848339Y-67827831D01*
X57764886Y-67844909D01*
X57718228Y-67871846D01*
X57661711Y-67935581D01*
X57651852Y-67972378D01*
X57668929Y-68055832D01*
X57695867Y-68102489D01*
X57759601Y-68159006D01*
X57906790Y-68198445D01*
X57970525Y-68254962D01*
X57997462Y-68301618D01*
X58014540Y-68385073D01*
X57975100Y-68532262D01*
X57918584Y-68595996D01*
X57871927Y-68622934D01*
X57788473Y-68640011D01*
X57641284Y-68600572D01*
X57577550Y-68544056D01*
X57550612Y-68497398D01*
X57533534Y-68413944D01*
X57572973Y-68266755D01*
X57629490Y-68203020D01*
X57676148Y-68176083D01*
X57759601Y-68159006D01*
X53741102Y-87277533D02*
X53948157Y-86504792D01*
X53764172Y-86455493D01*
X53643920Y-86462711D01*
X53550606Y-86516585D01*
X53494089Y-86580320D01*
X53417853Y-86717649D01*
X53388274Y-86828041D01*
X53385632Y-86985090D01*
X53402709Y-87068543D01*
X53456584Y-87161858D01*
X53557116Y-87228234D01*
X53741102Y-87277533D01*
X52931565Y-87060618D02*
X52784376Y-87021179D01*
X52720641Y-86964662D01*
X52693704Y-86918005D01*
X52649688Y-86787894D01*
X52652330Y-86630846D01*
X52731208Y-86336468D01*
X52787725Y-86272733D01*
X52834383Y-86245796D01*
X52917836Y-86228718D01*
X53065025Y-86268158D01*
X53128760Y-86324674D01*
X53155697Y-86371331D01*
X53172775Y-86454785D01*
X53123476Y-86638771D01*
X53066959Y-86702505D01*
X53020302Y-86729443D01*
X52936848Y-86746521D01*
X52789659Y-86707082D01*
X52725925Y-86650565D01*
X52698987Y-86603907D01*
X52681909Y-86520454D01*
X49178571Y-105777018D02*
X49385627Y-105004277D01*
X49201641Y-104954978D01*
X49081389Y-104962196D01*
X48988075Y-105016070D01*
X48931559Y-105079805D01*
X48855323Y-105217134D01*
X48825743Y-105327526D01*
X48823101Y-105484574D01*
X48840179Y-105568028D01*
X48894054Y-105661343D01*
X48994586Y-105727719D01*
X49178571Y-105777018D01*
X48001062Y-105461505D02*
X48442628Y-105579822D01*
X48221845Y-105520664D02*
X48428900Y-104747923D01*
X48472915Y-104878033D01*
X48526790Y-104971348D01*
X48590524Y-105027864D01*
X47729754Y-104560587D02*
X47656159Y-104540868D01*
X47572705Y-104557945D01*
X47526048Y-104584882D01*
X47469531Y-104648617D01*
X47393295Y-104785946D01*
X47343996Y-104969932D01*
X47341354Y-105126980D01*
X47358432Y-105210434D01*
X47385369Y-105257092D01*
X47449103Y-105313608D01*
X47522698Y-105333328D01*
X47606152Y-105316250D01*
X47652810Y-105289312D01*
X47709326Y-105225578D01*
X47785562Y-105088249D01*
X47834861Y-104904263D01*
X47837503Y-104747215D01*
X47820426Y-104663760D01*
X47793488Y-104617104D01*
X47729754Y-104560587D01*
X88534095Y-32503751D02*
X88741151Y-31731010D01*
X88557165Y-31681711D01*
X88436913Y-31688929D01*
X88343599Y-31742803D01*
X88287083Y-31806538D01*
X88210847Y-31943867D01*
X88181267Y-32054259D01*
X88178625Y-32211307D01*
X88195703Y-32294761D01*
X88249578Y-32388076D01*
X88350110Y-32454452D01*
X88534095Y-32503751D01*
X87356586Y-32188238D02*
X87798152Y-32306555D01*
X87577369Y-32247397D02*
X87784424Y-31474656D01*
X87828439Y-31604766D01*
X87882314Y-31698081D01*
X87946048Y-31754597D01*
X86620642Y-31991042D02*
X87062208Y-32109360D01*
X86841425Y-32050201D02*
X87048481Y-31277460D01*
X87092495Y-31407571D01*
X87146371Y-31500885D01*
X87210105Y-31557402D01*
X82874487Y-51325587D02*
X83081543Y-50552846D01*
X82897557Y-50503547D01*
X82777305Y-50510765D01*
X82683991Y-50564639D01*
X82627475Y-50628374D01*
X82551239Y-50765703D01*
X82521659Y-50876095D01*
X82519017Y-51033143D01*
X82536095Y-51116597D01*
X82589970Y-51209912D01*
X82690502Y-51276288D01*
X82874487Y-51325587D01*
X81696978Y-51010074D02*
X82138544Y-51128391D01*
X81917761Y-51069233D02*
X82124816Y-50296492D01*
X82168831Y-50426602D01*
X82222706Y-50519917D01*
X82286440Y-50576433D01*
X81589936Y-50232049D02*
X81562999Y-50185392D01*
X81499263Y-50128876D01*
X81315278Y-50079577D01*
X81231824Y-50096654D01*
X81185167Y-50123591D01*
X81128650Y-50187326D01*
X81108930Y-50260920D01*
X81116148Y-50381172D01*
X81439397Y-50941055D01*
X80961034Y-50812878D01*
X78098063Y-69151447D02*
X78305119Y-68378706D01*
X78121133Y-68329407D01*
X78000881Y-68336625D01*
X77907567Y-68390499D01*
X77851051Y-68454234D01*
X77774815Y-68591563D01*
X77745235Y-68701955D01*
X77742593Y-68859003D01*
X77759671Y-68942457D01*
X77813546Y-69035772D01*
X77914078Y-69102148D01*
X78098063Y-69151447D01*
X76920554Y-68835934D02*
X77362120Y-68954251D01*
X77141337Y-68895093D02*
X77348392Y-68122352D01*
X77392407Y-68252462D01*
X77446282Y-68345777D01*
X77510016Y-68402293D01*
X76870028Y-67994175D02*
X76391665Y-67865998D01*
X76570367Y-68229394D01*
X76459976Y-68199814D01*
X76376522Y-68216892D01*
X76329864Y-68243829D01*
X76273348Y-68307564D01*
X76224049Y-68491550D01*
X76241126Y-68575003D01*
X76268064Y-68621661D01*
X76331799Y-68678177D01*
X76552582Y-68737336D01*
X76636036Y-68720259D01*
X76682693Y-68693321D01*
X73167560Y-87552333D02*
X73374616Y-86779592D01*
X73190630Y-86730293D01*
X73070378Y-86737511D01*
X72977064Y-86791385D01*
X72920548Y-86855120D01*
X72844312Y-86992449D01*
X72814732Y-87102841D01*
X72812090Y-87259889D01*
X72829168Y-87343343D01*
X72883043Y-87436658D01*
X72983575Y-87503034D01*
X73167560Y-87552333D01*
X71990051Y-87236820D02*
X72431617Y-87355137D01*
X72210834Y-87295979D02*
X72417889Y-86523238D01*
X72461904Y-86653348D01*
X72515779Y-86746663D01*
X72579513Y-86803179D01*
X71465739Y-86544183D02*
X71327702Y-87059344D01*
X71728602Y-86299105D02*
X71764692Y-86900361D01*
X71286328Y-86772184D01*
X68082978Y-106528248D02*
X68290034Y-105755507D01*
X68106048Y-105706208D01*
X67985796Y-105713426D01*
X67892482Y-105767300D01*
X67835966Y-105831035D01*
X67759730Y-105968364D01*
X67730150Y-106078756D01*
X67727508Y-106235804D01*
X67744586Y-106319258D01*
X67798461Y-106412573D01*
X67898993Y-106478949D01*
X68082978Y-106528248D01*
X66905469Y-106212735D02*
X67347035Y-106331052D01*
X67126252Y-106271894D02*
X67333307Y-105499153D01*
X67377322Y-105629263D01*
X67431197Y-105722578D01*
X67494931Y-105779094D01*
X66413377Y-105252658D02*
X66781349Y-105351256D01*
X66719549Y-105729087D01*
X66692611Y-105682431D01*
X66628876Y-105625914D01*
X66444891Y-105576615D01*
X66361437Y-105593693D01*
X66314779Y-105620630D01*
X66258263Y-105684365D01*
X66208964Y-105868351D01*
X66226041Y-105951804D01*
X66252979Y-105998462D01*
X66316714Y-106054978D01*
X66500699Y-106104277D01*
X66584154Y-106087200D01*
X66630811Y-106060262D01*
X108167608Y-32834032D02*
X108374664Y-32061291D01*
X108190678Y-32011992D01*
X108070426Y-32019210D01*
X107977112Y-32073084D01*
X107920596Y-32136819D01*
X107844360Y-32274148D01*
X107814780Y-32384540D01*
X107812138Y-32541588D01*
X107829216Y-32625042D01*
X107883091Y-32718357D01*
X107983623Y-32784733D01*
X108167608Y-32834032D01*
X106990099Y-32518519D02*
X107431665Y-32636836D01*
X107210882Y-32577678D02*
X107417937Y-31804937D01*
X107461952Y-31935047D01*
X107515827Y-32028362D01*
X107579561Y-32084878D01*
X106534805Y-31568302D02*
X106681994Y-31607741D01*
X106745728Y-31664258D01*
X106772665Y-31710914D01*
X106816680Y-31841026D01*
X106814038Y-31998074D01*
X106735160Y-32292452D01*
X106678644Y-32356186D01*
X106631987Y-32383124D01*
X106548532Y-32400202D01*
X106401344Y-32360762D01*
X106337609Y-32304246D01*
X106310671Y-32257588D01*
X106293594Y-32174135D01*
X106342893Y-31990149D01*
X106399409Y-31926414D01*
X106446067Y-31899477D01*
X106529521Y-31882399D01*
X106676709Y-31921838D01*
X106740444Y-31978355D01*
X106767382Y-32025012D01*
X106784459Y-32108466D01*
X102662078Y-51080841D02*
X102869134Y-50308100D01*
X102685148Y-50258801D01*
X102564896Y-50266019D01*
X102471582Y-50319893D01*
X102415066Y-50383628D01*
X102338830Y-50520957D01*
X102309250Y-50631349D01*
X102306608Y-50788397D01*
X102323686Y-50871851D01*
X102377561Y-50965166D01*
X102478093Y-51031542D01*
X102662078Y-51080841D01*
X101484569Y-50765328D02*
X101926135Y-50883645D01*
X101705352Y-50824487D02*
X101912407Y-50051746D01*
X101956422Y-50181856D01*
X102010297Y-50275171D01*
X102074031Y-50331687D01*
X101434043Y-49923569D02*
X100918883Y-49785532D01*
X101043002Y-50647011D01*
X97731575Y-69481728D02*
X97938631Y-68708987D01*
X97754645Y-68659688D01*
X97634393Y-68666906D01*
X97541079Y-68720780D01*
X97484563Y-68784515D01*
X97408327Y-68921844D01*
X97378747Y-69032236D01*
X97376105Y-69189284D01*
X97393183Y-69272738D01*
X97447058Y-69366053D01*
X97547590Y-69432429D01*
X97731575Y-69481728D01*
X96554066Y-69166215D02*
X96995632Y-69284532D01*
X96774849Y-69225374D02*
X96981904Y-68452633D01*
X97025919Y-68582743D01*
X97079794Y-68676058D01*
X97143528Y-68732574D01*
X96230817Y-68606331D02*
X96314271Y-68589254D01*
X96360928Y-68562316D01*
X96417444Y-68498582D01*
X96427304Y-68461785D01*
X96410227Y-68378330D01*
X96383290Y-68331674D01*
X96319555Y-68275157D01*
X96172366Y-68235718D01*
X96088912Y-68252795D01*
X96042255Y-68279732D01*
X95985738Y-68343467D01*
X95975878Y-68380264D01*
X95992956Y-68463718D01*
X96019894Y-68510376D01*
X96083628Y-68566892D01*
X96230817Y-68606331D01*
X96294552Y-68662848D01*
X96321489Y-68709505D01*
X96338566Y-68792959D01*
X96299127Y-68940148D01*
X96242611Y-69003882D01*
X96195954Y-69030820D01*
X96112499Y-69047898D01*
X95965311Y-69008458D01*
X95901576Y-68951942D01*
X95874638Y-68905284D01*
X95857561Y-68821831D01*
X95897000Y-68674642D01*
X95953517Y-68610907D01*
X96000174Y-68583970D01*
X96083628Y-68566892D01*
X92646994Y-88457642D02*
X92854050Y-87684901D01*
X92670064Y-87635602D01*
X92549812Y-87642820D01*
X92456498Y-87696694D01*
X92399982Y-87760429D01*
X92323746Y-87897758D01*
X92294166Y-88008150D01*
X92291524Y-88165198D01*
X92308602Y-88248652D01*
X92362477Y-88341967D01*
X92463009Y-88408343D01*
X92646994Y-88457642D01*
X91469485Y-88142129D02*
X91911051Y-88260446D01*
X91690268Y-88201288D02*
X91897323Y-87428547D01*
X91941338Y-87558657D01*
X91995213Y-87651972D01*
X92058947Y-87708488D01*
X91101513Y-88043531D02*
X90954324Y-88004092D01*
X90890589Y-87947576D01*
X90863652Y-87900918D01*
X90819637Y-87770807D01*
X90822279Y-87613759D01*
X90901157Y-87319381D01*
X90957674Y-87255646D01*
X91004331Y-87228709D01*
X91087785Y-87211632D01*
X91234974Y-87251071D01*
X91298709Y-87307588D01*
X91325646Y-87354244D01*
X91342723Y-87437699D01*
X91293424Y-87621684D01*
X91236908Y-87685419D01*
X91190251Y-87712357D01*
X91106796Y-87729434D01*
X90959608Y-87689995D01*
X90895874Y-87633479D01*
X90868936Y-87586821D01*
X90851858Y-87503367D01*
X88445597Y-106437580D02*
X88652653Y-105664839D01*
X88468667Y-105615540D01*
X88348415Y-105622758D01*
X88255101Y-105676632D01*
X88198585Y-105740367D01*
X88122349Y-105877696D01*
X88092769Y-105988088D01*
X88090127Y-106145136D01*
X88107205Y-106228590D01*
X88161080Y-106321905D01*
X88261612Y-106388281D01*
X88445597Y-106437580D01*
X87896990Y-105541237D02*
X87870052Y-105494581D01*
X87806317Y-105438064D01*
X87622331Y-105388765D01*
X87538878Y-105405843D01*
X87492220Y-105432780D01*
X87435704Y-105496515D01*
X87415984Y-105570109D01*
X87423202Y-105690360D01*
X87746451Y-106250244D01*
X87268088Y-106122067D01*
X86996780Y-105221149D02*
X86923185Y-105201430D01*
X86839731Y-105218507D01*
X86793074Y-105245444D01*
X86736557Y-105309179D01*
X86660321Y-105446508D01*
X86611022Y-105630494D01*
X86608380Y-105787542D01*
X86625458Y-105870996D01*
X86652395Y-105917654D01*
X86716129Y-105974170D01*
X86789724Y-105993890D01*
X86873178Y-105976812D01*
X86919836Y-105949874D01*
X86976352Y-105886140D01*
X87052588Y-105748811D01*
X87101887Y-105564825D01*
X87104529Y-105407777D01*
X87087452Y-105324322D01*
X87060514Y-105277666D01*
X86996780Y-105221149D01*
X125335870Y-42364757D02*
X125542926Y-41592016D01*
X125358940Y-41542717D01*
X125238688Y-41549935D01*
X125145374Y-41603809D01*
X125088858Y-41667544D01*
X125012622Y-41804873D01*
X124983042Y-41915265D01*
X124980400Y-42072313D01*
X124997478Y-42155767D01*
X125051353Y-42249082D01*
X125151885Y-42315458D01*
X125335870Y-42364757D01*
X124787263Y-41468414D02*
X124760325Y-41421758D01*
X124696590Y-41365241D01*
X124512604Y-41315942D01*
X124429151Y-41333020D01*
X124382493Y-41359957D01*
X124325977Y-41423692D01*
X124306257Y-41497286D01*
X124313475Y-41617537D01*
X124636724Y-42177421D01*
X124158361Y-42049244D01*
X123422417Y-41852048D02*
X123863983Y-41970366D01*
X123643200Y-41911207D02*
X123850256Y-41138466D01*
X123894270Y-41268577D01*
X123948146Y-41361891D01*
X124011880Y-41418408D01*
X120405367Y-60765644D02*
X120612423Y-59992903D01*
X120428437Y-59943604D01*
X120308185Y-59950822D01*
X120214871Y-60004696D01*
X120158355Y-60068431D01*
X120082119Y-60205760D01*
X120052539Y-60316152D01*
X120049897Y-60473200D01*
X120066975Y-60556654D01*
X120120850Y-60649969D01*
X120221382Y-60716345D01*
X120405367Y-60765644D01*
X119856760Y-59869301D02*
X119829822Y-59822645D01*
X119766087Y-59766128D01*
X119582101Y-59716829D01*
X119498648Y-59733907D01*
X119451990Y-59760844D01*
X119395474Y-59824579D01*
X119375754Y-59898173D01*
X119382972Y-60018424D01*
X119706221Y-60578308D01*
X119227858Y-60450131D01*
X119120816Y-59672106D02*
X119093879Y-59625449D01*
X119030143Y-59568933D01*
X118846158Y-59519634D01*
X118762704Y-59536711D01*
X118716047Y-59563648D01*
X118659530Y-59627383D01*
X118639810Y-59700977D01*
X118647028Y-59821229D01*
X118970277Y-60381112D01*
X118491914Y-60252935D01*
X115474864Y-79166530D02*
X115681920Y-78393789D01*
X115497934Y-78344490D01*
X115377682Y-78351708D01*
X115284368Y-78405582D01*
X115227852Y-78469317D01*
X115151616Y-78606646D01*
X115122036Y-78717038D01*
X115119394Y-78874086D01*
X115136472Y-78957540D01*
X115190347Y-79050855D01*
X115290879Y-79117231D01*
X115474864Y-79166530D01*
X114926257Y-78270187D02*
X114899319Y-78223531D01*
X114835584Y-78167014D01*
X114651598Y-78117715D01*
X114568145Y-78134793D01*
X114521487Y-78161730D01*
X114464971Y-78225465D01*
X114445251Y-78299059D01*
X114452469Y-78419310D01*
X114775718Y-78979194D01*
X114297355Y-78851017D01*
X114246829Y-78009258D02*
X113768466Y-77881081D01*
X113947168Y-78244477D01*
X113836777Y-78214897D01*
X113753323Y-78231975D01*
X113706665Y-78258912D01*
X113650149Y-78322647D01*
X113600850Y-78506633D01*
X113617927Y-78590086D01*
X113644865Y-78636744D01*
X113708600Y-78693260D01*
X113929383Y-78752419D01*
X114012837Y-78735342D01*
X114059494Y-78708404D01*
X111119389Y-97721496D02*
X111326445Y-96948755D01*
X111142459Y-96899456D01*
X111022207Y-96906674D01*
X110928893Y-96960548D01*
X110872377Y-97024283D01*
X110796141Y-97161612D01*
X110766561Y-97272004D01*
X110763919Y-97429052D01*
X110780997Y-97512506D01*
X110834872Y-97605821D01*
X110935404Y-97672197D01*
X111119389Y-97721496D01*
X110570782Y-96825153D02*
X110543844Y-96778497D01*
X110480109Y-96721980D01*
X110296123Y-96672681D01*
X110212670Y-96689759D01*
X110166012Y-96716696D01*
X110109496Y-96780431D01*
X110089776Y-96854025D01*
X110096994Y-96974276D01*
X110420243Y-97534160D01*
X109941880Y-97405983D01*
X109417568Y-96713346D02*
X109279531Y-97228507D01*
X109680431Y-96468268D02*
X109716521Y-97069524D01*
X109238157Y-96941347D01*
X105459780Y-116543331D02*
X105666836Y-115770590D01*
X105482850Y-115721291D01*
X105362598Y-115728509D01*
X105269284Y-115782383D01*
X105212768Y-115846118D01*
X105136532Y-115983447D01*
X105106952Y-116093839D01*
X105104310Y-116250887D01*
X105121388Y-116334341D01*
X105175263Y-116427656D01*
X105275795Y-116494032D01*
X105459780Y-116543331D01*
X104911173Y-115646988D02*
X104884235Y-115600332D01*
X104820500Y-115543815D01*
X104636514Y-115494516D01*
X104553061Y-115511594D01*
X104506403Y-115538531D01*
X104449887Y-115602266D01*
X104430167Y-115675860D01*
X104437385Y-115796111D01*
X104760634Y-116355995D01*
X104282271Y-116227818D01*
X103790179Y-115267741D02*
X104158151Y-115366339D01*
X104096351Y-115744170D01*
X104069413Y-115697514D01*
X104005678Y-115640997D01*
X103821693Y-115591698D01*
X103738239Y-115608776D01*
X103691581Y-115635713D01*
X103635065Y-115699448D01*
X103585766Y-115883434D01*
X103602843Y-115966887D01*
X103629781Y-116013545D01*
X103693516Y-116070061D01*
X103877501Y-116119360D01*
X103960956Y-116102283D01*
X104007613Y-116075345D01*
X142504131Y-51895482D02*
X142711187Y-51122741D01*
X142527201Y-51073442D01*
X142406949Y-51080660D01*
X142313635Y-51134534D01*
X142257119Y-51198269D01*
X142180883Y-51335598D01*
X142151303Y-51445990D01*
X142148661Y-51603038D01*
X142165739Y-51686492D01*
X142219614Y-51779807D01*
X142320146Y-51846183D01*
X142504131Y-51895482D01*
X141955524Y-50999139D02*
X141928586Y-50952483D01*
X141864851Y-50895966D01*
X141680865Y-50846667D01*
X141597412Y-50863745D01*
X141550754Y-50890682D01*
X141494238Y-50954417D01*
X141474518Y-51028011D01*
X141481736Y-51148262D01*
X141804985Y-51708146D01*
X141326622Y-51579969D01*
X140871328Y-50629752D02*
X141018517Y-50669191D01*
X141082251Y-50725708D01*
X141109188Y-50772364D01*
X141153203Y-50902476D01*
X141150561Y-51059524D01*
X141071683Y-51353902D01*
X141015167Y-51417636D01*
X140968510Y-51444574D01*
X140885055Y-51461652D01*
X140737867Y-51422212D01*
X140674132Y-51365696D01*
X140647194Y-51319038D01*
X140630117Y-51235585D01*
X140679416Y-51051599D01*
X140735932Y-50987864D01*
X140782590Y-50960927D01*
X140866044Y-50943849D01*
X141013232Y-50983288D01*
X141076967Y-51039805D01*
X141103905Y-51086462D01*
X141120982Y-51169916D01*
X137573628Y-70296368D02*
X137780684Y-69523627D01*
X137596698Y-69474328D01*
X137476446Y-69481546D01*
X137383132Y-69535420D01*
X137326616Y-69599155D01*
X137250380Y-69736484D01*
X137220800Y-69846876D01*
X137218158Y-70003924D01*
X137235236Y-70087378D01*
X137289111Y-70180693D01*
X137389643Y-70247069D01*
X137573628Y-70296368D01*
X137025021Y-69400025D02*
X136998083Y-69353369D01*
X136934348Y-69296852D01*
X136750362Y-69247553D01*
X136666909Y-69264631D01*
X136620251Y-69291568D01*
X136563735Y-69355303D01*
X136544015Y-69428897D01*
X136551233Y-69549148D01*
X136874482Y-70109032D01*
X136396119Y-69980855D01*
X136345593Y-69139096D02*
X135830433Y-69001059D01*
X135954552Y-69862538D01*
X132643125Y-88697255D02*
X132850181Y-87924514D01*
X132666195Y-87875215D01*
X132545943Y-87882433D01*
X132452629Y-87936307D01*
X132396113Y-88000042D01*
X132319877Y-88137371D01*
X132290297Y-88247763D01*
X132287655Y-88404811D01*
X132304733Y-88488265D01*
X132358608Y-88581580D01*
X132459140Y-88647956D01*
X132643125Y-88697255D01*
X132094518Y-87800912D02*
X132067580Y-87754256D01*
X132003845Y-87697739D01*
X131819859Y-87648440D01*
X131736406Y-87665518D01*
X131689748Y-87692455D01*
X131633232Y-87756190D01*
X131613512Y-87829784D01*
X131620730Y-87950035D01*
X131943979Y-88509919D01*
X131465616Y-88381742D01*
X131142367Y-87821858D02*
X131225821Y-87804781D01*
X131272478Y-87777843D01*
X131328994Y-87714109D01*
X131338854Y-87677312D01*
X131321777Y-87593857D01*
X131294840Y-87547201D01*
X131231105Y-87490684D01*
X131083916Y-87451245D01*
X131000462Y-87468322D01*
X130953805Y-87495259D01*
X130897288Y-87558994D01*
X130887428Y-87595791D01*
X130904506Y-87679245D01*
X130931444Y-87725903D01*
X130995178Y-87782419D01*
X131142367Y-87821858D01*
X131206102Y-87878375D01*
X131233039Y-87925032D01*
X131250116Y-88008486D01*
X131210677Y-88155675D01*
X131154161Y-88219409D01*
X131107504Y-88246347D01*
X131024049Y-88263425D01*
X130876861Y-88223985D01*
X130813126Y-88167469D01*
X130786188Y-88120811D01*
X130769111Y-88037358D01*
X130808550Y-87890169D01*
X130865067Y-87826434D01*
X130911724Y-87799497D01*
X130995178Y-87782419D01*
X127712623Y-107098143D02*
X127919679Y-106325402D01*
X127735693Y-106276103D01*
X127615441Y-106283321D01*
X127522127Y-106337195D01*
X127465611Y-106400930D01*
X127389375Y-106538259D01*
X127359795Y-106648651D01*
X127357153Y-106805699D01*
X127374231Y-106889153D01*
X127428106Y-106982468D01*
X127528638Y-107048844D01*
X127712623Y-107098143D01*
X127164016Y-106201800D02*
X127137078Y-106155144D01*
X127073343Y-106098627D01*
X126889357Y-106049328D01*
X126805904Y-106066406D01*
X126759246Y-106093343D01*
X126702730Y-106157078D01*
X126683010Y-106230672D01*
X126690228Y-106350923D01*
X127013477Y-106910807D01*
X126535114Y-106782630D01*
X126167142Y-106684032D02*
X126019953Y-106644593D01*
X125956218Y-106588077D01*
X125929281Y-106541419D01*
X125885266Y-106411308D01*
X125887908Y-106254260D01*
X125966786Y-105959882D01*
X126023303Y-105896147D01*
X126069960Y-105869210D01*
X126153414Y-105852133D01*
X126300603Y-105891572D01*
X126364338Y-105948089D01*
X126391275Y-105994745D01*
X126408352Y-106078200D01*
X126359053Y-106262185D01*
X126302537Y-106325920D01*
X126255880Y-106352858D01*
X126172425Y-106369935D01*
X126025237Y-106330496D01*
X125961503Y-106273980D01*
X125934565Y-106227322D01*
X125917487Y-106143868D01*
X122782120Y-125499029D02*
X122989176Y-124726288D01*
X122805190Y-124676989D01*
X122684938Y-124684207D01*
X122591624Y-124738081D01*
X122535108Y-124801816D01*
X122458872Y-124939145D01*
X122429292Y-125049537D01*
X122426650Y-125206585D01*
X122443728Y-125290039D01*
X122497603Y-125383354D01*
X122598135Y-125449730D01*
X122782120Y-125499029D01*
X122290029Y-124538952D02*
X121811666Y-124410775D01*
X121990368Y-124774171D01*
X121879976Y-124744592D01*
X121796523Y-124761669D01*
X121749865Y-124788606D01*
X121693348Y-124852341D01*
X121644050Y-125036327D01*
X121661127Y-125119781D01*
X121688065Y-125166439D01*
X121751799Y-125222955D01*
X121972583Y-125282114D01*
X122056036Y-125265036D01*
X122102693Y-125238098D01*
X121333303Y-124282598D02*
X121259708Y-124262879D01*
X121176254Y-124279956D01*
X121129597Y-124306893D01*
X121073080Y-124370628D01*
X120996844Y-124507957D01*
X120947545Y-124691943D01*
X120944903Y-124848991D01*
X120961981Y-124932445D01*
X120988918Y-124979103D01*
X121052652Y-125035619D01*
X121126247Y-125055339D01*
X121209701Y-125038261D01*
X121256359Y-125011323D01*
X121312875Y-124947589D01*
X121389111Y-124810260D01*
X121438410Y-124626274D01*
X121441052Y-124469226D01*
X121423975Y-124385771D01*
X121397037Y-124339115D01*
X121333303Y-124282598D01*
X154741889Y-79827093D02*
X154948945Y-79054352D01*
X154764959Y-79005053D01*
X154644707Y-79012271D01*
X154551393Y-79066145D01*
X154494877Y-79129880D01*
X154418641Y-79267209D01*
X154389061Y-79377601D01*
X154386419Y-79534649D01*
X154403497Y-79618103D01*
X154457372Y-79711418D01*
X154557904Y-79777794D01*
X154741889Y-79827093D01*
X154249798Y-78867016D02*
X153771435Y-78738839D01*
X153950137Y-79102235D01*
X153839745Y-79072656D01*
X153756292Y-79089733D01*
X153709634Y-79116670D01*
X153653117Y-79180405D01*
X153603819Y-79364391D01*
X153620896Y-79447845D01*
X153647834Y-79494503D01*
X153711568Y-79551019D01*
X153932352Y-79610178D01*
X154015805Y-79593100D01*
X154062462Y-79566162D01*
X152828436Y-79314384D02*
X153270002Y-79432702D01*
X153049219Y-79373543D02*
X153256275Y-78600802D01*
X153300289Y-78730913D01*
X153354165Y-78824227D01*
X153417899Y-78880744D01*
X149811387Y-98227980D02*
X150018443Y-97455239D01*
X149834457Y-97405940D01*
X149714205Y-97413158D01*
X149620891Y-97467032D01*
X149564375Y-97530767D01*
X149488139Y-97668096D01*
X149458559Y-97778488D01*
X149455917Y-97935536D01*
X149472995Y-98018990D01*
X149526870Y-98112305D01*
X149627402Y-98178681D01*
X149811387Y-98227980D01*
X149319296Y-97267903D02*
X148840933Y-97139726D01*
X149019635Y-97503122D01*
X148909243Y-97473543D01*
X148825790Y-97490620D01*
X148779132Y-97517557D01*
X148722615Y-97581292D01*
X148673317Y-97765278D01*
X148690394Y-97848732D01*
X148717332Y-97895390D01*
X148781066Y-97951906D01*
X149001850Y-98011065D01*
X149085303Y-97993987D01*
X149131960Y-97967049D01*
X148526836Y-97134442D02*
X148499899Y-97087785D01*
X148436163Y-97031269D01*
X148252178Y-96981970D01*
X148168724Y-96999047D01*
X148122067Y-97025984D01*
X148065550Y-97089719D01*
X148045830Y-97163313D01*
X148053048Y-97283565D01*
X148376297Y-97843448D01*
X147897934Y-97715271D01*
X147700061Y-133116685D02*
X146927320Y-132909629D01*
X146878021Y-133093615D01*
X146885239Y-133213867D01*
X146939113Y-133307181D01*
X147002848Y-133363697D01*
X147140177Y-133439933D01*
X147250569Y-133469513D01*
X147407617Y-133472155D01*
X147491071Y-133455077D01*
X147584386Y-133401202D01*
X147650762Y-133300670D01*
X147700061Y-133116685D01*
X146739984Y-133608776D02*
X146611807Y-134087139D01*
X146975203Y-133908437D01*
X146945624Y-134018829D01*
X146962701Y-134102282D01*
X146989638Y-134148940D01*
X147053373Y-134205457D01*
X147237359Y-134254755D01*
X147320813Y-134237678D01*
X147367471Y-134210740D01*
X147423987Y-134147006D01*
X147483146Y-133926222D01*
X147466068Y-133842769D01*
X147439130Y-133796112D01*
X146542789Y-134344720D02*
X146414612Y-134823083D01*
X146778008Y-134644381D01*
X146748428Y-134754772D01*
X146765506Y-134838226D01*
X146792443Y-134884884D01*
X146856178Y-134941400D01*
X147040164Y-134990699D01*
X147123617Y-134973622D01*
X147170275Y-134946684D01*
X147226791Y-134882949D01*
X147285950Y-134662166D01*
X147268873Y-134578712D01*
X147241935Y-134532055D01*
X196683535Y-88465162D02*
X196476480Y-87692421D01*
X196292494Y-87741720D01*
X196191962Y-87808097D01*
X196138087Y-87901410D01*
X196121010Y-87984865D01*
X196123652Y-88141913D01*
X196153231Y-88252305D01*
X196229467Y-88389634D01*
X196285984Y-88453368D01*
X196379298Y-88507243D01*
X196499550Y-88514461D01*
X196683535Y-88465162D01*
X195777333Y-87879757D02*
X195298970Y-88007934D01*
X195635429Y-88233293D01*
X195525037Y-88262873D01*
X195461303Y-88319389D01*
X195434365Y-88366046D01*
X195417287Y-88449500D01*
X195466586Y-88633486D01*
X195523103Y-88697220D01*
X195569760Y-88724158D01*
X195653214Y-88741236D01*
X195873998Y-88682077D01*
X195937732Y-88625561D01*
X195964669Y-88578903D01*
X194705639Y-88442990D02*
X194843676Y-88958151D01*
X194810747Y-88099314D02*
X195142629Y-88601973D01*
X194664266Y-88730150D01*
X202189067Y-106711971D02*
X201982012Y-105939230D01*
X201798026Y-105988529D01*
X201697494Y-106054906D01*
X201643619Y-106148219D01*
X201626542Y-106231674D01*
X201629184Y-106388722D01*
X201658763Y-106499114D01*
X201734999Y-106636443D01*
X201791516Y-106700177D01*
X201884830Y-106754052D01*
X202005082Y-106761270D01*
X202189067Y-106711971D01*
X201282865Y-106126566D02*
X200804502Y-106254743D01*
X201140961Y-106480102D01*
X201030569Y-106509682D01*
X200966835Y-106566198D01*
X200939897Y-106612855D01*
X200922819Y-106696309D01*
X200972118Y-106880295D01*
X201028635Y-106944029D01*
X201075292Y-106970967D01*
X201158746Y-106988045D01*
X201379530Y-106928886D01*
X201443264Y-106872370D01*
X201470201Y-106825712D01*
X200105355Y-106442079D02*
X200473328Y-106343481D01*
X200608722Y-106701593D01*
X200562066Y-106674656D01*
X200478611Y-106657578D01*
X200294625Y-106706877D01*
X200230891Y-106763394D01*
X200203953Y-106810050D01*
X200186876Y-106893505D01*
X200236174Y-107077491D01*
X200292691Y-107141225D01*
X200339349Y-107168163D01*
X200422802Y-107185240D01*
X200606788Y-107135942D01*
X200670523Y-107079425D01*
X200697460Y-107032767D01*
X207119570Y-125112858D02*
X206912515Y-124340117D01*
X206728529Y-124389416D01*
X206627997Y-124455793D01*
X206574122Y-124549106D01*
X206557045Y-124632561D01*
X206559687Y-124789609D01*
X206589266Y-124900001D01*
X206665502Y-125037330D01*
X206722019Y-125101064D01*
X206815333Y-125154939D01*
X206935585Y-125162157D01*
X207119570Y-125112858D01*
X206213368Y-124527453D02*
X205735005Y-124655630D01*
X206071464Y-124880989D01*
X205961072Y-124910569D01*
X205897338Y-124967085D01*
X205870400Y-125013742D01*
X205853322Y-125097196D01*
X205902621Y-125281182D01*
X205959138Y-125344916D01*
X206005795Y-125371854D01*
X206089249Y-125388932D01*
X206310033Y-125329773D01*
X206373767Y-125273257D01*
X206400704Y-125226599D01*
X205072656Y-124833106D02*
X205219845Y-124793667D01*
X205303299Y-124810744D01*
X205349955Y-124837682D01*
X205453129Y-124928354D01*
X205529366Y-125065683D01*
X205608244Y-125360060D01*
X205591166Y-125443514D01*
X205564229Y-125490172D01*
X205500494Y-125546688D01*
X205353305Y-125586127D01*
X205269852Y-125569050D01*
X205223194Y-125542112D01*
X205166677Y-125478378D01*
X205117379Y-125294392D01*
X205134456Y-125210937D01*
X205161394Y-125164281D01*
X205225128Y-125107764D01*
X205372317Y-125068325D01*
X205455772Y-125085402D01*
X205502428Y-125112340D01*
X205558945Y-125176075D01*
X175159800Y-79440921D02*
X174952745Y-78668180D01*
X174768759Y-78717479D01*
X174668227Y-78783856D01*
X174614352Y-78877169D01*
X174597275Y-78960624D01*
X174599917Y-79117672D01*
X174629496Y-79228064D01*
X174705732Y-79365393D01*
X174762249Y-79429127D01*
X174855563Y-79483002D01*
X174975815Y-79490220D01*
X175159800Y-79440921D01*
X174253598Y-78855516D02*
X173775235Y-78983693D01*
X174111694Y-79209052D01*
X174001302Y-79238632D01*
X173937568Y-79295148D01*
X173910630Y-79341805D01*
X173893552Y-79425259D01*
X173942851Y-79609245D01*
X173999368Y-79672979D01*
X174046025Y-79699917D01*
X174129479Y-79716995D01*
X174350263Y-79657836D01*
X174413997Y-79601320D01*
X174440934Y-79554662D01*
X173517655Y-79052712D02*
X173002494Y-79190748D01*
X173540724Y-79874751D01*
X180244381Y-98416836D02*
X180037326Y-97644095D01*
X179853340Y-97693394D01*
X179752808Y-97759771D01*
X179698933Y-97853084D01*
X179681856Y-97936539D01*
X179684498Y-98093587D01*
X179714077Y-98203979D01*
X179790313Y-98341308D01*
X179846830Y-98405042D01*
X179940144Y-98458917D01*
X180060396Y-98466135D01*
X180244381Y-98416836D01*
X179338179Y-97831431D02*
X178859816Y-97959608D01*
X179196275Y-98184967D01*
X179085883Y-98214547D01*
X179022149Y-98271063D01*
X178995211Y-98317720D01*
X178978133Y-98401174D01*
X179027432Y-98585160D01*
X179083949Y-98648894D01*
X179130606Y-98675832D01*
X179214060Y-98692910D01*
X179434844Y-98633751D01*
X179498578Y-98577235D01*
X179525515Y-98530577D01*
X178506988Y-98409100D02*
X178570723Y-98352583D01*
X178597660Y-98305926D01*
X178614737Y-98222472D01*
X178604878Y-98185675D01*
X178548361Y-98121940D01*
X178501704Y-98095003D01*
X178418250Y-98077926D01*
X178271061Y-98117365D01*
X178207327Y-98173881D01*
X178180389Y-98220538D01*
X178163311Y-98303993D01*
X178173171Y-98340789D01*
X178229688Y-98404524D01*
X178276345Y-98431462D01*
X178359799Y-98448539D01*
X178506988Y-98409100D01*
X178590442Y-98426177D01*
X178637099Y-98453114D01*
X178693616Y-98516850D01*
X178733055Y-98664038D01*
X178715977Y-98747492D01*
X178689040Y-98794150D01*
X178625305Y-98850666D01*
X178478116Y-98890105D01*
X178394663Y-98873028D01*
X178348005Y-98846090D01*
X178291488Y-98782356D01*
X178252049Y-98635167D01*
X178269127Y-98551712D01*
X178296065Y-98505055D01*
X178359799Y-98448539D01*
X177109008Y-136106473D02*
X177881749Y-135899418D01*
X177832450Y-135715432D01*
X177766073Y-135614900D01*
X177672760Y-135561025D01*
X177589305Y-135543948D01*
X177432257Y-135546590D01*
X177321865Y-135576169D01*
X177184536Y-135652405D01*
X177120802Y-135708922D01*
X177066927Y-135802236D01*
X177059709Y-135922488D01*
X177109008Y-136106473D01*
X177694413Y-135200271D02*
X177566236Y-134721908D01*
X177340877Y-135058367D01*
X177311297Y-134947975D01*
X177254781Y-134884241D01*
X177208124Y-134857303D01*
X177124670Y-134840225D01*
X176940684Y-134889524D01*
X176876950Y-134946041D01*
X176850012Y-134992698D01*
X176832934Y-135076152D01*
X176892093Y-135296936D01*
X176948609Y-135360670D01*
X176995267Y-135387607D01*
X176694897Y-134560992D02*
X176655458Y-134413803D01*
X176672536Y-134330349D01*
X176699474Y-134283692D01*
X176790145Y-134180518D01*
X176927474Y-134104282D01*
X177221851Y-134025403D01*
X177305306Y-134042481D01*
X177351963Y-134069419D01*
X177408479Y-134133153D01*
X177447918Y-134280342D01*
X177430841Y-134363796D01*
X177403904Y-134410453D01*
X177340169Y-134466970D01*
X177156183Y-134516269D01*
X177072730Y-134499191D01*
X177026072Y-134472254D01*
X176969555Y-134408519D01*
X176930116Y-134261330D01*
X176947194Y-134177877D01*
X176974132Y-134131219D01*
X177037866Y-134074702D01*
X236525589Y-87650523D02*
X236318534Y-86877782D01*
X236134548Y-86927081D01*
X236034016Y-86993458D01*
X235980141Y-87086771D01*
X235963064Y-87170226D01*
X235965706Y-87327274D01*
X235995285Y-87437666D01*
X236071521Y-87574995D01*
X236128038Y-87638729D01*
X236221352Y-87692604D01*
X236341604Y-87699822D01*
X236525589Y-87650523D01*
X235283637Y-87431155D02*
X235421674Y-87946316D01*
X235388745Y-87087480D02*
X235720627Y-87590138D01*
X235242264Y-87718315D01*
X234662661Y-87321472D02*
X234589066Y-87341192D01*
X234525332Y-87397708D01*
X234498395Y-87444365D01*
X234481316Y-87527820D01*
X234483959Y-87684868D01*
X234533257Y-87868854D01*
X234609493Y-88006183D01*
X234666011Y-88069917D01*
X234712668Y-88096855D01*
X234796121Y-88113933D01*
X234869716Y-88094213D01*
X234933450Y-88037697D01*
X234960388Y-87991039D01*
X234977466Y-87907585D01*
X234974824Y-87750537D01*
X234925525Y-87566551D01*
X234849289Y-87429222D01*
X234792772Y-87365487D01*
X234746115Y-87338550D01*
X234662661Y-87321472D01*
X241456092Y-106051409D02*
X241249037Y-105278668D01*
X241065051Y-105327967D01*
X240964519Y-105394344D01*
X240910644Y-105487657D01*
X240893567Y-105571112D01*
X240896209Y-105728160D01*
X240925788Y-105838552D01*
X241002024Y-105975881D01*
X241058541Y-106039615D01*
X241151855Y-106093490D01*
X241272107Y-106100708D01*
X241456092Y-106051409D01*
X240214140Y-105832041D02*
X240352177Y-106347202D01*
X240319248Y-105488366D02*
X240651130Y-105991024D01*
X240172767Y-106119201D01*
X239542639Y-106564117D02*
X239984205Y-106445800D01*
X239763422Y-106504959D02*
X239556367Y-105732218D01*
X239659540Y-105822889D01*
X239752855Y-105876765D01*
X239836308Y-105893842D01*
X204565820Y-41978585D02*
X204358765Y-41205844D01*
X204174779Y-41255143D01*
X204074247Y-41321520D01*
X204020372Y-41414833D01*
X204003295Y-41498288D01*
X204005937Y-41655336D01*
X204035516Y-41765728D01*
X204111752Y-41903057D01*
X204168269Y-41966791D01*
X204261583Y-42020666D01*
X204381835Y-42027884D01*
X204565820Y-41978585D01*
X203323868Y-41759217D02*
X203461905Y-42274378D01*
X203428976Y-41415542D02*
X203760858Y-41918200D01*
X203282495Y-42046377D01*
X202906597Y-41673829D02*
X202859940Y-41646892D01*
X202776486Y-41629815D01*
X202592500Y-41679114D01*
X202528766Y-41735630D01*
X202501828Y-41782287D01*
X202484750Y-41865742D01*
X202504470Y-41939335D01*
X202570846Y-42039867D01*
X203130730Y-42363116D01*
X202652367Y-42491293D01*
X209496323Y-60379473D02*
X209289268Y-59606732D01*
X209105282Y-59656031D01*
X209004750Y-59722408D01*
X208950875Y-59815721D01*
X208933798Y-59899176D01*
X208936440Y-60056224D01*
X208966019Y-60166616D01*
X209042255Y-60303945D01*
X209098772Y-60367679D01*
X209192086Y-60421554D01*
X209312338Y-60428772D01*
X209496323Y-60379473D01*
X208254371Y-60160105D02*
X208392408Y-60675266D01*
X208359479Y-59816430D02*
X208691361Y-60319088D01*
X208212998Y-60447265D01*
X207854178Y-59991264D02*
X207375814Y-60119441D01*
X207712273Y-60344800D01*
X207601881Y-60374379D01*
X207538147Y-60430896D01*
X207511209Y-60477552D01*
X207494132Y-60561007D01*
X207543430Y-60744993D01*
X207599947Y-60808727D01*
X207646605Y-60835665D01*
X207730058Y-60852742D01*
X207950842Y-60793584D01*
X208014576Y-60737067D01*
X208041513Y-60690410D01*
X214426825Y-78780360D02*
X214219770Y-78007619D01*
X214035784Y-78056918D01*
X213935252Y-78123295D01*
X213881377Y-78216608D01*
X213864300Y-78300063D01*
X213866942Y-78457111D01*
X213896521Y-78567503D01*
X213972757Y-78704832D01*
X214029274Y-78768566D01*
X214122588Y-78822441D01*
X214242840Y-78829659D01*
X214426825Y-78780360D01*
X213184873Y-78560992D02*
X213322910Y-79076153D01*
X213289981Y-78217317D02*
X213621863Y-78719975D01*
X213143500Y-78848152D01*
X212448929Y-78758188D02*
X212586966Y-79273349D01*
X212554037Y-78414512D02*
X212885919Y-78917171D01*
X212407556Y-79045348D01*
X218782299Y-97335325D02*
X218575244Y-96562584D01*
X218391258Y-96611883D01*
X218290726Y-96678260D01*
X218236851Y-96771573D01*
X218219774Y-96855028D01*
X218222416Y-97012076D01*
X218251995Y-97122468D01*
X218328231Y-97259797D01*
X218384748Y-97323531D01*
X218478062Y-97377406D01*
X218598314Y-97384624D01*
X218782299Y-97335325D01*
X217540347Y-97115957D02*
X217678384Y-97631118D01*
X217645455Y-96772282D02*
X217977337Y-97274940D01*
X217498974Y-97403117D01*
X216698587Y-97065433D02*
X217066560Y-96966835D01*
X217201954Y-97324947D01*
X217155298Y-97298010D01*
X217071843Y-97280932D01*
X216887857Y-97330231D01*
X216824123Y-97386748D01*
X216797185Y-97433404D01*
X216780108Y-97516859D01*
X216829406Y-97700845D01*
X216885923Y-97764579D01*
X216932581Y-97791517D01*
X217016034Y-97808594D01*
X217200020Y-97759296D01*
X217263755Y-97702779D01*
X217290692Y-97656121D01*
X224287831Y-115582134D02*
X224080776Y-114809393D01*
X223896790Y-114858692D01*
X223796258Y-114925069D01*
X223742383Y-115018382D01*
X223725306Y-115101837D01*
X223727948Y-115258885D01*
X223757527Y-115369277D01*
X223833763Y-115506606D01*
X223890280Y-115570340D01*
X223983594Y-115624215D01*
X224103846Y-115631433D01*
X224287831Y-115582134D01*
X223045879Y-115362766D02*
X223183916Y-115877927D01*
X223150987Y-115019091D02*
X223482869Y-115521749D01*
X223004506Y-115649926D01*
X222240917Y-115302382D02*
X222388106Y-115262943D01*
X222471560Y-115280020D01*
X222518216Y-115306958D01*
X222621390Y-115397630D01*
X222697627Y-115534959D01*
X222776505Y-115829336D01*
X222759427Y-115912790D01*
X222732490Y-115959448D01*
X222668755Y-116015964D01*
X222521566Y-116055403D01*
X222438113Y-116038326D01*
X222391455Y-116011388D01*
X222334938Y-115947654D01*
X222285640Y-115763668D01*
X222302717Y-115680213D01*
X222329655Y-115633557D01*
X222393389Y-115577040D01*
X222540578Y-115537601D01*
X222624033Y-115554678D01*
X222670689Y-115581616D01*
X222727206Y-115645351D01*
X187972585Y-51355232D02*
X187765530Y-50582491D01*
X187581544Y-50631790D01*
X187481012Y-50698167D01*
X187427137Y-50791480D01*
X187410060Y-50874935D01*
X187412702Y-51031983D01*
X187442281Y-51142375D01*
X187518517Y-51279704D01*
X187575034Y-51343438D01*
X187668348Y-51397313D01*
X187788600Y-51404531D01*
X187972585Y-51355232D01*
X186730633Y-51135864D02*
X186868670Y-51651025D01*
X186835741Y-50792189D02*
X187167623Y-51294847D01*
X186689260Y-51423024D01*
X186330440Y-50967023D02*
X185815279Y-51105059D01*
X186353509Y-51789062D01*
X192903088Y-69756119D02*
X192696033Y-68983378D01*
X192512047Y-69032677D01*
X192411515Y-69099054D01*
X192357640Y-69192367D01*
X192340563Y-69275822D01*
X192343205Y-69432870D01*
X192372784Y-69543262D01*
X192449020Y-69680591D01*
X192505537Y-69744325D01*
X192598851Y-69798200D01*
X192719103Y-69805418D01*
X192903088Y-69756119D01*
X191661136Y-69536751D02*
X191799173Y-70051912D01*
X191766244Y-69193076D02*
X192098126Y-69695734D01*
X191619763Y-69823911D01*
X191165695Y-69748383D02*
X191229430Y-69691866D01*
X191256367Y-69645209D01*
X191273444Y-69561755D01*
X191263585Y-69524958D01*
X191207068Y-69461223D01*
X191160411Y-69434286D01*
X191076957Y-69417209D01*
X190929768Y-69456648D01*
X190866034Y-69513164D01*
X190839096Y-69559821D01*
X190822018Y-69643276D01*
X190831878Y-69680072D01*
X190888395Y-69743807D01*
X190935052Y-69770745D01*
X191018506Y-69787822D01*
X191165695Y-69748383D01*
X191249149Y-69765460D01*
X191295806Y-69792397D01*
X191352323Y-69856133D01*
X191391762Y-70003321D01*
X191374684Y-70086775D01*
X191347747Y-70133433D01*
X191284012Y-70189949D01*
X191136823Y-70229388D01*
X191053370Y-70212311D01*
X191006712Y-70185373D01*
X190950195Y-70121639D01*
X190910756Y-69974450D01*
X190927834Y-69890995D01*
X190954772Y-69844338D01*
X191018506Y-69787822D01*
X281298144Y-105236769D02*
X281091089Y-104464028D01*
X280907103Y-104513327D01*
X280806571Y-104579704D01*
X280752696Y-104673017D01*
X280735619Y-104756472D01*
X280738261Y-104913520D01*
X280767840Y-105023912D01*
X280844076Y-105161241D01*
X280900593Y-105224975D01*
X280993907Y-105278850D01*
X281114159Y-105286068D01*
X281298144Y-105236769D01*
X280056192Y-105017401D02*
X280194229Y-105532562D01*
X280161300Y-104673726D02*
X280493182Y-105176384D01*
X280014819Y-105304561D01*
X279752663Y-105650880D02*
X279605474Y-105690319D01*
X279522020Y-105673241D01*
X279475363Y-105646303D01*
X279372189Y-105555632D01*
X279295953Y-105418303D01*
X279217074Y-105123926D01*
X279234152Y-105040471D01*
X279261090Y-104993814D01*
X279324824Y-104937298D01*
X279472013Y-104897859D01*
X279555467Y-104914936D01*
X279602124Y-104941873D01*
X279658641Y-105005608D01*
X279707940Y-105189594D01*
X279690862Y-105273047D01*
X279663925Y-105319705D01*
X279600190Y-105376222D01*
X279453001Y-105415661D01*
X279369548Y-105398583D01*
X279322890Y-105371645D01*
X279266373Y-105307911D01*
X241367593Y-32117580D02*
X241160538Y-31344839D01*
X240976552Y-31394138D01*
X240876020Y-31460515D01*
X240822145Y-31553828D01*
X240805068Y-31637283D01*
X240807710Y-31794331D01*
X240837289Y-31904723D01*
X240913525Y-32042052D01*
X240970042Y-32105786D01*
X241063356Y-32159661D01*
X241183608Y-32166879D01*
X241367593Y-32117580D01*
X240019825Y-31650493D02*
X240387797Y-31551895D01*
X240523192Y-31910006D01*
X240476535Y-31883069D01*
X240393081Y-31865992D01*
X240209095Y-31915291D01*
X240145361Y-31971807D01*
X240118423Y-32018464D01*
X240101345Y-32101918D01*
X240150644Y-32285904D01*
X240207161Y-32349638D01*
X240253818Y-32376576D01*
X240337272Y-32393654D01*
X240521258Y-32344355D01*
X240584993Y-32287838D01*
X240611930Y-32241181D01*
X239504665Y-31788529D02*
X239431070Y-31808249D01*
X239367336Y-31864765D01*
X239340399Y-31911422D01*
X239323320Y-31994877D01*
X239325963Y-32151925D01*
X239375261Y-32335911D01*
X239451497Y-32473240D01*
X239508015Y-32536974D01*
X239554672Y-32563912D01*
X239638125Y-32580990D01*
X239711720Y-32561270D01*
X239775454Y-32504754D01*
X239802392Y-32458096D01*
X239819470Y-32374642D01*
X239816828Y-32217594D01*
X239767529Y-32033608D01*
X239691293Y-31896279D01*
X239634776Y-31832544D01*
X239588119Y-31805607D01*
X239504665Y-31788529D01*
X246298096Y-50518467D02*
X246091041Y-49745726D01*
X245907055Y-49795025D01*
X245806523Y-49861402D01*
X245752648Y-49954715D01*
X245735571Y-50038170D01*
X245738213Y-50195218D01*
X245767792Y-50305610D01*
X245844028Y-50442939D01*
X245900545Y-50506673D01*
X245993859Y-50560548D01*
X246114111Y-50567766D01*
X246298096Y-50518467D01*
X244950328Y-50051380D02*
X245318300Y-49952782D01*
X245453695Y-50310893D01*
X245407038Y-50283956D01*
X245323584Y-50266879D01*
X245139598Y-50316178D01*
X245075864Y-50372694D01*
X245048926Y-50419351D01*
X245031848Y-50502805D01*
X245081147Y-50686791D01*
X245137664Y-50750525D01*
X245184321Y-50777463D01*
X245267775Y-50794541D01*
X245451761Y-50745242D01*
X245515496Y-50688725D01*
X245542433Y-50642068D01*
X244384643Y-51031175D02*
X244826209Y-50912858D01*
X244605426Y-50972017D02*
X244398371Y-50199276D01*
X244501544Y-50289947D01*
X244594859Y-50343823D01*
X244678312Y-50360900D01*
X251228599Y-68919354D02*
X251021544Y-68146613D01*
X250837558Y-68195912D01*
X250737026Y-68262289D01*
X250683151Y-68355602D01*
X250666074Y-68439057D01*
X250668716Y-68596105D01*
X250698295Y-68706497D01*
X250774531Y-68843826D01*
X250831048Y-68907560D01*
X250924362Y-68961435D01*
X251044614Y-68968653D01*
X251228599Y-68919354D01*
X249880831Y-68452267D02*
X250248803Y-68353669D01*
X250384198Y-68711780D01*
X250337541Y-68684843D01*
X250254087Y-68667766D01*
X250070101Y-68717065D01*
X250006367Y-68773581D01*
X249979429Y-68820238D01*
X249962351Y-68903692D01*
X250011650Y-69087678D01*
X250068167Y-69151412D01*
X250114824Y-69178350D01*
X250198278Y-69195428D01*
X250382264Y-69146129D01*
X250445999Y-69089612D01*
X250472936Y-69042955D01*
X249569376Y-68614598D02*
X249522719Y-68587661D01*
X249439265Y-68570584D01*
X249255279Y-68619883D01*
X249191545Y-68676399D01*
X249164607Y-68723056D01*
X249147529Y-68806511D01*
X249167249Y-68880104D01*
X249233625Y-68980636D01*
X249793509Y-69303885D01*
X249315146Y-69432062D01*
X256159102Y-87320241D02*
X255952047Y-86547500D01*
X255768061Y-86596799D01*
X255667529Y-86663176D01*
X255613654Y-86756489D01*
X255596577Y-86839944D01*
X255599219Y-86996992D01*
X255628798Y-87107384D01*
X255705034Y-87244713D01*
X255761551Y-87308447D01*
X255854865Y-87362322D01*
X255975117Y-87369540D01*
X256159102Y-87320241D01*
X254811334Y-86853154D02*
X255179306Y-86754556D01*
X255314701Y-87112667D01*
X255268044Y-87085730D01*
X255184590Y-87068653D01*
X255000604Y-87117952D01*
X254936870Y-87174468D01*
X254909932Y-87221125D01*
X254892854Y-87304579D01*
X254942153Y-87488565D01*
X254998670Y-87552299D01*
X255045327Y-87579237D01*
X255128781Y-87596315D01*
X255312767Y-87547016D01*
X255376502Y-87490499D01*
X255403439Y-87443842D01*
X254516957Y-86932032D02*
X254038593Y-87060209D01*
X254375052Y-87285568D01*
X254264660Y-87315147D01*
X254200926Y-87371664D01*
X254173988Y-87418320D01*
X254156911Y-87501775D01*
X254206209Y-87685761D01*
X254262726Y-87749495D01*
X254309384Y-87776433D01*
X254392837Y-87793510D01*
X254613621Y-87734352D01*
X254677355Y-87677835D01*
X254704292Y-87631178D01*
X261089604Y-105721128D02*
X260882549Y-104948387D01*
X260698563Y-104997686D01*
X260598031Y-105064063D01*
X260544156Y-105157376D01*
X260527079Y-105240831D01*
X260529721Y-105397879D01*
X260559300Y-105508271D01*
X260635536Y-105645600D01*
X260692053Y-105709334D01*
X260785367Y-105763209D01*
X260905619Y-105770427D01*
X261089604Y-105721128D01*
X259741836Y-105254041D02*
X260109808Y-105155443D01*
X260245203Y-105513554D01*
X260198546Y-105486617D01*
X260115092Y-105469540D01*
X259931106Y-105518839D01*
X259867372Y-105575355D01*
X259840434Y-105622012D01*
X259823356Y-105705466D01*
X259872655Y-105889452D01*
X259929172Y-105953186D01*
X259975829Y-105980124D01*
X260059283Y-105997202D01*
X260243269Y-105947903D01*
X260307004Y-105891386D01*
X260333941Y-105844729D01*
X259111708Y-105698956D02*
X259249745Y-106214117D01*
X259216816Y-105355280D02*
X259548698Y-105857939D01*
X259070335Y-105986116D01*
X221734081Y-32447862D02*
X221527026Y-31675121D01*
X221343040Y-31724420D01*
X221242508Y-31790797D01*
X221188633Y-31884110D01*
X221171556Y-31967565D01*
X221174198Y-32124613D01*
X221203777Y-32235005D01*
X221280013Y-32372334D01*
X221336530Y-32436068D01*
X221429844Y-32489943D01*
X221550096Y-32497161D01*
X221734081Y-32447862D01*
X220386313Y-31980775D02*
X220754285Y-31882177D01*
X220889680Y-32240288D01*
X220843023Y-32213351D01*
X220759569Y-32196274D01*
X220575583Y-32245573D01*
X220511849Y-32302089D01*
X220484911Y-32348746D01*
X220467833Y-32432200D01*
X220517132Y-32616186D01*
X220573649Y-32679920D01*
X220620306Y-32706858D01*
X220703760Y-32723936D01*
X220887746Y-32674637D01*
X220951481Y-32618120D01*
X220978418Y-32571463D01*
X219650369Y-32177970D02*
X220018342Y-32079372D01*
X220153736Y-32437484D01*
X220107080Y-32410547D01*
X220023625Y-32393469D01*
X219839639Y-32442768D01*
X219775905Y-32499285D01*
X219748967Y-32545941D01*
X219731890Y-32629396D01*
X219781188Y-32813382D01*
X219837705Y-32877116D01*
X219884363Y-32904054D01*
X219967816Y-32921131D01*
X220151802Y-32871833D01*
X220215537Y-32815316D01*
X220242474Y-32768658D01*
X226664584Y-50848748D02*
X226457529Y-50076007D01*
X226273543Y-50125306D01*
X226173011Y-50191683D01*
X226119136Y-50284996D01*
X226102059Y-50368451D01*
X226104701Y-50525499D01*
X226134280Y-50635891D01*
X226210516Y-50773220D01*
X226267033Y-50836954D01*
X226360347Y-50890829D01*
X226480599Y-50898047D01*
X226664584Y-50848748D01*
X225316816Y-50381661D02*
X225684788Y-50283063D01*
X225820183Y-50641174D01*
X225773526Y-50614237D01*
X225690072Y-50597160D01*
X225506086Y-50646459D01*
X225442352Y-50702975D01*
X225415414Y-50749632D01*
X225398336Y-50833086D01*
X225447635Y-51017072D01*
X225504152Y-51080806D01*
X225550809Y-51107744D01*
X225634263Y-51124822D01*
X225818249Y-51075523D01*
X225881984Y-51019006D01*
X225908921Y-50972349D01*
X224617670Y-50568996D02*
X224764859Y-50529557D01*
X224848313Y-50546634D01*
X224894969Y-50573572D01*
X224998143Y-50664244D01*
X225074380Y-50801573D01*
X225153258Y-51095950D01*
X225136180Y-51179404D01*
X225109243Y-51226062D01*
X225045508Y-51282578D01*
X224898319Y-51322017D01*
X224814866Y-51304940D01*
X224768208Y-51278002D01*
X224711691Y-51214268D01*
X224662393Y-51030282D01*
X224679470Y-50946827D01*
X224706408Y-50900171D01*
X224770142Y-50843654D01*
X224917331Y-50804215D01*
X225000786Y-50821292D01*
X225047442Y-50848230D01*
X225103959Y-50911965D01*
X231595087Y-69249635D02*
X231388032Y-68476894D01*
X231204046Y-68526193D01*
X231103514Y-68592570D01*
X231049639Y-68685883D01*
X231032562Y-68769338D01*
X231035204Y-68926386D01*
X231064783Y-69036778D01*
X231141019Y-69174107D01*
X231197536Y-69237841D01*
X231290850Y-69291716D01*
X231411102Y-69298934D01*
X231595087Y-69249635D01*
X230247319Y-68782548D02*
X230615291Y-68683950D01*
X230750686Y-69042061D01*
X230704029Y-69015124D01*
X230620575Y-68998047D01*
X230436589Y-69047346D01*
X230372855Y-69103862D01*
X230345917Y-69150519D01*
X230328839Y-69233973D01*
X230378138Y-69417959D01*
X230434655Y-69481693D01*
X230481312Y-69508631D01*
X230564766Y-69525709D01*
X230748752Y-69476410D01*
X230812487Y-69419893D01*
X230839424Y-69373236D01*
X229952942Y-68861426D02*
X229437781Y-68999462D01*
X229976011Y-69683465D01*
X288602437Y-24391545D02*
X288395382Y-23618804D01*
X288211396Y-23668103D01*
X288110864Y-23734480D01*
X288056989Y-23827793D01*
X288039912Y-23911248D01*
X288042554Y-24068296D01*
X288072133Y-24178688D01*
X288148369Y-24316017D01*
X288204886Y-24379751D01*
X288298200Y-24433626D01*
X288418452Y-24440844D01*
X288602437Y-24391545D01*
X287254669Y-23924458D02*
X287622641Y-23825860D01*
X287758036Y-24183971D01*
X287711379Y-24157034D01*
X287627925Y-24139957D01*
X287443939Y-24189256D01*
X287380205Y-24245772D01*
X287353267Y-24292429D01*
X287336189Y-24375883D01*
X287385488Y-24559869D01*
X287442005Y-24623603D01*
X287488662Y-24650541D01*
X287572116Y-24667619D01*
X287756102Y-24618320D01*
X287819837Y-24561803D01*
X287846774Y-24515146D01*
X286865044Y-24383809D02*
X286928779Y-24327292D01*
X286955716Y-24280635D01*
X286972793Y-24197181D01*
X286962934Y-24160384D01*
X286906417Y-24096649D01*
X286859760Y-24069712D01*
X286776306Y-24052635D01*
X286629117Y-24092074D01*
X286565383Y-24148590D01*
X286538445Y-24195247D01*
X286521367Y-24278702D01*
X286531227Y-24315498D01*
X286587744Y-24379233D01*
X286634401Y-24406171D01*
X286717855Y-24423248D01*
X286865044Y-24383809D01*
X286948498Y-24400886D01*
X286995155Y-24427823D01*
X287051672Y-24491559D01*
X287091111Y-24638747D01*
X287074033Y-24722201D01*
X287047096Y-24768859D01*
X286983361Y-24825375D01*
X286836172Y-24864814D01*
X286752719Y-24847737D01*
X286706061Y-24820799D01*
X286649544Y-24757065D01*
X286610105Y-24609876D01*
X286627183Y-24526421D01*
X286654121Y-24479764D01*
X286717855Y-24423248D01*
X290657800Y-43562823D02*
X290450745Y-42790082D01*
X290266759Y-42839381D01*
X290166227Y-42905758D01*
X290112352Y-42999071D01*
X290095275Y-43082526D01*
X290097917Y-43239574D01*
X290127496Y-43349966D01*
X290203732Y-43487295D01*
X290260249Y-43551029D01*
X290353563Y-43604904D01*
X290473815Y-43612122D01*
X290657800Y-43562823D01*
X289310032Y-43095736D02*
X289678004Y-42997138D01*
X289813399Y-43355249D01*
X289766742Y-43328312D01*
X289683288Y-43311235D01*
X289499302Y-43360534D01*
X289435568Y-43417050D01*
X289408630Y-43463707D01*
X289391552Y-43547161D01*
X289440851Y-43731147D01*
X289497368Y-43794881D01*
X289544025Y-43821819D01*
X289627479Y-43838897D01*
X289811465Y-43789598D01*
X289875200Y-43733081D01*
X289902137Y-43686424D01*
X289112319Y-43976934D02*
X288965130Y-44016373D01*
X288881676Y-43999295D01*
X288835019Y-43972357D01*
X288731845Y-43881686D01*
X288655609Y-43744357D01*
X288576730Y-43449980D01*
X288593808Y-43366525D01*
X288620746Y-43319868D01*
X288684480Y-43263352D01*
X288831669Y-43223913D01*
X288915123Y-43240990D01*
X288961780Y-43267927D01*
X289018297Y-43331662D01*
X289067596Y-43515648D01*
X289050518Y-43599101D01*
X289023581Y-43645759D01*
X288959846Y-43702276D01*
X288812657Y-43741715D01*
X288729204Y-43724637D01*
X288682546Y-43697699D01*
X288626029Y-43633965D01*
X300763553Y-60577006D02*
X300556498Y-59804265D01*
X300372512Y-59853564D01*
X300271980Y-59919941D01*
X300218105Y-60013254D01*
X300201028Y-60096709D01*
X300203670Y-60253757D01*
X300233249Y-60364149D01*
X300309485Y-60501478D01*
X300366002Y-60565212D01*
X300459316Y-60619087D01*
X300579568Y-60626305D01*
X300763553Y-60577006D01*
X299452583Y-60100059D02*
X299599772Y-60060619D01*
X299683225Y-60077697D01*
X299729882Y-60104634D01*
X299833056Y-60195306D01*
X299909292Y-60332635D01*
X299988170Y-60627013D01*
X299971093Y-60710466D01*
X299944156Y-60757124D01*
X299880421Y-60813641D01*
X299733232Y-60853080D01*
X299649778Y-60836002D01*
X299603121Y-60809064D01*
X299546604Y-60745330D01*
X299497305Y-60561344D01*
X299514383Y-60477890D01*
X299541321Y-60431233D01*
X299605055Y-60374717D01*
X299752244Y-60335278D01*
X299835698Y-60352355D01*
X299882355Y-60379292D01*
X299938872Y-60443027D01*
X298900625Y-60247955D02*
X298827030Y-60267675D01*
X298763296Y-60324191D01*
X298736359Y-60370848D01*
X298719280Y-60454303D01*
X298721923Y-60611351D01*
X298771221Y-60795337D01*
X298847457Y-60932666D01*
X298903975Y-60996400D01*
X298950632Y-61023338D01*
X299034085Y-61040416D01*
X299107680Y-61020696D01*
X299171414Y-60964180D01*
X299198352Y-60917522D01*
X299215430Y-60834068D01*
X299212788Y-60677020D01*
X299163489Y-60493034D01*
X299087253Y-60355705D01*
X299030736Y-60291970D01*
X298984079Y-60265033D01*
X298900625Y-60247955D01*
X305828973Y-95582189D02*
X305621918Y-94809448D01*
X305437932Y-94858747D01*
X305337400Y-94925124D01*
X305283525Y-95018437D01*
X305266448Y-95101892D01*
X305269090Y-95258940D01*
X305298669Y-95369332D01*
X305374905Y-95506661D01*
X305431422Y-95570395D01*
X305524736Y-95624270D01*
X305644988Y-95631488D01*
X305828973Y-95582189D01*
X304518003Y-95105242D02*
X304665192Y-95065802D01*
X304748645Y-95082880D01*
X304795302Y-95109817D01*
X304898476Y-95200489D01*
X304974712Y-95337818D01*
X305053590Y-95632196D01*
X305036513Y-95715649D01*
X305009576Y-95762307D01*
X304945841Y-95818824D01*
X304798652Y-95858263D01*
X304715198Y-95841185D01*
X304668541Y-95814247D01*
X304612024Y-95750513D01*
X304562725Y-95566527D01*
X304579803Y-95483073D01*
X304606741Y-95436416D01*
X304670475Y-95379900D01*
X304817664Y-95340461D01*
X304901118Y-95357538D01*
X304947775Y-95384475D01*
X305004292Y-95448210D01*
X303915520Y-96094897D02*
X304357086Y-95976580D01*
X304136303Y-96035739D02*
X303929248Y-95262998D01*
X304032421Y-95353669D01*
X304125736Y-95407545D01*
X304209189Y-95424622D01*
X330709244Y-89531853D02*
X330502189Y-88759112D01*
X330318203Y-88808411D01*
X330217671Y-88874788D01*
X330163796Y-88968101D01*
X330146719Y-89051556D01*
X330149361Y-89208604D01*
X330178940Y-89318996D01*
X330255176Y-89456325D01*
X330311693Y-89520059D01*
X330405007Y-89573934D01*
X330525259Y-89581152D01*
X330709244Y-89531853D01*
X329398274Y-89054906D02*
X329545463Y-89015466D01*
X329628916Y-89032544D01*
X329675573Y-89059481D01*
X329778747Y-89150153D01*
X329854983Y-89287482D01*
X329933861Y-89581860D01*
X329916784Y-89665313D01*
X329889847Y-89711971D01*
X329826112Y-89768488D01*
X329678923Y-89807927D01*
X329595469Y-89790849D01*
X329548812Y-89763911D01*
X329492295Y-89700177D01*
X329442996Y-89516191D01*
X329460074Y-89432737D01*
X329487012Y-89386080D01*
X329550746Y-89329564D01*
X329697935Y-89290125D01*
X329781389Y-89307202D01*
X329828046Y-89334139D01*
X329884563Y-89397874D01*
X329050021Y-89227097D02*
X329003364Y-89200160D01*
X328919910Y-89183083D01*
X328735924Y-89232382D01*
X328672190Y-89288898D01*
X328645252Y-89335555D01*
X328628174Y-89419010D01*
X328647894Y-89492603D01*
X328714270Y-89593135D01*
X329274154Y-89916384D01*
X328795791Y-90044561D01*
X261001106Y-31787299D02*
X260794051Y-31014558D01*
X260610065Y-31063857D01*
X260509533Y-31130234D01*
X260455658Y-31223547D01*
X260438581Y-31307002D01*
X260441223Y-31464050D01*
X260470802Y-31574442D01*
X260547038Y-31711771D01*
X260603555Y-31775505D01*
X260696869Y-31829380D01*
X260817121Y-31836598D01*
X261001106Y-31787299D01*
X259690136Y-31310352D02*
X259837325Y-31270912D01*
X259920778Y-31287990D01*
X259967435Y-31314927D01*
X260070609Y-31405599D01*
X260146845Y-31542928D01*
X260225723Y-31837306D01*
X260208646Y-31920759D01*
X260181709Y-31967417D01*
X260117974Y-32023934D01*
X259970785Y-32063373D01*
X259887331Y-32046295D01*
X259840674Y-32019357D01*
X259784157Y-31955623D01*
X259734858Y-31771637D01*
X259751936Y-31688183D01*
X259778874Y-31641526D01*
X259842608Y-31585010D01*
X259989797Y-31545571D01*
X260073251Y-31562648D01*
X260119908Y-31589585D01*
X260176425Y-31653320D01*
X259358961Y-31399090D02*
X258880597Y-31527267D01*
X259217056Y-31752626D01*
X259106664Y-31782205D01*
X259042930Y-31838722D01*
X259015992Y-31885378D01*
X258998915Y-31968833D01*
X259048213Y-32152819D01*
X259104730Y-32216553D01*
X259151388Y-32243491D01*
X259234841Y-32260568D01*
X259455625Y-32201410D01*
X259519359Y-32144893D01*
X259546296Y-32098236D01*
X265931609Y-50188187D02*
X265724554Y-49415446D01*
X265540568Y-49464745D01*
X265440036Y-49531122D01*
X265386161Y-49624435D01*
X265369084Y-49707890D01*
X265371726Y-49864938D01*
X265401305Y-49975330D01*
X265477541Y-50112659D01*
X265534058Y-50176393D01*
X265627372Y-50230268D01*
X265747624Y-50237486D01*
X265931609Y-50188187D01*
X264620639Y-49711240D02*
X264767828Y-49671800D01*
X264851281Y-49688878D01*
X264897938Y-49715815D01*
X265001112Y-49806487D01*
X265077348Y-49943816D01*
X265156226Y-50238194D01*
X265139149Y-50321647D01*
X265112212Y-50368305D01*
X265048477Y-50424822D01*
X264901288Y-50464261D01*
X264817834Y-50447183D01*
X264771177Y-50420245D01*
X264714660Y-50356511D01*
X264665361Y-50172525D01*
X264682439Y-50089071D01*
X264709377Y-50042414D01*
X264773111Y-49985898D01*
X264920300Y-49946459D01*
X265003754Y-49963536D01*
X265050411Y-49990473D01*
X265106928Y-50054208D01*
X263953713Y-50166015D02*
X264091750Y-50681176D01*
X264058821Y-49822339D02*
X264390703Y-50324998D01*
X263912340Y-50453175D01*
X270862112Y-68589073D02*
X270655057Y-67816332D01*
X270471071Y-67865631D01*
X270370539Y-67932008D01*
X270316664Y-68025321D01*
X270299587Y-68108776D01*
X270302229Y-68265824D01*
X270331808Y-68376216D01*
X270408044Y-68513545D01*
X270464561Y-68577279D01*
X270557875Y-68631154D01*
X270678127Y-68638372D01*
X270862112Y-68589073D01*
X269551142Y-68112126D02*
X269698331Y-68072686D01*
X269781784Y-68089764D01*
X269828441Y-68116701D01*
X269931615Y-68207373D01*
X270007851Y-68344702D01*
X270086729Y-68639080D01*
X270069652Y-68722533D01*
X270042715Y-68769191D01*
X269978980Y-68825708D01*
X269831791Y-68865147D01*
X269748337Y-68848069D01*
X269701680Y-68821131D01*
X269645163Y-68757397D01*
X269595864Y-68573411D01*
X269612942Y-68489957D01*
X269639880Y-68443300D01*
X269703614Y-68386784D01*
X269850803Y-68347345D01*
X269934257Y-68364422D01*
X269980914Y-68391359D01*
X270037431Y-68455094D01*
X268778400Y-68319181D02*
X269146373Y-68220583D01*
X269281767Y-68578695D01*
X269235111Y-68551758D01*
X269151656Y-68534680D01*
X268967670Y-68583979D01*
X268903936Y-68640496D01*
X268876998Y-68687152D01*
X268859921Y-68770607D01*
X268909219Y-68954593D01*
X268965736Y-69018327D01*
X269012394Y-69045265D01*
X269095847Y-69062342D01*
X269279833Y-69013044D01*
X269343568Y-68956527D01*
X269370505Y-68909869D01*
X275792615Y-86989960D02*
X275585560Y-86217219D01*
X275401574Y-86266518D01*
X275301042Y-86332895D01*
X275247167Y-86426208D01*
X275230090Y-86509663D01*
X275232732Y-86666711D01*
X275262311Y-86777103D01*
X275338547Y-86914432D01*
X275395064Y-86978166D01*
X275488378Y-87032041D01*
X275608630Y-87039259D01*
X275792615Y-86989960D01*
X274481645Y-86513013D02*
X274628834Y-86473573D01*
X274712287Y-86490651D01*
X274758944Y-86517588D01*
X274862118Y-86608260D01*
X274938354Y-86745589D01*
X275017232Y-87039967D01*
X275000155Y-87123420D01*
X274973218Y-87170078D01*
X274909483Y-87226595D01*
X274762294Y-87266034D01*
X274678840Y-87248956D01*
X274632183Y-87222018D01*
X274575666Y-87158284D01*
X274526367Y-86974298D01*
X274543445Y-86890844D01*
X274570383Y-86844187D01*
X274634117Y-86787671D01*
X274781306Y-86748232D01*
X274864760Y-86765309D01*
X274911417Y-86792246D01*
X274967934Y-86855981D01*
X273745701Y-86710208D02*
X273892890Y-86670769D01*
X273976344Y-86687846D01*
X274023000Y-86714784D01*
X274126174Y-86805456D01*
X274202411Y-86942785D01*
X274281289Y-87237162D01*
X274264211Y-87320616D01*
X274237274Y-87367274D01*
X274173539Y-87423790D01*
X274026350Y-87463229D01*
X273942897Y-87446152D01*
X273896239Y-87419214D01*
X273839722Y-87355480D01*
X273790424Y-87171494D01*
X273807501Y-87088039D01*
X273834439Y-87041383D01*
X273898173Y-86984866D01*
X274045362Y-86945427D01*
X274128817Y-86962504D01*
X274175473Y-86989442D01*
X274231990Y-87053177D01*
D11*
X264074704Y-42500989D02*
X263815885Y-41535064D01*
X263522746Y-42648886D02*
X263788818Y-41986006D01*
X263263927Y-41682960D02*
X263963782Y-42087022D01*
X262665973Y-41843181D02*
X262573979Y-41867831D01*
X262494311Y-41938477D01*
X262460640Y-41996798D01*
X262439293Y-42101116D01*
X262442595Y-42297426D01*
X262504219Y-42527409D01*
X262599514Y-42699070D01*
X262670160Y-42778738D01*
X262728481Y-42812410D01*
X262832799Y-42833757D01*
X262924792Y-42809107D01*
X263004460Y-42738461D01*
X263038132Y-42680140D01*
X263059479Y-42575823D01*
X263056177Y-42379512D01*
X262994553Y-42149529D01*
X262899258Y-41977868D01*
X262828612Y-41898200D01*
X262770291Y-41864528D01*
X262665973Y-41843181D01*
X65954722Y-42913917D02*
X66213541Y-41947991D01*
X65402764Y-42766020D02*
X65964630Y-42324984D01*
X65661583Y-41800094D02*
X66065645Y-42499949D01*
X64482835Y-42519525D02*
X65034793Y-42667422D01*
X64758814Y-42593474D02*
X65017633Y-41627548D01*
X65072652Y-41790187D01*
X65139995Y-41906829D01*
X65219664Y-41977475D01*
X85588235Y-43244198D02*
X85847054Y-42278272D01*
X85036277Y-43096301D02*
X85598143Y-42655265D01*
X85295096Y-42130375D02*
X85699158Y-42830230D01*
X84902475Y-42123770D02*
X84868804Y-42065449D01*
X84789136Y-41994803D01*
X84559153Y-41933179D01*
X84454835Y-41954526D01*
X84396514Y-41988198D01*
X84325868Y-42067866D01*
X84301219Y-42159859D01*
X84310241Y-42310173D01*
X84714302Y-43010028D01*
X84116348Y-42849806D01*
X105221747Y-43574479D02*
X105480566Y-42608553D01*
X104669789Y-43426582D02*
X105231655Y-42985546D01*
X104928608Y-42460656D02*
X105332670Y-43160511D01*
X104606633Y-42374383D02*
X104008679Y-42214162D01*
X104232057Y-42668406D01*
X104094067Y-42631432D01*
X103989749Y-42652779D01*
X103931428Y-42686451D01*
X103860782Y-42766120D01*
X103799159Y-42996102D01*
X103820506Y-43100419D01*
X103854177Y-43158740D01*
X103933845Y-43229386D01*
X104209825Y-43303335D01*
X104314143Y-43281988D01*
X104372464Y-43248316D01*
X122390009Y-53105203D02*
X122648828Y-52139277D01*
X121838051Y-52957306D02*
X122399917Y-52516270D01*
X122096870Y-51991380D02*
X122500932Y-52691235D01*
X121182661Y-52091510D02*
X121010115Y-52735461D01*
X121511241Y-51785162D02*
X121556353Y-52536733D01*
X120958398Y-52376512D01*
X139558270Y-62635928D02*
X139817089Y-61670002D01*
X139006312Y-62488031D02*
X139568178Y-62046995D01*
X139265131Y-61522105D02*
X139669193Y-62221960D01*
X138391198Y-61287935D02*
X138851163Y-61411183D01*
X138773913Y-61883472D01*
X138740241Y-61825150D01*
X138660573Y-61754505D01*
X138430590Y-61692881D01*
X138326272Y-61714228D01*
X138267951Y-61747900D01*
X138197305Y-61827569D01*
X138135682Y-62057551D01*
X138157029Y-62161868D01*
X138190700Y-62220189D01*
X138270368Y-62290835D01*
X138500352Y-62352459D01*
X138604669Y-62331112D01*
X138662990Y-62297440D01*
X190471155Y-62223000D02*
X190212336Y-61257075D01*
X189919197Y-62370897D02*
X190185269Y-61708017D01*
X189660378Y-61404971D02*
X190360233Y-61809033D01*
X188832441Y-61626816D02*
X189016428Y-61577517D01*
X189120745Y-61598864D01*
X189179067Y-61632536D01*
X189308033Y-61745876D01*
X189403329Y-61917537D01*
X189501927Y-62285509D01*
X189480580Y-62389827D01*
X189446908Y-62448148D01*
X189367240Y-62518794D01*
X189183253Y-62568093D01*
X189078936Y-62546746D01*
X189020614Y-62513074D01*
X188949969Y-62433406D01*
X188888345Y-62203424D01*
X188909692Y-62099105D01*
X188943364Y-62040784D01*
X189023032Y-61970138D01*
X189207018Y-61920839D01*
X189311336Y-61942186D01*
X189369657Y-61975858D01*
X189440303Y-62055527D01*
X207639416Y-52692275D02*
X207380597Y-51726350D01*
X207087458Y-52840172D02*
X207353530Y-52177292D01*
X206828639Y-51874246D02*
X207528494Y-52278308D01*
X206506664Y-51960519D02*
X205862713Y-52133065D01*
X206535501Y-52988069D01*
X224807679Y-43161551D02*
X224548860Y-42195626D01*
X224255721Y-43309448D02*
X224521793Y-42646568D01*
X223996902Y-42343522D02*
X224696757Y-42747584D01*
X223555867Y-42905387D02*
X223635535Y-42834741D01*
X223669207Y-42776420D01*
X223690554Y-42672102D01*
X223678229Y-42626106D01*
X223607583Y-42546438D01*
X223549262Y-42512766D01*
X223444945Y-42491419D01*
X223260958Y-42540718D01*
X223181290Y-42611364D01*
X223147618Y-42669685D01*
X223126271Y-42774002D01*
X223138596Y-42819999D01*
X223209242Y-42899667D01*
X223267563Y-42933339D01*
X223371880Y-42954686D01*
X223555867Y-42905387D01*
X223660185Y-42926734D01*
X223718506Y-42960405D01*
X223789152Y-43040074D01*
X223838451Y-43224060D01*
X223817104Y-43328378D01*
X223783432Y-43386699D01*
X223703764Y-43457345D01*
X223519777Y-43506644D01*
X223415460Y-43485297D01*
X223357138Y-43451625D01*
X223286493Y-43371957D01*
X223237194Y-43187971D01*
X223258541Y-43083653D01*
X223292212Y-43025331D01*
X223371880Y-42954686D01*
X244441191Y-42831270D02*
X244182372Y-41865345D01*
X243889233Y-42979167D02*
X244155305Y-42316287D01*
X243630414Y-42013241D02*
X244330269Y-42417303D01*
X243429269Y-43102414D02*
X243245283Y-43151713D01*
X243140964Y-43130366D01*
X243082643Y-43096695D01*
X242953676Y-42983355D01*
X242858381Y-42811694D01*
X242759783Y-42443721D01*
X242781130Y-42339404D01*
X242814802Y-42281083D01*
X242894470Y-42210437D01*
X243078457Y-42161138D01*
X243182774Y-42182485D01*
X243241095Y-42216157D01*
X243311741Y-42295825D01*
X243373365Y-42525807D01*
X243352018Y-42630124D01*
X243318346Y-42688446D01*
X243238678Y-42759092D01*
X243054691Y-42808391D01*
X242950374Y-42787044D01*
X242892053Y-42753372D01*
X242821407Y-42673703D01*
X56507686Y-79826613D02*
X56766505Y-78860687D01*
X55955728Y-79678716D02*
X56517593Y-79237681D01*
X56214547Y-78712791D02*
X56618608Y-79412645D01*
X55661705Y-79304140D02*
X55201740Y-79180893D01*
X55679749Y-79604768D02*
X55616593Y-78552569D01*
X55035799Y-79432222D01*
X54207862Y-79210377D02*
X54759820Y-79358274D01*
X54483841Y-79284326D02*
X54742661Y-78318400D01*
X54797679Y-78481038D01*
X54865023Y-78597681D01*
X54944691Y-78668327D01*
X125249725Y-117967998D02*
X125508544Y-117002072D01*
X124697767Y-117820101D02*
X125259633Y-117379066D01*
X124956586Y-116854176D02*
X125360647Y-117554030D01*
X124097395Y-117116944D02*
X123947081Y-117125967D01*
X123888760Y-117159639D01*
X123818114Y-117239307D01*
X123781140Y-117377297D01*
X123802487Y-117481614D01*
X123836159Y-117539935D01*
X123915827Y-117610581D01*
X124283799Y-117709179D01*
X124542618Y-116743253D01*
X124220642Y-116656980D01*
X124116325Y-116678327D01*
X124058004Y-116711999D01*
X123987358Y-116791667D01*
X123962709Y-116883660D01*
X123984056Y-116987977D01*
X124017727Y-117046298D01*
X124097395Y-117116944D01*
X124419371Y-117203217D01*
X122811912Y-117314788D02*
X123363870Y-117462685D01*
X123087891Y-117388736D02*
X123346710Y-116422811D01*
X123401729Y-116585449D01*
X123469073Y-116702092D01*
X123548741Y-116772737D01*
X293400902Y-34643057D02*
X293142083Y-33677132D01*
X292848944Y-34790954D02*
X293115016Y-34128073D01*
X292590125Y-33825028D02*
X293289980Y-34229090D01*
X291977428Y-34482188D02*
X291851764Y-34565159D01*
X291818092Y-34623481D01*
X291796745Y-34727798D01*
X291833719Y-34865787D01*
X291904365Y-34945456D01*
X291962686Y-34979127D01*
X292067004Y-35000474D01*
X292434976Y-34901876D01*
X292176157Y-33935951D01*
X291854181Y-34022224D01*
X291774513Y-34092870D01*
X291740841Y-34151191D01*
X291719494Y-34255508D01*
X291744144Y-34347501D01*
X291814790Y-34427169D01*
X291873111Y-34460841D01*
X291977428Y-34482188D01*
X292299404Y-34395915D01*
X291055082Y-35271618D02*
X290919510Y-34765656D01*
X290940857Y-34661339D01*
X291020525Y-34590693D01*
X291204511Y-34541394D01*
X291308829Y-34562741D01*
X291042757Y-35225622D02*
X291147075Y-35246969D01*
X291377058Y-35185345D01*
X291456726Y-35114699D01*
X291478073Y-35010382D01*
X291453423Y-34918389D01*
X291382777Y-34838721D01*
X291278460Y-34817374D01*
X291048477Y-34878997D01*
X290944159Y-34857650D01*
X290168824Y-35459791D02*
X290273142Y-35481138D01*
X290457128Y-35431839D01*
X290536796Y-35361193D01*
X290570468Y-35302872D01*
X290591815Y-35198555D01*
X290517867Y-34922575D01*
X290447221Y-34842907D01*
X290388900Y-34809235D01*
X290284582Y-34787888D01*
X290100595Y-34837187D01*
X290020927Y-34907833D01*
X289767181Y-35616710D02*
X289508362Y-34650784D01*
X289576590Y-35273388D02*
X289399209Y-35715308D01*
X289226662Y-35071357D02*
X289693233Y-35340732D01*
X288479279Y-35961802D02*
X289031237Y-35813906D01*
X288755259Y-35887854D02*
X288496440Y-34921928D01*
X288625407Y-35035268D01*
X288742049Y-35102611D01*
X288846366Y-35123958D01*
X90913202Y-98906549D02*
X91172021Y-97940623D01*
X90361244Y-98758652D02*
X90923110Y-98317617D01*
X90620063Y-97792727D02*
X91024124Y-98492581D01*
X89419968Y-98407840D02*
X89453639Y-98466162D01*
X89579304Y-98549132D01*
X89671297Y-98573782D01*
X89821612Y-98564759D01*
X89938254Y-98497416D01*
X90008900Y-98417748D01*
X90104195Y-98246087D01*
X90141169Y-98108097D01*
X90144472Y-97911786D01*
X90123125Y-97807469D01*
X90055781Y-97690826D01*
X89930116Y-97607856D01*
X89838123Y-97583206D01*
X89687809Y-97592229D01*
X89629488Y-97625900D01*
X88475389Y-98253339D02*
X89027347Y-98401236D01*
X88751368Y-98327287D02*
X89010187Y-97361362D01*
X89065206Y-97524000D01*
X89132550Y-97640643D01*
X89212218Y-97711288D01*
X275108619Y-78988483D02*
X274849800Y-78022557D01*
X274556661Y-79136380D02*
X274822733Y-78473499D01*
X274297842Y-78170454D02*
X274997697Y-78574515D01*
X273566086Y-79303206D02*
X273624407Y-79336878D01*
X273774721Y-79345900D01*
X273866714Y-79321251D01*
X273992379Y-79238280D01*
X274059723Y-79121638D01*
X274081070Y-79017320D01*
X274077767Y-78821010D01*
X274040793Y-78683019D01*
X273945498Y-78511358D01*
X273874852Y-78431690D01*
X273758210Y-78364347D01*
X273607895Y-78355325D01*
X273515902Y-78379974D01*
X273390237Y-78462945D01*
X273356566Y-78521266D01*
X273038778Y-79543095D02*
X273118446Y-79472449D01*
X273139793Y-79368132D01*
X272917948Y-78540195D01*
X272498260Y-78997742D02*
X272670806Y-79641693D01*
X272522909Y-79089735D02*
X272464588Y-79056063D01*
X272360270Y-79034716D01*
X272222280Y-79071691D01*
X272142612Y-79142337D01*
X272121265Y-79246654D01*
X272256837Y-79752616D01*
X271290911Y-80011435D02*
X271842869Y-79863538D01*
X271566891Y-79937486D02*
X271308072Y-78971561D01*
X271437039Y-79084900D01*
X271553681Y-79152244D01*
X271657998Y-79173591D01*
X241163067Y-97945172D02*
X240904248Y-96979246D01*
X240611109Y-98093069D02*
X240877181Y-97430188D01*
X240352290Y-97127143D02*
X241052145Y-97531204D01*
X239620534Y-98259895D02*
X239678855Y-98293567D01*
X239829169Y-98302589D01*
X239921162Y-98277940D01*
X240046827Y-98194969D01*
X240114171Y-98078326D01*
X240135518Y-97974009D01*
X240132215Y-97777699D01*
X240095241Y-97639708D01*
X239999946Y-97468047D01*
X239929300Y-97388379D01*
X239812658Y-97321036D01*
X239662343Y-97312014D01*
X239570350Y-97336663D01*
X239444685Y-97419634D01*
X239411014Y-97477955D01*
X239093226Y-98499784D02*
X239172894Y-98429138D01*
X239206566Y-98370817D01*
X239227913Y-98266500D01*
X239153965Y-97990520D01*
X239083319Y-97910852D01*
X239024998Y-97877180D01*
X238920680Y-97855833D01*
X238782690Y-97892808D01*
X238703022Y-97963454D01*
X238669350Y-98021775D01*
X238648003Y-98126092D01*
X238721951Y-98402072D01*
X238792597Y-98481740D01*
X238850918Y-98515412D01*
X238955236Y-98536759D01*
X239093226Y-98499784D01*
X238357282Y-98696980D02*
X238184736Y-98053029D01*
X238209386Y-98145022D02*
X238151065Y-98111350D01*
X238046747Y-98090003D01*
X237908757Y-98126977D01*
X237829089Y-98197623D01*
X237807742Y-98301941D01*
X237943314Y-98807902D01*
X237807742Y-98301941D02*
X237737096Y-98222273D01*
X237632778Y-98200926D01*
X237494789Y-98237900D01*
X237415121Y-98308545D01*
X237393774Y-98412863D01*
X237529346Y-98918825D01*
X236563420Y-99177644D02*
X237115378Y-99029747D01*
X236839400Y-99103695D02*
X236580581Y-98137769D01*
X236709548Y-98251109D01*
X236826190Y-98318453D01*
X236930507Y-98339800D01*
X95843705Y-80505662D02*
X96102524Y-79539736D01*
X95291747Y-80357765D02*
X95853613Y-79916730D01*
X95550566Y-79391840D02*
X95954627Y-80091694D01*
X94877779Y-80246843D02*
X95136598Y-79280917D01*
X94906616Y-79219294D01*
X94756301Y-79228316D01*
X94639659Y-79295659D01*
X94569013Y-79375327D01*
X94473718Y-79546988D01*
X94436744Y-79684979D01*
X94433441Y-79881289D01*
X94454788Y-79985606D01*
X94522132Y-80102249D01*
X94647797Y-80185219D01*
X94877779Y-80246843D01*
X93405892Y-79852452D02*
X93957850Y-80000349D01*
X93681871Y-79926400D02*
X93940690Y-78960475D01*
X93995709Y-79123113D01*
X94063053Y-79239756D01*
X94142721Y-79310401D01*
X30302862Y-33361029D02*
X30561681Y-32395103D01*
X29750904Y-33213132D02*
X30312769Y-32772097D01*
X30009723Y-32247206D02*
X30413784Y-32947061D01*
X29336936Y-33102210D02*
X29595755Y-32136284D01*
X29365773Y-32074660D01*
X29215458Y-32083682D01*
X29098816Y-32151026D01*
X29028170Y-32230694D01*
X28932875Y-32402355D01*
X28895900Y-32540345D01*
X28892598Y-32736655D01*
X28913945Y-32840973D01*
X28981288Y-32957615D01*
X29106954Y-33040586D01*
X29336936Y-33102210D01*
X28015362Y-32698796D02*
X28095031Y-32769442D01*
X28279017Y-32818741D01*
X28383335Y-32797394D01*
X28453981Y-32717726D01*
X28552578Y-32349754D01*
X28531231Y-32245436D01*
X28451563Y-32174790D01*
X28267577Y-32125491D01*
X28163259Y-32146838D01*
X28092613Y-32226506D01*
X28067964Y-32318500D01*
X28503279Y-32533740D01*
X27405084Y-32584572D02*
X27509402Y-32563225D01*
X27580048Y-32483556D01*
X27801893Y-31655620D01*
X26531150Y-32350402D02*
X27083108Y-32498298D01*
X26807130Y-32424350D02*
X27065949Y-31458424D01*
X27120968Y-31621063D01*
X27188311Y-31737705D01*
X27267979Y-31808351D01*
X246392547Y-116265949D02*
X246133728Y-115300023D01*
X245840589Y-116413846D02*
X246106661Y-115750965D01*
X245581770Y-115447920D02*
X246281625Y-115851981D01*
X245426622Y-116524768D02*
X245167802Y-115558843D01*
X244937820Y-115620466D01*
X244812155Y-115703437D01*
X244744811Y-115820079D01*
X244723464Y-115924397D01*
X244726767Y-116120707D01*
X244763741Y-116258697D01*
X244859036Y-116430358D01*
X244929682Y-116510026D01*
X245046324Y-116577370D01*
X245196639Y-116586392D01*
X245426622Y-116524768D01*
X244322706Y-116820561D02*
X244402375Y-116749916D01*
X244436046Y-116691595D01*
X244457393Y-116587277D01*
X244383445Y-116311297D01*
X244312799Y-116231629D01*
X244254478Y-116197958D01*
X244150160Y-116176611D01*
X244012170Y-116213585D01*
X243932502Y-116284231D01*
X243898830Y-116342552D01*
X243877483Y-116446869D01*
X243951432Y-116722849D01*
X244022078Y-116802517D01*
X244080399Y-116836189D01*
X244184716Y-116857536D01*
X244322706Y-116820561D01*
X243506209Y-116349157D02*
X243494770Y-117042406D01*
X243187536Y-116631740D01*
X243126798Y-117141004D01*
X242770266Y-116546352D01*
X242402294Y-116644950D02*
X242574840Y-117288901D01*
X242426944Y-116736943D02*
X242368623Y-116703271D01*
X242264305Y-116681924D01*
X242126315Y-116718898D01*
X242046647Y-116789544D01*
X242025300Y-116893862D01*
X242160872Y-117399823D01*
X241194946Y-117658642D02*
X241746904Y-117510746D01*
X241470925Y-117584694D02*
X241212106Y-116618768D01*
X241341073Y-116732108D01*
X241457716Y-116799451D01*
X241562033Y-116820798D01*
X100728212Y-62092449D02*
X100987031Y-61126524D01*
X100176254Y-61944553D02*
X100738119Y-61503517D01*
X100435073Y-60978627D02*
X100839134Y-61678482D01*
X99897858Y-61327669D02*
X99575882Y-61241396D01*
X99302321Y-61710383D02*
X99762286Y-61833630D01*
X100021105Y-60867704D01*
X99561140Y-60744457D01*
X98382391Y-61463889D02*
X98934349Y-61611785D01*
X98658371Y-61537837D02*
X98917190Y-60571911D01*
X98972209Y-60734550D01*
X99039552Y-60851192D01*
X99119220Y-60921838D01*
X184503359Y-134837552D02*
X185469284Y-134578733D01*
X184355462Y-134285594D02*
X185018343Y-134551666D01*
X185321388Y-134026775D02*
X184917326Y-134726630D01*
X184750501Y-133736054D02*
X184664228Y-133414079D01*
X184121292Y-133411661D02*
X184244540Y-133871626D01*
X185210465Y-133612807D01*
X185087218Y-133152842D01*
X184654321Y-132825147D02*
X184010370Y-132997694D01*
X184562328Y-132849797D02*
X184596000Y-132791476D01*
X184617347Y-132687158D01*
X184580372Y-132549168D01*
X184509727Y-132469500D01*
X184405409Y-132448153D01*
X183899447Y-132583725D01*
X184457125Y-132089204D02*
X184358528Y-131721232D01*
X184742126Y-131864941D02*
X183914190Y-132086786D01*
X183809872Y-132065439D01*
X183739226Y-131985771D01*
X183714577Y-131893778D01*
X183492732Y-131065841D02*
X183640628Y-131617799D01*
X183566680Y-131341820D02*
X184532606Y-131083001D01*
X184419266Y-131211968D01*
X184351923Y-131328611D01*
X184330576Y-131432928D01*
X305700007Y-70791545D02*
X305441188Y-69825619D01*
X305148049Y-70939442D02*
X305414121Y-70276561D01*
X304889230Y-69973516D02*
X305589085Y-70377577D01*
X304598510Y-70544403D02*
X304276534Y-70630676D01*
X304274116Y-71173612D02*
X304734082Y-71050364D01*
X304475262Y-70084439D01*
X304015297Y-70207686D01*
X303687602Y-70640583D02*
X303860149Y-71284534D01*
X303712252Y-70732576D02*
X303653931Y-70698904D01*
X303549613Y-70677557D01*
X303411623Y-70714532D01*
X303331955Y-70785177D01*
X303310608Y-70889495D01*
X303446180Y-71395457D01*
X302951659Y-70837779D02*
X302583687Y-70936376D01*
X302727397Y-70552778D02*
X302949241Y-71380714D01*
X302927894Y-71485032D01*
X302848226Y-71555678D01*
X302756233Y-71580327D01*
X302053960Y-71719202D02*
X302158278Y-71740549D01*
X302342265Y-71691250D01*
X302421933Y-71620604D01*
X302443280Y-71516286D01*
X302344682Y-71148314D01*
X302274036Y-71068646D01*
X302169719Y-71047299D01*
X301985732Y-71096598D01*
X301906064Y-71167244D01*
X301884717Y-71271561D01*
X301909366Y-71363555D01*
X302393981Y-71332301D01*
X301606321Y-71888445D02*
X301433775Y-71244494D01*
X301483074Y-71428480D02*
X301412428Y-71348812D01*
X301354107Y-71315140D01*
X301249789Y-71293793D01*
X301157795Y-71318443D01*
X300502405Y-72184239D02*
X301054363Y-72036342D01*
X300778384Y-72110290D02*
X300519565Y-71144364D01*
X300648532Y-71257704D01*
X300765175Y-71325048D01*
X300869492Y-71346395D01*
X48795741Y-38316181D02*
X49054560Y-37350255D01*
X48243782Y-38168284D02*
X48805648Y-37727249D01*
X48502602Y-37202359D02*
X48906663Y-37902213D01*
X47965387Y-37551400D02*
X47643411Y-37465127D01*
X47369850Y-37934115D02*
X47829815Y-38057362D01*
X48088634Y-37091436D01*
X47628669Y-36968189D01*
X47014203Y-37789521D02*
X46909885Y-37810868D01*
X46725900Y-37761569D01*
X46646231Y-37690923D01*
X46624883Y-37586605D01*
X46637208Y-37540609D01*
X46707854Y-37460941D01*
X46812173Y-37439594D01*
X46950162Y-37476568D01*
X47054479Y-37455221D01*
X47125125Y-37375552D01*
X47137450Y-37329555D01*
X47116103Y-37225238D01*
X47036435Y-37154592D01*
X46898446Y-37117618D01*
X46794127Y-37138965D01*
X45772298Y-37456753D02*
X45851966Y-37527399D01*
X46035952Y-37576698D01*
X46140270Y-37555351D01*
X46198591Y-37521679D01*
X46269237Y-37442011D01*
X46343185Y-37166032D01*
X46321838Y-37061714D01*
X46288167Y-37003393D01*
X46208498Y-36932747D01*
X46024512Y-36883448D01*
X45920194Y-36904795D01*
X44840043Y-37256255D02*
X45392001Y-37404152D01*
X45116023Y-37330204D02*
X45374842Y-36364278D01*
X45429861Y-36526917D01*
X45497204Y-36643559D01*
X45576872Y-36714205D01*
X112942972Y-90017899D02*
X113201791Y-89051973D01*
X112391014Y-89870002D02*
X112952879Y-89428967D01*
X112649833Y-88904077D02*
X113053894Y-89603931D01*
X111790642Y-89166845D02*
X112112618Y-89253118D01*
X111977046Y-89759080D02*
X112235865Y-88793154D01*
X111775900Y-88669907D01*
X110643148Y-89401663D02*
X111195106Y-89549560D01*
X110919127Y-89475612D02*
X111177947Y-88509686D01*
X111232965Y-88672324D01*
X111300309Y-88788967D01*
X111379977Y-88859613D01*
X103518933Y-126936758D02*
X103777753Y-125970832D01*
X102966975Y-126788861D02*
X103528841Y-126347826D01*
X103225794Y-125822935D02*
X103629856Y-126522790D01*
X102366604Y-126085704D02*
X102688580Y-126171977D01*
X102553008Y-126677939D02*
X102811827Y-125712013D01*
X102351861Y-125588766D01*
X101897617Y-125812143D02*
X101725071Y-126456094D01*
X101872968Y-125904136D02*
X101839296Y-125845815D01*
X101759628Y-125775169D01*
X101621638Y-125738195D01*
X101517320Y-125759542D01*
X101446674Y-125839210D01*
X101311102Y-126345171D01*
X100345176Y-126086352D02*
X100897135Y-126234249D01*
X100621156Y-126160301D02*
X100879975Y-125194375D01*
X100934994Y-125357014D01*
X101002337Y-125473656D01*
X101082005Y-125544302D01*
X130180227Y-99567111D02*
X130439046Y-98601185D01*
X129628269Y-99419214D02*
X130190135Y-98978179D01*
X129887088Y-98453289D02*
X130291149Y-99153143D01*
X128954834Y-98252791D02*
X129059152Y-98231444D01*
X129197141Y-98268418D01*
X129322806Y-98351388D01*
X129390150Y-98468031D01*
X129411497Y-98572348D01*
X129408194Y-98768659D01*
X129371220Y-98906649D01*
X129275925Y-99078310D01*
X129205279Y-99157978D01*
X129088637Y-99225321D01*
X128938322Y-99234344D01*
X128846329Y-99209694D01*
X128720664Y-99126724D01*
X128686993Y-99068402D01*
X128773266Y-98746428D01*
X128957251Y-98795726D01*
X127742414Y-98913901D02*
X128294372Y-99061798D01*
X128018393Y-98987849D02*
X128277212Y-98021924D01*
X128332231Y-98184562D01*
X128399575Y-98301205D01*
X128479243Y-98371850D01*
X200838123Y-98889203D02*
X200579304Y-97923278D01*
X200286165Y-99037100D02*
X200552237Y-98374220D01*
X200027346Y-98071174D02*
X200727201Y-98475236D01*
X199872198Y-99148022D02*
X199613379Y-98182097D01*
X199736626Y-98642061D02*
X199184668Y-98789958D01*
X199320240Y-99295919D02*
X199061421Y-98329993D01*
X198354314Y-99554738D02*
X198906272Y-99406842D01*
X198630293Y-99480790D02*
X198371474Y-98514864D01*
X198500441Y-98628204D01*
X198617083Y-98695547D01*
X198721401Y-98716894D01*
X229968163Y-61500815D02*
X229709344Y-60534889D01*
X229416205Y-61648712D02*
X229682277Y-60985831D01*
X229157386Y-60682786D02*
X229857241Y-61086847D01*
X229002237Y-61759634D02*
X228743418Y-60793708D01*
X228036311Y-62018453D02*
X228588269Y-61870556D01*
X228312291Y-61944505D02*
X228053472Y-60978579D01*
X228182439Y-61091919D01*
X228299081Y-61159262D01*
X228403399Y-61180609D01*
X217868395Y-89395453D02*
X217609576Y-88429527D01*
X217316437Y-89543349D02*
X217582509Y-88880469D01*
X217057618Y-88577423D02*
X217757473Y-88981485D01*
X216367671Y-88762294D02*
X216552542Y-89452242D01*
X216635513Y-89577906D01*
X216752155Y-89645249D01*
X216902469Y-89654272D01*
X216994462Y-89629622D01*
X215660564Y-89987039D02*
X216212522Y-89839142D01*
X215936544Y-89913091D02*
X215677724Y-88947165D01*
X215806691Y-89060505D01*
X215923334Y-89127848D01*
X216027651Y-89149195D01*
X235151646Y-79833916D02*
X234892827Y-78867990D01*
X234599688Y-79981813D02*
X234865760Y-79318932D01*
X234340869Y-79015887D02*
X235040723Y-79419948D01*
X234185720Y-80092735D02*
X233926901Y-79126809D01*
X233633762Y-80240632D02*
X233899834Y-79577751D01*
X233374943Y-79274706D02*
X234074798Y-79678767D01*
X232713832Y-80487126D02*
X233265791Y-80339229D01*
X232989812Y-80413178D02*
X232730993Y-79447252D01*
X232859960Y-79560592D01*
X232976602Y-79627935D01*
X233080920Y-79649282D01*
X254693165Y-79528284D02*
X254434346Y-78562359D01*
X254141207Y-79676181D02*
X254407279Y-79013300D01*
X253882388Y-78710255D02*
X254582243Y-79114317D01*
X253267274Y-79910351D02*
X253727239Y-79787103D01*
X253468420Y-78821178D01*
X252439337Y-80132196D02*
X252991295Y-79984299D01*
X252715317Y-80058247D02*
X252456498Y-79092321D01*
X252585465Y-79205661D01*
X252702107Y-79273005D01*
X252806425Y-79294352D01*
X86833634Y-117535442D02*
X87092453Y-116569517D01*
X86281676Y-117387546D02*
X86843542Y-116946510D01*
X86540495Y-116421620D02*
X86944557Y-117121475D01*
X85407743Y-117153376D02*
X85867709Y-117276623D01*
X86126528Y-116310698D01*
X85205713Y-116803449D02*
X84745748Y-116680202D01*
X85223758Y-117104077D02*
X85160602Y-116051879D01*
X84579807Y-116931531D01*
X84119843Y-116808284D02*
X84224160Y-116786937D01*
X84294806Y-116707269D01*
X84516651Y-115879332D01*
X84062406Y-116102710D02*
X83694434Y-116004112D01*
X84010689Y-115743760D02*
X83788844Y-116571697D01*
X83718199Y-116651365D01*
X83613881Y-116672712D01*
X83521888Y-116648063D01*
X82693951Y-116426218D02*
X83245909Y-116574114D01*
X82969930Y-116500166D02*
X83228749Y-115534240D01*
X83283768Y-115696879D01*
X83351111Y-115813521D01*
X83430779Y-115884167D01*
X153382907Y-90992742D02*
X153641726Y-90026817D01*
X152830949Y-90844846D02*
X153392815Y-90403810D01*
X153089768Y-89878920D02*
X153493830Y-90578775D01*
X151957016Y-90610676D02*
X152416981Y-90733923D01*
X152675800Y-89767998D01*
X151448637Y-89932168D02*
X151298323Y-89941191D01*
X151240002Y-89974863D01*
X151169356Y-90054532D01*
X151132382Y-90192521D01*
X151153729Y-90296838D01*
X151187401Y-90355159D01*
X151267069Y-90425805D01*
X151635041Y-90524403D01*
X151893860Y-89558477D01*
X151571884Y-89472204D01*
X151467567Y-89493551D01*
X151409246Y-89527223D01*
X151338600Y-89606891D01*
X151313950Y-89698884D01*
X151335297Y-89803201D01*
X151368969Y-89861523D01*
X151448637Y-89932168D01*
X151770613Y-90018442D01*
X150669115Y-90265584D02*
X150841662Y-89621633D01*
X150792363Y-89805619D02*
X150771016Y-89701301D01*
X150737344Y-89642980D01*
X150657676Y-89572334D01*
X150565682Y-89547685D01*
X149669517Y-89948444D02*
X149749185Y-90019090D01*
X149933172Y-90068389D01*
X150037489Y-90047042D01*
X150095810Y-90013370D01*
X150166456Y-89933702D01*
X150240405Y-89657722D01*
X150219058Y-89553405D01*
X150185386Y-89495084D01*
X150105718Y-89424438D01*
X149921731Y-89375139D01*
X149817414Y-89396486D01*
X148737263Y-89747946D02*
X149289221Y-89895843D01*
X149013242Y-89821894D02*
X149272061Y-88855968D01*
X149327080Y-89018607D01*
X149394423Y-89135249D01*
X149474092Y-89205895D01*
X47934582Y-116973479D02*
X48193401Y-116007554D01*
X47382624Y-116825583D02*
X47944489Y-116384547D01*
X47641443Y-115859657D02*
X48045504Y-116559512D01*
X46508691Y-116591413D02*
X46968656Y-116714660D01*
X47227475Y-115748734D01*
X45659407Y-116265251D02*
X45693079Y-116323572D01*
X45818743Y-116406542D01*
X45910736Y-116431192D01*
X46061051Y-116422170D01*
X46177693Y-116354826D01*
X46248339Y-116275158D01*
X46343635Y-116103497D01*
X46380609Y-115965507D01*
X46383911Y-115769196D01*
X46362564Y-115664879D01*
X46295221Y-115548237D01*
X46169555Y-115465266D01*
X46077562Y-115440616D01*
X45927248Y-115449639D01*
X45868927Y-115483310D01*
X45531325Y-115639344D02*
X45163354Y-115540747D01*
X45479609Y-115280395D02*
X45257764Y-116108332D01*
X45187118Y-116188000D01*
X45082801Y-116209347D01*
X44990808Y-116184698D01*
X44668832Y-116098424D02*
X44841378Y-115454473D01*
X44792079Y-115638459D02*
X44770732Y-115534142D01*
X44737060Y-115475820D01*
X44657392Y-115405175D01*
X44565399Y-115380525D01*
X43932888Y-115901229D02*
X44037206Y-115879882D01*
X44107852Y-115800214D01*
X44329696Y-114972277D01*
X43058954Y-115667059D02*
X43610912Y-115814956D01*
X43334934Y-115741007D02*
X43593753Y-114775082D01*
X43648772Y-114937720D01*
X43716115Y-115054362D01*
X43795783Y-115125008D01*
X228718325Y-125932244D02*
X228459506Y-124966318D01*
X228166367Y-126080141D02*
X228432439Y-125417260D01*
X227907548Y-125114215D02*
X228607402Y-125518276D01*
X227292434Y-126314310D02*
X227752399Y-126191063D01*
X227493580Y-125225137D01*
X226590162Y-126453185D02*
X226694479Y-126474532D01*
X226878466Y-126425233D01*
X226958134Y-126354587D01*
X226979481Y-126250269D01*
X226880883Y-125882297D01*
X226810237Y-125802629D01*
X226705920Y-125781282D01*
X226521933Y-125830581D01*
X226442265Y-125901227D01*
X226420918Y-126005544D01*
X226445568Y-126097538D01*
X226930182Y-126066284D01*
X226107965Y-125941503D02*
X225739994Y-126040101D01*
X226142522Y-126622428D02*
X225920677Y-125794492D01*
X225850031Y-125714824D01*
X225745714Y-125693477D01*
X225653721Y-125718126D01*
X225556007Y-126089400D02*
X225188036Y-126187998D01*
X225331745Y-125804399D02*
X225553590Y-126632336D01*
X225532243Y-126736653D01*
X225452575Y-126807299D01*
X225360582Y-126831948D01*
X224532645Y-127053794D02*
X225084603Y-126905897D01*
X224808624Y-126979845D02*
X224549805Y-126013919D01*
X224678772Y-126127259D01*
X224795414Y-126194603D01*
X224899732Y-126215950D01*
X121170157Y-136596892D02*
X121428976Y-135630967D01*
X120618199Y-136448996D02*
X121180065Y-136007960D01*
X120877018Y-135483070D02*
X121281080Y-136182925D01*
X119744266Y-136214826D02*
X120204232Y-136338073D01*
X120463051Y-135372148D01*
X119284302Y-136091579D02*
X119388620Y-136070232D01*
X119446941Y-136036560D01*
X119517587Y-135956892D01*
X119591535Y-135680913D01*
X119570188Y-135576595D01*
X119536516Y-135518274D01*
X119456848Y-135447628D01*
X119318858Y-135410654D01*
X119214540Y-135432001D01*
X119156219Y-135465673D01*
X119085574Y-135545341D01*
X119011625Y-135821320D01*
X119032972Y-135925638D01*
X119066644Y-135983959D01*
X119146312Y-136054605D01*
X119284302Y-136091579D01*
X118812897Y-135275082D02*
X118456366Y-135869734D01*
X118395626Y-135360470D01*
X118088393Y-135771136D01*
X118076954Y-135077887D01*
X117030475Y-135487668D02*
X117582433Y-135635565D01*
X117306454Y-135561616D02*
X117565273Y-134595690D01*
X117620292Y-134758329D01*
X117687635Y-134874971D01*
X117767303Y-134945617D01*
X222982884Y-107747041D02*
X222724065Y-106781115D01*
X222430926Y-107894937D02*
X222696998Y-107232057D01*
X222172107Y-106929012D02*
X222871962Y-107333073D01*
X222016958Y-108005860D02*
X221758139Y-107039934D01*
X221621034Y-107816154D01*
X221114188Y-107212480D01*
X221373007Y-108178406D01*
X220407081Y-108437225D02*
X220959039Y-108289328D01*
X220683061Y-108363276D02*
X220424242Y-107397351D01*
X220553209Y-107510690D01*
X220669851Y-107578034D01*
X220774169Y-107599381D01*
X205768625Y-117290089D02*
X205509806Y-116324164D01*
X205216667Y-117437986D02*
X205482739Y-116775106D01*
X204957848Y-116472060D02*
X205657703Y-116876122D01*
X204802700Y-117548908D02*
X204543881Y-116582983D01*
X204250742Y-117696805D01*
X203991923Y-116730879D01*
X203284816Y-117955624D02*
X203836774Y-117807728D01*
X203560795Y-117881676D02*
X203301976Y-116915750D01*
X203430943Y-117029090D01*
X203547585Y-117096433D01*
X203651903Y-117117780D01*
X27848148Y-72147313D02*
X28106967Y-71181388D01*
X27296190Y-71999417D02*
X27858056Y-71558381D01*
X27555009Y-71033491D02*
X27959071Y-71733346D01*
X26882222Y-71888494D02*
X27141042Y-70922569D01*
X26330264Y-71740598D01*
X26589084Y-70774672D01*
X26005872Y-71111389D02*
X25683896Y-71025116D01*
X25410335Y-71494103D02*
X25870300Y-71617351D01*
X26129119Y-70651425D01*
X25669154Y-70528177D01*
X25168913Y-70739230D02*
X24996367Y-71383181D01*
X25144264Y-70831223D02*
X25110592Y-70772902D01*
X25030924Y-70702256D01*
X24892934Y-70665282D01*
X24788616Y-70686629D01*
X24717971Y-70766297D01*
X24582399Y-71272258D01*
X24432970Y-70542035D02*
X24064998Y-70443437D01*
X24381253Y-70183086D02*
X24159408Y-71011022D01*
X24088763Y-71090690D01*
X23984445Y-71112037D01*
X23892452Y-71087388D01*
X23064515Y-70865543D02*
X23616473Y-71013439D01*
X23340494Y-70939491D02*
X23599313Y-69973565D01*
X23654332Y-70136204D01*
X23721675Y-70252846D01*
X23801343Y-70323492D01*
X249877655Y-61096585D02*
X249618836Y-60130660D01*
X249325697Y-61244482D02*
X249591769Y-60581602D01*
X249066878Y-60278556D02*
X249766733Y-60682618D01*
X248468925Y-60438777D02*
X248284938Y-60488077D01*
X248205270Y-60558722D01*
X248137927Y-60675365D01*
X248141229Y-60871675D01*
X248227502Y-61193651D01*
X248322797Y-61365312D01*
X248439440Y-61432655D01*
X248543757Y-61454002D01*
X248727744Y-61404703D01*
X248807412Y-61334057D01*
X248874756Y-61217415D01*
X248871453Y-61021105D01*
X248785180Y-60699129D01*
X248689885Y-60527468D01*
X248573242Y-60460124D01*
X248468925Y-60438777D01*
X247393846Y-61762120D02*
X247945804Y-61614224D01*
X247669825Y-61688172D02*
X247411006Y-60722246D01*
X247539973Y-60835586D01*
X247656615Y-60902929D01*
X247760933Y-60924276D01*
X269488170Y-60772467D02*
X269229351Y-59806541D01*
X268936212Y-60920364D02*
X269202284Y-60257483D01*
X268677393Y-59954438D02*
X269377247Y-60358499D01*
X268522244Y-61031286D02*
X268263425Y-60065360D01*
X267895453Y-60163958D01*
X267815784Y-60234604D01*
X267782113Y-60292925D01*
X267760766Y-60397243D01*
X267797740Y-60535232D01*
X267868386Y-60614900D01*
X267926707Y-60648572D01*
X268031024Y-60669919D01*
X268398997Y-60571321D01*
X267050356Y-61425677D02*
X267602315Y-61277780D01*
X267326336Y-61351729D02*
X267067517Y-60385803D01*
X267196484Y-60499143D01*
X267313126Y-60566486D01*
X267417444Y-60587833D01*
X260428607Y-97713489D02*
X260169788Y-96747563D01*
X259876649Y-97861385D02*
X260142721Y-97198505D01*
X259617830Y-96895460D02*
X260317684Y-97299521D01*
X259462681Y-97972308D02*
X259203862Y-97006382D01*
X258835890Y-97104980D01*
X258756221Y-97175626D01*
X258722550Y-97233947D01*
X258701203Y-97338264D01*
X258738177Y-97476254D01*
X258808823Y-97555922D01*
X258867144Y-97589593D01*
X258971461Y-97610940D01*
X259339434Y-97512342D01*
X258116458Y-98283728D02*
X258220776Y-98305075D01*
X258404762Y-98255776D01*
X258484430Y-98185130D01*
X258505777Y-98080813D01*
X258407180Y-97712840D01*
X258336534Y-97633172D01*
X258232216Y-97611825D01*
X258048229Y-97661124D01*
X257968561Y-97731770D01*
X257947214Y-97836088D01*
X257971864Y-97928082D01*
X258456479Y-97896827D01*
X257668819Y-98452972D02*
X257496272Y-97809021D01*
X257545571Y-97993006D02*
X257474925Y-97913338D01*
X257416604Y-97879667D01*
X257312287Y-97858320D01*
X257220293Y-97882969D01*
X256564902Y-98748765D02*
X257116861Y-98600868D01*
X256840882Y-98674817D02*
X256582063Y-97708891D01*
X256711030Y-97822231D01*
X256827672Y-97889574D01*
X256931990Y-97910921D01*
X148705385Y-109461414D02*
X148964204Y-108495488D01*
X148153427Y-109313518D02*
X148715292Y-108872482D01*
X148412246Y-108347592D02*
X148816307Y-109047446D01*
X147739459Y-109202595D02*
X147998278Y-108236669D01*
X147630306Y-108138071D01*
X147525988Y-108159418D01*
X147467667Y-108193090D01*
X147397021Y-108272758D01*
X147360047Y-108410748D01*
X147381394Y-108515065D01*
X147415066Y-108573386D01*
X147494734Y-108644032D01*
X147862706Y-108742630D01*
X146532111Y-108188903D02*
X146322590Y-108970843D01*
X146343937Y-109075160D01*
X146377609Y-109133481D01*
X146457278Y-109204128D01*
X146595268Y-109241102D01*
X146699585Y-109219755D01*
X146371889Y-108786857D02*
X146451557Y-108857503D01*
X146635544Y-108906802D01*
X146739862Y-108885455D01*
X146798183Y-108851783D01*
X146868829Y-108772115D01*
X146942777Y-108496136D01*
X146921430Y-108391818D01*
X146887758Y-108333497D01*
X146808090Y-108262851D01*
X146624104Y-108213552D01*
X146519786Y-108234899D01*
X145899600Y-108709606D02*
X146158419Y-107743681D01*
X145928437Y-107682057D01*
X145778122Y-107691079D01*
X145661480Y-107758423D01*
X145590834Y-107838091D01*
X145495539Y-108009752D01*
X145458565Y-108147742D01*
X145455262Y-108344052D01*
X145476609Y-108448370D01*
X145543953Y-108565012D01*
X145669618Y-108647983D01*
X145899600Y-108709606D01*
X145106221Y-107806837D02*
X144933675Y-108450787D01*
X145081571Y-107898829D02*
X145047900Y-107840508D01*
X144968231Y-107769862D01*
X144830241Y-107732888D01*
X144725924Y-107754235D01*
X144655278Y-107833903D01*
X144519706Y-108339865D01*
X143553780Y-108081046D02*
X144105738Y-108228943D01*
X143829759Y-108154994D02*
X144088579Y-107189068D01*
X144143597Y-107351707D01*
X144210941Y-107468349D01*
X144290609Y-107538995D01*
X185026757Y-108056348D02*
X184767938Y-107090422D01*
X184474799Y-108204245D02*
X184740871Y-107541364D01*
X184215980Y-107238319D02*
X184915835Y-107642380D01*
X184060832Y-108315167D02*
X183802012Y-107349242D01*
X183434040Y-107447839D01*
X183354372Y-107518485D01*
X183320700Y-107576806D01*
X183299353Y-107681124D01*
X183336327Y-107819113D01*
X183406973Y-107898781D01*
X183465294Y-107932453D01*
X183569612Y-107953800D01*
X183937584Y-107855202D01*
X182508391Y-108040958D02*
X182717911Y-108822898D01*
X182788557Y-108902566D01*
X182846878Y-108936238D01*
X182951197Y-108957585D01*
X183089186Y-108920611D01*
X183168854Y-108849965D01*
X182668612Y-108638913D02*
X182772930Y-108660260D01*
X182956916Y-108610960D01*
X183036585Y-108540315D01*
X183070256Y-108481994D01*
X183091603Y-108377676D01*
X183017655Y-108101696D01*
X182947009Y-108022028D01*
X182888688Y-107988357D01*
X182784370Y-107967010D01*
X182600384Y-108016309D01*
X182520716Y-108086955D01*
X181962154Y-107842230D02*
X182171674Y-108624170D01*
X182150327Y-108728488D01*
X182116655Y-108786809D01*
X182036987Y-108857455D01*
X181853000Y-108906754D01*
X181748683Y-108885407D01*
X181690362Y-108851735D01*
X181619716Y-108772067D01*
X181410196Y-107990127D01*
X181036504Y-108435349D02*
X181295323Y-109401275D01*
X181048829Y-108481345D02*
X180944512Y-108459998D01*
X180760525Y-108509297D01*
X180680857Y-108579943D01*
X180647185Y-108638264D01*
X180625838Y-108742582D01*
X180699786Y-109018561D01*
X180770432Y-109098230D01*
X180828753Y-109131901D01*
X180933071Y-109153248D01*
X181117058Y-109103949D01*
X181196726Y-109033303D01*
X179829156Y-109449041D02*
X180381114Y-109301145D01*
X180105135Y-109375093D02*
X179846316Y-108409167D01*
X179975283Y-108522507D01*
X180091926Y-108589850D01*
X180196243Y-108611197D01*
X293570194Y-54319708D02*
X293311375Y-53353782D01*
X293018236Y-54467605D02*
X293284308Y-53804724D01*
X292759417Y-53501679D02*
X293459272Y-53905740D01*
X292604268Y-54578527D02*
X292345449Y-53612601D01*
X291977477Y-53711199D01*
X291897809Y-53781845D01*
X291864137Y-53840166D01*
X291842790Y-53944484D01*
X291879764Y-54082473D01*
X291950410Y-54162141D01*
X292008731Y-54195813D01*
X292113049Y-54217160D01*
X292481021Y-54118562D01*
X291638342Y-54837346D02*
X291465796Y-54193395D01*
X291379523Y-53871420D02*
X291437845Y-53905092D01*
X291404173Y-53963413D01*
X291345852Y-53929741D01*
X291379523Y-53871420D01*
X291404173Y-53963413D01*
X291005832Y-54316642D02*
X291264651Y-55282568D01*
X291018157Y-54362639D02*
X290913839Y-54341292D01*
X290729853Y-54390591D01*
X290650184Y-54461237D01*
X290616513Y-54519558D01*
X290595166Y-54623875D01*
X290669114Y-54899855D01*
X290739760Y-54979523D01*
X290798081Y-55013195D01*
X290902399Y-55034542D01*
X291086385Y-54985243D01*
X291166054Y-54914597D01*
X289924148Y-55247364D02*
X290028466Y-55268711D01*
X290212452Y-55219412D01*
X290292121Y-55148766D01*
X290313468Y-55044449D01*
X290214870Y-54676476D01*
X290144224Y-54596808D01*
X290039906Y-54575461D01*
X289855920Y-54624760D01*
X289776252Y-54695406D01*
X289754904Y-54799724D01*
X289779554Y-54891718D01*
X290264169Y-54860463D01*
X288970547Y-55552180D02*
X289522505Y-55404283D01*
X289246527Y-55478231D02*
X288987708Y-54512305D01*
X289116675Y-54625645D01*
X289233317Y-54692989D01*
X289337634Y-54714336D01*
X61530181Y-61450376D02*
X61789000Y-60484450D01*
X60978223Y-61302479D02*
X61540088Y-60861443D01*
X61237042Y-60336553D02*
X61641103Y-61036408D01*
X59895655Y-61111003D02*
X59999972Y-61089656D01*
X60116615Y-61022313D01*
X60291578Y-60921298D01*
X60395896Y-60899951D01*
X60487889Y-60924600D01*
X60380269Y-61142258D02*
X60484587Y-61120911D01*
X60601229Y-61053567D01*
X60696524Y-60881906D01*
X60782798Y-60559930D01*
X60786100Y-60363620D01*
X60718756Y-60246978D01*
X60639088Y-60176332D01*
X60455102Y-60127033D01*
X60350784Y-60148380D01*
X60234142Y-60215723D01*
X60138847Y-60387384D01*
X60052573Y-60709360D01*
X60049271Y-60905671D01*
X60116615Y-61022313D01*
X60196283Y-61092959D01*
X60380269Y-61142258D01*
X59046371Y-60784841D02*
X59598329Y-60932737D01*
X59322351Y-60858789D02*
X59581170Y-59892863D01*
X59636188Y-60055502D01*
X59703532Y-60172144D01*
X59783200Y-60242790D01*
X280614077Y-97235311D02*
X280355258Y-96269385D01*
X280062119Y-97383208D02*
X280328191Y-96720327D01*
X279803300Y-96417282D02*
X280503154Y-96821343D01*
X279028850Y-97758669D02*
X279108518Y-97688023D01*
X279175861Y-97571381D01*
X279276876Y-97396418D01*
X279356545Y-97325772D01*
X279448538Y-97301122D01*
X279464165Y-97543429D02*
X279543833Y-97472783D01*
X279611177Y-97356141D01*
X279607874Y-97159831D01*
X279521601Y-96837855D01*
X279426306Y-96666194D01*
X279309664Y-96598850D01*
X279205346Y-96577503D01*
X279021360Y-96626802D01*
X278941691Y-96697448D01*
X278874348Y-96814090D01*
X278877650Y-97010401D01*
X278963924Y-97332377D01*
X279059219Y-97504038D01*
X279175861Y-97571381D01*
X279280179Y-97592728D01*
X279464165Y-97543429D01*
X278049714Y-97232246D02*
X278222260Y-97876197D01*
X278463683Y-97121323D02*
X278599255Y-97627285D01*
X278577908Y-97731602D01*
X278498239Y-97802248D01*
X278360249Y-97839222D01*
X278255932Y-97817875D01*
X278197611Y-97784204D01*
X277381999Y-98052045D02*
X277486316Y-98073392D01*
X277670303Y-98024093D01*
X277749971Y-97953447D01*
X277771318Y-97849130D01*
X277672720Y-97481157D01*
X277602074Y-97401489D01*
X277497757Y-97380142D01*
X277313770Y-97429441D01*
X277234102Y-97500087D01*
X277212755Y-97604405D01*
X277237405Y-97696398D01*
X277722019Y-97665144D01*
X276968031Y-98162967D02*
X276888363Y-98233613D01*
X276704377Y-98282912D01*
X276600059Y-98261565D01*
X276529413Y-98181897D01*
X276517088Y-98135901D01*
X276538435Y-98031583D01*
X276618104Y-97960937D01*
X276756093Y-97923963D01*
X276835762Y-97853317D01*
X276857108Y-97748999D01*
X276844784Y-97703002D01*
X276774138Y-97623334D01*
X276669820Y-97601987D01*
X276531831Y-97638961D01*
X276452162Y-97709607D01*
X275646457Y-98566381D02*
X276198415Y-98418484D01*
X275922437Y-98492432D02*
X275663618Y-97526506D01*
X275792585Y-97639846D01*
X275909227Y-97707190D01*
X276013545Y-97728537D01*
X117942469Y-71635499D02*
X118201288Y-70669573D01*
X117390511Y-71487602D02*
X117952377Y-71046567D01*
X117649330Y-70521677D02*
X118053391Y-71221531D01*
X116424585Y-71228783D02*
X116869808Y-70855091D01*
X116976543Y-71376680D02*
X117235362Y-70410754D01*
X116867390Y-70312156D01*
X116763072Y-70333503D01*
X116704751Y-70367175D01*
X116634105Y-70446843D01*
X116597131Y-70584832D01*
X116618478Y-70689150D01*
X116652150Y-70747471D01*
X116731818Y-70818117D01*
X117099791Y-70916715D01*
X115504656Y-70982289D02*
X116056614Y-71130186D01*
X115780635Y-71056237D02*
X116039454Y-70090312D01*
X116094473Y-70252950D01*
X116161817Y-70369593D01*
X116241485Y-70440238D01*
X211343077Y-135518431D02*
X211084258Y-134552505D01*
X210791119Y-135666327D02*
X211057191Y-135003447D01*
X210532300Y-134700401D02*
X211232155Y-135104463D01*
X209825193Y-135925146D02*
X210023922Y-135378908D01*
X210377152Y-135777250D02*
X210118332Y-134811324D01*
X209750360Y-134909922D01*
X209670692Y-134980568D01*
X209637020Y-135038889D01*
X209615673Y-135143206D01*
X209652647Y-135281195D01*
X209723293Y-135360864D01*
X209781614Y-135394535D01*
X209885932Y-135415882D01*
X210253904Y-135317284D01*
X208997257Y-136146991D02*
X208861685Y-135641030D01*
X208883032Y-135536712D01*
X208962700Y-135466066D01*
X209146687Y-135416767D01*
X209251004Y-135438114D01*
X208984932Y-136100995D02*
X209089250Y-136122342D01*
X209319233Y-136060718D01*
X209398901Y-135990072D01*
X209420248Y-135885755D01*
X209395599Y-135793762D01*
X209324953Y-135714094D01*
X209220635Y-135692747D01*
X208990652Y-135754370D01*
X208886335Y-135733023D01*
X208537293Y-136270238D02*
X208364747Y-135626287D01*
X208278474Y-135304312D02*
X208336795Y-135337984D01*
X208303123Y-135396305D01*
X208244802Y-135362634D01*
X208278474Y-135304312D01*
X208303123Y-135396305D01*
X207571367Y-136529057D02*
X208123325Y-136381161D01*
X207847346Y-136455109D02*
X207588527Y-135489183D01*
X207717494Y-135602523D01*
X207834137Y-135669866D01*
X207938454Y-135691213D01*
X179912270Y-89704760D02*
X179653451Y-88738834D01*
X179360312Y-89852657D02*
X179626384Y-89189776D01*
X179101493Y-88886731D02*
X179801347Y-89290792D01*
X178394386Y-90111476D02*
X178593114Y-89565237D01*
X178946344Y-89963579D02*
X178687525Y-88997653D01*
X178319552Y-89096251D01*
X178239884Y-89166897D01*
X178206213Y-89225218D01*
X178184866Y-89329536D01*
X178221840Y-89467525D01*
X178292486Y-89547193D01*
X178350807Y-89580865D01*
X178455124Y-89602212D01*
X178823097Y-89503614D01*
X177522870Y-89802710D02*
X177397206Y-89885680D01*
X177363534Y-89944002D01*
X177342187Y-90048320D01*
X177379161Y-90186309D01*
X177449807Y-90265977D01*
X177508128Y-90299649D01*
X177612446Y-90320996D01*
X177980418Y-90222398D01*
X177721599Y-89256472D01*
X177399623Y-89342746D01*
X177319955Y-89413391D01*
X177286283Y-89471713D01*
X177264936Y-89576030D01*
X177289586Y-89668023D01*
X177360231Y-89747691D01*
X177418553Y-89781363D01*
X177522870Y-89802710D01*
X177844846Y-89716437D01*
X177014492Y-90481217D02*
X176841946Y-89837266D01*
X176891245Y-90021252D02*
X176820599Y-89941584D01*
X176762278Y-89907912D01*
X176657960Y-89886565D01*
X176565967Y-89911215D01*
X175990244Y-90706365D02*
X176094562Y-90727712D01*
X176278548Y-90678413D01*
X176358217Y-90607767D01*
X176391888Y-90549446D01*
X176413235Y-90445128D01*
X176339287Y-90169149D01*
X176268641Y-90089481D01*
X176210320Y-90055809D01*
X176106002Y-90034462D01*
X175922016Y-90083761D01*
X175842348Y-90154407D01*
X175082640Y-90998856D02*
X175634598Y-90850959D01*
X175358619Y-90924907D02*
X175099800Y-89958981D01*
X175228767Y-90072321D01*
X175345409Y-90139665D01*
X175449727Y-90161012D01*
X330802549Y-83787351D02*
X330543730Y-82821425D01*
X330250591Y-83935247D02*
X330516663Y-83272367D01*
X329991772Y-82969321D02*
X330691627Y-83373383D01*
X329284665Y-84194066D02*
X329483394Y-83647828D01*
X329836623Y-84046170D02*
X329577804Y-83080244D01*
X329209832Y-83178842D01*
X329130164Y-83249487D01*
X329096492Y-83307809D01*
X329075145Y-83412126D01*
X329112119Y-83550115D01*
X329182765Y-83629784D01*
X329241086Y-83663455D01*
X329345404Y-83684802D01*
X329713376Y-83586204D01*
X328413149Y-83885300D02*
X328735125Y-83799027D01*
X328870697Y-84304989D02*
X328611878Y-83339063D01*
X328151913Y-83462310D01*
X327870215Y-83882883D02*
X328042761Y-84526834D01*
X327894864Y-83974876D02*
X327836543Y-83941204D01*
X327732225Y-83919857D01*
X327594235Y-83956831D01*
X327514567Y-84027477D01*
X327493220Y-84131795D01*
X327628792Y-84637756D01*
X326662866Y-84896575D02*
X327214824Y-84748678D01*
X326938846Y-84822627D02*
X326680027Y-83856701D01*
X326808994Y-83970041D01*
X326925636Y-84037384D01*
X327029953Y-84058731D01*
X285659571Y-115605386D02*
X285400752Y-114639460D01*
X285107613Y-115753283D02*
X285373685Y-115090402D01*
X284848794Y-114787357D02*
X285548649Y-115191418D01*
X284141687Y-116012102D02*
X284340416Y-115465864D01*
X284693646Y-115864205D02*
X284434826Y-114898280D01*
X284066854Y-114996877D01*
X283987186Y-115067523D01*
X283953514Y-115125844D01*
X283932167Y-115230162D01*
X283969141Y-115368151D01*
X284039787Y-115447819D01*
X284098108Y-115481491D01*
X284202426Y-115502838D01*
X284570398Y-115404240D01*
X283727720Y-116123024D02*
X283555174Y-115479074D01*
X283468901Y-115157099D02*
X283527222Y-115190770D01*
X283493550Y-115249091D01*
X283435229Y-115215420D01*
X283468901Y-115157099D01*
X283493550Y-115249091D01*
X282681241Y-115713243D02*
X282890761Y-116495183D01*
X282961407Y-116574851D01*
X283019728Y-116608523D01*
X283124046Y-116629870D01*
X283262036Y-116592896D01*
X283341704Y-116522250D01*
X282841462Y-116311198D02*
X282945780Y-116332545D01*
X283129766Y-116283246D01*
X283209434Y-116212600D01*
X283243106Y-116154279D01*
X283264453Y-116049961D01*
X283190505Y-115773982D01*
X283119859Y-115694313D01*
X283061538Y-115660642D01*
X282957220Y-115639295D01*
X282773233Y-115688594D01*
X282693565Y-115759240D01*
X282393822Y-116480441D02*
X282135003Y-115514515D01*
X281979854Y-116591364D02*
X281844282Y-116085402D01*
X281865629Y-115981084D01*
X281945297Y-115910439D01*
X282083287Y-115873464D01*
X282187605Y-115894811D01*
X282245926Y-115928483D01*
X281485333Y-116033686D02*
X281117361Y-116132283D01*
X281261070Y-115748685D02*
X281482915Y-116576621D01*
X281461568Y-116680939D01*
X281381900Y-116751585D01*
X281289907Y-116776234D01*
X280461970Y-116998079D02*
X281013928Y-116850183D01*
X280737949Y-116924131D02*
X280479130Y-115958205D01*
X280608097Y-116071545D01*
X280724740Y-116138888D01*
X280829057Y-116160235D01*
X306329265Y-90344948D02*
X306070446Y-89379022D01*
X305777307Y-90492844D02*
X306043379Y-89829964D01*
X305518487Y-89526918D02*
X306218342Y-89930980D01*
X304811381Y-90751663D02*
X305010109Y-90205425D01*
X305363339Y-90603767D02*
X305104520Y-89637841D01*
X304736547Y-89736439D01*
X304656879Y-89807085D01*
X304623207Y-89865406D01*
X304601860Y-89969723D01*
X304638835Y-90107712D01*
X304709480Y-90187381D01*
X304767802Y-90221052D01*
X304872119Y-90242399D01*
X305240091Y-90143801D01*
X304431085Y-90804265D02*
X304305420Y-90887235D01*
X304075437Y-90948859D01*
X303971119Y-90927512D01*
X303912798Y-90893840D01*
X303842152Y-90814172D01*
X303817503Y-90722179D01*
X303838850Y-90617862D01*
X303872522Y-90559540D01*
X303952190Y-90488894D01*
X304123852Y-90393598D01*
X304203520Y-90322952D01*
X304237192Y-90264631D01*
X304258539Y-90160314D01*
X304233889Y-90068321D01*
X304163243Y-89988653D01*
X304104922Y-89954981D01*
X304000605Y-89933634D01*
X303770622Y-89995258D01*
X303644957Y-90078228D01*
X303477484Y-91109080D02*
X303218664Y-90143154D01*
X303063515Y-91220003D02*
X302927943Y-90714041D01*
X302949290Y-90609723D01*
X303028958Y-90539078D01*
X303166948Y-90502103D01*
X303271266Y-90523450D01*
X303329587Y-90557122D01*
X302603551Y-91343250D02*
X302431004Y-90699299D01*
X302344731Y-90377324D02*
X302403053Y-90410996D01*
X302369381Y-90469317D01*
X302311060Y-90435645D01*
X302344731Y-90377324D01*
X302369381Y-90469317D01*
X302109029Y-90785572D02*
X301741058Y-90884169D01*
X302143586Y-91466497D02*
X301921741Y-90638560D01*
X301851096Y-90558892D01*
X301746778Y-90537545D01*
X301654785Y-90562194D01*
X301557071Y-90933468D02*
X301189100Y-91032066D01*
X301332809Y-90648468D02*
X301554654Y-91476404D01*
X301533307Y-91580722D01*
X301453639Y-91651368D01*
X301361646Y-91676017D01*
X300533709Y-91897862D02*
X301085667Y-91749965D01*
X300809688Y-91823914D02*
X300550869Y-90857988D01*
X300679836Y-90971328D01*
X300796478Y-91038671D01*
X300900796Y-91060018D01*
X76187195Y-80169218D02*
X76446014Y-79203292D01*
X75635237Y-80021321D02*
X76197103Y-79580286D01*
X75894056Y-79055395D02*
X76298118Y-79755250D01*
X75279591Y-79876727D02*
X75129277Y-79885749D01*
X74899294Y-79824126D01*
X74819626Y-79753480D01*
X74785954Y-79695159D01*
X74764607Y-79590841D01*
X74789256Y-79498848D01*
X74859902Y-79419180D01*
X74918223Y-79385508D01*
X75022541Y-79364160D01*
X75218852Y-79367463D01*
X75323170Y-79346116D01*
X75381491Y-79312444D01*
X75452137Y-79232776D01*
X75476786Y-79140783D01*
X75455439Y-79036466D01*
X75421767Y-78978145D01*
X75342099Y-78907499D01*
X75112116Y-78845875D01*
X74961802Y-78854897D01*
X73795379Y-79528332D02*
X74347337Y-79676229D01*
X74071358Y-79602281D02*
X74330177Y-78636355D01*
X74385196Y-78798994D01*
X74452539Y-78915636D01*
X74532207Y-78986282D01*
X18340423Y-89321737D02*
X18599242Y-88355811D01*
X17788465Y-89173840D02*
X18350330Y-88732805D01*
X18047284Y-88207914D02*
X18451345Y-88907769D01*
X17432818Y-89029246D02*
X17282504Y-89038268D01*
X17052521Y-88976645D01*
X16972853Y-88905999D01*
X16939181Y-88847678D01*
X16917834Y-88743360D01*
X16942484Y-88651367D01*
X17013130Y-88571699D01*
X17071451Y-88538027D01*
X17175769Y-88516679D01*
X17372080Y-88519982D01*
X17476397Y-88498635D01*
X17534719Y-88464963D01*
X17605364Y-88385295D01*
X17630014Y-88293302D01*
X17608667Y-88188985D01*
X17574995Y-88130664D01*
X17495327Y-88060018D01*
X17265344Y-87998394D01*
X17115030Y-88007416D01*
X16454568Y-88816423D02*
X16713387Y-87850498D01*
X16040599Y-88705501D02*
X16176171Y-88199539D01*
X16246817Y-88119871D01*
X16351134Y-88098524D01*
X16489125Y-88135499D01*
X16568793Y-88206144D01*
X16602464Y-88264465D01*
X15580635Y-88582254D02*
X15753181Y-87938303D01*
X15839454Y-87616328D02*
X15873126Y-87674649D01*
X15814804Y-87708321D01*
X15781133Y-87650000D01*
X15839454Y-87616328D01*
X15814804Y-87708321D01*
X15431206Y-87852030D02*
X15063235Y-87753432D01*
X15120671Y-88459007D02*
X15342516Y-87631070D01*
X15321169Y-87526753D01*
X15241500Y-87456107D01*
X15149508Y-87431457D01*
X14879248Y-87704133D02*
X14511277Y-87605536D01*
X14827532Y-87345184D02*
X14605687Y-88173121D01*
X14535041Y-88252789D01*
X14430723Y-88274136D01*
X14338730Y-88249487D01*
X13510793Y-88027641D02*
X14062751Y-88175538D01*
X13786772Y-88101590D02*
X14045591Y-87135664D01*
X14100610Y-87298303D01*
X14167954Y-87414945D01*
X14247622Y-87485591D01*
X145369622Y-130130775D02*
X144403697Y-129871956D01*
X145221726Y-130682733D02*
X144780690Y-130120868D01*
X144255800Y-130423914D02*
X144955655Y-130019853D01*
X145077132Y-131038380D02*
X145086154Y-131188694D01*
X145024530Y-131418677D01*
X144953884Y-131498345D01*
X144895563Y-131532017D01*
X144791246Y-131553364D01*
X144699253Y-131528714D01*
X144619585Y-131458068D01*
X144585913Y-131399747D01*
X144564565Y-131295430D01*
X144567868Y-131099118D01*
X144546521Y-130994801D01*
X144512849Y-130936479D01*
X144433181Y-130865834D01*
X144341188Y-130841184D01*
X144236870Y-130862531D01*
X144178549Y-130896203D01*
X144107903Y-130975871D01*
X144046280Y-131205854D01*
X144055302Y-131356168D01*
X144220358Y-131844084D02*
X145186284Y-132102903D01*
X144266355Y-131856409D02*
X144195709Y-131936077D01*
X144146410Y-132120064D01*
X144167757Y-132224381D01*
X144201428Y-132282702D01*
X144281097Y-132353348D01*
X144557076Y-132427297D01*
X144661394Y-132405950D01*
X144719715Y-132372278D01*
X144790361Y-132292610D01*
X144839660Y-132108623D01*
X144818313Y-132004306D01*
X144519217Y-133304532D02*
X144013255Y-133168960D01*
X143933587Y-133098314D01*
X143912240Y-132993997D01*
X143961539Y-132810010D01*
X144032185Y-132730342D01*
X144473220Y-133292207D02*
X144543866Y-133212539D01*
X144605490Y-132982556D01*
X144584143Y-132878239D01*
X144504475Y-132807593D01*
X144412482Y-132782943D01*
X144308164Y-132804290D01*
X144237519Y-132883958D01*
X144175895Y-133113942D01*
X144105249Y-133193610D01*
X144239051Y-134166140D02*
X144309697Y-134086472D01*
X144358996Y-133902486D01*
X144337649Y-133798168D01*
X144303977Y-133739847D01*
X144224309Y-133669201D01*
X143948329Y-133595253D01*
X143844012Y-133616600D01*
X143785691Y-133650271D01*
X143715045Y-133729939D01*
X143665746Y-133913926D01*
X143687093Y-134018244D01*
X144029530Y-134948080D02*
X144100176Y-134868412D01*
X144149475Y-134684426D01*
X144128128Y-134580108D01*
X144048460Y-134509462D01*
X143680488Y-134410864D01*
X143576170Y-134432211D01*
X143505525Y-134511880D01*
X143456225Y-134695866D01*
X143477572Y-134800184D01*
X143557241Y-134870830D01*
X143649234Y-134895479D01*
X143864475Y-134460163D01*
X143816708Y-135926331D02*
X143964605Y-135374373D01*
X143890656Y-135650351D02*
X142924731Y-135391532D01*
X143087369Y-135336514D01*
X143204011Y-135269170D01*
X143274657Y-135189502D01*
X134995740Y-81135412D02*
X135254559Y-80169487D01*
X134443782Y-80987516D02*
X135005647Y-80546480D01*
X134702601Y-80021590D02*
X135106662Y-80721445D01*
X134426622Y-79947642D02*
X133874664Y-79799745D01*
X133891824Y-80839619D02*
X134150643Y-79873693D01*
X132787908Y-80543826D02*
X133339866Y-80691723D01*
X133063888Y-80617774D02*
X133322707Y-79651849D01*
X133377726Y-79814487D01*
X133445069Y-79931129D01*
X133524737Y-80001775D01*
X39265017Y-55484442D02*
X39523836Y-54518516D01*
X38713058Y-55336545D02*
X39274924Y-54895510D01*
X38971878Y-54370620D02*
X39375939Y-55070474D01*
X38695899Y-54296671D02*
X38143941Y-54148775D01*
X38161101Y-55188649D02*
X38419920Y-54222723D01*
X37149178Y-54917505D02*
X37284750Y-54411543D01*
X37355396Y-54331875D01*
X37459714Y-54310528D01*
X37643700Y-54359827D01*
X37723368Y-54430473D01*
X37161503Y-54871508D02*
X37241171Y-54942154D01*
X37471154Y-55003778D01*
X37575472Y-54982431D01*
X37646118Y-54902763D01*
X37670767Y-54810770D01*
X37649420Y-54706453D01*
X37569752Y-54635807D01*
X37339769Y-54574183D01*
X37260101Y-54503537D01*
X36689214Y-54794258D02*
X36948033Y-53828332D01*
X36849435Y-54196303D02*
X36769767Y-54125658D01*
X36585781Y-54076359D01*
X36481463Y-54097706D01*
X36423142Y-54131377D01*
X36352496Y-54211045D01*
X36278548Y-54487025D01*
X36299895Y-54591342D01*
X36333566Y-54649664D01*
X36413235Y-54720309D01*
X36597221Y-54769608D01*
X36701539Y-54748261D01*
X35309319Y-54424516D02*
X35861277Y-54572413D01*
X35585299Y-54498465D02*
X35844118Y-53532539D01*
X35899137Y-53695178D01*
X35966480Y-53811820D01*
X36046148Y-53882466D01*
X213075880Y-70957591D02*
X212817061Y-69991666D01*
X212523922Y-71105488D02*
X212789994Y-70442608D01*
X212265103Y-70139562D02*
X212964958Y-70543624D01*
X211851136Y-70250485D02*
X212060656Y-71032425D01*
X212039309Y-71136742D01*
X212005637Y-71195063D01*
X211925969Y-71265709D01*
X211741982Y-71315008D01*
X211637665Y-71293661D01*
X211579344Y-71259990D01*
X211508698Y-71180322D01*
X211299178Y-70398381D01*
X210592071Y-71623126D02*
X211144029Y-71475230D01*
X210868050Y-71549178D02*
X210609231Y-70583252D01*
X210738198Y-70696592D01*
X210854840Y-70763935D01*
X210959158Y-70785282D01*
X265106130Y-116182162D02*
X264847311Y-115216236D01*
X264554172Y-116330058D02*
X264820244Y-115667178D01*
X264295353Y-115364133D02*
X264995208Y-115768194D01*
X263881385Y-115475055D02*
X264090905Y-116256995D01*
X264069558Y-116361313D01*
X264035887Y-116419634D01*
X263956218Y-116490279D01*
X263772232Y-116539579D01*
X263667914Y-116518232D01*
X263609593Y-116484560D01*
X263538947Y-116404892D01*
X263329427Y-115622952D01*
X262955736Y-116068174D02*
X263214555Y-117034099D01*
X262968060Y-116114170D02*
X262863743Y-116092823D01*
X262679756Y-116142122D01*
X262600088Y-116212768D01*
X262566416Y-116271089D01*
X262545069Y-116375407D01*
X262619018Y-116651386D01*
X262689664Y-116731054D01*
X262747985Y-116764726D01*
X262852302Y-116786073D01*
X263036289Y-116736774D01*
X263115957Y-116666128D01*
X261748387Y-117081866D02*
X262300345Y-116933969D01*
X262024367Y-117007918D02*
X261765548Y-116041992D01*
X261894515Y-116155332D01*
X262011157Y-116222675D01*
X262115474Y-116244022D01*
X108012469Y-108418787D02*
X108271288Y-107452861D01*
X107460511Y-108270890D02*
X108022376Y-107829855D01*
X107719330Y-107304965D02*
X108123391Y-108004819D01*
X107443351Y-107231016D02*
X106862557Y-108110669D01*
X106799401Y-107058470D01*
X105712645Y-107802551D02*
X106264603Y-107950448D01*
X105988624Y-107876500D02*
X106247444Y-106910574D01*
X106302462Y-107073212D01*
X106369806Y-107189855D01*
X106449474Y-107260501D01*
X81209690Y-61792981D02*
X81468509Y-60827055D01*
X80657732Y-61645085D02*
X81219598Y-61204049D01*
X80916551Y-60679159D02*
X81320613Y-61379013D01*
X80594576Y-60592886D02*
X80105775Y-61497188D01*
X80106659Y-60757942D01*
X79737803Y-61398590D01*
X79766640Y-60371041D01*
X78633888Y-61102797D02*
X79185846Y-61250694D01*
X78909867Y-61176746D02*
X79168686Y-60210820D01*
X79223705Y-60373458D01*
X79291048Y-60490101D01*
X79370717Y-60560746D01*
X67085131Y-117174351D02*
X67343950Y-116208425D01*
X66533173Y-117026454D02*
X67095038Y-116585418D01*
X66791992Y-116060528D02*
X67196053Y-116760383D01*
X66470017Y-115974255D02*
X65981216Y-116878557D01*
X65982100Y-116139311D01*
X65613243Y-116779960D01*
X65642080Y-115752410D01*
X65015290Y-116619738D02*
X65187836Y-115975788D01*
X65274109Y-115653813D02*
X65307781Y-115712134D01*
X65249460Y-115745805D01*
X65215788Y-115687484D01*
X65274109Y-115653813D01*
X65249460Y-115745805D01*
X64727872Y-115852540D02*
X64555326Y-116496491D01*
X64703222Y-115944533D02*
X64669551Y-115886212D01*
X64589883Y-115815566D01*
X64451892Y-115778592D01*
X64347575Y-115799939D01*
X64276929Y-115879607D01*
X64141357Y-116385569D01*
X63175431Y-116126750D02*
X63727389Y-116274646D01*
X63451411Y-116200698D02*
X63710230Y-115234772D01*
X63765248Y-115397411D01*
X63832592Y-115514053D01*
X63912260Y-115584699D01*
X71256692Y-98570106D02*
X71515511Y-97604180D01*
X70704734Y-98422209D02*
X71266600Y-97981174D01*
X70963553Y-97456283D02*
X71367615Y-98156138D01*
X70641578Y-97370010D02*
X69738809Y-98163390D01*
X69997628Y-97197464D02*
X70382759Y-98335936D01*
X68864876Y-97929220D02*
X69416834Y-98077117D01*
X69140855Y-98003169D02*
X69399674Y-97037243D01*
X69454693Y-97199882D01*
X69522036Y-97316524D01*
X69601704Y-97387170D01*
X195815628Y-80512965D02*
X195556809Y-79547039D01*
X195263670Y-80660862D02*
X195529742Y-79997981D01*
X195004851Y-79694936D02*
X195704705Y-80098997D01*
X194542469Y-80361118D02*
X194665716Y-80821083D01*
X194728872Y-79768884D02*
X194542469Y-80361118D01*
X194084921Y-79941430D01*
X193515804Y-81129201D02*
X194067762Y-80981304D01*
X193791783Y-81055252D02*
X193532964Y-80089327D01*
X193661931Y-80202666D01*
X193778573Y-80270010D01*
X193882891Y-80291357D01*
X51623179Y-98239825D02*
X51881998Y-97273899D01*
X51071221Y-98091928D02*
X51633087Y-97650893D01*
X51330040Y-97126002D02*
X51734102Y-97825857D01*
X51008065Y-97039729D02*
X50364115Y-96867183D01*
X50749246Y-98005655D01*
X50105296Y-97833109D01*
X49231363Y-97598939D02*
X49783321Y-97746836D01*
X49507342Y-97672888D02*
X49766161Y-96706962D01*
X49821180Y-96869601D01*
X49888523Y-96986243D01*
X49968191Y-97056889D01*
D13*
X182308333Y-39873512D02*
X182165476Y-39921131D01*
X181927380Y-39921131D01*
X181832142Y-39873512D01*
X181784523Y-39825893D01*
X181736904Y-39730655D01*
X181736904Y-39635417D01*
X181784523Y-39540179D01*
X181832142Y-39492560D01*
X181927380Y-39444940D01*
X182117857Y-39397321D01*
X182213095Y-39349702D01*
X182260714Y-39302083D01*
X182308333Y-39206845D01*
X182308333Y-39111607D01*
X182260714Y-39016369D01*
X182213095Y-38968750D01*
X182117857Y-38921131D01*
X181879761Y-38921131D01*
X181736904Y-38968750D01*
X181403571Y-38921131D02*
X181165476Y-39921131D01*
X180974999Y-39206845D01*
X180784523Y-39921131D01*
X180546428Y-38921131D01*
X179641666Y-39921131D02*
X180213095Y-39921131D01*
X179927381Y-39921131D02*
X179927381Y-38921131D01*
X180022619Y-39063988D01*
X180117857Y-39159226D01*
X180213095Y-39206845D01*
X148669142Y-39158381D02*
X148669142Y-39872667D01*
X148716762Y-40015524D01*
X148812000Y-40110762D01*
X148954857Y-40158381D01*
X149050095Y-40158381D01*
X147669142Y-39206000D02*
X147764380Y-39158381D01*
X147907237Y-39158381D01*
X148050095Y-39206000D01*
X148145333Y-39301238D01*
X148192952Y-39396476D01*
X148240571Y-39586952D01*
X148240571Y-39729810D01*
X148192952Y-39920286D01*
X148145333Y-40015524D01*
X148050095Y-40110762D01*
X147907237Y-40158381D01*
X147811999Y-40158381D01*
X147669142Y-40110762D01*
X147621523Y-40063143D01*
X147621523Y-39729810D01*
X147811999Y-39729810D01*
X147192952Y-40158381D02*
X147192952Y-39158381D01*
X146621523Y-40158381D01*
X146621523Y-39158381D01*
X146145333Y-40158381D02*
X146145333Y-39158381D01*
X145907238Y-39158381D01*
X145764380Y-39206000D01*
X145669142Y-39301238D01*
X145621523Y-39396476D01*
X145573904Y-39586952D01*
X145573904Y-39729810D01*
X145621523Y-39920286D01*
X145669142Y-40015524D01*
X145764380Y-40110762D01*
X145907238Y-40158381D01*
X146145333Y-40158381D01*
X144621523Y-40158381D02*
X145192952Y-40158381D01*
X144907238Y-40158381D02*
X144907238Y-39158381D01*
X145002476Y-39301238D01*
X145097714Y-39396476D01*
X145192952Y-39444095D01*
X148645333Y-33062381D02*
X148645333Y-33776667D01*
X148692953Y-33919524D01*
X148788191Y-34014762D01*
X148931048Y-34062381D01*
X149026286Y-34062381D01*
X147597714Y-34062381D02*
X147931048Y-33586190D01*
X148169143Y-34062381D02*
X148169143Y-33062381D01*
X147788190Y-33062381D01*
X147692952Y-33110000D01*
X147645333Y-33157619D01*
X147597714Y-33252857D01*
X147597714Y-33395714D01*
X147645333Y-33490952D01*
X147692952Y-33538571D01*
X147788190Y-33586190D01*
X148169143Y-33586190D01*
X146645333Y-33110000D02*
X146740571Y-33062381D01*
X146883428Y-33062381D01*
X147026286Y-33110000D01*
X147121524Y-33205238D01*
X147169143Y-33300476D01*
X147216762Y-33490952D01*
X147216762Y-33633810D01*
X147169143Y-33824286D01*
X147121524Y-33919524D01*
X147026286Y-34014762D01*
X146883428Y-34062381D01*
X146788190Y-34062381D01*
X146645333Y-34014762D01*
X146597714Y-33967143D01*
X146597714Y-33633810D01*
X146788190Y-33633810D01*
X145835809Y-33538571D02*
X145692952Y-33586190D01*
X145645333Y-33633810D01*
X145597714Y-33729048D01*
X145597714Y-33871905D01*
X145645333Y-33967143D01*
X145692952Y-34014762D01*
X145788190Y-34062381D01*
X146169143Y-34062381D01*
X146169143Y-33062381D01*
X145835809Y-33062381D01*
X145740571Y-33110000D01*
X145692952Y-33157619D01*
X145645333Y-33252857D01*
X145645333Y-33348095D01*
X145692952Y-33443333D01*
X145740571Y-33490952D01*
X145835809Y-33538571D01*
X146169143Y-33538571D01*
X144645333Y-34062381D02*
X145216762Y-34062381D01*
X144931048Y-34062381D02*
X144931048Y-33062381D01*
X145026286Y-33205238D01*
X145121524Y-33300476D01*
X145216762Y-33348095D01*
X148573904Y-36110381D02*
X148573904Y-36824667D01*
X148621524Y-36967524D01*
X148716762Y-37062762D01*
X148859619Y-37110381D01*
X148954857Y-37110381D01*
X148240571Y-36110381D02*
X147907238Y-37110381D01*
X147573904Y-36110381D01*
X146669142Y-37015143D02*
X146716761Y-37062762D01*
X146859618Y-37110381D01*
X146954856Y-37110381D01*
X147097714Y-37062762D01*
X147192952Y-36967524D01*
X147240571Y-36872286D01*
X147288190Y-36681810D01*
X147288190Y-36538952D01*
X147240571Y-36348476D01*
X147192952Y-36253238D01*
X147097714Y-36158000D01*
X146954856Y-36110381D01*
X146859618Y-36110381D01*
X146716761Y-36158000D01*
X146669142Y-36205619D01*
X145669142Y-37015143D02*
X145716761Y-37062762D01*
X145859618Y-37110381D01*
X145954856Y-37110381D01*
X146097714Y-37062762D01*
X146192952Y-36967524D01*
X146240571Y-36872286D01*
X146288190Y-36681810D01*
X146288190Y-36538952D01*
X146240571Y-36348476D01*
X146192952Y-36253238D01*
X146097714Y-36158000D01*
X145954856Y-36110381D01*
X145859618Y-36110381D01*
X145716761Y-36158000D01*
X145669142Y-36205619D01*
X144716761Y-37110381D02*
X145288190Y-37110381D01*
X145002476Y-37110381D02*
X145002476Y-36110381D01*
X145097714Y-36253238D01*
X145192952Y-36348476D01*
X145288190Y-36396095D01*
M02*
