%TF.GenerationSoftware,KiCad,Pcbnew,4.0.7*%
%TF.CreationDate,2018-09-12T19:18:30-05:00*%
%TF.ProjectId,ergo60tilt,6572676F363074696C742E6B69636164,rev?*%
%TF.FileFunction,Copper,L1,Top,Signal*%
%FSLAX46Y46*%
G04 Gerber Fmt 4.6, Leading zero omitted, Abs format (unit mm)*
G04 Created by KiCad (PCBNEW 4.0.7) date 09/12/18 19:18:30*
%MOMM*%
%LPD*%
G01*
G04 APERTURE LIST*
%ADD10C,0.100000*%
%ADD11C,1.600000*%
%ADD12C,2.800000*%
%ADD13C,2.500000*%
%ADD14R,1.752600X1.752600*%
%ADD15C,1.752600*%
%ADD16C,1.800000*%
%ADD17C,0.600000*%
%ADD18C,0.250000*%
%ADD19C,0.254000*%
G04 APERTURE END LIST*
D10*
G36*
X36499283Y-20295769D02*
X36085172Y-21841250D01*
X34539691Y-21427139D01*
X34953802Y-19881658D01*
X36499283Y-20295769D01*
X36499283Y-20295769D01*
G37*
D11*
X27985265Y-18842666D03*
D10*
G36*
X54325143Y-25072193D02*
X53911032Y-26617674D01*
X52365551Y-26203563D01*
X52779662Y-24658082D01*
X54325143Y-25072193D01*
X54325143Y-25072193D01*
G37*
D11*
X45811125Y-23619090D03*
D10*
G36*
X44794418Y-42240454D02*
X44380307Y-43785935D01*
X42834826Y-43371824D01*
X43248937Y-41826343D01*
X44794418Y-42240454D01*
X44794418Y-42240454D01*
G37*
D11*
X36280400Y-40787351D03*
D10*
G36*
X33538610Y-58946481D02*
X33124499Y-60491962D01*
X31579018Y-60077851D01*
X31993129Y-58532370D01*
X33538610Y-58946481D01*
X33538610Y-58946481D01*
G37*
D11*
X25024592Y-57493378D03*
D10*
G36*
X18964590Y-92636468D02*
X18550479Y-94181949D01*
X17004998Y-93767838D01*
X17419109Y-92222357D01*
X18964590Y-92636468D01*
X18964590Y-92636468D01*
G37*
D11*
X10450572Y-91183365D03*
D10*
G36*
X73301057Y-30156774D02*
X72886946Y-31702255D01*
X71341465Y-31288144D01*
X71755576Y-29742663D01*
X73301057Y-30156774D01*
X73301057Y-30156774D01*
G37*
D11*
X64787039Y-28703671D03*
D10*
G36*
X68370553Y-48557661D02*
X67956442Y-50103142D01*
X66410961Y-49689031D01*
X66825072Y-48143550D01*
X68370553Y-48557661D01*
X68370553Y-48557661D01*
G37*
D11*
X59856535Y-47104558D03*
D10*
G36*
X63440051Y-66958548D02*
X63025940Y-68504029D01*
X61480459Y-68089918D01*
X61894570Y-66544437D01*
X63440051Y-66958548D01*
X63440051Y-66958548D01*
G37*
D11*
X54926033Y-65505445D03*
D10*
G36*
X58509548Y-85359435D02*
X58095437Y-86904916D01*
X56549956Y-86490805D01*
X56964067Y-84945324D01*
X58509548Y-85359435D01*
X58509548Y-85359435D01*
G37*
D11*
X49995530Y-83906332D03*
D10*
G36*
X53579045Y-103760322D02*
X53164934Y-105305803D01*
X51619453Y-104891692D01*
X52033564Y-103346211D01*
X53579045Y-103760322D01*
X53579045Y-103760322D01*
G37*
D11*
X45065027Y-102307219D03*
D10*
G36*
X92934569Y-30487055D02*
X92520458Y-32032536D01*
X90974977Y-31618425D01*
X91389088Y-30072944D01*
X92934569Y-30487055D01*
X92934569Y-30487055D01*
G37*
D11*
X84420551Y-29033952D03*
D10*
G36*
X87274961Y-49308891D02*
X86860850Y-50854372D01*
X85315369Y-50440261D01*
X85729480Y-48894780D01*
X87274961Y-49308891D01*
X87274961Y-49308891D01*
G37*
D11*
X78760943Y-47855788D03*
D10*
G36*
X82498537Y-67134751D02*
X82084426Y-68680232D01*
X80538945Y-68266121D01*
X80953056Y-66720640D01*
X82498537Y-67134751D01*
X82498537Y-67134751D01*
G37*
D11*
X73984519Y-65681648D03*
D10*
G36*
X77568034Y-85535637D02*
X77153923Y-87081118D01*
X75608442Y-86667007D01*
X76022553Y-85121526D01*
X77568034Y-85535637D01*
X77568034Y-85535637D01*
G37*
D11*
X69054016Y-84082534D03*
D10*
G36*
X72483452Y-104511552D02*
X72069341Y-106057033D01*
X70523860Y-105642922D01*
X70937971Y-104097441D01*
X72483452Y-104511552D01*
X72483452Y-104511552D01*
G37*
D11*
X63969434Y-103058449D03*
D10*
G36*
X112568082Y-30817336D02*
X112153971Y-32362817D01*
X110608490Y-31948706D01*
X111022601Y-30403225D01*
X112568082Y-30817336D01*
X112568082Y-30817336D01*
G37*
D11*
X104054064Y-29364233D03*
D10*
G36*
X107062552Y-49064145D02*
X106648441Y-50609626D01*
X105102960Y-50195515D01*
X105517071Y-48650034D01*
X107062552Y-49064145D01*
X107062552Y-49064145D01*
G37*
D11*
X98548534Y-47611042D03*
D10*
G36*
X102132049Y-67465032D02*
X101717938Y-69010513D01*
X100172457Y-68596402D01*
X100586568Y-67050921D01*
X102132049Y-67465032D01*
X102132049Y-67465032D01*
G37*
D11*
X93618031Y-66011929D03*
D10*
G36*
X97047468Y-86440946D02*
X96633357Y-87986427D01*
X95087876Y-87572316D01*
X95501987Y-86026835D01*
X97047468Y-86440946D01*
X97047468Y-86440946D01*
G37*
D11*
X88533450Y-84987843D03*
D10*
G36*
X92846071Y-104420884D02*
X92431960Y-105966365D01*
X90886479Y-105552254D01*
X91300590Y-104006773D01*
X92846071Y-104420884D01*
X92846071Y-104420884D01*
G37*
D11*
X84332053Y-102967781D03*
D10*
G36*
X129736344Y-40348061D02*
X129322233Y-41893542D01*
X127776752Y-41479431D01*
X128190863Y-39933950D01*
X129736344Y-40348061D01*
X129736344Y-40348061D01*
G37*
D11*
X121222326Y-38894958D03*
D10*
G36*
X124805841Y-58748948D02*
X124391730Y-60294429D01*
X122846249Y-59880318D01*
X123260360Y-58334837D01*
X124805841Y-58748948D01*
X124805841Y-58748948D01*
G37*
D11*
X116291823Y-57295845D03*
D10*
G36*
X119875338Y-77149834D02*
X119461227Y-78695315D01*
X117915746Y-78281204D01*
X118329857Y-76735723D01*
X119875338Y-77149834D01*
X119875338Y-77149834D01*
G37*
D11*
X111361320Y-75696731D03*
D10*
G36*
X115519863Y-95704800D02*
X115105752Y-97250281D01*
X113560271Y-96836170D01*
X113974382Y-95290689D01*
X115519863Y-95704800D01*
X115519863Y-95704800D01*
G37*
D11*
X107005845Y-94251697D03*
D10*
G36*
X109860254Y-114526635D02*
X109446143Y-116072116D01*
X107900662Y-115658005D01*
X108314773Y-114112524D01*
X109860254Y-114526635D01*
X109860254Y-114526635D01*
G37*
D11*
X101346236Y-113073532D03*
D10*
G36*
X146904605Y-49878786D02*
X146490494Y-51424267D01*
X144945013Y-51010156D01*
X145359124Y-49464675D01*
X146904605Y-49878786D01*
X146904605Y-49878786D01*
G37*
D11*
X138390587Y-48425683D03*
D10*
G36*
X141974102Y-68279672D02*
X141559991Y-69825153D01*
X140014510Y-69411042D01*
X140428621Y-67865561D01*
X141974102Y-68279672D01*
X141974102Y-68279672D01*
G37*
D11*
X133460084Y-66826569D03*
D10*
G36*
X137043599Y-86680559D02*
X136629488Y-88226040D01*
X135084007Y-87811929D01*
X135498118Y-86266448D01*
X137043599Y-86680559D01*
X137043599Y-86680559D01*
G37*
D11*
X128529581Y-85227456D03*
D10*
G36*
X132113097Y-105081447D02*
X131698986Y-106626928D01*
X130153505Y-106212817D01*
X130567616Y-104667336D01*
X132113097Y-105081447D01*
X132113097Y-105081447D01*
G37*
D11*
X123599079Y-103628344D03*
D10*
G36*
X127182594Y-123482333D02*
X126768483Y-125027814D01*
X125223002Y-124613703D01*
X125637113Y-123068222D01*
X127182594Y-123482333D01*
X127182594Y-123482333D01*
G37*
D11*
X118668576Y-122029230D03*
D10*
G36*
X159142363Y-77810397D02*
X158728252Y-79355878D01*
X157182771Y-78941767D01*
X157596882Y-77396286D01*
X159142363Y-77810397D01*
X159142363Y-77810397D01*
G37*
D11*
X150628345Y-76357294D03*
D10*
G36*
X154211861Y-96211284D02*
X153797750Y-97756765D01*
X152252269Y-97342654D01*
X152666380Y-95797173D01*
X154211861Y-96211284D01*
X154211861Y-96211284D01*
G37*
D11*
X145697843Y-94758181D03*
D10*
G36*
X148514761Y-139206479D02*
X146969280Y-138792368D01*
X147383391Y-137246887D01*
X148928872Y-137660998D01*
X148514761Y-139206479D01*
X148514761Y-139206479D01*
G37*
D11*
X149967864Y-130692461D03*
D10*
G36*
X199486108Y-84518416D02*
X199900219Y-86063897D01*
X198354738Y-86478008D01*
X197940627Y-84932527D01*
X199486108Y-84518416D01*
X199486108Y-84518416D01*
G37*
D11*
X191386201Y-87517000D03*
D10*
G36*
X204991640Y-102765225D02*
X205405751Y-104310706D01*
X203860270Y-104724817D01*
X203446159Y-103179336D01*
X204991640Y-102765225D01*
X204991640Y-102765225D01*
G37*
D11*
X196891733Y-105763809D03*
D10*
G36*
X209922143Y-121166112D02*
X210336254Y-122711593D01*
X208790773Y-123125704D01*
X208376662Y-121580223D01*
X209922143Y-121166112D01*
X209922143Y-121166112D01*
G37*
D11*
X201822236Y-124164696D03*
D10*
G36*
X177962373Y-75494175D02*
X178376484Y-77039656D01*
X176831003Y-77453767D01*
X176416892Y-75908286D01*
X177962373Y-75494175D01*
X177962373Y-75494175D01*
G37*
D11*
X169862466Y-78492759D03*
D10*
G36*
X183046954Y-94470090D02*
X183461065Y-96015571D01*
X181915584Y-96429682D01*
X181501473Y-94884201D01*
X183046954Y-94470090D01*
X183046954Y-94470090D01*
G37*
D11*
X174947047Y-97468674D03*
D10*
G36*
X181055754Y-138909046D02*
X179510273Y-139323157D01*
X179096162Y-137777676D01*
X180641643Y-137363565D01*
X181055754Y-138909046D01*
X181055754Y-138909046D01*
G37*
D11*
X178057170Y-130809139D03*
D10*
G36*
X239328162Y-83703777D02*
X239742273Y-85249258D01*
X238196792Y-85663369D01*
X237782681Y-84117888D01*
X239328162Y-83703777D01*
X239328162Y-83703777D01*
G37*
D11*
X231228255Y-86702361D03*
D10*
G36*
X244258665Y-102104663D02*
X244672776Y-103650144D01*
X243127295Y-104064255D01*
X242713184Y-102518774D01*
X244258665Y-102104663D01*
X244258665Y-102104663D01*
G37*
D11*
X236158758Y-105103247D03*
D10*
G36*
X207368393Y-38031839D02*
X207782504Y-39577320D01*
X206237023Y-39991431D01*
X205822912Y-38445950D01*
X207368393Y-38031839D01*
X207368393Y-38031839D01*
G37*
D11*
X199268486Y-41030423D03*
D10*
G36*
X212298896Y-56432727D02*
X212713007Y-57978208D01*
X211167526Y-58392319D01*
X210753415Y-56846838D01*
X212298896Y-56432727D01*
X212298896Y-56432727D01*
G37*
D11*
X204198989Y-59431311D03*
D10*
G36*
X217229398Y-74833614D02*
X217643509Y-76379095D01*
X216098028Y-76793206D01*
X215683917Y-75247725D01*
X217229398Y-74833614D01*
X217229398Y-74833614D01*
G37*
D11*
X209129491Y-77832198D03*
D10*
G36*
X221584872Y-93388579D02*
X221998983Y-94934060D01*
X220453502Y-95348171D01*
X220039391Y-93802690D01*
X221584872Y-93388579D01*
X221584872Y-93388579D01*
G37*
D11*
X213484965Y-96387163D03*
D10*
G36*
X227090404Y-111635388D02*
X227504515Y-113180869D01*
X225959034Y-113594980D01*
X225544923Y-112049499D01*
X227090404Y-111635388D01*
X227090404Y-111635388D01*
G37*
D11*
X218990497Y-114633972D03*
D10*
G36*
X190775158Y-47408486D02*
X191189269Y-48953967D01*
X189643788Y-49368078D01*
X189229677Y-47822597D01*
X190775158Y-47408486D01*
X190775158Y-47408486D01*
G37*
D11*
X182675251Y-50407070D03*
D10*
G36*
X195705661Y-65809373D02*
X196119772Y-67354854D01*
X194574291Y-67768965D01*
X194160180Y-66223484D01*
X195705661Y-65809373D01*
X195705661Y-65809373D01*
G37*
D11*
X187605754Y-68807957D03*
D10*
G36*
X284100717Y-101290023D02*
X284514828Y-102835504D01*
X282969347Y-103249615D01*
X282555236Y-101704134D01*
X284100717Y-101290023D01*
X284100717Y-101290023D01*
G37*
D11*
X276000810Y-104288607D03*
D10*
G36*
X244170166Y-28170834D02*
X244584277Y-29716315D01*
X243038796Y-30130426D01*
X242624685Y-28584945D01*
X244170166Y-28170834D01*
X244170166Y-28170834D01*
G37*
D11*
X236070259Y-31169418D03*
D10*
G36*
X249100669Y-46571721D02*
X249514780Y-48117202D01*
X247969299Y-48531313D01*
X247555188Y-46985832D01*
X249100669Y-46571721D01*
X249100669Y-46571721D01*
G37*
D11*
X241000762Y-49570305D03*
D10*
G36*
X254031172Y-64972608D02*
X254445283Y-66518089D01*
X252899802Y-66932200D01*
X252485691Y-65386719D01*
X254031172Y-64972608D01*
X254031172Y-64972608D01*
G37*
D11*
X245931265Y-67971192D03*
D10*
G36*
X258961675Y-83373495D02*
X259375786Y-84918976D01*
X257830305Y-85333087D01*
X257416194Y-83787606D01*
X258961675Y-83373495D01*
X258961675Y-83373495D01*
G37*
D11*
X250861768Y-86372079D03*
D10*
G36*
X263892177Y-101774382D02*
X264306288Y-103319863D01*
X262760807Y-103733974D01*
X262346696Y-102188493D01*
X263892177Y-101774382D01*
X263892177Y-101774382D01*
G37*
D11*
X255792270Y-104772966D03*
D10*
G36*
X224536654Y-28501116D02*
X224950765Y-30046597D01*
X223405284Y-30460708D01*
X222991173Y-28915227D01*
X224536654Y-28501116D01*
X224536654Y-28501116D01*
G37*
D11*
X216436747Y-31499700D03*
D10*
G36*
X229467157Y-46902002D02*
X229881268Y-48447483D01*
X228335787Y-48861594D01*
X227921676Y-47316113D01*
X229467157Y-46902002D01*
X229467157Y-46902002D01*
G37*
D11*
X221367250Y-49900586D03*
D10*
G36*
X234397660Y-65302889D02*
X234811771Y-66848370D01*
X233266290Y-67262481D01*
X232852179Y-65717000D01*
X234397660Y-65302889D01*
X234397660Y-65302889D01*
G37*
D11*
X226297753Y-68301473D03*
D10*
G36*
X291405010Y-20444799D02*
X291819121Y-21990280D01*
X290273640Y-22404391D01*
X289859529Y-20858910D01*
X291405010Y-20444799D01*
X291405010Y-20444799D01*
G37*
D11*
X283305103Y-23443383D03*
D10*
G36*
X293460373Y-39616077D02*
X293874484Y-41161558D01*
X292329003Y-41575669D01*
X291914892Y-40030188D01*
X293460373Y-39616077D01*
X293460373Y-39616077D01*
G37*
D11*
X285360466Y-42614661D03*
D10*
G36*
X303566126Y-56630260D02*
X303980237Y-58175741D01*
X302434756Y-58589852D01*
X302020645Y-57044371D01*
X303566126Y-56630260D01*
X303566126Y-56630260D01*
G37*
D11*
X295466219Y-59628844D03*
D10*
G36*
X308631546Y-91635443D02*
X309045657Y-93180924D01*
X307500176Y-93595035D01*
X307086065Y-92049554D01*
X308631546Y-91635443D01*
X308631546Y-91635443D01*
G37*
D11*
X300531639Y-94634027D03*
D10*
G36*
X333511817Y-85585107D02*
X333925928Y-87130588D01*
X332380447Y-87544699D01*
X331966336Y-85999218D01*
X333511817Y-85585107D01*
X333511817Y-85585107D01*
G37*
D11*
X325411910Y-88583691D03*
D10*
G36*
X263803679Y-27840553D02*
X264217790Y-29386034D01*
X262672309Y-29800145D01*
X262258198Y-28254664D01*
X263803679Y-27840553D01*
X263803679Y-27840553D01*
G37*
D11*
X255703772Y-30839137D03*
D10*
G36*
X268734182Y-46241441D02*
X269148293Y-47786922D01*
X267602812Y-48201033D01*
X267188701Y-46655552D01*
X268734182Y-46241441D01*
X268734182Y-46241441D01*
G37*
D11*
X260634275Y-49240025D03*
D10*
G36*
X273664685Y-64642327D02*
X274078796Y-66187808D01*
X272533315Y-66601919D01*
X272119204Y-65056438D01*
X273664685Y-64642327D01*
X273664685Y-64642327D01*
G37*
D11*
X265564778Y-67640911D03*
D10*
G36*
X278595188Y-83043214D02*
X279009299Y-84588695D01*
X277463818Y-85002806D01*
X277049707Y-83457325D01*
X278595188Y-83043214D01*
X278595188Y-83043214D01*
G37*
D11*
X270495281Y-86041798D03*
D12*
X35718750Y-104775000D03*
X164306250Y-71437500D03*
X292893750Y-104775000D03*
X164306250Y-150018750D03*
X21431250Y-40481250D03*
X307181250Y-40481250D03*
D13*
X258194489Y-34996869D02*
X257789065Y-36616909D01*
X263265652Y-32520604D02*
X263377314Y-33089754D01*
X64614368Y-33475051D02*
X63453240Y-34675335D01*
X70244255Y-33866123D02*
X70056383Y-34414853D01*
X84247881Y-33805332D02*
X83086753Y-35005616D01*
X89877768Y-34196404D02*
X89689896Y-34745134D01*
X103881393Y-34135613D02*
X102720265Y-35335897D01*
X109511280Y-34526685D02*
X109323408Y-35075415D01*
X121049655Y-43666337D02*
X119888527Y-44866621D01*
X126679542Y-44057409D02*
X126491670Y-44606139D01*
X138217916Y-53197062D02*
X137056788Y-54397346D01*
X143847803Y-53588134D02*
X143659931Y-54136864D01*
X184590940Y-54718880D02*
X184185516Y-56338920D01*
X189662103Y-52242615D02*
X189773765Y-52811765D01*
X201759201Y-45188155D02*
X201353777Y-46808195D01*
X206830364Y-42711890D02*
X206942026Y-43281040D01*
X218927464Y-35657431D02*
X218522040Y-37277471D01*
X223998627Y-33181166D02*
X224110289Y-33750316D01*
X238560976Y-35327150D02*
X238155552Y-36947190D01*
X243632139Y-32850885D02*
X243743801Y-33420035D01*
X54753363Y-70276825D02*
X53592235Y-71477109D01*
X60383250Y-70667897D02*
X60195378Y-71216627D01*
X123426408Y-108399723D02*
X122265280Y-109600007D01*
X129056295Y-108790795D02*
X128868423Y-109339525D01*
X285795819Y-27601114D02*
X285390395Y-29221154D01*
X290866982Y-25124849D02*
X290978644Y-25693999D01*
X89089885Y-89338274D02*
X87928757Y-90538558D01*
X94719772Y-89729346D02*
X94531900Y-90278076D01*
X268055494Y-71798643D02*
X267650070Y-73418683D01*
X273126657Y-69322378D02*
X273238319Y-69891528D01*
X233718972Y-90860092D02*
X233313548Y-92480132D01*
X238790135Y-88383827D02*
X238901797Y-88952977D01*
X94020388Y-70937387D02*
X92859260Y-72137671D01*
X99650275Y-71328459D02*
X99462403Y-71877189D01*
X27812595Y-23614045D02*
X26651467Y-24814329D01*
X33442482Y-24005117D02*
X33254610Y-24553847D01*
X238649475Y-109260980D02*
X238244051Y-110881020D01*
X243720638Y-106784715D02*
X243832300Y-107353865D01*
X98950891Y-52536499D02*
X97789763Y-53736783D01*
X104580778Y-52927571D02*
X104392906Y-53476301D01*
X191699361Y-127807425D02*
X190079321Y-127402001D01*
X194175626Y-132878588D02*
X193606476Y-132990250D01*
X297956935Y-63786576D02*
X297551511Y-65406616D01*
X303028098Y-61310311D02*
X303139760Y-61879461D01*
X46213481Y-28544548D02*
X45052353Y-29744832D01*
X51843368Y-28935620D02*
X51655496Y-29484350D01*
X111188649Y-80468111D02*
X110027521Y-81668395D01*
X116818536Y-80859183D02*
X116630664Y-81407913D01*
X101327644Y-117269885D02*
X100166516Y-118470169D01*
X106957531Y-117660957D02*
X106769659Y-118209687D01*
X128356910Y-89998836D02*
X127195782Y-91199120D01*
X133986797Y-90389908D02*
X133798925Y-90938638D01*
X194451947Y-91520655D02*
X194046523Y-93140695D01*
X199523110Y-89044390D02*
X199634772Y-89613540D01*
X223857966Y-54058318D02*
X223452542Y-55678358D01*
X228929129Y-51582053D02*
X229040791Y-52151203D01*
X211620208Y-81989930D02*
X211214784Y-83609970D01*
X216691371Y-79513665D02*
X216803033Y-80082815D01*
X228788468Y-72459205D02*
X228383044Y-74079245D01*
X233859631Y-69982940D02*
X233971293Y-70552090D01*
X248421980Y-72128924D02*
X248016556Y-73748964D01*
X253493143Y-69652659D02*
X253604805Y-70221809D01*
X84159382Y-107739160D02*
X82998254Y-108939444D01*
X89789269Y-108130232D02*
X89601397Y-108678962D01*
X150455674Y-81128674D02*
X149294546Y-82328958D01*
X156085561Y-81519746D02*
X155897689Y-82068476D01*
X44892357Y-107078599D02*
X43731229Y-108278883D01*
X50522244Y-107469671D02*
X50334372Y-108018401D01*
X221481213Y-118791703D02*
X221075789Y-120411743D01*
X226552376Y-116315438D02*
X226664038Y-116884588D01*
X118495905Y-126800610D02*
X117334777Y-128000894D01*
X124125792Y-127191682D02*
X123937920Y-127740412D01*
X216550711Y-100390817D02*
X216145287Y-102010857D01*
X221621874Y-97914552D02*
X221733536Y-98483702D01*
X199382449Y-109921541D02*
X198977025Y-111541581D01*
X204453612Y-107445276D02*
X204565274Y-108014426D01*
X24851921Y-62264758D02*
X23690793Y-63465042D01*
X30481808Y-62655830D02*
X30293936Y-63204560D01*
X243491479Y-53728037D02*
X243086055Y-55348077D01*
X248562642Y-51251772D02*
X248674304Y-51820922D01*
X263124992Y-53397756D02*
X262719568Y-55017796D01*
X268196155Y-50921491D02*
X268307817Y-51490641D01*
X253352483Y-90529811D02*
X252947059Y-92149851D01*
X258423646Y-88053546D02*
X258535308Y-88622696D01*
X145525172Y-99529560D02*
X144364044Y-100729844D01*
X151155059Y-99920632D02*
X150967187Y-100469362D01*
X177283685Y-101051379D02*
X176878261Y-102671419D01*
X182354848Y-98575114D02*
X182466510Y-99144264D01*
X286126099Y-47234628D02*
X285720675Y-48854668D01*
X291197262Y-44758363D02*
X291308924Y-45327513D01*
X59683865Y-51875938D02*
X58522737Y-53076222D01*
X65313752Y-52267010D02*
X65125880Y-52815740D01*
X272985996Y-90199530D02*
X272580572Y-91819570D01*
X278057159Y-87723265D02*
X278168821Y-88292415D01*
X116119152Y-62067224D02*
X114958024Y-63267508D01*
X121749039Y-62458296D02*
X121561167Y-63007026D01*
X204312951Y-128322428D02*
X203907527Y-129942468D01*
X209384114Y-125846163D02*
X209495776Y-126415313D01*
X172353183Y-82650492D02*
X171947759Y-84270532D01*
X177424346Y-80174227D02*
X177536008Y-80743377D01*
X323588436Y-76640647D02*
X323183012Y-78260687D01*
X328659599Y-74164382D02*
X328771261Y-74733532D01*
X277916499Y-108600417D02*
X277511075Y-110220457D01*
X282987662Y-106124152D02*
X283099324Y-106693302D01*
X298287215Y-83420089D02*
X297881791Y-85040129D01*
X303358378Y-80943824D02*
X303470040Y-81512974D01*
X74386876Y-70607105D02*
X73225748Y-71807389D01*
X80016763Y-70998177D02*
X79828891Y-71546907D01*
X15321197Y-79433019D02*
X14160069Y-80633303D01*
X20951084Y-79824091D02*
X20763212Y-80372821D01*
X135351495Y-133632964D02*
X136551779Y-134794092D01*
X135742567Y-128003077D02*
X136291297Y-128190949D01*
X133287413Y-71597949D02*
X132126285Y-72798233D01*
X138917300Y-71989021D02*
X138729428Y-72537751D01*
X36682757Y-45712809D02*
X35521629Y-46913093D01*
X42312644Y-46103881D02*
X42124772Y-46652611D01*
X206689704Y-63589043D02*
X206284280Y-65209083D01*
X211760867Y-61112778D02*
X211872529Y-61681928D01*
X258282987Y-108930698D02*
X257877563Y-110550738D01*
X263354150Y-106454433D02*
X263465812Y-107023583D01*
X106258146Y-98868999D02*
X105097018Y-100069283D01*
X111888033Y-99260071D02*
X111700161Y-99808801D01*
X79317378Y-52206219D02*
X78156250Y-53406503D01*
X84947265Y-52597291D02*
X84759393Y-53146021D01*
X64525870Y-107408880D02*
X63364742Y-108609164D01*
X70155757Y-107799952D02*
X69967885Y-108348682D01*
X69456373Y-89007993D02*
X68295245Y-90208277D01*
X75086260Y-89399065D02*
X74898388Y-89947795D01*
X189521444Y-73119767D02*
X189116020Y-74739807D01*
X194592607Y-70643502D02*
X194704269Y-71212652D01*
X49822860Y-88677712D02*
X48661732Y-89877996D01*
X55452747Y-89068784D02*
X55264875Y-89617514D01*
D14*
X156686250Y-31273750D03*
D15*
X156686250Y-33813750D03*
X156686250Y-36353750D03*
X156686250Y-38893750D03*
X156686250Y-41433750D03*
X156686250Y-43973750D03*
X156686250Y-46513750D03*
X156686250Y-49053750D03*
X156686250Y-51593750D03*
X156686250Y-54133750D03*
X156686250Y-56673750D03*
X156686250Y-59213750D03*
X171926250Y-59213750D03*
X171926250Y-56673750D03*
X171926250Y-54133750D03*
X171926250Y-51593750D03*
X171926250Y-49053750D03*
X171926250Y-46513750D03*
X171926250Y-43973750D03*
X171926250Y-41433750D03*
X171926250Y-38893750D03*
X171926250Y-36353750D03*
X171926250Y-33813750D03*
X171926250Y-31273750D03*
D16*
X146812000Y-41656000D03*
X146812000Y-35560000D03*
X146812000Y-38608000D03*
D17*
X273177000Y-32131000D03*
X272542000Y-34163000D03*
X286766000Y-78232000D03*
X286766000Y-82931000D03*
X246253000Y-89027000D03*
X244475000Y-87376000D03*
X192786000Y-83058000D03*
X191643000Y-81915000D03*
X159385000Y-92075000D03*
X156718000Y-92202000D03*
X149733000Y-92202000D03*
X147701000Y-92329000D03*
X67564000Y-95631000D03*
X65659000Y-97536000D03*
X43180000Y-99441000D03*
X43180000Y-97155000D03*
X137922000Y-106807000D03*
X137922000Y-104521000D03*
X140970000Y-90678000D03*
X142875000Y-88773000D03*
X277114000Y-43942000D03*
X273431000Y-43815000D03*
X236474000Y-46736000D03*
X233553000Y-45593000D03*
X210312000Y-35433000D03*
X204470000Y-29464000D03*
X50927000Y-44450000D03*
X46736000Y-44323000D03*
X287782000Y-83820000D03*
X286131000Y-78740000D03*
X239903000Y-64008000D03*
X236601000Y-63881000D03*
X161163000Y-77343000D03*
X151257000Y-67945000D03*
X148844000Y-67945000D03*
X51435000Y-63627000D03*
X46990000Y-63754000D03*
X246761000Y-80264000D03*
X242824000Y-80264000D03*
X63373000Y-91313000D03*
X61849000Y-92837000D03*
X263525000Y-24257000D03*
X259842000Y-46863000D03*
X258064000Y-48514000D03*
X261239000Y-65024000D03*
X261239000Y-66802000D03*
X264795000Y-83566000D03*
X264795000Y-85598000D03*
X263398000Y-97790000D03*
X263398000Y-99441000D03*
X245237000Y-100711000D03*
X242824000Y-100711000D03*
X224663000Y-105283000D03*
X224663000Y-107061000D03*
X189230000Y-122809000D03*
X187833000Y-124206000D03*
X153924000Y-128270000D03*
X153924000Y-125984000D03*
X137033000Y-108585000D03*
X137033000Y-104775000D03*
X77470000Y-104140000D03*
X77470000Y-105664000D03*
X62611000Y-93218000D03*
X63627000Y-90043000D03*
X70993000Y-64262000D03*
X70993000Y-62357000D03*
X74041000Y-45466000D03*
X74041000Y-43307000D03*
X199517000Y-31496000D03*
X197612000Y-31369000D03*
X260858000Y-44196000D03*
X249428000Y-29972000D03*
X249428000Y-28448000D03*
X215265000Y-42164000D03*
X215392000Y-44704000D03*
X219964000Y-60071000D03*
X220472000Y-62738000D03*
X224409000Y-77089000D03*
X224409000Y-79502000D03*
X227711000Y-89916000D03*
X227965000Y-92075000D03*
X230378000Y-99949000D03*
X230378000Y-101473000D03*
X229870000Y-105410000D03*
X230632000Y-107569000D03*
X213360000Y-115824000D03*
X213487000Y-114173000D03*
X130937000Y-121412000D03*
X127889000Y-121285000D03*
X98806000Y-106045000D03*
X98806000Y-104267000D03*
X102616000Y-94234000D03*
X102489000Y-91694000D03*
X103632000Y-88011000D03*
X103632000Y-86106000D03*
X103124000Y-81407000D03*
X104902000Y-79629000D03*
X111252000Y-60579000D03*
X111252000Y-58293000D03*
X114427000Y-45593000D03*
X114554000Y-42926000D03*
X74930000Y-42545000D03*
X73279000Y-45085000D03*
X273177000Y-62992000D03*
X259334000Y-61722000D03*
X258064000Y-63119000D03*
X238887000Y-55118000D03*
X237490000Y-53848000D03*
X216662000Y-49784000D03*
X214503000Y-49911000D03*
X171926250Y-43973750D03*
X177292000Y-49784000D03*
X159131000Y-47752000D03*
X152654000Y-46482000D03*
X112141000Y-49657000D03*
X110490000Y-49657000D03*
X78359000Y-62992000D03*
X77089000Y-64135000D03*
X70612000Y-65659000D03*
X69850000Y-64389000D03*
X275336000Y-80645000D03*
X264033000Y-81661000D03*
X263017000Y-82931000D03*
X238887000Y-66294000D03*
X237236000Y-66421000D03*
X221361000Y-69723000D03*
X219202000Y-70358000D03*
X184785000Y-68580000D03*
X182118000Y-68453000D03*
X162560000Y-68834000D03*
X159385000Y-68834000D03*
X153289000Y-68834000D03*
X148971000Y-68961000D03*
X107696000Y-67945000D03*
X106172000Y-68072000D03*
X71247000Y-77089000D03*
X66294000Y-82042000D03*
X61468000Y-86360000D03*
X60071000Y-87630000D03*
X163703000Y-37592000D03*
X164719000Y-36576000D03*
D18*
X156686250Y-33813750D02*
X151034750Y-33813750D01*
X37330941Y-19050000D02*
X35519487Y-20861454D01*
X50419000Y-19050000D02*
X37330941Y-19050000D01*
X56134000Y-24765000D02*
X50419000Y-19050000D01*
X110998000Y-24765000D02*
X56134000Y-24765000D01*
X113919000Y-27686000D02*
X110998000Y-24765000D01*
X129159000Y-27686000D02*
X113919000Y-27686000D01*
X131318000Y-29845000D02*
X129159000Y-27686000D01*
X147066000Y-29845000D02*
X131318000Y-29845000D01*
X151034750Y-33813750D02*
X147066000Y-29845000D01*
X283535032Y-102269819D02*
X283535032Y-101528968D01*
X283535032Y-101528968D02*
X286766000Y-98298000D01*
X288337730Y-18923000D02*
X290839325Y-21424595D01*
X279781000Y-18923000D02*
X288337730Y-18923000D01*
X271907000Y-26797000D02*
X279781000Y-18923000D01*
X271907000Y-30861000D02*
X271907000Y-26797000D01*
X273177000Y-32131000D02*
X271907000Y-30861000D01*
X275209000Y-36830000D02*
X272542000Y-34163000D01*
X275209000Y-48768000D02*
X275209000Y-36830000D01*
X282321000Y-55880000D02*
X275209000Y-48768000D01*
X282321000Y-73787000D02*
X282321000Y-55880000D01*
X286766000Y-78232000D02*
X282321000Y-73787000D01*
X286766000Y-98298000D02*
X286766000Y-82931000D01*
X238762477Y-84683573D02*
X241782573Y-84683573D01*
X279944213Y-98679000D02*
X283535032Y-102269819D01*
X251333000Y-98679000D02*
X279944213Y-98679000D01*
X249428000Y-96774000D02*
X251333000Y-98679000D01*
X249428000Y-92202000D02*
X249428000Y-96774000D01*
X246253000Y-89027000D02*
X249428000Y-92202000D01*
X241782573Y-84683573D02*
X244475000Y-87376000D01*
X198920423Y-85498212D02*
X204497212Y-85498212D01*
X235308050Y-88138000D02*
X238762477Y-84683573D01*
X233426000Y-88138000D02*
X235308050Y-88138000D01*
X230632000Y-90932000D02*
X233426000Y-88138000D01*
X209931000Y-90932000D02*
X230632000Y-90932000D01*
X204497212Y-85498212D02*
X209931000Y-90932000D01*
X136063803Y-87246244D02*
X138935244Y-87246244D01*
X195226212Y-85498212D02*
X198920423Y-85498212D01*
X192786000Y-83058000D02*
X195226212Y-85498212D01*
X184150000Y-89408000D02*
X191643000Y-81915000D01*
X162052000Y-89408000D02*
X184150000Y-89408000D01*
X159385000Y-92075000D02*
X162052000Y-89408000D01*
X149733000Y-92202000D02*
X156718000Y-92202000D01*
X144018000Y-92329000D02*
X147701000Y-92329000D01*
X138935244Y-87246244D02*
X144018000Y-92329000D01*
X96067672Y-87006631D02*
X109104631Y-87006631D01*
X127000000Y-87884000D02*
X135426047Y-87884000D01*
X125857000Y-89027000D02*
X127000000Y-87884000D01*
X111125000Y-89027000D02*
X125857000Y-89027000D01*
X109104631Y-87006631D02*
X111125000Y-89027000D01*
X135426047Y-87884000D02*
X136063803Y-87246244D01*
X52599249Y-104326007D02*
X58868993Y-104326007D01*
X87618369Y-87006631D02*
X96067672Y-87006631D01*
X77851000Y-96774000D02*
X87618369Y-87006631D01*
X68707000Y-96774000D02*
X77851000Y-96774000D01*
X67564000Y-95631000D02*
X68707000Y-96774000D01*
X58868993Y-104326007D02*
X65659000Y-97536000D01*
X35519487Y-20861454D02*
X38641454Y-20861454D01*
X48730242Y-100457000D02*
X52599249Y-104326007D01*
X44196000Y-100457000D02*
X48730242Y-100457000D01*
X43180000Y-99441000D02*
X44196000Y-100457000D01*
X43180000Y-97028000D02*
X43180000Y-97155000D01*
X43180000Y-87630000D02*
X43180000Y-97028000D01*
X48387000Y-82423000D02*
X43180000Y-87630000D01*
X48387000Y-44450000D02*
X48387000Y-82423000D01*
X38100000Y-34163000D02*
X48387000Y-44450000D01*
X38100000Y-21402908D02*
X38100000Y-34163000D01*
X38641454Y-20861454D02*
X38100000Y-21402908D01*
X91866275Y-104986569D02*
X75522569Y-104986569D01*
X54737000Y-27029531D02*
X53345347Y-25637878D01*
X54737000Y-30353000D02*
X54737000Y-27029531D01*
X50038000Y-35052000D02*
X54737000Y-30353000D01*
X50038000Y-76327000D02*
X50038000Y-35052000D01*
X62230000Y-88519000D02*
X50038000Y-76327000D01*
X62230000Y-91694000D02*
X62230000Y-88519000D01*
X75522569Y-104986569D02*
X62230000Y-91694000D01*
X243604481Y-29150630D02*
X250884370Y-29150630D01*
X290017815Y-37719000D02*
X292894688Y-40595873D01*
X277749000Y-37719000D02*
X290017815Y-37719000D01*
X265049000Y-25019000D02*
X277749000Y-37719000D01*
X255016000Y-25019000D02*
X265049000Y-25019000D01*
X250884370Y-29150630D02*
X255016000Y-25019000D01*
X243692980Y-103084459D02*
X243692980Y-94889020D01*
X240978370Y-29150630D02*
X243604481Y-29150630D01*
X234823000Y-35306000D02*
X240978370Y-29150630D01*
X234823000Y-48133000D02*
X234823000Y-35306000D01*
X238125000Y-51435000D02*
X234823000Y-48133000D01*
X238125000Y-67564000D02*
X238125000Y-51435000D01*
X245237000Y-74676000D02*
X238125000Y-67564000D01*
X245237000Y-93345000D02*
X245237000Y-74676000D01*
X243692980Y-94889020D02*
X245237000Y-93345000D01*
X204425955Y-103745021D02*
X210298021Y-103745021D01*
X234862541Y-103084459D02*
X243692980Y-103084459D01*
X231648000Y-106299000D02*
X234862541Y-103084459D01*
X212852000Y-106299000D02*
X231648000Y-106299000D01*
X210298021Y-103745021D02*
X212852000Y-106299000D01*
X131133301Y-105647132D02*
X143112132Y-105647132D01*
X187973979Y-103745021D02*
X204425955Y-103745021D01*
X174752000Y-116967000D02*
X187973979Y-103745021D01*
X154432000Y-116967000D02*
X174752000Y-116967000D01*
X143112132Y-105647132D02*
X154432000Y-116967000D01*
X91866275Y-104986569D02*
X100922569Y-104986569D01*
X123206868Y-105647132D02*
X131133301Y-105647132D01*
X122174000Y-106680000D02*
X123206868Y-105647132D01*
X102616000Y-106680000D02*
X122174000Y-106680000D01*
X100922569Y-104986569D02*
X102616000Y-106680000D01*
X91954773Y-31052740D02*
X93153260Y-31052740D01*
X153066750Y-41433750D02*
X156686250Y-41433750D01*
X152273000Y-40640000D02*
X153066750Y-41433750D01*
X152273000Y-36195000D02*
X152273000Y-40640000D01*
X148590000Y-32512000D02*
X152273000Y-36195000D01*
X117602000Y-32512000D02*
X148590000Y-32512000D01*
X110617000Y-25527000D02*
X117602000Y-32512000D01*
X98679000Y-25527000D02*
X110617000Y-25527000D01*
X93153260Y-31052740D02*
X98679000Y-25527000D01*
X53345347Y-25637878D02*
X86539911Y-25637878D01*
X86539911Y-25637878D02*
X91954773Y-31052740D01*
X156686250Y-43973750D02*
X134016750Y-43973750D01*
X130956746Y-40913746D02*
X128756548Y-40913746D01*
X134016750Y-43973750D02*
X130956746Y-40913746D01*
X126202798Y-124048018D02*
X142209018Y-124048018D01*
X207733550Y-120523000D02*
X209356458Y-122145908D01*
X203327000Y-120523000D02*
X207733550Y-120523000D01*
X200406000Y-123444000D02*
X203327000Y-120523000D01*
X187452000Y-123444000D02*
X200406000Y-123444000D01*
X183769000Y-127127000D02*
X187452000Y-123444000D01*
X145288000Y-127127000D02*
X183769000Y-127127000D01*
X142209018Y-124048018D02*
X145288000Y-127127000D01*
X156686250Y-43973750D02*
X156305250Y-43973750D01*
X156305250Y-43973750D02*
X149733000Y-50546000D01*
X133604000Y-116646816D02*
X126202798Y-124048018D01*
X133604000Y-111125000D02*
X133604000Y-116646816D01*
X137922000Y-106807000D02*
X133604000Y-111125000D01*
X137922000Y-93726000D02*
X137922000Y-104521000D01*
X140970000Y-90678000D02*
X137922000Y-93726000D01*
X142875000Y-76073000D02*
X142875000Y-88773000D01*
X149733000Y-69215000D02*
X142875000Y-76073000D01*
X149733000Y-50546000D02*
X149733000Y-69215000D01*
X248534984Y-47551517D02*
X260169483Y-47551517D01*
X301016385Y-55626000D02*
X303000441Y-57610056D01*
X283083000Y-55626000D02*
X301016385Y-55626000D01*
X277368000Y-49911000D02*
X283083000Y-55626000D01*
X277368000Y-44196000D02*
X277368000Y-49911000D01*
X277114000Y-43942000D02*
X277368000Y-44196000D01*
X263906000Y-43815000D02*
X273431000Y-43815000D01*
X260169483Y-47551517D02*
X263906000Y-43815000D01*
X206802708Y-39011635D02*
X211096635Y-39011635D01*
X246195467Y-45212000D02*
X248534984Y-47551517D01*
X237998000Y-45212000D02*
X246195467Y-45212000D01*
X236474000Y-46736000D02*
X237998000Y-45212000D01*
X217678000Y-45593000D02*
X233553000Y-45593000D01*
X211096635Y-39011635D02*
X217678000Y-45593000D01*
X156686250Y-43973750D02*
X156686250Y-43465750D01*
X156686250Y-43465750D02*
X170688000Y-29464000D01*
X210312000Y-35433000D02*
X206802708Y-38942292D01*
X170688000Y-29464000D02*
X204470000Y-29464000D01*
X206802708Y-38942292D02*
X206802708Y-39011635D01*
X86295165Y-49874576D02*
X91222424Y-49874576D01*
X91222424Y-49874576D02*
X95758000Y-45339000D01*
X95758000Y-45339000D02*
X113284000Y-45339000D01*
X113284000Y-45339000D02*
X115189000Y-43434000D01*
X115189000Y-43434000D02*
X115189000Y-40132000D01*
X115189000Y-40132000D02*
X119253000Y-36068000D01*
X119253000Y-36068000D02*
X123910802Y-36068000D01*
X123910802Y-36068000D02*
X128756548Y-40913746D01*
X43814622Y-42806139D02*
X45219139Y-42806139D01*
X86295165Y-48068165D02*
X86295165Y-49874576D01*
X82296000Y-44069000D02*
X86295165Y-48068165D01*
X51308000Y-44069000D02*
X82296000Y-44069000D01*
X50927000Y-44450000D02*
X51308000Y-44069000D01*
X45219139Y-42806139D02*
X46736000Y-44323000D01*
X253465487Y-65952404D02*
X265136596Y-65952404D01*
X304034100Y-96647000D02*
X308065861Y-92615239D01*
X297053000Y-96647000D02*
X304034100Y-96647000D01*
X295275000Y-94869000D02*
X297053000Y-96647000D01*
X295275000Y-91313000D02*
X295275000Y-94869000D01*
X287782000Y-83820000D02*
X295275000Y-91313000D01*
X281813000Y-74422000D02*
X286131000Y-78740000D01*
X281813000Y-64389000D02*
X281813000Y-74422000D01*
X281178000Y-63754000D02*
X281813000Y-64389000D01*
X267335000Y-63754000D02*
X281178000Y-63754000D01*
X265136596Y-65952404D02*
X267335000Y-63754000D01*
X211733211Y-57412523D02*
X216289523Y-57412523D01*
X250229404Y-65952404D02*
X253465487Y-65952404D01*
X249428000Y-65151000D02*
X250229404Y-65952404D01*
X241046000Y-65151000D02*
X249428000Y-65151000D01*
X239903000Y-64008000D02*
X241046000Y-65151000D01*
X222758000Y-63881000D02*
X236601000Y-63881000D01*
X216289523Y-57412523D02*
X222758000Y-63881000D01*
X177396688Y-76473971D02*
X177396688Y-74444312D01*
X209692688Y-55372000D02*
X211733211Y-57412523D01*
X204851000Y-55372000D02*
X209692688Y-55372000D01*
X194818000Y-65405000D02*
X204851000Y-55372000D01*
X186436000Y-65405000D02*
X194818000Y-65405000D01*
X177396688Y-74444312D02*
X186436000Y-65405000D01*
X161163000Y-77343000D02*
X167894000Y-77343000D01*
X175471717Y-74549000D02*
X177396688Y-76473971D01*
X170688000Y-74549000D02*
X175471717Y-74549000D01*
X167894000Y-77343000D02*
X170688000Y-74549000D01*
X156686250Y-46513750D02*
X156686250Y-46704250D01*
X156686250Y-46704250D02*
X161163000Y-51181000D01*
X161163000Y-51181000D02*
X161163000Y-77343000D01*
X123826045Y-59314633D02*
X125481633Y-59314633D01*
X158162567Y-74850567D02*
X158162567Y-78376082D01*
X151257000Y-67945000D02*
X158162567Y-74850567D01*
X144018000Y-67945000D02*
X148844000Y-67945000D01*
X140843000Y-64770000D02*
X144018000Y-67945000D01*
X130937000Y-64770000D02*
X140843000Y-64770000D01*
X125481633Y-59314633D02*
X130937000Y-64770000D01*
X81518741Y-67700436D02*
X86731564Y-67700436D01*
X120391412Y-55880000D02*
X123826045Y-59314633D01*
X114808000Y-55880000D02*
X120391412Y-55880000D01*
X107442000Y-63246000D02*
X114808000Y-55880000D01*
X91186000Y-63246000D02*
X107442000Y-63246000D01*
X86731564Y-67700436D02*
X91186000Y-63246000D01*
X32558814Y-59512166D02*
X42748166Y-59512166D01*
X77470000Y-63373000D02*
X81518741Y-67421741D01*
X51689000Y-63373000D02*
X77470000Y-63373000D01*
X51435000Y-63627000D02*
X51689000Y-63373000D01*
X42748166Y-59512166D02*
X46990000Y-63754000D01*
X81518741Y-67421741D02*
X81518741Y-67700436D01*
X156686250Y-49053750D02*
X157384750Y-49053750D01*
X157384750Y-49053750D02*
X160401000Y-52070000D01*
X160401000Y-52070000D02*
X160401000Y-89608034D01*
X160401000Y-89608034D02*
X153232065Y-96776969D01*
X258395990Y-84353291D02*
X267309709Y-84353291D01*
X325070903Y-86564903D02*
X332946132Y-86564903D01*
X315976000Y-77470000D02*
X325070903Y-86564903D01*
X299212000Y-77470000D02*
X315976000Y-77470000D01*
X295021000Y-81661000D02*
X299212000Y-77470000D01*
X270002000Y-81661000D02*
X295021000Y-81661000D01*
X267309709Y-84353291D02*
X270002000Y-81661000D01*
X216663713Y-75813410D02*
X221736410Y-75813410D01*
X250850291Y-84353291D02*
X258395990Y-84353291D01*
X246761000Y-80264000D02*
X250850291Y-84353291D01*
X226187000Y-80264000D02*
X242824000Y-80264000D01*
X221736410Y-75813410D02*
X226187000Y-80264000D01*
X182481269Y-95449886D02*
X182481269Y-92219731D01*
X207777590Y-75813410D02*
X216663713Y-75813410D01*
X205359000Y-78232000D02*
X207777590Y-75813410D01*
X196469000Y-78232000D02*
X205359000Y-78232000D01*
X182481269Y-92219731D02*
X196469000Y-78232000D01*
X153232065Y-96776969D02*
X170812031Y-96776969D01*
X172139114Y-95449886D02*
X182481269Y-95449886D01*
X170812031Y-96776969D02*
X172139114Y-95449886D01*
X118895542Y-77715519D02*
X130420519Y-77715519D01*
X148149096Y-91694000D02*
X153232065Y-96776969D01*
X144399000Y-91694000D02*
X148149096Y-91694000D01*
X130420519Y-77715519D02*
X144399000Y-91694000D01*
X76588238Y-86101322D02*
X83570678Y-86101322D01*
X110117481Y-77715519D02*
X118895542Y-77715519D01*
X107442000Y-80391000D02*
X110117481Y-77715519D01*
X89281000Y-80391000D02*
X107442000Y-80391000D01*
X83570678Y-86101322D02*
X89281000Y-80391000D01*
X17984794Y-93202153D02*
X17984794Y-94692794D01*
X68584678Y-86101322D02*
X76588238Y-86101322D01*
X63373000Y-91313000D02*
X68584678Y-86101322D01*
X56261000Y-98425000D02*
X61849000Y-92837000D01*
X21717000Y-98425000D02*
X56261000Y-98425000D01*
X17984794Y-94692794D02*
X21717000Y-98425000D01*
X171926250Y-49053750D02*
X180816250Y-49053750D01*
X254889000Y-24257000D02*
X263525000Y-24257000D01*
X253873000Y-25273000D02*
X254889000Y-24257000D01*
X210058000Y-25273000D02*
X253873000Y-25273000D01*
X205105000Y-30226000D02*
X210058000Y-25273000D01*
X199644000Y-30226000D02*
X205105000Y-30226000D01*
X180816250Y-49053750D02*
X199644000Y-30226000D01*
X263326492Y-102754178D02*
X263326492Y-99512508D01*
X265557000Y-31139355D02*
X263237994Y-28820349D01*
X265557000Y-41148000D02*
X265557000Y-31139355D01*
X259842000Y-46863000D02*
X265557000Y-41148000D01*
X258064000Y-61849000D02*
X258064000Y-48514000D01*
X261239000Y-65024000D02*
X258064000Y-61849000D01*
X261239000Y-80010000D02*
X261239000Y-66802000D01*
X264795000Y-83566000D02*
X261239000Y-80010000D01*
X264795000Y-96393000D02*
X264795000Y-85598000D01*
X263398000Y-97790000D02*
X264795000Y-96393000D01*
X263326492Y-99512508D02*
X263398000Y-99441000D01*
X221019187Y-94368375D02*
X223654375Y-94368375D01*
X260615178Y-102754178D02*
X263326492Y-102754178D01*
X259842000Y-101981000D02*
X260615178Y-102754178D01*
X246507000Y-101981000D02*
X259842000Y-101981000D01*
X245237000Y-100711000D02*
X246507000Y-101981000D01*
X229997000Y-100711000D02*
X242824000Y-100711000D01*
X223654375Y-94368375D02*
X229997000Y-100711000D01*
X180075958Y-138343361D02*
X180680639Y-138343361D01*
X180680639Y-138343361D02*
X184404000Y-134620000D01*
X224917000Y-98266188D02*
X221019187Y-94368375D01*
X224917000Y-98679000D02*
X224917000Y-98266188D01*
X223647000Y-99949000D02*
X224917000Y-98679000D01*
X223647000Y-104267000D02*
X223647000Y-99949000D01*
X224663000Y-105283000D02*
X223647000Y-104267000D01*
X221742000Y-107061000D02*
X224663000Y-107061000D01*
X213868000Y-114935000D02*
X221742000Y-107061000D01*
X207772000Y-114935000D02*
X213868000Y-114935000D01*
X200152000Y-122555000D02*
X207772000Y-114935000D01*
X189484000Y-122555000D02*
X200152000Y-122555000D01*
X189230000Y-122809000D02*
X189484000Y-122555000D01*
X184404000Y-127635000D02*
X187833000Y-124206000D01*
X184404000Y-134620000D02*
X184404000Y-127635000D01*
X147949076Y-138226683D02*
X179959280Y-138226683D01*
X179959280Y-138226683D02*
X180075958Y-138343361D01*
X114540067Y-96270485D02*
X120019485Y-96270485D01*
X151384000Y-134791759D02*
X147949076Y-138226683D01*
X151384000Y-130810000D02*
X151384000Y-134791759D01*
X153924000Y-128270000D02*
X151384000Y-130810000D01*
X153924000Y-120650000D02*
X153924000Y-125984000D01*
X149479000Y-116205000D02*
X153924000Y-120650000D01*
X144653000Y-116205000D02*
X149479000Y-116205000D01*
X137033000Y-108585000D02*
X144653000Y-116205000D01*
X134493000Y-104775000D02*
X137033000Y-104775000D01*
X131572000Y-101854000D02*
X134493000Y-104775000D01*
X125603000Y-101854000D02*
X131572000Y-101854000D01*
X120019485Y-96270485D02*
X125603000Y-101854000D01*
X71503656Y-105077237D02*
X74851237Y-105077237D01*
X114540067Y-94220067D02*
X114540067Y-96270485D01*
X112395000Y-92075000D02*
X114540067Y-94220067D01*
X103378000Y-92075000D02*
X112395000Y-92075000D01*
X94615000Y-100838000D02*
X103378000Y-92075000D01*
X80772000Y-100838000D02*
X94615000Y-100838000D01*
X77470000Y-104140000D02*
X80772000Y-100838000D01*
X75438000Y-105664000D02*
X77470000Y-105664000D01*
X74851237Y-105077237D02*
X75438000Y-105664000D01*
X72321261Y-30722459D02*
X72321261Y-36761261D01*
X71503656Y-102110656D02*
X71503656Y-105077237D01*
X62611000Y-93218000D02*
X71503656Y-102110656D01*
X63627000Y-87122000D02*
X63627000Y-90043000D01*
X66929000Y-83820000D02*
X63627000Y-87122000D01*
X66929000Y-68326000D02*
X66929000Y-83820000D01*
X70993000Y-64262000D02*
X66929000Y-68326000D01*
X70993000Y-48514000D02*
X70993000Y-62357000D01*
X74041000Y-45466000D02*
X70993000Y-48514000D01*
X74041000Y-38481000D02*
X74041000Y-43307000D01*
X72321261Y-36761261D02*
X74041000Y-38481000D01*
X171926250Y-46513750D02*
X180562250Y-46513750D01*
X213741000Y-30734000D02*
X213995000Y-30988000D01*
X200279000Y-30734000D02*
X213741000Y-30734000D01*
X199517000Y-31496000D02*
X200279000Y-30734000D01*
X195707000Y-31369000D02*
X197612000Y-31369000D01*
X180562250Y-46513750D02*
X195707000Y-31369000D01*
X223970969Y-29480912D02*
X235441088Y-29480912D01*
X256794000Y-44196000D02*
X260858000Y-44196000D01*
X252349000Y-39751000D02*
X256794000Y-44196000D01*
X252349000Y-32893000D02*
X252349000Y-39751000D01*
X249428000Y-29972000D02*
X252349000Y-32893000D01*
X248031000Y-27051000D02*
X249428000Y-28448000D01*
X237871000Y-27051000D02*
X248031000Y-27051000D01*
X235441088Y-29480912D02*
X237871000Y-27051000D01*
X226524719Y-112615184D02*
X226524719Y-111676281D01*
X221795057Y-27305000D02*
X223970969Y-29480912D01*
X217678000Y-27305000D02*
X221795057Y-27305000D01*
X213995000Y-30988000D02*
X217678000Y-27305000D01*
X213995000Y-40894000D02*
X213995000Y-30988000D01*
X215265000Y-42164000D02*
X213995000Y-40894000D01*
X215392000Y-55499000D02*
X215392000Y-44704000D01*
X219964000Y-60071000D02*
X215392000Y-55499000D01*
X220472000Y-73152000D02*
X220472000Y-62738000D01*
X224409000Y-77089000D02*
X220472000Y-73152000D01*
X224282000Y-79629000D02*
X224409000Y-79502000D01*
X224282000Y-86487000D02*
X224282000Y-79629000D01*
X227711000Y-89916000D02*
X224282000Y-86487000D01*
X226695000Y-93345000D02*
X227965000Y-92075000D01*
X226695000Y-96266000D02*
X226695000Y-93345000D01*
X230378000Y-99949000D02*
X226695000Y-96266000D01*
X230378000Y-104902000D02*
X230378000Y-101473000D01*
X229870000Y-105410000D02*
X230378000Y-104902000D01*
X226524719Y-111676281D02*
X230632000Y-107569000D01*
X108880458Y-115092320D02*
X120299320Y-115092320D01*
X222875535Y-108966000D02*
X226524719Y-112615184D01*
X220726000Y-108966000D02*
X222875535Y-108966000D01*
X214249000Y-115443000D02*
X220726000Y-108966000D01*
X213741000Y-115443000D02*
X214249000Y-115443000D01*
X213360000Y-115824000D02*
X213741000Y-115443000D01*
X207391000Y-114173000D02*
X213487000Y-114173000D01*
X199771000Y-121793000D02*
X207391000Y-114173000D01*
X188214000Y-121793000D02*
X199771000Y-121793000D01*
X183388000Y-126619000D02*
X188214000Y-121793000D01*
X145923000Y-126619000D02*
X183388000Y-126619000D01*
X142494000Y-123190000D02*
X145923000Y-126619000D01*
X132715000Y-123190000D02*
X142494000Y-123190000D01*
X130937000Y-121412000D02*
X132715000Y-123190000D01*
X126492000Y-121285000D02*
X127889000Y-121285000D01*
X120299320Y-115092320D02*
X126492000Y-121285000D01*
X111588286Y-31383021D02*
X113425021Y-31383021D01*
X105421138Y-111633000D02*
X108880458Y-115092320D01*
X104394000Y-111633000D02*
X105421138Y-111633000D01*
X98806000Y-106045000D02*
X104394000Y-111633000D01*
X98806000Y-98044000D02*
X98806000Y-104267000D01*
X102616000Y-94234000D02*
X98806000Y-98044000D01*
X102489000Y-89154000D02*
X102489000Y-91694000D01*
X103632000Y-88011000D02*
X102489000Y-89154000D01*
X103632000Y-81915000D02*
X103632000Y-86106000D01*
X103124000Y-81407000D02*
X103632000Y-81915000D01*
X107061000Y-77470000D02*
X104902000Y-79629000D01*
X107061000Y-64770000D02*
X107061000Y-77470000D01*
X111252000Y-60579000D02*
X107061000Y-64770000D01*
X111252000Y-48768000D02*
X111252000Y-58293000D01*
X114427000Y-45593000D02*
X111252000Y-48768000D01*
X114554000Y-39624000D02*
X114554000Y-42926000D01*
X115697000Y-38481000D02*
X114554000Y-39624000D01*
X115697000Y-33655000D02*
X115697000Y-38481000D01*
X113425021Y-31383021D02*
X115697000Y-33655000D01*
X67390757Y-49123346D02*
X69240654Y-49123346D01*
X111588286Y-28784286D02*
X111588286Y-31383021D01*
X109474000Y-26670000D02*
X111588286Y-28784286D01*
X102108000Y-26670000D02*
X109474000Y-26670000D01*
X96520000Y-32258000D02*
X102108000Y-26670000D01*
X96520000Y-38862000D02*
X96520000Y-32258000D01*
X92075000Y-43307000D02*
X96520000Y-38862000D01*
X75692000Y-43307000D02*
X92075000Y-43307000D01*
X74930000Y-42545000D02*
X75692000Y-43307000D01*
X69240654Y-49123346D02*
X73279000Y-45085000D01*
X228901472Y-47881798D02*
X233555798Y-47881798D01*
X260604000Y-62992000D02*
X273177000Y-62992000D01*
X259334000Y-61722000D02*
X260604000Y-62992000D01*
X243205000Y-63119000D02*
X258064000Y-63119000D01*
X238760000Y-58674000D02*
X243205000Y-63119000D01*
X238760000Y-55245000D02*
X238760000Y-58674000D01*
X238887000Y-55118000D02*
X238760000Y-55245000D01*
X237490000Y-51816000D02*
X237490000Y-53848000D01*
X233555798Y-47881798D02*
X237490000Y-51816000D01*
X190209473Y-48388282D02*
X194819282Y-48388282D01*
X227374674Y-46355000D02*
X228901472Y-47881798D01*
X220091000Y-46355000D02*
X227374674Y-46355000D01*
X216662000Y-49784000D02*
X220091000Y-46355000D01*
X210058000Y-54356000D02*
X214503000Y-49911000D01*
X200787000Y-54356000D02*
X210058000Y-54356000D01*
X194819282Y-48388282D02*
X200787000Y-54356000D01*
X187160191Y-45339000D02*
X190209473Y-48388282D01*
X185674000Y-45339000D02*
X187160191Y-45339000D01*
X181229000Y-49784000D02*
X185674000Y-45339000D01*
X177292000Y-49784000D02*
X181229000Y-49784000D01*
X145924809Y-50444471D02*
X148691529Y-50444471D01*
X162909250Y-43973750D02*
X171926250Y-43973750D01*
X159131000Y-47752000D02*
X162909250Y-43973750D01*
X148691529Y-50444471D02*
X152654000Y-46482000D01*
X106082756Y-49629830D02*
X110462830Y-49629830D01*
X145924809Y-47372809D02*
X145924809Y-50444471D01*
X144780000Y-46228000D02*
X145924809Y-47372809D01*
X136652000Y-46228000D02*
X144780000Y-46228000D01*
X129286000Y-53594000D02*
X136652000Y-46228000D01*
X116078000Y-53594000D02*
X129286000Y-53594000D01*
X112141000Y-49657000D02*
X116078000Y-53594000D01*
X110462830Y-49629830D02*
X110490000Y-49657000D01*
X62460255Y-67524233D02*
X66714767Y-67524233D01*
X108077000Y-51624074D02*
X106082756Y-49629830D01*
X108077000Y-53467000D02*
X108077000Y-51624074D01*
X103886000Y-57658000D02*
X108077000Y-53467000D01*
X103886000Y-58928000D02*
X103886000Y-57658000D01*
X100330000Y-62484000D02*
X103886000Y-58928000D01*
X78867000Y-62484000D02*
X100330000Y-62484000D01*
X78359000Y-62992000D02*
X78867000Y-62484000D01*
X72136000Y-64135000D02*
X77089000Y-64135000D01*
X70612000Y-65659000D02*
X72136000Y-64135000D01*
X66714767Y-67524233D02*
X69850000Y-64389000D01*
X233831975Y-66282685D02*
X237097685Y-66282685D01*
X265049000Y-80645000D02*
X275336000Y-80645000D01*
X264033000Y-81661000D02*
X265049000Y-80645000D01*
X250571000Y-82931000D02*
X263017000Y-82931000D01*
X245872000Y-78232000D02*
X250571000Y-82931000D01*
X245872000Y-73279000D02*
X245872000Y-78232000D01*
X238887000Y-66294000D02*
X245872000Y-73279000D01*
X237097685Y-66282685D02*
X237236000Y-66421000D01*
X195139976Y-66789169D02*
X199631169Y-66789169D01*
X224801315Y-66282685D02*
X233831975Y-66282685D01*
X221361000Y-69723000D02*
X224801315Y-66282685D01*
X203200000Y-70358000D02*
X219202000Y-70358000D01*
X199631169Y-66789169D02*
X203200000Y-70358000D01*
X140994306Y-68845357D02*
X148855357Y-68845357D01*
X186575831Y-66789169D02*
X195139976Y-66789169D01*
X184785000Y-68580000D02*
X186575831Y-66789169D01*
X162941000Y-68453000D02*
X182118000Y-68453000D01*
X162560000Y-68834000D02*
X162941000Y-68453000D01*
X153289000Y-68834000D02*
X159385000Y-68834000D01*
X148855357Y-68845357D02*
X148971000Y-68961000D01*
X101152253Y-68030717D02*
X106130717Y-68030717D01*
X141478000Y-73406000D02*
X141478000Y-69329051D01*
X138176000Y-76708000D02*
X141478000Y-73406000D01*
X138176000Y-77597000D02*
X138176000Y-76708000D01*
X136144000Y-79629000D02*
X138176000Y-77597000D01*
X133604000Y-79629000D02*
X136144000Y-79629000D01*
X130683000Y-76708000D02*
X133604000Y-79629000D01*
X126873000Y-76708000D02*
X130683000Y-76708000D01*
X123063000Y-72898000D02*
X126873000Y-76708000D01*
X112649000Y-72898000D02*
X123063000Y-72898000D01*
X107696000Y-67945000D02*
X112649000Y-72898000D01*
X106130717Y-68030717D02*
X106172000Y-68072000D01*
X141478000Y-69329051D02*
X140994306Y-68845357D01*
X57529752Y-85925120D02*
X58366120Y-85925120D01*
X101854000Y-68732464D02*
X101152253Y-68030717D01*
X101854000Y-72644000D02*
X101854000Y-68732464D01*
X99314000Y-75184000D02*
X101854000Y-72644000D01*
X99314000Y-76327000D02*
X99314000Y-75184000D01*
X96012000Y-79629000D02*
X99314000Y-76327000D01*
X73787000Y-79629000D02*
X96012000Y-79629000D01*
X71247000Y-77089000D02*
X73787000Y-79629000D01*
X65786000Y-82042000D02*
X66294000Y-82042000D01*
X61468000Y-86360000D02*
X65786000Y-82042000D01*
X58366120Y-85925120D02*
X60071000Y-87630000D01*
X164719000Y-36576000D02*
X163703000Y-37592000D01*
D19*
G36*
X198180325Y-30614873D02*
X198142327Y-30576808D01*
X197798799Y-30434162D01*
X197426833Y-30433838D01*
X197083057Y-30575883D01*
X197049882Y-30609000D01*
X195707000Y-30609000D01*
X195416161Y-30666852D01*
X195169599Y-30831599D01*
X180247448Y-45753750D01*
X173247453Y-45753750D01*
X173208215Y-45658786D01*
X172793552Y-45243399D01*
X173206721Y-44830950D01*
X173437287Y-44275685D01*
X173437812Y-43674453D01*
X173208215Y-43118786D01*
X172793552Y-42703399D01*
X173206721Y-42290950D01*
X173437287Y-41735685D01*
X173437812Y-41134453D01*
X173208215Y-40578786D01*
X172793552Y-40163399D01*
X173206721Y-39750950D01*
X173437287Y-39195685D01*
X173437812Y-38594453D01*
X173208215Y-38038786D01*
X172793552Y-37623399D01*
X173206721Y-37210950D01*
X173437287Y-36655685D01*
X173437812Y-36054453D01*
X173208215Y-35498786D01*
X172783450Y-35073279D01*
X172749658Y-35059247D01*
X172809646Y-34876751D01*
X171926250Y-33993355D01*
X171042854Y-34876751D01*
X171102697Y-35058806D01*
X171071286Y-35071785D01*
X170645779Y-35496550D01*
X170415213Y-36051815D01*
X170414688Y-36653047D01*
X170644285Y-37208714D01*
X171058948Y-37624101D01*
X170645779Y-38036550D01*
X170415213Y-38591815D01*
X170414688Y-39193047D01*
X170644285Y-39748714D01*
X171058948Y-40164101D01*
X170645779Y-40576550D01*
X170415213Y-41131815D01*
X170414688Y-41733047D01*
X170644285Y-42288714D01*
X171058948Y-42704101D01*
X170645779Y-43116550D01*
X170605418Y-43213750D01*
X162909250Y-43213750D01*
X162618410Y-43271602D01*
X162371849Y-43436349D01*
X158991320Y-46816878D01*
X158945833Y-46816838D01*
X158602057Y-46958883D01*
X158338808Y-47221673D01*
X158321106Y-47264304D01*
X158101989Y-47045187D01*
X158197287Y-46815685D01*
X158197812Y-46214453D01*
X157968215Y-45658786D01*
X157553552Y-45243399D01*
X157966721Y-44830950D01*
X158197287Y-44275685D01*
X158197812Y-43674453D01*
X158009090Y-43217712D01*
X167648055Y-33578747D01*
X170403368Y-33578747D01*
X170429359Y-34179418D01*
X170609223Y-34613646D01*
X170863249Y-34697146D01*
X171746645Y-33813750D01*
X172105855Y-33813750D01*
X172989251Y-34697146D01*
X173243277Y-34613646D01*
X173449132Y-34048753D01*
X173423141Y-33448082D01*
X173243277Y-33013854D01*
X172989251Y-32930354D01*
X172105855Y-33813750D01*
X171746645Y-33813750D01*
X170863249Y-32930354D01*
X170609223Y-33013854D01*
X170403368Y-33578747D01*
X167648055Y-33578747D01*
X170528988Y-30697814D01*
X170415213Y-30971815D01*
X170414688Y-31573047D01*
X170644285Y-32128714D01*
X171069050Y-32554221D01*
X171102842Y-32568253D01*
X171042854Y-32750749D01*
X171926250Y-33634145D01*
X172809646Y-32750749D01*
X172749803Y-32568694D01*
X172781214Y-32555715D01*
X173206721Y-32130950D01*
X173437287Y-31575685D01*
X173437812Y-30974453D01*
X173208215Y-30418786D01*
X173013769Y-30224000D01*
X198571198Y-30224000D01*
X198180325Y-30614873D01*
X198180325Y-30614873D01*
G37*
X198180325Y-30614873D02*
X198142327Y-30576808D01*
X197798799Y-30434162D01*
X197426833Y-30433838D01*
X197083057Y-30575883D01*
X197049882Y-30609000D01*
X195707000Y-30609000D01*
X195416161Y-30666852D01*
X195169599Y-30831599D01*
X180247448Y-45753750D01*
X173247453Y-45753750D01*
X173208215Y-45658786D01*
X172793552Y-45243399D01*
X173206721Y-44830950D01*
X173437287Y-44275685D01*
X173437812Y-43674453D01*
X173208215Y-43118786D01*
X172793552Y-42703399D01*
X173206721Y-42290950D01*
X173437287Y-41735685D01*
X173437812Y-41134453D01*
X173208215Y-40578786D01*
X172793552Y-40163399D01*
X173206721Y-39750950D01*
X173437287Y-39195685D01*
X173437812Y-38594453D01*
X173208215Y-38038786D01*
X172793552Y-37623399D01*
X173206721Y-37210950D01*
X173437287Y-36655685D01*
X173437812Y-36054453D01*
X173208215Y-35498786D01*
X172783450Y-35073279D01*
X172749658Y-35059247D01*
X172809646Y-34876751D01*
X171926250Y-33993355D01*
X171042854Y-34876751D01*
X171102697Y-35058806D01*
X171071286Y-35071785D01*
X170645779Y-35496550D01*
X170415213Y-36051815D01*
X170414688Y-36653047D01*
X170644285Y-37208714D01*
X171058948Y-37624101D01*
X170645779Y-38036550D01*
X170415213Y-38591815D01*
X170414688Y-39193047D01*
X170644285Y-39748714D01*
X171058948Y-40164101D01*
X170645779Y-40576550D01*
X170415213Y-41131815D01*
X170414688Y-41733047D01*
X170644285Y-42288714D01*
X171058948Y-42704101D01*
X170645779Y-43116550D01*
X170605418Y-43213750D01*
X162909250Y-43213750D01*
X162618410Y-43271602D01*
X162371849Y-43436349D01*
X158991320Y-46816878D01*
X158945833Y-46816838D01*
X158602057Y-46958883D01*
X158338808Y-47221673D01*
X158321106Y-47264304D01*
X158101989Y-47045187D01*
X158197287Y-46815685D01*
X158197812Y-46214453D01*
X157968215Y-45658786D01*
X157553552Y-45243399D01*
X157966721Y-44830950D01*
X158197287Y-44275685D01*
X158197812Y-43674453D01*
X158009090Y-43217712D01*
X167648055Y-33578747D01*
X170403368Y-33578747D01*
X170429359Y-34179418D01*
X170609223Y-34613646D01*
X170863249Y-34697146D01*
X171746645Y-33813750D01*
X172105855Y-33813750D01*
X172989251Y-34697146D01*
X173243277Y-34613646D01*
X173449132Y-34048753D01*
X173423141Y-33448082D01*
X173243277Y-33013854D01*
X172989251Y-32930354D01*
X172105855Y-33813750D01*
X171746645Y-33813750D01*
X170863249Y-32930354D01*
X170609223Y-33013854D01*
X170403368Y-33578747D01*
X167648055Y-33578747D01*
X170528988Y-30697814D01*
X170415213Y-30971815D01*
X170414688Y-31573047D01*
X170644285Y-32128714D01*
X171069050Y-32554221D01*
X171102842Y-32568253D01*
X171042854Y-32750749D01*
X171926250Y-33634145D01*
X172809646Y-32750749D01*
X172749803Y-32568694D01*
X172781214Y-32555715D01*
X173206721Y-32130950D01*
X173437287Y-31575685D01*
X173437812Y-30974453D01*
X173208215Y-30418786D01*
X173013769Y-30224000D01*
X198571198Y-30224000D01*
X198180325Y-30614873D01*
G36*
X117064599Y-33049401D02*
X117311161Y-33214148D01*
X117602000Y-33272000D01*
X148275198Y-33272000D01*
X151513000Y-36509802D01*
X151513000Y-40640000D01*
X151570852Y-40930839D01*
X151735599Y-41177401D01*
X152529349Y-41971151D01*
X152775911Y-42135898D01*
X153066750Y-42193750D01*
X155365047Y-42193750D01*
X155404285Y-42288714D01*
X155818948Y-42704101D01*
X155405779Y-43116550D01*
X155365418Y-43213750D01*
X134331552Y-43213750D01*
X133853961Y-42736159D01*
X145911446Y-42736159D01*
X145997852Y-42992643D01*
X146571336Y-43202458D01*
X147181460Y-43176839D01*
X147626148Y-42992643D01*
X147712554Y-42736159D01*
X146812000Y-41835605D01*
X145911446Y-42736159D01*
X133853961Y-42736159D01*
X132533138Y-41415336D01*
X145265542Y-41415336D01*
X145291161Y-42025460D01*
X145475357Y-42470148D01*
X145731841Y-42556554D01*
X146632395Y-41656000D01*
X146991605Y-41656000D01*
X147892159Y-42556554D01*
X148148643Y-42470148D01*
X148358458Y-41896664D01*
X148332839Y-41286540D01*
X148148643Y-40841852D01*
X147892159Y-40755446D01*
X146991605Y-41656000D01*
X146632395Y-41656000D01*
X145731841Y-40755446D01*
X145475357Y-40841852D01*
X145265542Y-41415336D01*
X132533138Y-41415336D01*
X131494147Y-40376345D01*
X131247585Y-40211598D01*
X130956746Y-40153746D01*
X130340420Y-40153746D01*
X130301462Y-40032118D01*
X130134019Y-39837147D01*
X129903914Y-39722682D01*
X128358433Y-39308571D01*
X128215304Y-39297700D01*
X124781595Y-35863991D01*
X145276735Y-35863991D01*
X145509932Y-36428371D01*
X145941357Y-36860551D01*
X146480112Y-37084262D01*
X145943629Y-37305932D01*
X145511449Y-37737357D01*
X145277267Y-38301330D01*
X145276735Y-38911991D01*
X145509932Y-39476371D01*
X145941357Y-39908551D01*
X146483003Y-40133462D01*
X146442540Y-40135161D01*
X145997852Y-40319357D01*
X145911446Y-40575841D01*
X146812000Y-41476395D01*
X147712554Y-40575841D01*
X147626148Y-40319357D01*
X147129538Y-40137667D01*
X147680371Y-39910068D01*
X148112551Y-39478643D01*
X148346733Y-38914670D01*
X148347265Y-38304009D01*
X148114068Y-37739629D01*
X147682643Y-37307449D01*
X147143888Y-37083738D01*
X147680371Y-36862068D01*
X148112551Y-36430643D01*
X148346733Y-35866670D01*
X148347265Y-35256009D01*
X148114068Y-34691629D01*
X147682643Y-34259449D01*
X147118670Y-34025267D01*
X146508009Y-34024735D01*
X145943629Y-34257932D01*
X145511449Y-34689357D01*
X145277267Y-35253330D01*
X145276735Y-35863991D01*
X124781595Y-35863991D01*
X124448203Y-35530599D01*
X124201641Y-35365852D01*
X123910802Y-35308000D01*
X119253000Y-35308000D01*
X118962161Y-35365852D01*
X118715599Y-35530599D01*
X116457000Y-37789198D01*
X116457000Y-33655000D01*
X116399148Y-33364161D01*
X116234401Y-33117599D01*
X113962422Y-30845620D01*
X113715860Y-30680873D01*
X113425021Y-30623021D01*
X113172158Y-30623021D01*
X113133200Y-30501393D01*
X112965757Y-30306422D01*
X112735652Y-30191957D01*
X112348286Y-30088162D01*
X112348286Y-28784286D01*
X112290434Y-28493447D01*
X112125687Y-28246885D01*
X110165802Y-26287000D01*
X110302198Y-26287000D01*
X117064599Y-33049401D01*
X117064599Y-33049401D01*
G37*
X117064599Y-33049401D02*
X117311161Y-33214148D01*
X117602000Y-33272000D01*
X148275198Y-33272000D01*
X151513000Y-36509802D01*
X151513000Y-40640000D01*
X151570852Y-40930839D01*
X151735599Y-41177401D01*
X152529349Y-41971151D01*
X152775911Y-42135898D01*
X153066750Y-42193750D01*
X155365047Y-42193750D01*
X155404285Y-42288714D01*
X155818948Y-42704101D01*
X155405779Y-43116550D01*
X155365418Y-43213750D01*
X134331552Y-43213750D01*
X133853961Y-42736159D01*
X145911446Y-42736159D01*
X145997852Y-42992643D01*
X146571336Y-43202458D01*
X147181460Y-43176839D01*
X147626148Y-42992643D01*
X147712554Y-42736159D01*
X146812000Y-41835605D01*
X145911446Y-42736159D01*
X133853961Y-42736159D01*
X132533138Y-41415336D01*
X145265542Y-41415336D01*
X145291161Y-42025460D01*
X145475357Y-42470148D01*
X145731841Y-42556554D01*
X146632395Y-41656000D01*
X146991605Y-41656000D01*
X147892159Y-42556554D01*
X148148643Y-42470148D01*
X148358458Y-41896664D01*
X148332839Y-41286540D01*
X148148643Y-40841852D01*
X147892159Y-40755446D01*
X146991605Y-41656000D01*
X146632395Y-41656000D01*
X145731841Y-40755446D01*
X145475357Y-40841852D01*
X145265542Y-41415336D01*
X132533138Y-41415336D01*
X131494147Y-40376345D01*
X131247585Y-40211598D01*
X130956746Y-40153746D01*
X130340420Y-40153746D01*
X130301462Y-40032118D01*
X130134019Y-39837147D01*
X129903914Y-39722682D01*
X128358433Y-39308571D01*
X128215304Y-39297700D01*
X124781595Y-35863991D01*
X145276735Y-35863991D01*
X145509932Y-36428371D01*
X145941357Y-36860551D01*
X146480112Y-37084262D01*
X145943629Y-37305932D01*
X145511449Y-37737357D01*
X145277267Y-38301330D01*
X145276735Y-38911991D01*
X145509932Y-39476371D01*
X145941357Y-39908551D01*
X146483003Y-40133462D01*
X146442540Y-40135161D01*
X145997852Y-40319357D01*
X145911446Y-40575841D01*
X146812000Y-41476395D01*
X147712554Y-40575841D01*
X147626148Y-40319357D01*
X147129538Y-40137667D01*
X147680371Y-39910068D01*
X148112551Y-39478643D01*
X148346733Y-38914670D01*
X148347265Y-38304009D01*
X148114068Y-37739629D01*
X147682643Y-37307449D01*
X147143888Y-37083738D01*
X147680371Y-36862068D01*
X148112551Y-36430643D01*
X148346733Y-35866670D01*
X148347265Y-35256009D01*
X148114068Y-34691629D01*
X147682643Y-34259449D01*
X147118670Y-34025267D01*
X146508009Y-34024735D01*
X145943629Y-34257932D01*
X145511449Y-34689357D01*
X145277267Y-35253330D01*
X145276735Y-35863991D01*
X124781595Y-35863991D01*
X124448203Y-35530599D01*
X124201641Y-35365852D01*
X123910802Y-35308000D01*
X119253000Y-35308000D01*
X118962161Y-35365852D01*
X118715599Y-35530599D01*
X116457000Y-37789198D01*
X116457000Y-33655000D01*
X116399148Y-33364161D01*
X116234401Y-33117599D01*
X113962422Y-30845620D01*
X113715860Y-30680873D01*
X113425021Y-30623021D01*
X113172158Y-30623021D01*
X113133200Y-30501393D01*
X112965757Y-30306422D01*
X112735652Y-30191957D01*
X112348286Y-30088162D01*
X112348286Y-28784286D01*
X112290434Y-28493447D01*
X112125687Y-28246885D01*
X110165802Y-26287000D01*
X110302198Y-26287000D01*
X117064599Y-33049401D01*
G36*
X152317724Y-29280217D02*
X152359195Y-29276883D01*
X152400000Y-29285000D01*
X169792198Y-29285000D01*
X158123235Y-40953963D01*
X157968215Y-40578786D01*
X157543450Y-40153279D01*
X157509658Y-40139247D01*
X157569646Y-39956751D01*
X156686250Y-39073355D01*
X155802854Y-39956751D01*
X155862697Y-40138806D01*
X155831286Y-40151785D01*
X155405779Y-40576550D01*
X155365418Y-40673750D01*
X153381552Y-40673750D01*
X153033000Y-40325198D01*
X153033000Y-38658747D01*
X155163368Y-38658747D01*
X155189359Y-39259418D01*
X155369223Y-39693646D01*
X155623249Y-39777146D01*
X156506645Y-38893750D01*
X156865855Y-38893750D01*
X157749251Y-39777146D01*
X158003277Y-39693646D01*
X158209132Y-39128753D01*
X158183141Y-38528082D01*
X158003277Y-38093854D01*
X157749251Y-38010354D01*
X156865855Y-38893750D01*
X156506645Y-38893750D01*
X155623249Y-38010354D01*
X155369223Y-38093854D01*
X155163368Y-38658747D01*
X153033000Y-38658747D01*
X153033000Y-37416751D01*
X155802854Y-37416751D01*
X155870896Y-37623750D01*
X155802854Y-37830749D01*
X156686250Y-38714145D01*
X157569646Y-37830749D01*
X157501604Y-37623750D01*
X157569646Y-37416751D01*
X156686250Y-36533355D01*
X155802854Y-37416751D01*
X153033000Y-37416751D01*
X153033000Y-36195000D01*
X153017833Y-36118747D01*
X155163368Y-36118747D01*
X155189359Y-36719418D01*
X155369223Y-37153646D01*
X155623249Y-37237146D01*
X156506645Y-36353750D01*
X156865855Y-36353750D01*
X157749251Y-37237146D01*
X158003277Y-37153646D01*
X158209132Y-36588753D01*
X158183141Y-35988082D01*
X158003277Y-35553854D01*
X157749251Y-35470354D01*
X156865855Y-36353750D01*
X156506645Y-36353750D01*
X155623249Y-35470354D01*
X155369223Y-35553854D01*
X155163368Y-36118747D01*
X153017833Y-36118747D01*
X152975148Y-35904161D01*
X152810401Y-35657599D01*
X151726552Y-34573750D01*
X155365047Y-34573750D01*
X155404285Y-34668714D01*
X155829050Y-35094221D01*
X155862842Y-35108253D01*
X155802854Y-35290749D01*
X156686250Y-36174145D01*
X157569646Y-35290749D01*
X157509803Y-35108694D01*
X157541214Y-35095715D01*
X157966721Y-34670950D01*
X158197287Y-34115685D01*
X158197812Y-33514453D01*
X157968215Y-32958786D01*
X157768513Y-32758735D01*
X157797867Y-32753212D01*
X158013991Y-32614140D01*
X158158981Y-32401940D01*
X158209990Y-32150050D01*
X158209990Y-30397450D01*
X158165712Y-30162133D01*
X158026640Y-29946009D01*
X157814440Y-29801019D01*
X157562550Y-29750010D01*
X155809950Y-29750010D01*
X155574633Y-29794288D01*
X155358509Y-29933360D01*
X155213519Y-30145560D01*
X155162510Y-30397450D01*
X155162510Y-32150050D01*
X155206788Y-32385367D01*
X155345860Y-32601491D01*
X155558060Y-32746481D01*
X155606407Y-32756272D01*
X155405779Y-32956550D01*
X155365418Y-33053750D01*
X151349552Y-33053750D01*
X147603401Y-29307599D01*
X147356839Y-29142852D01*
X147066000Y-29085000D01*
X131632802Y-29085000D01*
X129696401Y-27148599D01*
X129449839Y-26983852D01*
X129159000Y-26926000D01*
X114233802Y-26926000D01*
X111869001Y-24561199D01*
X152317724Y-29280217D01*
X152317724Y-29280217D01*
G37*
X152317724Y-29280217D02*
X152359195Y-29276883D01*
X152400000Y-29285000D01*
X169792198Y-29285000D01*
X158123235Y-40953963D01*
X157968215Y-40578786D01*
X157543450Y-40153279D01*
X157509658Y-40139247D01*
X157569646Y-39956751D01*
X156686250Y-39073355D01*
X155802854Y-39956751D01*
X155862697Y-40138806D01*
X155831286Y-40151785D01*
X155405779Y-40576550D01*
X155365418Y-40673750D01*
X153381552Y-40673750D01*
X153033000Y-40325198D01*
X153033000Y-38658747D01*
X155163368Y-38658747D01*
X155189359Y-39259418D01*
X155369223Y-39693646D01*
X155623249Y-39777146D01*
X156506645Y-38893750D01*
X156865855Y-38893750D01*
X157749251Y-39777146D01*
X158003277Y-39693646D01*
X158209132Y-39128753D01*
X158183141Y-38528082D01*
X158003277Y-38093854D01*
X157749251Y-38010354D01*
X156865855Y-38893750D01*
X156506645Y-38893750D01*
X155623249Y-38010354D01*
X155369223Y-38093854D01*
X155163368Y-38658747D01*
X153033000Y-38658747D01*
X153033000Y-37416751D01*
X155802854Y-37416751D01*
X155870896Y-37623750D01*
X155802854Y-37830749D01*
X156686250Y-38714145D01*
X157569646Y-37830749D01*
X157501604Y-37623750D01*
X157569646Y-37416751D01*
X156686250Y-36533355D01*
X155802854Y-37416751D01*
X153033000Y-37416751D01*
X153033000Y-36195000D01*
X153017833Y-36118747D01*
X155163368Y-36118747D01*
X155189359Y-36719418D01*
X155369223Y-37153646D01*
X155623249Y-37237146D01*
X156506645Y-36353750D01*
X156865855Y-36353750D01*
X157749251Y-37237146D01*
X158003277Y-37153646D01*
X158209132Y-36588753D01*
X158183141Y-35988082D01*
X158003277Y-35553854D01*
X157749251Y-35470354D01*
X156865855Y-36353750D01*
X156506645Y-36353750D01*
X155623249Y-35470354D01*
X155369223Y-35553854D01*
X155163368Y-36118747D01*
X153017833Y-36118747D01*
X152975148Y-35904161D01*
X152810401Y-35657599D01*
X151726552Y-34573750D01*
X155365047Y-34573750D01*
X155404285Y-34668714D01*
X155829050Y-35094221D01*
X155862842Y-35108253D01*
X155802854Y-35290749D01*
X156686250Y-36174145D01*
X157569646Y-35290749D01*
X157509803Y-35108694D01*
X157541214Y-35095715D01*
X157966721Y-34670950D01*
X158197287Y-34115685D01*
X158197812Y-33514453D01*
X157968215Y-32958786D01*
X157768513Y-32758735D01*
X157797867Y-32753212D01*
X158013991Y-32614140D01*
X158158981Y-32401940D01*
X158209990Y-32150050D01*
X158209990Y-30397450D01*
X158165712Y-30162133D01*
X158026640Y-29946009D01*
X157814440Y-29801019D01*
X157562550Y-29750010D01*
X155809950Y-29750010D01*
X155574633Y-29794288D01*
X155358509Y-29933360D01*
X155213519Y-30145560D01*
X155162510Y-30397450D01*
X155162510Y-32150050D01*
X155206788Y-32385367D01*
X155345860Y-32601491D01*
X155558060Y-32746481D01*
X155606407Y-32756272D01*
X155405779Y-32956550D01*
X155365418Y-33053750D01*
X151349552Y-33053750D01*
X147603401Y-29307599D01*
X147356839Y-29142852D01*
X147066000Y-29085000D01*
X131632802Y-29085000D01*
X129696401Y-27148599D01*
X129449839Y-26983852D01*
X129159000Y-26926000D01*
X114233802Y-26926000D01*
X111869001Y-24561199D01*
X152317724Y-29280217D01*
M02*
