M48
INCH,TZ
T1C0.016
T2C0.028
T3C0.035
T4C0.043
T5C0.059
T6C0.110
%
G90
G05
T1
X1.7Y-3.825
X1.7Y-3.915
X1.84Y-1.745
X1.85Y-2.51
X2.005Y-1.75
X2.025Y-2.505
X2.365Y-3.45
X2.42Y-3.4
X2.435Y-3.655
X2.465Y-3.67
X2.495Y-3.595
X2.505Y-3.545
X2.585Y-3.84
X2.61Y-3.23
X2.66Y-3.765
X2.75Y-2.535
X2.78Y-2.585
X2.795Y-2.455
X2.795Y-2.53
X2.805Y-3.035
X2.885Y-1.775
X2.915Y-1.705
X2.915Y-1.79
X2.95Y-1.675
X3.035Y-2.525
X3.05Y-4.1
X3.05Y-4.16
X3.085Y-2.48
X3.89Y-4.105
X3.89Y-4.175
X4.035Y-3.61
X4.04Y-3.71
X4.06Y-3.205
X4.08Y-3.39
X4.08Y-3.465
X4.13Y-3.135
X4.18Y-2.68
X4.24Y-2.675
X4.35Y-1.955
X4.38Y-2.295
X4.38Y-2.385
X4.415Y-1.955
X4.505Y-1.795
X4.51Y-1.69
X5.035Y-4.775
X5.155Y-4.78
X5.395Y-4.125
X5.395Y-4.275
X5.43Y-4.115
X5.43Y-4.205
X5.55Y-3.57
X5.625Y-3.495
X5.815Y-3.635
X5.86Y-2.675
X5.865Y-2.715
X5.895Y-3.63
X5.955Y-2.675
X6.01Y-1.83
X6.035Y-2.71
X6.06Y-4.96
X6.06Y-5.05
X6.17Y-3.63
X6.265Y-1.88
X6.275Y-2.71
X6.275Y-3.625
X6.345Y-3.045
X6.4Y-2.71
X6.445Y-1.48
X6.485Y-1.44
X6.7687Y-1.7312
X6.98Y-1.96
X7.17Y-2.695
X7.275Y-2.7
X7.395Y-4.89
X7.45Y-4.835
X7.545Y-3.225
X7.59Y-3.27
X7.78Y-1.235
X7.855Y-1.24
X8.05Y-1.16
X8.28Y-1.395
X8.4Y-4.56
X8.405Y-4.495
X8.445Y-1.965
X8.475Y-1.66
X8.48Y-1.76
X8.53Y-1.96
X8.63Y-2.77
X8.66Y-2.365
X8.68Y-2.47
X8.715Y-2.745
X8.835Y-3.035
X8.835Y-3.13
X8.845Y-4.145
X8.845Y-4.215
X8.965Y-3.54
X8.975Y-3.625
X9.05Y-4.15
X9.07Y-3.935
X9.07Y-3.995
X9.08Y-4.235
X9.195Y-1.795
X9.31Y-1.84
X9.315Y-2.515
X9.34Y-2.615
X9.35Y-2.12
X9.405Y-2.17
X9.405Y-2.61
X9.445Y-2.52
X9.56Y-3.16
X9.56Y-3.965
X9.625Y-3.44
X9.655Y-3.965
X9.695Y-3.505
X9.715Y-3.16
X9.82Y-1.12
X9.82Y-1.18
X10.16Y-1.91
X10.16Y-2.485
X10.21Y-2.43
X10.23Y-1.845
X10.27Y-1.74
X10.285Y-2.56
X10.285Y-2.63
X10.355Y-3.265
X10.37Y-3.85
X10.37Y-3.915
X10.375Y-0.955
X10.395Y-3.215
X10.425Y-3.29
X10.425Y-3.37
X10.73Y-1.345
X10.755Y-1.265
X10.755Y-2.48
X10.765Y-1.725
X10.84Y-3.175
X10.91Y-1.73
X11.265Y-3.1
X11.29Y-3.08
X11.29Y-3.265
X11.33Y-3.3
T2
X0.4114Y-3.5899
X0.7081Y-3.6694
X0.9852Y-2.2635
X1.1018Y-0.7418
X1.2818Y-2.343
X1.3984Y-0.8213
X1.4284Y-1.6058
X1.725Y-1.6853
X1.7742Y-4.0278
X1.8036Y-0.9299
X1.9683Y-3.3034
X2.0708Y-4.1073
X2.1002Y-1.0094
X2.1624Y-2.579
X2.265Y-3.3829
X2.3566Y-1.8545
X2.4591Y-2.6584
X2.5185Y-4.0574
X2.5507Y-1.1301
X2.6532Y-1.934
X2.7187Y-3.3103
X2.8151Y-4.1369
X2.8473Y-1.2095
X2.9128Y-2.5859
X3.0153Y-3.3898
X3.1008Y-1.8841
X3.2094Y-2.6654
X3.3202Y-4.0538
X3.3236Y-1.1431
X3.3974Y-1.9636
X3.4856Y-3.346
X3.6168Y-4.1333
X3.6203Y-1.2225
X3.6857Y-2.5989
X3.7822Y-3.4255
X3.8799Y-1.8745
X3.9824Y-2.6784
X3.99Y-4.4517
X4.0966Y-1.1561
X4.1765Y-1.9539
X4.2128Y-3.7107
X4.2866Y-4.5312
X4.3843Y-2.9802
X4.3932Y-1.2356
X4.5095Y-3.7902
X4.5784Y-2.2557
X4.672Y-4.8043
X4.6809Y-3.0597
X4.7725Y-1.5313
X4.8661Y-4.0799
X4.875Y-2.3352
X4.9686Y-4.8838
X5.0602Y-3.3554
X5.0692Y-1.6108
X5.1627Y-4.1593
X5.2543Y-2.631
X5.3568Y-3.4349
X5.4484Y-1.9065
X5.551Y-2.7104
X5.7361Y-3.7306
X5.7451Y-1.986
X5.8248Y-5.442
X5.9042Y-5.1454
X5.9302Y-3.0062
X6.0328Y-3.8101
X6.2269Y-3.0857
X6.6875Y-3.0903
X6.8877Y-3.8373
X6.9841Y-3.0108
X7.0101Y-5.15
X7.0896Y-5.4466
X7.1843Y-3.7579
X7.1919Y-1.9845
X7.3861Y-2.709
X7.4886Y-1.9051
X7.5349Y-3.4456
X7.6827Y-2.6295
X7.7516Y-4.1639
X7.8315Y-3.3661
X7.8452Y-1.6154
X7.9458Y-4.8884
X8.0393Y-2.3398
X8.0483Y-4.0844
X8.1418Y-1.5359
X8.2334Y-3.0643
X8.2424Y-4.8089
X8.336Y-2.2603
X8.4049Y-3.7948
X8.5211Y-1.2401
X8.5301Y-2.9848
X8.6217Y-4.5131
X8.7015Y-3.7153
X8.7152Y-1.9646
X8.8178Y-1.1607
X8.9094Y-2.689
X8.9183Y-4.4337
X9.0119Y-1.8851
X9.1035Y-3.4135
X9.206Y-2.6096
X9.2941Y-1.2271
X9.2976Y-4.1379
X9.4001Y-3.334
X9.4882Y-1.9516
X9.5907Y-1.1477
X9.5942Y-4.0584
X9.6823Y-2.676
X9.7848Y-1.8721
X9.8764Y-3.4005
X9.979Y-2.5966
X10.0671Y-1.2141
X10.0706Y-4.1249
X10.1731Y-3.321
X10.2612Y-1.9386
X10.3637Y-1.1347
X10.3672Y-4.0454
X10.4553Y-2.663
X10.5578Y-1.8591
X10.6494Y-3.3875
X10.7519Y-2.5835
X10.8662Y-4.1059
X10.946Y-3.308
X11.1537Y-0.923
X11.1628Y-4.0264
X11.2347Y-1.6777
X11.4504Y-0.8435
X11.5313Y-1.5983
X11.6325Y-2.3476
X11.832Y-3.7257
X11.9292Y-2.2681
X12.1286Y-3.6463
X12.8115Y-3.4875
X13.1081Y-3.4081
T3
X5.78Y-1.4
X5.78Y-1.52
X5.78Y-1.64
T4
X6.1688Y-1.2312
X6.1688Y-1.3313
X6.1688Y-1.4312
X6.1688Y-1.5312
X6.1688Y-1.6312
X6.1688Y-1.7312
X6.1688Y-1.8313
X6.1688Y-1.9312
X6.1688Y-2.0312
X6.1688Y-2.1313
X6.1688Y-2.2312
X6.1688Y-2.3312
X6.7687Y-1.2312
X6.7687Y-1.3313
X6.7687Y-1.4312
X6.7687Y-1.5312
X6.7687Y-1.6312
X6.7687Y-1.7312
X6.7687Y-1.8313
X6.7687Y-1.9312
X6.7687Y-2.0312
X6.7687Y-2.1313
X6.7687Y-2.2312
X6.7687Y-2.3312
T6
X0.8438Y-1.5938
X1.4062Y-4.125
X6.4688Y-2.8125
X6.4688Y-5.9062
X11.5312Y-4.125
X12.0938Y-1.5938
T5
X0.6032Y-3.1273G85X0.5575Y-3.1745
G05
X0.8248Y-3.1427G85X0.8174Y-3.1643
G05
X0.9784Y-2.4514G85X0.9327Y-2.4986
G05
X1.095Y-0.9297G85X1.0493Y-0.9769
G05
X1.2001Y-2.4668G85X1.1927Y-2.4884
G05
X1.3166Y-0.9451G85X1.3092Y-0.9667
G05
X1.4442Y-1.7997G85X1.3985Y-1.847
G05
X1.6659Y-1.8151G85X1.6585Y-1.8367
G05
X1.7674Y-4.2157G85X1.7217Y-4.2629
G05
X1.8194Y-1.1238G85X1.7737Y-1.1711
G05
X1.9615Y-3.4912G85X1.9158Y-3.5385
G05
X1.9891Y-4.2311G85X1.9817Y-4.2527
G05
X2.0411Y-1.1392G85X2.0337Y-1.1608
G05
X2.1556Y-2.7668G85X2.1099Y-2.8141
G05
X2.1832Y-3.5066G85X2.1758Y-3.5282
G05
X2.3498Y-2.0424G85X2.304Y-2.0896
G05
X2.3773Y-2.7822G85X2.3699Y-2.8038
G05
X2.5404Y-4.2287G85X2.4947Y-4.276
G05
X2.5439Y-1.3179G85X2.4982Y-1.3652
G05
X2.5714Y-2.0578G85X2.564Y-2.0794
G05
X2.7345Y-3.5043G85X2.6888Y-3.5515
G05
X2.762Y-4.2441G85X2.7546Y-4.2657
G05
X2.7655Y-1.3333G85X2.7581Y-1.3549
G05
X2.9286Y-2.7798G85X2.8829Y-2.8271
G05
X2.9562Y-3.5196G85X2.9488Y-3.5413
G05
X3.1227Y-2.0554G85X3.077Y-2.1026
G05
X3.1503Y-2.7952G85X3.1429Y-2.8168
G05
X3.3134Y-4.2417G85X3.2676Y-4.289
G05
X3.3168Y-1.3309G85X3.2711Y-1.3782
G05
X3.3444Y-2.0708G85X3.337Y-2.0924
G05
X3.5075Y-3.5173G85X3.4618Y-3.5645
G05
X3.535Y-4.2571G85X3.5276Y-4.2787
G05
X3.5385Y-1.3463G85X3.5311Y-1.3679
G05
X3.7016Y-2.7928G85X3.6559Y-2.8401
G05
X3.7291Y-3.5327G85X3.7217Y-3.5543
G05
X3.8957Y-2.0684G85X3.85Y-2.1156
G05
X3.9232Y-2.8082G85X3.9158Y-2.8298
G05
X3.9893Y-4.6169G85X3.9436Y-4.6642
G05
X4.0898Y-1.3439G85X4.0441Y-1.3912
G05
X4.1174Y-2.0838G85X4.11Y-2.1054
G05
X4.1834Y-3.8925G85X4.1377Y-3.9397
G05
X4.2109Y-4.6323G85X4.2035Y-4.6539
G05
X4.3115Y-1.3593G85X4.3041Y-1.3809
G05
X4.3775Y-3.168G85X4.3318Y-3.2153
G05
X4.405Y-3.9079G85X4.3976Y-3.9295
G05
X4.5716Y-2.4436G85X4.5259Y-2.4908
G05
X4.5992Y-3.1834G85X4.5918Y-3.205
G05
X4.6652Y-4.9921G85X4.6195Y-5.0394
G05
X4.7657Y-1.7191G85X4.72Y-1.7664
G05
X4.7933Y-2.459G85X4.7859Y-2.4806
G05
X4.8593Y-4.2677G85X4.8136Y-4.315
G05
X4.8868Y-5.0075G85X4.8794Y-5.0292
G05
X4.9874Y-1.7345G85X4.98Y-1.7561
G05
X5.0534Y-3.5433G85X5.0077Y-3.5905
G05
X5.081Y-4.2831G85X5.0736Y-4.3047
G05
X5.2475Y-2.8188G85X5.2018Y-2.8661
G05
X5.2751Y-3.5587G85X5.2677Y-3.5803
G05
X5.3288Y-5.2611G85X5.3761Y-5.3069
G05
X5.3442Y-5.0395G85X5.3658Y-5.0469
G05
X5.4417Y-2.0944G85X5.3959Y-2.1416
G05
X5.4692Y-2.8342G85X5.4618Y-2.8558
G05
X5.6633Y-2.1098G85X5.6559Y-2.1314
G05
X5.7293Y-3.9185G85X5.6836Y-3.9657
G05
X5.9235Y-3.194G85X5.8777Y-3.2413
G05
X5.951Y-3.9339G85X5.9436Y-3.9555
G05
X6.1451Y-3.2094G85X6.1377Y-3.231
G05
X6.7856Y-3.254G85X6.7696Y-3.3177
G05
X6.9797Y-3.9784G85X6.9637Y-4.0422
G05
X6.9852Y-3.1565G85X6.9896Y-3.1789
G05
X7.1793Y-3.8809G85X7.1837Y-3.9033
G05
X7.2674Y-2.1543G85X7.2514Y-2.2181
G05
X7.4615Y-2.8787G85X7.4455Y-2.9425
G05
X7.467Y-2.0568G85X7.4714Y-2.0792
G05
X7.5472Y-5.0318G85X7.4834Y-5.0158
G05
X7.6447Y-5.2314G85X7.6223Y-5.2358
G05
X7.6556Y-3.6032G85X7.6396Y-3.667
G05
X7.6611Y-2.7812G85X7.6655Y-2.8036
G05
X7.8497Y-4.3276G85X7.8337Y-4.3914
G05
X7.8552Y-3.5057G85X7.8596Y-3.5281
G05
X7.9433Y-1.7791G85X7.9273Y-1.8428
G05
X8.0438Y-5.0521G85X8.0279Y-5.1158
G05
X8.0494Y-4.2301G85X8.0538Y-4.2525
G05
X8.1374Y-2.5035G85X8.1214Y-2.5673
G05
X8.1429Y-1.6816G85X8.1473Y-1.704
G05
X8.2435Y-4.9546G85X8.2479Y-4.977
G05
X8.3315Y-3.2279G85X8.3155Y-3.2917
G05
X8.337Y-2.406G85X8.3414Y-2.4284
G05
X8.5256Y-3.9524G85X8.5097Y-4.0162
G05
X8.5312Y-3.1305G85X8.5356Y-3.1529
G05
X8.6192Y-1.4038G85X8.6032Y-1.4676
G05
X8.7197Y-4.6768G85X8.7038Y-4.7406
G05
X8.7253Y-3.8549G85X8.7297Y-3.8773
G05
X8.8133Y-2.1283G85X8.7973Y-2.1921
G05
X8.8188Y-1.3063G85X8.8232Y-1.3288
G05
X8.9194Y-4.5793G85X8.9238Y-4.6018
G05
X9.0074Y-2.8527G85X8.9915Y-2.9165
G05
X9.013Y-2.0308G85X9.0174Y-2.0532
G05
X9.2015Y-3.5772G85X9.1856Y-3.641
G05
X9.2071Y-2.7552G85X9.2115Y-2.7776
G05
X9.3922Y-1.3908G85X9.3762Y-1.4546
G05
X9.3956Y-4.3016G85X9.3797Y-4.3654
G05
X9.4012Y-3.4797G85X9.4056Y-3.5021
G05
X9.5863Y-2.1153G85X9.5703Y-2.1791
G05
X9.5918Y-1.2933G85X9.5962Y-1.3157
G05
X9.5953Y-4.2041G85X9.5997Y-4.2265
G05
X9.7804Y-2.8397G85X9.7644Y-2.9035
G05
X9.7859Y-2.0178G85X9.7903Y-2.0402
G05
X9.9745Y-3.5642G85X9.9585Y-3.6279
G05
X9.98Y-2.7422G85X9.9844Y-2.7646
G05
X10.1651Y-1.3778G85X10.1492Y-1.4416
G05
X10.1686Y-4.2886G85X10.1527Y-4.3524
G05
X10.1742Y-3.4667G85X10.1786Y-3.4891
G05
X10.3593Y-2.1023G85X10.3433Y-2.1661
G05
X10.3648Y-1.2803G85X10.3692Y-1.3027
G05
X10.3683Y-4.1911G85X10.3727Y-4.2135
G05
X10.5534Y-2.8267G85X10.5374Y-2.8905
G05
X10.5589Y-2.0048G85X10.5633Y-2.0272
G05
X10.7475Y-3.5512G85X10.7315Y-3.6149
G05
X10.753Y-2.7292G85X10.7574Y-2.7516
G05
X10.9416Y-4.2756G85X10.9256Y-4.3394
G05
X10.9471Y-3.4537G85X10.9515Y-3.4761
G05
X11.1412Y-4.1781G85X11.1456Y-4.2005
G05
X11.2518Y-1.0867G85X11.2358Y-1.1504
G05
X11.2648Y-1.8596G85X11.2488Y-1.9234
G05
X11.4515Y-0.9892G85X11.4559Y-1.0116
G05
X11.4645Y-1.7621G85X11.4689Y-1.7845
G05
X11.7306Y-2.5113G85X11.7146Y-2.5751
G05
X11.7436Y-3.2843G85X11.7276Y-3.348
G05
X11.9302Y-2.4138G85X11.9346Y-2.4362
G05
X11.9432Y-3.1868G85X11.9476Y-3.2092
G05
X12.7397Y-3.0173G85X12.7237Y-3.0811
G05
X12.9394Y-2.9199G85X12.9438Y-2.9423
G05
T0
M30
