M48
INCH,TZ
T1C0.067
T2C0.120
T3C0.157
%
G90
G05
T1
X0.4833Y-3.2582
X0.8585Y-2.5823
X0.8697Y-3.3617
X0.9751Y-1.0606
X1.2449Y-2.6858
X1.3243Y-1.9306
X1.3615Y-1.1641
X1.6475Y-4.3466
X1.6996Y-1.2547
X1.7107Y-2.0342
X1.8417Y-3.6222
X2.0339Y-4.4501
X2.0358Y-2.8977
X2.0859Y-1.3582
X2.228Y-3.7257
X2.2299Y-2.1733
X2.4205Y-4.3596
X2.4221Y-3.0012
X2.424Y-1.4488
X2.6146Y-3.6352
X2.6163Y-2.2768
X2.8069Y-4.4631
X2.8087Y-2.9107
X2.8104Y-1.5524
X3.001Y-3.7387
X3.0029Y-2.1863
X3.1935Y-4.3726
X3.1951Y-3.0142
X3.197Y-1.4618
X3.3876Y-3.6482
X3.3892Y-2.2898
X3.5799Y-4.4761
X3.5817Y-2.9237
X3.5833Y-1.5654
X3.774Y-3.7517
X3.7758Y-2.1993
X3.8694Y-4.7478
X3.9681Y-3.0273
X3.9699Y-1.4748
X4.0635Y-4.0234
X4.1622Y-2.3028
X4.2558Y-4.8514
X4.2576Y-3.2989
X4.3563Y-1.5784
X4.4499Y-4.1269
X4.4517Y-2.5745
X4.5453Y-5.1231
X4.644Y-3.4025
X4.6459Y-1.8501
X4.7394Y-4.3986
X4.8381Y-2.678
X4.9317Y-5.2266
X4.9335Y-3.6742
X5.0322Y-1.9536
X5.1258Y-4.5021
X5.1277Y-2.9497
X5.3199Y-3.7777
X5.3218Y-2.2253
X5.4597Y-5.381
X5.514Y-3.0533
X5.5632Y-4.9946
X5.6095Y-4.0494
X5.7081Y-2.3288
X5.8036Y-3.325
X5.9958Y-4.1529
X6.1899Y-3.4285
X6.7472Y-3.4273
X6.9413Y-4.1517
X7.1336Y-3.3237
X7.229Y-2.3276
X7.3277Y-4.0482
X7.3739Y-4.9934
X7.4231Y-3.052
X7.4774Y-5.3798
X7.6154Y-2.2241
X7.6172Y-3.7765
X7.8095Y-2.9485
X7.8113Y-4.5009
X7.9049Y-1.9524
X8.0036Y-3.673
X8.0055Y-5.2254
X8.099Y-2.6768
X8.1977Y-4.3974
X8.2913Y-1.8488
X8.2931Y-3.4013
X8.3918Y-5.1218
X8.4854Y-2.5733
X8.4873Y-4.1257
X8.5808Y-1.5771
X8.6795Y-3.2977
X8.6814Y-4.8502
X8.7749Y-2.3016
X8.8736Y-4.0222
X8.9672Y-1.4736
X8.9691Y-3.026
X9.0677Y-4.7466
X9.1613Y-2.1981
X9.1632Y-3.7505
X9.3538Y-1.5641
X9.3554Y-2.9225
X9.3573Y-4.4749
X9.5479Y-2.2886
X9.5495Y-3.647
X9.7402Y-1.4606
X9.742Y-3.013
X9.7437Y-4.3714
X9.9343Y-2.1851
X9.9361Y-3.7375
X10.1268Y-1.5511
X10.1284Y-2.9095
X10.1303Y-4.4619
X10.3209Y-2.2756
X10.3225Y-3.6339
X10.5131Y-1.4476
X10.515Y-3.
X10.5166Y-4.3584
X10.7073Y-2.1721
X10.7091Y-3.7245
X10.9014Y-2.8965
X10.9032Y-4.4489
X11.0955Y-3.6209
X11.2134Y-1.26
X11.2264Y-2.0329
X11.2896Y-4.3454
X11.5998Y-1.1564
X11.6128Y-1.9294
X11.6922Y-2.6846
X11.7052Y-3.4576
X12.0786Y-2.5811
X12.0916Y-3.354
X12.7013Y-3.1907
X13.0877Y-3.0871
T2
X0.2937Y-2.9227
X0.6689Y-2.2468
X1.2017Y-3.166
X1.5769Y-2.4901
X5.1242Y-5.5706
X5.3675Y-4.6627
X7.5697Y-4.6615
X7.8129Y-5.5694
X10.8815Y-1.0642
X11.3603Y-2.4888
X11.7894Y-0.8209
X12.2682Y-2.2456
T3
X0.1384Y-3.5022
X0.5136Y-2.8263
X0.6765Y-3.31
X1.0464Y-3.7455
X1.0517Y-2.634
X1.1683Y-1.1124
X1.4216Y-3.0696
X1.5175Y-1.9824
X1.8407Y-4.3984
X1.8927Y-1.3065
X2.0348Y-3.6739
X2.229Y-2.9495
X2.4231Y-2.225
X2.6137Y-4.4114
X2.6172Y-1.5006
X2.8078Y-3.6869
X3.0019Y-2.9625
X3.196Y-2.238
X3.3867Y-4.4244
X3.3902Y-1.5136
X3.5808Y-3.6999
X3.7749Y-2.9755
X3.969Y-2.251
X4.0626Y-4.7996
X4.1631Y-1.5266
X4.2567Y-4.0752
X4.4508Y-3.3507
X4.6449Y-2.6263
X4.7385Y-5.1748
X4.839Y-1.9018
X4.9326Y-4.4504
X5.1267Y-3.7259
X5.3208Y-3.0015
X5.5115Y-5.1878
X5.515Y-2.277
X5.7038Y-5.7259
X5.8026Y-4.1012
X5.947Y-4.818
X5.9968Y-3.3767
X6.9404Y-3.3755
X6.9901Y-4.8167
X7.1345Y-4.0999
X7.2334Y-5.7247
X7.4222Y-2.2758
X7.4257Y-5.1866
X7.6163Y-3.0003
X7.8104Y-3.7247
X8.0045Y-4.4492
X8.0981Y-1.9006
X8.1986Y-5.1736
X8.2922Y-2.6251
X8.4863Y-3.3495
X8.6804Y-4.0739
X8.774Y-1.5254
X8.8746Y-4.7984
X8.9681Y-2.2498
X9.1622Y-2.9743
X9.3564Y-3.6987
X9.547Y-1.5124
X9.5505Y-4.4232
X9.7411Y-2.2368
X9.9352Y-2.9613
X10.1293Y-3.6857
X10.32Y-1.4994
X10.3234Y-4.4102
X10.5141Y-2.2238
X10.7082Y-2.9483
X10.9023Y-3.6727
X11.0368Y-1.6438
X11.0964Y-4.3972
X11.4066Y-1.2082
X11.4196Y-1.9812
X11.5155Y-3.0684
X11.8854Y-2.6328
X11.8984Y-3.4058
X11.9447Y-1.4005
X12.4235Y-2.8251
X12.8945Y-3.1389
T0
M30
