%TF.GenerationSoftware,KiCad,Pcbnew,4.0.7*%
%TF.CreationDate,2018-09-12T19:18:30-05:00*%
%TF.ProjectId,ergo60tilt,6572676F363074696C742E6B69636164,rev?*%
%TF.FileFunction,Paste,Bot*%
%FSLAX46Y46*%
G04 Gerber Fmt 4.6, Leading zero omitted, Abs format (unit mm)*
G04 Created by KiCad (PCBNEW 4.0.7) date 09/12/18 19:18:30*
%MOMM*%
%LPD*%
G01*
G04 APERTURE LIST*
%ADD10C,0.100000*%
%ADD11R,1.700000X1.000000*%
G04 APERTURE END LIST*
D10*
G36*
X30965890Y-19020156D02*
X30655307Y-20179267D01*
X29496196Y-19868684D01*
X29806779Y-18709573D01*
X30965890Y-19020156D01*
X30965890Y-19020156D01*
G37*
G36*
X34008556Y-19835436D02*
X33697973Y-20994547D01*
X32538862Y-20683964D01*
X32849445Y-19524853D01*
X34008556Y-19835436D01*
X34008556Y-19835436D01*
G37*
G36*
X48791750Y-23796580D02*
X48481167Y-24955691D01*
X47322056Y-24645108D01*
X47632639Y-23485997D01*
X48791750Y-23796580D01*
X48791750Y-23796580D01*
G37*
G36*
X51834416Y-24611860D02*
X51523833Y-25770971D01*
X50364722Y-25460388D01*
X50675305Y-24301277D01*
X51834416Y-24611860D01*
X51834416Y-24611860D01*
G37*
G36*
X39261025Y-40964841D02*
X38950442Y-42123952D01*
X37791331Y-41813369D01*
X38101914Y-40654258D01*
X39261025Y-40964841D01*
X39261025Y-40964841D01*
G37*
G36*
X42303691Y-41780121D02*
X41993108Y-42939232D01*
X40833997Y-42628649D01*
X41144580Y-41469538D01*
X42303691Y-41780121D01*
X42303691Y-41780121D01*
G37*
G36*
X28005217Y-57670868D02*
X27694634Y-58829979D01*
X26535523Y-58519396D01*
X26846106Y-57360285D01*
X28005217Y-57670868D01*
X28005217Y-57670868D01*
G37*
G36*
X31047883Y-58486148D02*
X30737300Y-59645259D01*
X29578189Y-59334676D01*
X29888772Y-58175565D01*
X31047883Y-58486148D01*
X31047883Y-58486148D01*
G37*
G36*
X13431197Y-91360855D02*
X13120614Y-92519966D01*
X11961503Y-92209383D01*
X12272086Y-91050272D01*
X13431197Y-91360855D01*
X13431197Y-91360855D01*
G37*
G36*
X16473863Y-92176135D02*
X16163280Y-93335246D01*
X15004169Y-93024663D01*
X15314752Y-91865552D01*
X16473863Y-92176135D01*
X16473863Y-92176135D01*
G37*
G36*
X67767664Y-28881161D02*
X67457081Y-30040272D01*
X66297970Y-29729689D01*
X66608553Y-28570578D01*
X67767664Y-28881161D01*
X67767664Y-28881161D01*
G37*
G36*
X70810330Y-29696441D02*
X70499747Y-30855552D01*
X69340636Y-30544969D01*
X69651219Y-29385858D01*
X70810330Y-29696441D01*
X70810330Y-29696441D01*
G37*
G36*
X62837160Y-47282048D02*
X62526577Y-48441159D01*
X61367466Y-48130576D01*
X61678049Y-46971465D01*
X62837160Y-47282048D01*
X62837160Y-47282048D01*
G37*
G36*
X65879826Y-48097328D02*
X65569243Y-49256439D01*
X64410132Y-48945856D01*
X64720715Y-47786745D01*
X65879826Y-48097328D01*
X65879826Y-48097328D01*
G37*
G36*
X57906658Y-65682935D02*
X57596075Y-66842046D01*
X56436964Y-66531463D01*
X56747547Y-65372352D01*
X57906658Y-65682935D01*
X57906658Y-65682935D01*
G37*
G36*
X60949324Y-66498215D02*
X60638741Y-67657326D01*
X59479630Y-67346743D01*
X59790213Y-66187632D01*
X60949324Y-66498215D01*
X60949324Y-66498215D01*
G37*
G36*
X52976155Y-84083822D02*
X52665572Y-85242933D01*
X51506461Y-84932350D01*
X51817044Y-83773239D01*
X52976155Y-84083822D01*
X52976155Y-84083822D01*
G37*
G36*
X56018821Y-84899102D02*
X55708238Y-86058213D01*
X54549127Y-85747630D01*
X54859710Y-84588519D01*
X56018821Y-84899102D01*
X56018821Y-84899102D01*
G37*
G36*
X48045652Y-102484709D02*
X47735069Y-103643820D01*
X46575958Y-103333237D01*
X46886541Y-102174126D01*
X48045652Y-102484709D01*
X48045652Y-102484709D01*
G37*
G36*
X51088318Y-103299989D02*
X50777735Y-104459100D01*
X49618624Y-104148517D01*
X49929207Y-102989406D01*
X51088318Y-103299989D01*
X51088318Y-103299989D01*
G37*
G36*
X87401176Y-29211442D02*
X87090593Y-30370553D01*
X85931482Y-30059970D01*
X86242065Y-28900859D01*
X87401176Y-29211442D01*
X87401176Y-29211442D01*
G37*
G36*
X90443842Y-30026722D02*
X90133259Y-31185833D01*
X88974148Y-30875250D01*
X89284731Y-29716139D01*
X90443842Y-30026722D01*
X90443842Y-30026722D01*
G37*
G36*
X81741568Y-48033278D02*
X81430985Y-49192389D01*
X80271874Y-48881806D01*
X80582457Y-47722695D01*
X81741568Y-48033278D01*
X81741568Y-48033278D01*
G37*
G36*
X84784234Y-48848558D02*
X84473651Y-50007669D01*
X83314540Y-49697086D01*
X83625123Y-48537975D01*
X84784234Y-48848558D01*
X84784234Y-48848558D01*
G37*
G36*
X76965144Y-65859138D02*
X76654561Y-67018249D01*
X75495450Y-66707666D01*
X75806033Y-65548555D01*
X76965144Y-65859138D01*
X76965144Y-65859138D01*
G37*
G36*
X80007810Y-66674418D02*
X79697227Y-67833529D01*
X78538116Y-67522946D01*
X78848699Y-66363835D01*
X80007810Y-66674418D01*
X80007810Y-66674418D01*
G37*
G36*
X72034641Y-84260024D02*
X71724058Y-85419135D01*
X70564947Y-85108552D01*
X70875530Y-83949441D01*
X72034641Y-84260024D01*
X72034641Y-84260024D01*
G37*
G36*
X75077307Y-85075304D02*
X74766724Y-86234415D01*
X73607613Y-85923832D01*
X73918196Y-84764721D01*
X75077307Y-85075304D01*
X75077307Y-85075304D01*
G37*
G36*
X66950059Y-103235939D02*
X66639476Y-104395050D01*
X65480365Y-104084467D01*
X65790948Y-102925356D01*
X66950059Y-103235939D01*
X66950059Y-103235939D01*
G37*
G36*
X69992725Y-104051219D02*
X69682142Y-105210330D01*
X68523031Y-104899747D01*
X68833614Y-103740636D01*
X69992725Y-104051219D01*
X69992725Y-104051219D01*
G37*
G36*
X107034689Y-29541723D02*
X106724106Y-30700834D01*
X105564995Y-30390251D01*
X105875578Y-29231140D01*
X107034689Y-29541723D01*
X107034689Y-29541723D01*
G37*
G36*
X110077355Y-30357003D02*
X109766772Y-31516114D01*
X108607661Y-31205531D01*
X108918244Y-30046420D01*
X110077355Y-30357003D01*
X110077355Y-30357003D01*
G37*
G36*
X101529159Y-47788532D02*
X101218576Y-48947643D01*
X100059465Y-48637060D01*
X100370048Y-47477949D01*
X101529159Y-47788532D01*
X101529159Y-47788532D01*
G37*
G36*
X104571825Y-48603812D02*
X104261242Y-49762923D01*
X103102131Y-49452340D01*
X103412714Y-48293229D01*
X104571825Y-48603812D01*
X104571825Y-48603812D01*
G37*
G36*
X96598656Y-66189419D02*
X96288073Y-67348530D01*
X95128962Y-67037947D01*
X95439545Y-65878836D01*
X96598656Y-66189419D01*
X96598656Y-66189419D01*
G37*
G36*
X99641322Y-67004699D02*
X99330739Y-68163810D01*
X98171628Y-67853227D01*
X98482211Y-66694116D01*
X99641322Y-67004699D01*
X99641322Y-67004699D01*
G37*
G36*
X91514075Y-85165333D02*
X91203492Y-86324444D01*
X90044381Y-86013861D01*
X90354964Y-84854750D01*
X91514075Y-85165333D01*
X91514075Y-85165333D01*
G37*
G36*
X94556741Y-85980613D02*
X94246158Y-87139724D01*
X93087047Y-86829141D01*
X93397630Y-85670030D01*
X94556741Y-85980613D01*
X94556741Y-85980613D01*
G37*
G36*
X87312678Y-103145271D02*
X87002095Y-104304382D01*
X85842984Y-103993799D01*
X86153567Y-102834688D01*
X87312678Y-103145271D01*
X87312678Y-103145271D01*
G37*
G36*
X90355344Y-103960551D02*
X90044761Y-105119662D01*
X88885650Y-104809079D01*
X89196233Y-103649968D01*
X90355344Y-103960551D01*
X90355344Y-103960551D01*
G37*
G36*
X124202951Y-39072448D02*
X123892368Y-40231559D01*
X122733257Y-39920976D01*
X123043840Y-38761865D01*
X124202951Y-39072448D01*
X124202951Y-39072448D01*
G37*
G36*
X127245617Y-39887728D02*
X126935034Y-41046839D01*
X125775923Y-40736256D01*
X126086506Y-39577145D01*
X127245617Y-39887728D01*
X127245617Y-39887728D01*
G37*
G36*
X119272448Y-57473335D02*
X118961865Y-58632446D01*
X117802754Y-58321863D01*
X118113337Y-57162752D01*
X119272448Y-57473335D01*
X119272448Y-57473335D01*
G37*
G36*
X122315114Y-58288615D02*
X122004531Y-59447726D01*
X120845420Y-59137143D01*
X121156003Y-57978032D01*
X122315114Y-58288615D01*
X122315114Y-58288615D01*
G37*
G36*
X114341945Y-75874221D02*
X114031362Y-77033332D01*
X112872251Y-76722749D01*
X113182834Y-75563638D01*
X114341945Y-75874221D01*
X114341945Y-75874221D01*
G37*
G36*
X117384611Y-76689501D02*
X117074028Y-77848612D01*
X115914917Y-77538029D01*
X116225500Y-76378918D01*
X117384611Y-76689501D01*
X117384611Y-76689501D01*
G37*
G36*
X109986470Y-94429187D02*
X109675887Y-95588298D01*
X108516776Y-95277715D01*
X108827359Y-94118604D01*
X109986470Y-94429187D01*
X109986470Y-94429187D01*
G37*
G36*
X113029136Y-95244467D02*
X112718553Y-96403578D01*
X111559442Y-96092995D01*
X111870025Y-94933884D01*
X113029136Y-95244467D01*
X113029136Y-95244467D01*
G37*
G36*
X104326861Y-113251022D02*
X104016278Y-114410133D01*
X102857167Y-114099550D01*
X103167750Y-112940439D01*
X104326861Y-113251022D01*
X104326861Y-113251022D01*
G37*
G36*
X107369527Y-114066302D02*
X107058944Y-115225413D01*
X105899833Y-114914830D01*
X106210416Y-113755719D01*
X107369527Y-114066302D01*
X107369527Y-114066302D01*
G37*
G36*
X141371212Y-48603173D02*
X141060629Y-49762284D01*
X139901518Y-49451701D01*
X140212101Y-48292590D01*
X141371212Y-48603173D01*
X141371212Y-48603173D01*
G37*
G36*
X144413878Y-49418453D02*
X144103295Y-50577564D01*
X142944184Y-50266981D01*
X143254767Y-49107870D01*
X144413878Y-49418453D01*
X144413878Y-49418453D01*
G37*
G36*
X136440709Y-67004059D02*
X136130126Y-68163170D01*
X134971015Y-67852587D01*
X135281598Y-66693476D01*
X136440709Y-67004059D01*
X136440709Y-67004059D01*
G37*
G36*
X139483375Y-67819339D02*
X139172792Y-68978450D01*
X138013681Y-68667867D01*
X138324264Y-67508756D01*
X139483375Y-67819339D01*
X139483375Y-67819339D01*
G37*
G36*
X131510206Y-85404946D02*
X131199623Y-86564057D01*
X130040512Y-86253474D01*
X130351095Y-85094363D01*
X131510206Y-85404946D01*
X131510206Y-85404946D01*
G37*
G36*
X134552872Y-86220226D02*
X134242289Y-87379337D01*
X133083178Y-87068754D01*
X133393761Y-85909643D01*
X134552872Y-86220226D01*
X134552872Y-86220226D01*
G37*
G36*
X126579704Y-103805834D02*
X126269121Y-104964945D01*
X125110010Y-104654362D01*
X125420593Y-103495251D01*
X126579704Y-103805834D01*
X126579704Y-103805834D01*
G37*
G36*
X129622370Y-104621114D02*
X129311787Y-105780225D01*
X128152676Y-105469642D01*
X128463259Y-104310531D01*
X129622370Y-104621114D01*
X129622370Y-104621114D01*
G37*
G36*
X121649201Y-122206720D02*
X121338618Y-123365831D01*
X120179507Y-123055248D01*
X120490090Y-121896137D01*
X121649201Y-122206720D01*
X121649201Y-122206720D01*
G37*
G36*
X124691867Y-123022000D02*
X124381284Y-124181111D01*
X123222173Y-123870528D01*
X123532756Y-122711417D01*
X124691867Y-123022000D01*
X124691867Y-123022000D01*
G37*
G36*
X153608970Y-76534784D02*
X153298387Y-77693895D01*
X152139276Y-77383312D01*
X152449859Y-76224201D01*
X153608970Y-76534784D01*
X153608970Y-76534784D01*
G37*
G36*
X156651636Y-77350064D02*
X156341053Y-78509175D01*
X155181942Y-78198592D01*
X155492525Y-77039481D01*
X156651636Y-77350064D01*
X156651636Y-77350064D01*
G37*
G36*
X148678468Y-94935671D02*
X148367885Y-96094782D01*
X147208774Y-95784199D01*
X147519357Y-94625088D01*
X148678468Y-94935671D01*
X148678468Y-94935671D01*
G37*
G36*
X151721134Y-95750951D02*
X151410551Y-96910062D01*
X150251440Y-96599479D01*
X150562023Y-95440368D01*
X151721134Y-95750951D01*
X151721134Y-95750951D01*
G37*
G36*
X149790374Y-133673086D02*
X148631263Y-133362503D01*
X148941846Y-132203392D01*
X150100957Y-132513975D01*
X149790374Y-133673086D01*
X149790374Y-133673086D01*
G37*
G36*
X148975094Y-136715752D02*
X147815983Y-136405169D01*
X148126566Y-135246058D01*
X149285677Y-135556641D01*
X148975094Y-136715752D01*
X148975094Y-136715752D01*
G37*
G36*
X194056243Y-86180399D02*
X194366826Y-87339510D01*
X193207715Y-87650093D01*
X192897132Y-86490982D01*
X194056243Y-86180399D01*
X194056243Y-86180399D01*
G37*
G36*
X197098909Y-85365119D02*
X197409492Y-86524230D01*
X196250381Y-86834813D01*
X195939798Y-85675702D01*
X197098909Y-85365119D01*
X197098909Y-85365119D01*
G37*
G36*
X199561775Y-104427208D02*
X199872358Y-105586319D01*
X198713247Y-105896902D01*
X198402664Y-104737791D01*
X199561775Y-104427208D01*
X199561775Y-104427208D01*
G37*
G36*
X202604441Y-103611928D02*
X202915024Y-104771039D01*
X201755913Y-105081622D01*
X201445330Y-103922511D01*
X202604441Y-103611928D01*
X202604441Y-103611928D01*
G37*
G36*
X204492278Y-122828095D02*
X204802861Y-123987206D01*
X203643750Y-124297789D01*
X203333167Y-123138678D01*
X204492278Y-122828095D01*
X204492278Y-122828095D01*
G37*
G36*
X207534944Y-122012815D02*
X207845527Y-123171926D01*
X206686416Y-123482509D01*
X206375833Y-122323398D01*
X207534944Y-122012815D01*
X207534944Y-122012815D01*
G37*
G36*
X172532508Y-77156158D02*
X172843091Y-78315269D01*
X171683980Y-78625852D01*
X171373397Y-77466741D01*
X172532508Y-77156158D01*
X172532508Y-77156158D01*
G37*
G36*
X175575174Y-76340878D02*
X175885757Y-77499989D01*
X174726646Y-77810572D01*
X174416063Y-76651461D01*
X175575174Y-76340878D01*
X175575174Y-76340878D01*
G37*
G36*
X177617089Y-96132073D02*
X177927672Y-97291184D01*
X176768561Y-97601767D01*
X176457978Y-96442656D01*
X177617089Y-96132073D01*
X177617089Y-96132073D01*
G37*
G36*
X180659755Y-95316793D02*
X180970338Y-96475904D01*
X179811227Y-96786487D01*
X179500644Y-95627376D01*
X180659755Y-95316793D01*
X180659755Y-95316793D01*
G37*
G36*
X179393771Y-133479181D02*
X178234660Y-133789764D01*
X177924077Y-132630653D01*
X179083188Y-132320070D01*
X179393771Y-133479181D01*
X179393771Y-133479181D01*
G37*
G36*
X180209051Y-136521847D02*
X179049940Y-136832430D01*
X178739357Y-135673319D01*
X179898468Y-135362736D01*
X180209051Y-136521847D01*
X180209051Y-136521847D01*
G37*
G36*
X233898297Y-85365760D02*
X234208880Y-86524871D01*
X233049769Y-86835454D01*
X232739186Y-85676343D01*
X233898297Y-85365760D01*
X233898297Y-85365760D01*
G37*
G36*
X236940963Y-84550480D02*
X237251546Y-85709591D01*
X236092435Y-86020174D01*
X235781852Y-84861063D01*
X236940963Y-84550480D01*
X236940963Y-84550480D01*
G37*
G36*
X238828800Y-103766646D02*
X239139383Y-104925757D01*
X237980272Y-105236340D01*
X237669689Y-104077229D01*
X238828800Y-103766646D01*
X238828800Y-103766646D01*
G37*
G36*
X241871466Y-102951366D02*
X242182049Y-104110477D01*
X241022938Y-104421060D01*
X240712355Y-103261949D01*
X241871466Y-102951366D01*
X241871466Y-102951366D01*
G37*
G36*
X201938528Y-39693822D02*
X202249111Y-40852933D01*
X201090000Y-41163516D01*
X200779417Y-40004405D01*
X201938528Y-39693822D01*
X201938528Y-39693822D01*
G37*
G36*
X204981194Y-38878542D02*
X205291777Y-40037653D01*
X204132666Y-40348236D01*
X203822083Y-39189125D01*
X204981194Y-38878542D01*
X204981194Y-38878542D01*
G37*
G36*
X206869031Y-58094710D02*
X207179614Y-59253821D01*
X206020503Y-59564404D01*
X205709920Y-58405293D01*
X206869031Y-58094710D01*
X206869031Y-58094710D01*
G37*
G36*
X209911697Y-57279430D02*
X210222280Y-58438541D01*
X209063169Y-58749124D01*
X208752586Y-57590013D01*
X209911697Y-57279430D01*
X209911697Y-57279430D01*
G37*
G36*
X211799533Y-76495597D02*
X212110116Y-77654708D01*
X210951005Y-77965291D01*
X210640422Y-76806180D01*
X211799533Y-76495597D01*
X211799533Y-76495597D01*
G37*
G36*
X214842199Y-75680317D02*
X215152782Y-76839428D01*
X213993671Y-77150011D01*
X213683088Y-75990900D01*
X214842199Y-75680317D01*
X214842199Y-75680317D01*
G37*
G36*
X216155007Y-95050562D02*
X216465590Y-96209673D01*
X215306479Y-96520256D01*
X214995896Y-95361145D01*
X216155007Y-95050562D01*
X216155007Y-95050562D01*
G37*
G36*
X219197673Y-94235282D02*
X219508256Y-95394393D01*
X218349145Y-95704976D01*
X218038562Y-94545865D01*
X219197673Y-94235282D01*
X219197673Y-94235282D01*
G37*
G36*
X221660539Y-113297371D02*
X221971122Y-114456482D01*
X220812011Y-114767065D01*
X220501428Y-113607954D01*
X221660539Y-113297371D01*
X221660539Y-113297371D01*
G37*
G36*
X224703205Y-112482091D02*
X225013788Y-113641202D01*
X223854677Y-113951785D01*
X223544094Y-112792674D01*
X224703205Y-112482091D01*
X224703205Y-112482091D01*
G37*
G36*
X185345293Y-49070469D02*
X185655876Y-50229580D01*
X184496765Y-50540163D01*
X184186182Y-49381052D01*
X185345293Y-49070469D01*
X185345293Y-49070469D01*
G37*
G36*
X188387959Y-48255189D02*
X188698542Y-49414300D01*
X187539431Y-49724883D01*
X187228848Y-48565772D01*
X188387959Y-48255189D01*
X188387959Y-48255189D01*
G37*
G36*
X190275796Y-67471356D02*
X190586379Y-68630467D01*
X189427268Y-68941050D01*
X189116685Y-67781939D01*
X190275796Y-67471356D01*
X190275796Y-67471356D01*
G37*
G36*
X193318462Y-66656076D02*
X193629045Y-67815187D01*
X192469934Y-68125770D01*
X192159351Y-66966659D01*
X193318462Y-66656076D01*
X193318462Y-66656076D01*
G37*
G36*
X278670852Y-102952006D02*
X278981435Y-104111117D01*
X277822324Y-104421700D01*
X277511741Y-103262589D01*
X278670852Y-102952006D01*
X278670852Y-102952006D01*
G37*
G36*
X281713518Y-102136726D02*
X282024101Y-103295837D01*
X280864990Y-103606420D01*
X280554407Y-102447309D01*
X281713518Y-102136726D01*
X281713518Y-102136726D01*
G37*
G36*
X238740301Y-29832817D02*
X239050884Y-30991928D01*
X237891773Y-31302511D01*
X237581190Y-30143400D01*
X238740301Y-29832817D01*
X238740301Y-29832817D01*
G37*
G36*
X241782967Y-29017537D02*
X242093550Y-30176648D01*
X240934439Y-30487231D01*
X240623856Y-29328120D01*
X241782967Y-29017537D01*
X241782967Y-29017537D01*
G37*
G36*
X243670804Y-48233704D02*
X243981387Y-49392815D01*
X242822276Y-49703398D01*
X242511693Y-48544287D01*
X243670804Y-48233704D01*
X243670804Y-48233704D01*
G37*
G36*
X246713470Y-47418424D02*
X247024053Y-48577535D01*
X245864942Y-48888118D01*
X245554359Y-47729007D01*
X246713470Y-47418424D01*
X246713470Y-47418424D01*
G37*
G36*
X248601307Y-66634591D02*
X248911890Y-67793702D01*
X247752779Y-68104285D01*
X247442196Y-66945174D01*
X248601307Y-66634591D01*
X248601307Y-66634591D01*
G37*
G36*
X251643973Y-65819311D02*
X251954556Y-66978422D01*
X250795445Y-67289005D01*
X250484862Y-66129894D01*
X251643973Y-65819311D01*
X251643973Y-65819311D01*
G37*
G36*
X253531810Y-85035478D02*
X253842393Y-86194589D01*
X252683282Y-86505172D01*
X252372699Y-85346061D01*
X253531810Y-85035478D01*
X253531810Y-85035478D01*
G37*
G36*
X256574476Y-84220198D02*
X256885059Y-85379309D01*
X255725948Y-85689892D01*
X255415365Y-84530781D01*
X256574476Y-84220198D01*
X256574476Y-84220198D01*
G37*
G36*
X258462312Y-103436365D02*
X258772895Y-104595476D01*
X257613784Y-104906059D01*
X257303201Y-103746948D01*
X258462312Y-103436365D01*
X258462312Y-103436365D01*
G37*
G36*
X261504978Y-102621085D02*
X261815561Y-103780196D01*
X260656450Y-104090779D01*
X260345867Y-102931668D01*
X261504978Y-102621085D01*
X261504978Y-102621085D01*
G37*
G36*
X219106789Y-30163099D02*
X219417372Y-31322210D01*
X218258261Y-31632793D01*
X217947678Y-30473682D01*
X219106789Y-30163099D01*
X219106789Y-30163099D01*
G37*
G36*
X222149455Y-29347819D02*
X222460038Y-30506930D01*
X221300927Y-30817513D01*
X220990344Y-29658402D01*
X222149455Y-29347819D01*
X222149455Y-29347819D01*
G37*
G36*
X224037292Y-48563985D02*
X224347875Y-49723096D01*
X223188764Y-50033679D01*
X222878181Y-48874568D01*
X224037292Y-48563985D01*
X224037292Y-48563985D01*
G37*
G36*
X227079958Y-47748705D02*
X227390541Y-48907816D01*
X226231430Y-49218399D01*
X225920847Y-48059288D01*
X227079958Y-47748705D01*
X227079958Y-47748705D01*
G37*
G36*
X228967795Y-66964872D02*
X229278378Y-68123983D01*
X228119267Y-68434566D01*
X227808684Y-67275455D01*
X228967795Y-66964872D01*
X228967795Y-66964872D01*
G37*
G36*
X232010461Y-66149592D02*
X232321044Y-67308703D01*
X231161933Y-67619286D01*
X230851350Y-66460175D01*
X232010461Y-66149592D01*
X232010461Y-66149592D01*
G37*
G36*
X285975145Y-22106782D02*
X286285728Y-23265893D01*
X285126617Y-23576476D01*
X284816034Y-22417365D01*
X285975145Y-22106782D01*
X285975145Y-22106782D01*
G37*
G36*
X289017811Y-21291502D02*
X289328394Y-22450613D01*
X288169283Y-22761196D01*
X287858700Y-21602085D01*
X289017811Y-21291502D01*
X289017811Y-21291502D01*
G37*
G36*
X288030508Y-41278060D02*
X288341091Y-42437171D01*
X287181980Y-42747754D01*
X286871397Y-41588643D01*
X288030508Y-41278060D01*
X288030508Y-41278060D01*
G37*
G36*
X291073174Y-40462780D02*
X291383757Y-41621891D01*
X290224646Y-41932474D01*
X289914063Y-40773363D01*
X291073174Y-40462780D01*
X291073174Y-40462780D01*
G37*
G36*
X298136261Y-58292243D02*
X298446844Y-59451354D01*
X297287733Y-59761937D01*
X296977150Y-58602826D01*
X298136261Y-58292243D01*
X298136261Y-58292243D01*
G37*
G36*
X301178927Y-57476963D02*
X301489510Y-58636074D01*
X300330399Y-58946657D01*
X300019816Y-57787546D01*
X301178927Y-57476963D01*
X301178927Y-57476963D01*
G37*
G36*
X303201681Y-93297426D02*
X303512264Y-94456537D01*
X302353153Y-94767120D01*
X302042570Y-93608009D01*
X303201681Y-93297426D01*
X303201681Y-93297426D01*
G37*
G36*
X306244347Y-92482146D02*
X306554930Y-93641257D01*
X305395819Y-93951840D01*
X305085236Y-92792729D01*
X306244347Y-92482146D01*
X306244347Y-92482146D01*
G37*
G36*
X328081952Y-87247090D02*
X328392535Y-88406201D01*
X327233424Y-88716784D01*
X326922841Y-87557673D01*
X328081952Y-87247090D01*
X328081952Y-87247090D01*
G37*
G36*
X331124618Y-86431810D02*
X331435201Y-87590921D01*
X330276090Y-87901504D01*
X329965507Y-86742393D01*
X331124618Y-86431810D01*
X331124618Y-86431810D01*
G37*
G36*
X258373814Y-29502536D02*
X258684397Y-30661647D01*
X257525286Y-30972230D01*
X257214703Y-29813119D01*
X258373814Y-29502536D01*
X258373814Y-29502536D01*
G37*
G36*
X261416480Y-28687256D02*
X261727063Y-29846367D01*
X260567952Y-30156950D01*
X260257369Y-28997839D01*
X261416480Y-28687256D01*
X261416480Y-28687256D01*
G37*
G36*
X263304317Y-47903424D02*
X263614900Y-49062535D01*
X262455789Y-49373118D01*
X262145206Y-48214007D01*
X263304317Y-47903424D01*
X263304317Y-47903424D01*
G37*
G36*
X266346983Y-47088144D02*
X266657566Y-48247255D01*
X265498455Y-48557838D01*
X265187872Y-47398727D01*
X266346983Y-47088144D01*
X266346983Y-47088144D01*
G37*
G36*
X268234820Y-66304310D02*
X268545403Y-67463421D01*
X267386292Y-67774004D01*
X267075709Y-66614893D01*
X268234820Y-66304310D01*
X268234820Y-66304310D01*
G37*
G36*
X271277486Y-65489030D02*
X271588069Y-66648141D01*
X270428958Y-66958724D01*
X270118375Y-65799613D01*
X271277486Y-65489030D01*
X271277486Y-65489030D01*
G37*
G36*
X273165323Y-84705197D02*
X273475906Y-85864308D01*
X272316795Y-86174891D01*
X272006212Y-85015780D01*
X273165323Y-84705197D01*
X273165323Y-84705197D01*
G37*
G36*
X276207989Y-83889917D02*
X276518572Y-85049028D01*
X275359461Y-85359611D01*
X275048878Y-84200500D01*
X276207989Y-83889917D01*
X276207989Y-83889917D01*
G37*
D11*
X177825000Y-37618750D03*
X184125000Y-37618750D03*
X177825000Y-33818750D03*
X184125000Y-33818750D03*
M02*
